G75*
G70*
%OFA0B0*%
%FSLAX24Y24*%
%IPPOS*%
%LPD*%
%AMOC8*
5,1,8,0,0,1.08239X$1,22.5*
%
%ADD10C,0.0000*%
%ADD11C,0.0110*%
%ADD12C,0.0080*%
%ADD13R,0.0300X0.0340*%
%ADD14C,0.0040*%
%ADD15C,0.0060*%
%ADD16C,0.0020*%
%ADD17C,0.0050*%
%ADD18R,0.0250X0.0900*%
D10*
X001225Y000975D02*
X001225Y040945D01*
X061217Y040945D01*
X061217Y000975D01*
X001225Y000975D01*
X003025Y003475D02*
X003027Y003527D01*
X003033Y003579D01*
X003043Y003631D01*
X003056Y003681D01*
X003073Y003731D01*
X003094Y003779D01*
X003119Y003825D01*
X003147Y003869D01*
X003178Y003911D01*
X003212Y003951D01*
X003249Y003988D01*
X003289Y004022D01*
X003331Y004053D01*
X003375Y004081D01*
X003421Y004106D01*
X003469Y004127D01*
X003519Y004144D01*
X003569Y004157D01*
X003621Y004167D01*
X003673Y004173D01*
X003725Y004175D01*
X003777Y004173D01*
X003829Y004167D01*
X003881Y004157D01*
X003931Y004144D01*
X003981Y004127D01*
X004029Y004106D01*
X004075Y004081D01*
X004119Y004053D01*
X004161Y004022D01*
X004201Y003988D01*
X004238Y003951D01*
X004272Y003911D01*
X004303Y003869D01*
X004331Y003825D01*
X004356Y003779D01*
X004377Y003731D01*
X004394Y003681D01*
X004407Y003631D01*
X004417Y003579D01*
X004423Y003527D01*
X004425Y003475D01*
X004423Y003423D01*
X004417Y003371D01*
X004407Y003319D01*
X004394Y003269D01*
X004377Y003219D01*
X004356Y003171D01*
X004331Y003125D01*
X004303Y003081D01*
X004272Y003039D01*
X004238Y002999D01*
X004201Y002962D01*
X004161Y002928D01*
X004119Y002897D01*
X004075Y002869D01*
X004029Y002844D01*
X003981Y002823D01*
X003931Y002806D01*
X003881Y002793D01*
X003829Y002783D01*
X003777Y002777D01*
X003725Y002775D01*
X003673Y002777D01*
X003621Y002783D01*
X003569Y002793D01*
X003519Y002806D01*
X003469Y002823D01*
X003421Y002844D01*
X003375Y002869D01*
X003331Y002897D01*
X003289Y002928D01*
X003249Y002962D01*
X003212Y002999D01*
X003178Y003039D01*
X003147Y003081D01*
X003119Y003125D01*
X003094Y003171D01*
X003073Y003219D01*
X003056Y003269D01*
X003043Y003319D01*
X003033Y003371D01*
X003027Y003423D01*
X003025Y003475D01*
X007245Y003855D02*
X007247Y003903D01*
X007253Y003951D01*
X007263Y003998D01*
X007276Y004044D01*
X007293Y004089D01*
X007314Y004132D01*
X007339Y004174D01*
X007366Y004213D01*
X007397Y004250D01*
X007431Y004285D01*
X007467Y004316D01*
X007506Y004345D01*
X007547Y004370D01*
X007590Y004392D01*
X007634Y004410D01*
X007680Y004424D01*
X007727Y004435D01*
X007775Y004442D01*
X007823Y004445D01*
X007871Y004444D01*
X007919Y004439D01*
X007966Y004430D01*
X008013Y004418D01*
X008058Y004401D01*
X008102Y004381D01*
X008144Y004358D01*
X008184Y004331D01*
X008221Y004301D01*
X008256Y004268D01*
X008289Y004232D01*
X008318Y004194D01*
X008344Y004153D01*
X008367Y004111D01*
X008386Y004067D01*
X008401Y004021D01*
X008413Y003975D01*
X008421Y003927D01*
X008425Y003879D01*
X008425Y003831D01*
X008421Y003783D01*
X008413Y003735D01*
X008401Y003689D01*
X008386Y003643D01*
X008367Y003599D01*
X008344Y003557D01*
X008318Y003516D01*
X008289Y003478D01*
X008256Y003442D01*
X008221Y003409D01*
X008184Y003379D01*
X008144Y003352D01*
X008102Y003329D01*
X008058Y003309D01*
X008013Y003292D01*
X007966Y003280D01*
X007919Y003271D01*
X007871Y003266D01*
X007823Y003265D01*
X007775Y003268D01*
X007727Y003275D01*
X007680Y003286D01*
X007634Y003300D01*
X007590Y003318D01*
X007547Y003340D01*
X007506Y003365D01*
X007467Y003394D01*
X007431Y003425D01*
X007397Y003460D01*
X007366Y003497D01*
X007339Y003536D01*
X007314Y003578D01*
X007293Y003621D01*
X007276Y003666D01*
X007263Y003712D01*
X007253Y003759D01*
X007247Y003807D01*
X007245Y003855D01*
X010535Y003855D02*
X010537Y003903D01*
X010543Y003951D01*
X010553Y003998D01*
X010566Y004044D01*
X010583Y004089D01*
X010604Y004132D01*
X010629Y004174D01*
X010656Y004213D01*
X010687Y004250D01*
X010721Y004285D01*
X010757Y004316D01*
X010796Y004345D01*
X010837Y004370D01*
X010880Y004392D01*
X010924Y004410D01*
X010970Y004424D01*
X011017Y004435D01*
X011065Y004442D01*
X011113Y004445D01*
X011161Y004444D01*
X011209Y004439D01*
X011256Y004430D01*
X011303Y004418D01*
X011348Y004401D01*
X011392Y004381D01*
X011434Y004358D01*
X011474Y004331D01*
X011511Y004301D01*
X011546Y004268D01*
X011579Y004232D01*
X011608Y004194D01*
X011634Y004153D01*
X011657Y004111D01*
X011676Y004067D01*
X011691Y004021D01*
X011703Y003975D01*
X011711Y003927D01*
X011715Y003879D01*
X011715Y003831D01*
X011711Y003783D01*
X011703Y003735D01*
X011691Y003689D01*
X011676Y003643D01*
X011657Y003599D01*
X011634Y003557D01*
X011608Y003516D01*
X011579Y003478D01*
X011546Y003442D01*
X011511Y003409D01*
X011474Y003379D01*
X011434Y003352D01*
X011392Y003329D01*
X011348Y003309D01*
X011303Y003292D01*
X011256Y003280D01*
X011209Y003271D01*
X011161Y003266D01*
X011113Y003265D01*
X011065Y003268D01*
X011017Y003275D01*
X010970Y003286D01*
X010924Y003300D01*
X010880Y003318D01*
X010837Y003340D01*
X010796Y003365D01*
X010757Y003394D01*
X010721Y003425D01*
X010687Y003460D01*
X010656Y003497D01*
X010629Y003536D01*
X010604Y003578D01*
X010583Y003621D01*
X010566Y003666D01*
X010553Y003712D01*
X010543Y003759D01*
X010537Y003807D01*
X010535Y003855D01*
X012245Y003855D02*
X012247Y003903D01*
X012253Y003951D01*
X012263Y003998D01*
X012276Y004044D01*
X012293Y004089D01*
X012314Y004132D01*
X012339Y004174D01*
X012366Y004213D01*
X012397Y004250D01*
X012431Y004285D01*
X012467Y004316D01*
X012506Y004345D01*
X012547Y004370D01*
X012590Y004392D01*
X012634Y004410D01*
X012680Y004424D01*
X012727Y004435D01*
X012775Y004442D01*
X012823Y004445D01*
X012871Y004444D01*
X012919Y004439D01*
X012966Y004430D01*
X013013Y004418D01*
X013058Y004401D01*
X013102Y004381D01*
X013144Y004358D01*
X013184Y004331D01*
X013221Y004301D01*
X013256Y004268D01*
X013289Y004232D01*
X013318Y004194D01*
X013344Y004153D01*
X013367Y004111D01*
X013386Y004067D01*
X013401Y004021D01*
X013413Y003975D01*
X013421Y003927D01*
X013425Y003879D01*
X013425Y003831D01*
X013421Y003783D01*
X013413Y003735D01*
X013401Y003689D01*
X013386Y003643D01*
X013367Y003599D01*
X013344Y003557D01*
X013318Y003516D01*
X013289Y003478D01*
X013256Y003442D01*
X013221Y003409D01*
X013184Y003379D01*
X013144Y003352D01*
X013102Y003329D01*
X013058Y003309D01*
X013013Y003292D01*
X012966Y003280D01*
X012919Y003271D01*
X012871Y003266D01*
X012823Y003265D01*
X012775Y003268D01*
X012727Y003275D01*
X012680Y003286D01*
X012634Y003300D01*
X012590Y003318D01*
X012547Y003340D01*
X012506Y003365D01*
X012467Y003394D01*
X012431Y003425D01*
X012397Y003460D01*
X012366Y003497D01*
X012339Y003536D01*
X012314Y003578D01*
X012293Y003621D01*
X012276Y003666D01*
X012263Y003712D01*
X012253Y003759D01*
X012247Y003807D01*
X012245Y003855D01*
X015535Y003855D02*
X015537Y003903D01*
X015543Y003951D01*
X015553Y003998D01*
X015566Y004044D01*
X015583Y004089D01*
X015604Y004132D01*
X015629Y004174D01*
X015656Y004213D01*
X015687Y004250D01*
X015721Y004285D01*
X015757Y004316D01*
X015796Y004345D01*
X015837Y004370D01*
X015880Y004392D01*
X015924Y004410D01*
X015970Y004424D01*
X016017Y004435D01*
X016065Y004442D01*
X016113Y004445D01*
X016161Y004444D01*
X016209Y004439D01*
X016256Y004430D01*
X016303Y004418D01*
X016348Y004401D01*
X016392Y004381D01*
X016434Y004358D01*
X016474Y004331D01*
X016511Y004301D01*
X016546Y004268D01*
X016579Y004232D01*
X016608Y004194D01*
X016634Y004153D01*
X016657Y004111D01*
X016676Y004067D01*
X016691Y004021D01*
X016703Y003975D01*
X016711Y003927D01*
X016715Y003879D01*
X016715Y003831D01*
X016711Y003783D01*
X016703Y003735D01*
X016691Y003689D01*
X016676Y003643D01*
X016657Y003599D01*
X016634Y003557D01*
X016608Y003516D01*
X016579Y003478D01*
X016546Y003442D01*
X016511Y003409D01*
X016474Y003379D01*
X016434Y003352D01*
X016392Y003329D01*
X016348Y003309D01*
X016303Y003292D01*
X016256Y003280D01*
X016209Y003271D01*
X016161Y003266D01*
X016113Y003265D01*
X016065Y003268D01*
X016017Y003275D01*
X015970Y003286D01*
X015924Y003300D01*
X015880Y003318D01*
X015837Y003340D01*
X015796Y003365D01*
X015757Y003394D01*
X015721Y003425D01*
X015687Y003460D01*
X015656Y003497D01*
X015629Y003536D01*
X015604Y003578D01*
X015583Y003621D01*
X015566Y003666D01*
X015553Y003712D01*
X015543Y003759D01*
X015537Y003807D01*
X015535Y003855D01*
X017245Y003855D02*
X017247Y003903D01*
X017253Y003951D01*
X017263Y003998D01*
X017276Y004044D01*
X017293Y004089D01*
X017314Y004132D01*
X017339Y004174D01*
X017366Y004213D01*
X017397Y004250D01*
X017431Y004285D01*
X017467Y004316D01*
X017506Y004345D01*
X017547Y004370D01*
X017590Y004392D01*
X017634Y004410D01*
X017680Y004424D01*
X017727Y004435D01*
X017775Y004442D01*
X017823Y004445D01*
X017871Y004444D01*
X017919Y004439D01*
X017966Y004430D01*
X018013Y004418D01*
X018058Y004401D01*
X018102Y004381D01*
X018144Y004358D01*
X018184Y004331D01*
X018221Y004301D01*
X018256Y004268D01*
X018289Y004232D01*
X018318Y004194D01*
X018344Y004153D01*
X018367Y004111D01*
X018386Y004067D01*
X018401Y004021D01*
X018413Y003975D01*
X018421Y003927D01*
X018425Y003879D01*
X018425Y003831D01*
X018421Y003783D01*
X018413Y003735D01*
X018401Y003689D01*
X018386Y003643D01*
X018367Y003599D01*
X018344Y003557D01*
X018318Y003516D01*
X018289Y003478D01*
X018256Y003442D01*
X018221Y003409D01*
X018184Y003379D01*
X018144Y003352D01*
X018102Y003329D01*
X018058Y003309D01*
X018013Y003292D01*
X017966Y003280D01*
X017919Y003271D01*
X017871Y003266D01*
X017823Y003265D01*
X017775Y003268D01*
X017727Y003275D01*
X017680Y003286D01*
X017634Y003300D01*
X017590Y003318D01*
X017547Y003340D01*
X017506Y003365D01*
X017467Y003394D01*
X017431Y003425D01*
X017397Y003460D01*
X017366Y003497D01*
X017339Y003536D01*
X017314Y003578D01*
X017293Y003621D01*
X017276Y003666D01*
X017263Y003712D01*
X017253Y003759D01*
X017247Y003807D01*
X017245Y003855D01*
X020535Y003855D02*
X020537Y003903D01*
X020543Y003951D01*
X020553Y003998D01*
X020566Y004044D01*
X020583Y004089D01*
X020604Y004132D01*
X020629Y004174D01*
X020656Y004213D01*
X020687Y004250D01*
X020721Y004285D01*
X020757Y004316D01*
X020796Y004345D01*
X020837Y004370D01*
X020880Y004392D01*
X020924Y004410D01*
X020970Y004424D01*
X021017Y004435D01*
X021065Y004442D01*
X021113Y004445D01*
X021161Y004444D01*
X021209Y004439D01*
X021256Y004430D01*
X021303Y004418D01*
X021348Y004401D01*
X021392Y004381D01*
X021434Y004358D01*
X021474Y004331D01*
X021511Y004301D01*
X021546Y004268D01*
X021579Y004232D01*
X021608Y004194D01*
X021634Y004153D01*
X021657Y004111D01*
X021676Y004067D01*
X021691Y004021D01*
X021703Y003975D01*
X021711Y003927D01*
X021715Y003879D01*
X021715Y003831D01*
X021711Y003783D01*
X021703Y003735D01*
X021691Y003689D01*
X021676Y003643D01*
X021657Y003599D01*
X021634Y003557D01*
X021608Y003516D01*
X021579Y003478D01*
X021546Y003442D01*
X021511Y003409D01*
X021474Y003379D01*
X021434Y003352D01*
X021392Y003329D01*
X021348Y003309D01*
X021303Y003292D01*
X021256Y003280D01*
X021209Y003271D01*
X021161Y003266D01*
X021113Y003265D01*
X021065Y003268D01*
X021017Y003275D01*
X020970Y003286D01*
X020924Y003300D01*
X020880Y003318D01*
X020837Y003340D01*
X020796Y003365D01*
X020757Y003394D01*
X020721Y003425D01*
X020687Y003460D01*
X020656Y003497D01*
X020629Y003536D01*
X020604Y003578D01*
X020583Y003621D01*
X020566Y003666D01*
X020553Y003712D01*
X020543Y003759D01*
X020537Y003807D01*
X020535Y003855D01*
X024245Y003855D02*
X024247Y003903D01*
X024253Y003951D01*
X024263Y003998D01*
X024276Y004044D01*
X024293Y004089D01*
X024314Y004132D01*
X024339Y004174D01*
X024366Y004213D01*
X024397Y004250D01*
X024431Y004285D01*
X024467Y004316D01*
X024506Y004345D01*
X024547Y004370D01*
X024590Y004392D01*
X024634Y004410D01*
X024680Y004424D01*
X024727Y004435D01*
X024775Y004442D01*
X024823Y004445D01*
X024871Y004444D01*
X024919Y004439D01*
X024966Y004430D01*
X025013Y004418D01*
X025058Y004401D01*
X025102Y004381D01*
X025144Y004358D01*
X025184Y004331D01*
X025221Y004301D01*
X025256Y004268D01*
X025289Y004232D01*
X025318Y004194D01*
X025344Y004153D01*
X025367Y004111D01*
X025386Y004067D01*
X025401Y004021D01*
X025413Y003975D01*
X025421Y003927D01*
X025425Y003879D01*
X025425Y003831D01*
X025421Y003783D01*
X025413Y003735D01*
X025401Y003689D01*
X025386Y003643D01*
X025367Y003599D01*
X025344Y003557D01*
X025318Y003516D01*
X025289Y003478D01*
X025256Y003442D01*
X025221Y003409D01*
X025184Y003379D01*
X025144Y003352D01*
X025102Y003329D01*
X025058Y003309D01*
X025013Y003292D01*
X024966Y003280D01*
X024919Y003271D01*
X024871Y003266D01*
X024823Y003265D01*
X024775Y003268D01*
X024727Y003275D01*
X024680Y003286D01*
X024634Y003300D01*
X024590Y003318D01*
X024547Y003340D01*
X024506Y003365D01*
X024467Y003394D01*
X024431Y003425D01*
X024397Y003460D01*
X024366Y003497D01*
X024339Y003536D01*
X024314Y003578D01*
X024293Y003621D01*
X024276Y003666D01*
X024263Y003712D01*
X024253Y003759D01*
X024247Y003807D01*
X024245Y003855D01*
X027535Y003855D02*
X027537Y003903D01*
X027543Y003951D01*
X027553Y003998D01*
X027566Y004044D01*
X027583Y004089D01*
X027604Y004132D01*
X027629Y004174D01*
X027656Y004213D01*
X027687Y004250D01*
X027721Y004285D01*
X027757Y004316D01*
X027796Y004345D01*
X027837Y004370D01*
X027880Y004392D01*
X027924Y004410D01*
X027970Y004424D01*
X028017Y004435D01*
X028065Y004442D01*
X028113Y004445D01*
X028161Y004444D01*
X028209Y004439D01*
X028256Y004430D01*
X028303Y004418D01*
X028348Y004401D01*
X028392Y004381D01*
X028434Y004358D01*
X028474Y004331D01*
X028511Y004301D01*
X028546Y004268D01*
X028579Y004232D01*
X028608Y004194D01*
X028634Y004153D01*
X028657Y004111D01*
X028676Y004067D01*
X028691Y004021D01*
X028703Y003975D01*
X028711Y003927D01*
X028715Y003879D01*
X028715Y003831D01*
X028711Y003783D01*
X028703Y003735D01*
X028691Y003689D01*
X028676Y003643D01*
X028657Y003599D01*
X028634Y003557D01*
X028608Y003516D01*
X028579Y003478D01*
X028546Y003442D01*
X028511Y003409D01*
X028474Y003379D01*
X028434Y003352D01*
X028392Y003329D01*
X028348Y003309D01*
X028303Y003292D01*
X028256Y003280D01*
X028209Y003271D01*
X028161Y003266D01*
X028113Y003265D01*
X028065Y003268D01*
X028017Y003275D01*
X027970Y003286D01*
X027924Y003300D01*
X027880Y003318D01*
X027837Y003340D01*
X027796Y003365D01*
X027757Y003394D01*
X027721Y003425D01*
X027687Y003460D01*
X027656Y003497D01*
X027629Y003536D01*
X027604Y003578D01*
X027583Y003621D01*
X027566Y003666D01*
X027553Y003712D01*
X027543Y003759D01*
X027537Y003807D01*
X027535Y003855D01*
X029245Y003855D02*
X029247Y003903D01*
X029253Y003951D01*
X029263Y003998D01*
X029276Y004044D01*
X029293Y004089D01*
X029314Y004132D01*
X029339Y004174D01*
X029366Y004213D01*
X029397Y004250D01*
X029431Y004285D01*
X029467Y004316D01*
X029506Y004345D01*
X029547Y004370D01*
X029590Y004392D01*
X029634Y004410D01*
X029680Y004424D01*
X029727Y004435D01*
X029775Y004442D01*
X029823Y004445D01*
X029871Y004444D01*
X029919Y004439D01*
X029966Y004430D01*
X030013Y004418D01*
X030058Y004401D01*
X030102Y004381D01*
X030144Y004358D01*
X030184Y004331D01*
X030221Y004301D01*
X030256Y004268D01*
X030289Y004232D01*
X030318Y004194D01*
X030344Y004153D01*
X030367Y004111D01*
X030386Y004067D01*
X030401Y004021D01*
X030413Y003975D01*
X030421Y003927D01*
X030425Y003879D01*
X030425Y003831D01*
X030421Y003783D01*
X030413Y003735D01*
X030401Y003689D01*
X030386Y003643D01*
X030367Y003599D01*
X030344Y003557D01*
X030318Y003516D01*
X030289Y003478D01*
X030256Y003442D01*
X030221Y003409D01*
X030184Y003379D01*
X030144Y003352D01*
X030102Y003329D01*
X030058Y003309D01*
X030013Y003292D01*
X029966Y003280D01*
X029919Y003271D01*
X029871Y003266D01*
X029823Y003265D01*
X029775Y003268D01*
X029727Y003275D01*
X029680Y003286D01*
X029634Y003300D01*
X029590Y003318D01*
X029547Y003340D01*
X029506Y003365D01*
X029467Y003394D01*
X029431Y003425D01*
X029397Y003460D01*
X029366Y003497D01*
X029339Y003536D01*
X029314Y003578D01*
X029293Y003621D01*
X029276Y003666D01*
X029263Y003712D01*
X029253Y003759D01*
X029247Y003807D01*
X029245Y003855D01*
X032535Y003855D02*
X032537Y003903D01*
X032543Y003951D01*
X032553Y003998D01*
X032566Y004044D01*
X032583Y004089D01*
X032604Y004132D01*
X032629Y004174D01*
X032656Y004213D01*
X032687Y004250D01*
X032721Y004285D01*
X032757Y004316D01*
X032796Y004345D01*
X032837Y004370D01*
X032880Y004392D01*
X032924Y004410D01*
X032970Y004424D01*
X033017Y004435D01*
X033065Y004442D01*
X033113Y004445D01*
X033161Y004444D01*
X033209Y004439D01*
X033256Y004430D01*
X033303Y004418D01*
X033348Y004401D01*
X033392Y004381D01*
X033434Y004358D01*
X033474Y004331D01*
X033511Y004301D01*
X033546Y004268D01*
X033579Y004232D01*
X033608Y004194D01*
X033634Y004153D01*
X033657Y004111D01*
X033676Y004067D01*
X033691Y004021D01*
X033703Y003975D01*
X033711Y003927D01*
X033715Y003879D01*
X033715Y003831D01*
X033711Y003783D01*
X033703Y003735D01*
X033691Y003689D01*
X033676Y003643D01*
X033657Y003599D01*
X033634Y003557D01*
X033608Y003516D01*
X033579Y003478D01*
X033546Y003442D01*
X033511Y003409D01*
X033474Y003379D01*
X033434Y003352D01*
X033392Y003329D01*
X033348Y003309D01*
X033303Y003292D01*
X033256Y003280D01*
X033209Y003271D01*
X033161Y003266D01*
X033113Y003265D01*
X033065Y003268D01*
X033017Y003275D01*
X032970Y003286D01*
X032924Y003300D01*
X032880Y003318D01*
X032837Y003340D01*
X032796Y003365D01*
X032757Y003394D01*
X032721Y003425D01*
X032687Y003460D01*
X032656Y003497D01*
X032629Y003536D01*
X032604Y003578D01*
X032583Y003621D01*
X032566Y003666D01*
X032553Y003712D01*
X032543Y003759D01*
X032537Y003807D01*
X032535Y003855D01*
X034245Y003855D02*
X034247Y003903D01*
X034253Y003951D01*
X034263Y003998D01*
X034276Y004044D01*
X034293Y004089D01*
X034314Y004132D01*
X034339Y004174D01*
X034366Y004213D01*
X034397Y004250D01*
X034431Y004285D01*
X034467Y004316D01*
X034506Y004345D01*
X034547Y004370D01*
X034590Y004392D01*
X034634Y004410D01*
X034680Y004424D01*
X034727Y004435D01*
X034775Y004442D01*
X034823Y004445D01*
X034871Y004444D01*
X034919Y004439D01*
X034966Y004430D01*
X035013Y004418D01*
X035058Y004401D01*
X035102Y004381D01*
X035144Y004358D01*
X035184Y004331D01*
X035221Y004301D01*
X035256Y004268D01*
X035289Y004232D01*
X035318Y004194D01*
X035344Y004153D01*
X035367Y004111D01*
X035386Y004067D01*
X035401Y004021D01*
X035413Y003975D01*
X035421Y003927D01*
X035425Y003879D01*
X035425Y003831D01*
X035421Y003783D01*
X035413Y003735D01*
X035401Y003689D01*
X035386Y003643D01*
X035367Y003599D01*
X035344Y003557D01*
X035318Y003516D01*
X035289Y003478D01*
X035256Y003442D01*
X035221Y003409D01*
X035184Y003379D01*
X035144Y003352D01*
X035102Y003329D01*
X035058Y003309D01*
X035013Y003292D01*
X034966Y003280D01*
X034919Y003271D01*
X034871Y003266D01*
X034823Y003265D01*
X034775Y003268D01*
X034727Y003275D01*
X034680Y003286D01*
X034634Y003300D01*
X034590Y003318D01*
X034547Y003340D01*
X034506Y003365D01*
X034467Y003394D01*
X034431Y003425D01*
X034397Y003460D01*
X034366Y003497D01*
X034339Y003536D01*
X034314Y003578D01*
X034293Y003621D01*
X034276Y003666D01*
X034263Y003712D01*
X034253Y003759D01*
X034247Y003807D01*
X034245Y003855D01*
X037535Y003855D02*
X037537Y003903D01*
X037543Y003951D01*
X037553Y003998D01*
X037566Y004044D01*
X037583Y004089D01*
X037604Y004132D01*
X037629Y004174D01*
X037656Y004213D01*
X037687Y004250D01*
X037721Y004285D01*
X037757Y004316D01*
X037796Y004345D01*
X037837Y004370D01*
X037880Y004392D01*
X037924Y004410D01*
X037970Y004424D01*
X038017Y004435D01*
X038065Y004442D01*
X038113Y004445D01*
X038161Y004444D01*
X038209Y004439D01*
X038256Y004430D01*
X038303Y004418D01*
X038348Y004401D01*
X038392Y004381D01*
X038434Y004358D01*
X038474Y004331D01*
X038511Y004301D01*
X038546Y004268D01*
X038579Y004232D01*
X038608Y004194D01*
X038634Y004153D01*
X038657Y004111D01*
X038676Y004067D01*
X038691Y004021D01*
X038703Y003975D01*
X038711Y003927D01*
X038715Y003879D01*
X038715Y003831D01*
X038711Y003783D01*
X038703Y003735D01*
X038691Y003689D01*
X038676Y003643D01*
X038657Y003599D01*
X038634Y003557D01*
X038608Y003516D01*
X038579Y003478D01*
X038546Y003442D01*
X038511Y003409D01*
X038474Y003379D01*
X038434Y003352D01*
X038392Y003329D01*
X038348Y003309D01*
X038303Y003292D01*
X038256Y003280D01*
X038209Y003271D01*
X038161Y003266D01*
X038113Y003265D01*
X038065Y003268D01*
X038017Y003275D01*
X037970Y003286D01*
X037924Y003300D01*
X037880Y003318D01*
X037837Y003340D01*
X037796Y003365D01*
X037757Y003394D01*
X037721Y003425D01*
X037687Y003460D01*
X037656Y003497D01*
X037629Y003536D01*
X037604Y003578D01*
X037583Y003621D01*
X037566Y003666D01*
X037553Y003712D01*
X037543Y003759D01*
X037537Y003807D01*
X037535Y003855D01*
X041245Y003855D02*
X041247Y003903D01*
X041253Y003951D01*
X041263Y003998D01*
X041276Y004044D01*
X041293Y004089D01*
X041314Y004132D01*
X041339Y004174D01*
X041366Y004213D01*
X041397Y004250D01*
X041431Y004285D01*
X041467Y004316D01*
X041506Y004345D01*
X041547Y004370D01*
X041590Y004392D01*
X041634Y004410D01*
X041680Y004424D01*
X041727Y004435D01*
X041775Y004442D01*
X041823Y004445D01*
X041871Y004444D01*
X041919Y004439D01*
X041966Y004430D01*
X042013Y004418D01*
X042058Y004401D01*
X042102Y004381D01*
X042144Y004358D01*
X042184Y004331D01*
X042221Y004301D01*
X042256Y004268D01*
X042289Y004232D01*
X042318Y004194D01*
X042344Y004153D01*
X042367Y004111D01*
X042386Y004067D01*
X042401Y004021D01*
X042413Y003975D01*
X042421Y003927D01*
X042425Y003879D01*
X042425Y003831D01*
X042421Y003783D01*
X042413Y003735D01*
X042401Y003689D01*
X042386Y003643D01*
X042367Y003599D01*
X042344Y003557D01*
X042318Y003516D01*
X042289Y003478D01*
X042256Y003442D01*
X042221Y003409D01*
X042184Y003379D01*
X042144Y003352D01*
X042102Y003329D01*
X042058Y003309D01*
X042013Y003292D01*
X041966Y003280D01*
X041919Y003271D01*
X041871Y003266D01*
X041823Y003265D01*
X041775Y003268D01*
X041727Y003275D01*
X041680Y003286D01*
X041634Y003300D01*
X041590Y003318D01*
X041547Y003340D01*
X041506Y003365D01*
X041467Y003394D01*
X041431Y003425D01*
X041397Y003460D01*
X041366Y003497D01*
X041339Y003536D01*
X041314Y003578D01*
X041293Y003621D01*
X041276Y003666D01*
X041263Y003712D01*
X041253Y003759D01*
X041247Y003807D01*
X041245Y003855D01*
X044535Y003855D02*
X044537Y003903D01*
X044543Y003951D01*
X044553Y003998D01*
X044566Y004044D01*
X044583Y004089D01*
X044604Y004132D01*
X044629Y004174D01*
X044656Y004213D01*
X044687Y004250D01*
X044721Y004285D01*
X044757Y004316D01*
X044796Y004345D01*
X044837Y004370D01*
X044880Y004392D01*
X044924Y004410D01*
X044970Y004424D01*
X045017Y004435D01*
X045065Y004442D01*
X045113Y004445D01*
X045161Y004444D01*
X045209Y004439D01*
X045256Y004430D01*
X045303Y004418D01*
X045348Y004401D01*
X045392Y004381D01*
X045434Y004358D01*
X045474Y004331D01*
X045511Y004301D01*
X045546Y004268D01*
X045579Y004232D01*
X045608Y004194D01*
X045634Y004153D01*
X045657Y004111D01*
X045676Y004067D01*
X045691Y004021D01*
X045703Y003975D01*
X045711Y003927D01*
X045715Y003879D01*
X045715Y003831D01*
X045711Y003783D01*
X045703Y003735D01*
X045691Y003689D01*
X045676Y003643D01*
X045657Y003599D01*
X045634Y003557D01*
X045608Y003516D01*
X045579Y003478D01*
X045546Y003442D01*
X045511Y003409D01*
X045474Y003379D01*
X045434Y003352D01*
X045392Y003329D01*
X045348Y003309D01*
X045303Y003292D01*
X045256Y003280D01*
X045209Y003271D01*
X045161Y003266D01*
X045113Y003265D01*
X045065Y003268D01*
X045017Y003275D01*
X044970Y003286D01*
X044924Y003300D01*
X044880Y003318D01*
X044837Y003340D01*
X044796Y003365D01*
X044757Y003394D01*
X044721Y003425D01*
X044687Y003460D01*
X044656Y003497D01*
X044629Y003536D01*
X044604Y003578D01*
X044583Y003621D01*
X044566Y003666D01*
X044553Y003712D01*
X044543Y003759D01*
X044537Y003807D01*
X044535Y003855D01*
X046245Y003855D02*
X046247Y003903D01*
X046253Y003951D01*
X046263Y003998D01*
X046276Y004044D01*
X046293Y004089D01*
X046314Y004132D01*
X046339Y004174D01*
X046366Y004213D01*
X046397Y004250D01*
X046431Y004285D01*
X046467Y004316D01*
X046506Y004345D01*
X046547Y004370D01*
X046590Y004392D01*
X046634Y004410D01*
X046680Y004424D01*
X046727Y004435D01*
X046775Y004442D01*
X046823Y004445D01*
X046871Y004444D01*
X046919Y004439D01*
X046966Y004430D01*
X047013Y004418D01*
X047058Y004401D01*
X047102Y004381D01*
X047144Y004358D01*
X047184Y004331D01*
X047221Y004301D01*
X047256Y004268D01*
X047289Y004232D01*
X047318Y004194D01*
X047344Y004153D01*
X047367Y004111D01*
X047386Y004067D01*
X047401Y004021D01*
X047413Y003975D01*
X047421Y003927D01*
X047425Y003879D01*
X047425Y003831D01*
X047421Y003783D01*
X047413Y003735D01*
X047401Y003689D01*
X047386Y003643D01*
X047367Y003599D01*
X047344Y003557D01*
X047318Y003516D01*
X047289Y003478D01*
X047256Y003442D01*
X047221Y003409D01*
X047184Y003379D01*
X047144Y003352D01*
X047102Y003329D01*
X047058Y003309D01*
X047013Y003292D01*
X046966Y003280D01*
X046919Y003271D01*
X046871Y003266D01*
X046823Y003265D01*
X046775Y003268D01*
X046727Y003275D01*
X046680Y003286D01*
X046634Y003300D01*
X046590Y003318D01*
X046547Y003340D01*
X046506Y003365D01*
X046467Y003394D01*
X046431Y003425D01*
X046397Y003460D01*
X046366Y003497D01*
X046339Y003536D01*
X046314Y003578D01*
X046293Y003621D01*
X046276Y003666D01*
X046263Y003712D01*
X046253Y003759D01*
X046247Y003807D01*
X046245Y003855D01*
X049535Y003855D02*
X049537Y003903D01*
X049543Y003951D01*
X049553Y003998D01*
X049566Y004044D01*
X049583Y004089D01*
X049604Y004132D01*
X049629Y004174D01*
X049656Y004213D01*
X049687Y004250D01*
X049721Y004285D01*
X049757Y004316D01*
X049796Y004345D01*
X049837Y004370D01*
X049880Y004392D01*
X049924Y004410D01*
X049970Y004424D01*
X050017Y004435D01*
X050065Y004442D01*
X050113Y004445D01*
X050161Y004444D01*
X050209Y004439D01*
X050256Y004430D01*
X050303Y004418D01*
X050348Y004401D01*
X050392Y004381D01*
X050434Y004358D01*
X050474Y004331D01*
X050511Y004301D01*
X050546Y004268D01*
X050579Y004232D01*
X050608Y004194D01*
X050634Y004153D01*
X050657Y004111D01*
X050676Y004067D01*
X050691Y004021D01*
X050703Y003975D01*
X050711Y003927D01*
X050715Y003879D01*
X050715Y003831D01*
X050711Y003783D01*
X050703Y003735D01*
X050691Y003689D01*
X050676Y003643D01*
X050657Y003599D01*
X050634Y003557D01*
X050608Y003516D01*
X050579Y003478D01*
X050546Y003442D01*
X050511Y003409D01*
X050474Y003379D01*
X050434Y003352D01*
X050392Y003329D01*
X050348Y003309D01*
X050303Y003292D01*
X050256Y003280D01*
X050209Y003271D01*
X050161Y003266D01*
X050113Y003265D01*
X050065Y003268D01*
X050017Y003275D01*
X049970Y003286D01*
X049924Y003300D01*
X049880Y003318D01*
X049837Y003340D01*
X049796Y003365D01*
X049757Y003394D01*
X049721Y003425D01*
X049687Y003460D01*
X049656Y003497D01*
X049629Y003536D01*
X049604Y003578D01*
X049583Y003621D01*
X049566Y003666D01*
X049553Y003712D01*
X049543Y003759D01*
X049537Y003807D01*
X049535Y003855D01*
X051245Y003855D02*
X051247Y003903D01*
X051253Y003951D01*
X051263Y003998D01*
X051276Y004044D01*
X051293Y004089D01*
X051314Y004132D01*
X051339Y004174D01*
X051366Y004213D01*
X051397Y004250D01*
X051431Y004285D01*
X051467Y004316D01*
X051506Y004345D01*
X051547Y004370D01*
X051590Y004392D01*
X051634Y004410D01*
X051680Y004424D01*
X051727Y004435D01*
X051775Y004442D01*
X051823Y004445D01*
X051871Y004444D01*
X051919Y004439D01*
X051966Y004430D01*
X052013Y004418D01*
X052058Y004401D01*
X052102Y004381D01*
X052144Y004358D01*
X052184Y004331D01*
X052221Y004301D01*
X052256Y004268D01*
X052289Y004232D01*
X052318Y004194D01*
X052344Y004153D01*
X052367Y004111D01*
X052386Y004067D01*
X052401Y004021D01*
X052413Y003975D01*
X052421Y003927D01*
X052425Y003879D01*
X052425Y003831D01*
X052421Y003783D01*
X052413Y003735D01*
X052401Y003689D01*
X052386Y003643D01*
X052367Y003599D01*
X052344Y003557D01*
X052318Y003516D01*
X052289Y003478D01*
X052256Y003442D01*
X052221Y003409D01*
X052184Y003379D01*
X052144Y003352D01*
X052102Y003329D01*
X052058Y003309D01*
X052013Y003292D01*
X051966Y003280D01*
X051919Y003271D01*
X051871Y003266D01*
X051823Y003265D01*
X051775Y003268D01*
X051727Y003275D01*
X051680Y003286D01*
X051634Y003300D01*
X051590Y003318D01*
X051547Y003340D01*
X051506Y003365D01*
X051467Y003394D01*
X051431Y003425D01*
X051397Y003460D01*
X051366Y003497D01*
X051339Y003536D01*
X051314Y003578D01*
X051293Y003621D01*
X051276Y003666D01*
X051263Y003712D01*
X051253Y003759D01*
X051247Y003807D01*
X051245Y003855D01*
X054535Y003855D02*
X054537Y003903D01*
X054543Y003951D01*
X054553Y003998D01*
X054566Y004044D01*
X054583Y004089D01*
X054604Y004132D01*
X054629Y004174D01*
X054656Y004213D01*
X054687Y004250D01*
X054721Y004285D01*
X054757Y004316D01*
X054796Y004345D01*
X054837Y004370D01*
X054880Y004392D01*
X054924Y004410D01*
X054970Y004424D01*
X055017Y004435D01*
X055065Y004442D01*
X055113Y004445D01*
X055161Y004444D01*
X055209Y004439D01*
X055256Y004430D01*
X055303Y004418D01*
X055348Y004401D01*
X055392Y004381D01*
X055434Y004358D01*
X055474Y004331D01*
X055511Y004301D01*
X055546Y004268D01*
X055579Y004232D01*
X055608Y004194D01*
X055634Y004153D01*
X055657Y004111D01*
X055676Y004067D01*
X055691Y004021D01*
X055703Y003975D01*
X055711Y003927D01*
X055715Y003879D01*
X055715Y003831D01*
X055711Y003783D01*
X055703Y003735D01*
X055691Y003689D01*
X055676Y003643D01*
X055657Y003599D01*
X055634Y003557D01*
X055608Y003516D01*
X055579Y003478D01*
X055546Y003442D01*
X055511Y003409D01*
X055474Y003379D01*
X055434Y003352D01*
X055392Y003329D01*
X055348Y003309D01*
X055303Y003292D01*
X055256Y003280D01*
X055209Y003271D01*
X055161Y003266D01*
X055113Y003265D01*
X055065Y003268D01*
X055017Y003275D01*
X054970Y003286D01*
X054924Y003300D01*
X054880Y003318D01*
X054837Y003340D01*
X054796Y003365D01*
X054757Y003394D01*
X054721Y003425D01*
X054687Y003460D01*
X054656Y003497D01*
X054629Y003536D01*
X054604Y003578D01*
X054583Y003621D01*
X054566Y003666D01*
X054553Y003712D01*
X054543Y003759D01*
X054537Y003807D01*
X054535Y003855D01*
X058025Y003475D02*
X058027Y003527D01*
X058033Y003579D01*
X058043Y003631D01*
X058056Y003681D01*
X058073Y003731D01*
X058094Y003779D01*
X058119Y003825D01*
X058147Y003869D01*
X058178Y003911D01*
X058212Y003951D01*
X058249Y003988D01*
X058289Y004022D01*
X058331Y004053D01*
X058375Y004081D01*
X058421Y004106D01*
X058469Y004127D01*
X058519Y004144D01*
X058569Y004157D01*
X058621Y004167D01*
X058673Y004173D01*
X058725Y004175D01*
X058777Y004173D01*
X058829Y004167D01*
X058881Y004157D01*
X058931Y004144D01*
X058981Y004127D01*
X059029Y004106D01*
X059075Y004081D01*
X059119Y004053D01*
X059161Y004022D01*
X059201Y003988D01*
X059238Y003951D01*
X059272Y003911D01*
X059303Y003869D01*
X059331Y003825D01*
X059356Y003779D01*
X059377Y003731D01*
X059394Y003681D01*
X059407Y003631D01*
X059417Y003579D01*
X059423Y003527D01*
X059425Y003475D01*
X059423Y003423D01*
X059417Y003371D01*
X059407Y003319D01*
X059394Y003269D01*
X059377Y003219D01*
X059356Y003171D01*
X059331Y003125D01*
X059303Y003081D01*
X059272Y003039D01*
X059238Y002999D01*
X059201Y002962D01*
X059161Y002928D01*
X059119Y002897D01*
X059075Y002869D01*
X059029Y002844D01*
X058981Y002823D01*
X058931Y002806D01*
X058881Y002793D01*
X058829Y002783D01*
X058777Y002777D01*
X058725Y002775D01*
X058673Y002777D01*
X058621Y002783D01*
X058569Y002793D01*
X058519Y002806D01*
X058469Y002823D01*
X058421Y002844D01*
X058375Y002869D01*
X058331Y002897D01*
X058289Y002928D01*
X058249Y002962D01*
X058212Y002999D01*
X058178Y003039D01*
X058147Y003081D01*
X058119Y003125D01*
X058094Y003171D01*
X058073Y003219D01*
X058056Y003269D01*
X058043Y003319D01*
X058033Y003371D01*
X058027Y003423D01*
X058025Y003475D01*
X046560Y035975D02*
X046562Y036015D01*
X046568Y036056D01*
X046578Y036095D01*
X046591Y036133D01*
X046609Y036170D01*
X046630Y036204D01*
X046654Y036237D01*
X046681Y036267D01*
X046711Y036294D01*
X046744Y036318D01*
X046778Y036339D01*
X046815Y036357D01*
X046853Y036370D01*
X046892Y036380D01*
X046933Y036386D01*
X046973Y036388D01*
X047013Y036386D01*
X047054Y036380D01*
X047093Y036370D01*
X047131Y036357D01*
X047168Y036339D01*
X047202Y036318D01*
X047235Y036294D01*
X047265Y036267D01*
X047292Y036237D01*
X047316Y036204D01*
X047337Y036170D01*
X047355Y036133D01*
X047368Y036095D01*
X047378Y036056D01*
X047384Y036015D01*
X047386Y035975D01*
X047384Y035935D01*
X047378Y035894D01*
X047368Y035855D01*
X047355Y035817D01*
X047337Y035780D01*
X047316Y035746D01*
X047292Y035713D01*
X047265Y035683D01*
X047235Y035656D01*
X047202Y035632D01*
X047168Y035611D01*
X047131Y035593D01*
X047093Y035580D01*
X047054Y035570D01*
X047013Y035564D01*
X046973Y035562D01*
X046933Y035564D01*
X046892Y035570D01*
X046853Y035580D01*
X046815Y035593D01*
X046778Y035611D01*
X046744Y035632D01*
X046711Y035656D01*
X046681Y035683D01*
X046654Y035713D01*
X046630Y035746D01*
X046609Y035780D01*
X046591Y035817D01*
X046578Y035855D01*
X046568Y035894D01*
X046562Y035935D01*
X046560Y035975D01*
X046562Y036015D01*
X046568Y036056D01*
X046578Y036095D01*
X046591Y036133D01*
X046609Y036170D01*
X046630Y036204D01*
X046654Y036237D01*
X046681Y036267D01*
X046711Y036294D01*
X046744Y036318D01*
X046778Y036339D01*
X046815Y036357D01*
X046853Y036370D01*
X046892Y036380D01*
X046933Y036386D01*
X046973Y036388D01*
X047013Y036386D01*
X047054Y036380D01*
X047093Y036370D01*
X047131Y036357D01*
X047168Y036339D01*
X047202Y036318D01*
X047235Y036294D01*
X047265Y036267D01*
X047292Y036237D01*
X047316Y036204D01*
X047337Y036170D01*
X047355Y036133D01*
X047368Y036095D01*
X047378Y036056D01*
X047384Y036015D01*
X047386Y035975D01*
X047384Y035935D01*
X047378Y035894D01*
X047368Y035855D01*
X047355Y035817D01*
X047337Y035780D01*
X047316Y035746D01*
X047292Y035713D01*
X047265Y035683D01*
X047235Y035656D01*
X047202Y035632D01*
X047168Y035611D01*
X047131Y035593D01*
X047093Y035580D01*
X047054Y035570D01*
X047013Y035564D01*
X046973Y035562D01*
X046933Y035564D01*
X046892Y035570D01*
X046853Y035580D01*
X046815Y035593D01*
X046778Y035611D01*
X046744Y035632D01*
X046711Y035656D01*
X046681Y035683D01*
X046654Y035713D01*
X046630Y035746D01*
X046609Y035780D01*
X046591Y035817D01*
X046578Y035855D01*
X046568Y035894D01*
X046562Y035935D01*
X046560Y035975D01*
X058025Y038475D02*
X058027Y038527D01*
X058033Y038579D01*
X058043Y038631D01*
X058056Y038681D01*
X058073Y038731D01*
X058094Y038779D01*
X058119Y038825D01*
X058147Y038869D01*
X058178Y038911D01*
X058212Y038951D01*
X058249Y038988D01*
X058289Y039022D01*
X058331Y039053D01*
X058375Y039081D01*
X058421Y039106D01*
X058469Y039127D01*
X058519Y039144D01*
X058569Y039157D01*
X058621Y039167D01*
X058673Y039173D01*
X058725Y039175D01*
X058777Y039173D01*
X058829Y039167D01*
X058881Y039157D01*
X058931Y039144D01*
X058981Y039127D01*
X059029Y039106D01*
X059075Y039081D01*
X059119Y039053D01*
X059161Y039022D01*
X059201Y038988D01*
X059238Y038951D01*
X059272Y038911D01*
X059303Y038869D01*
X059331Y038825D01*
X059356Y038779D01*
X059377Y038731D01*
X059394Y038681D01*
X059407Y038631D01*
X059417Y038579D01*
X059423Y038527D01*
X059425Y038475D01*
X059423Y038423D01*
X059417Y038371D01*
X059407Y038319D01*
X059394Y038269D01*
X059377Y038219D01*
X059356Y038171D01*
X059331Y038125D01*
X059303Y038081D01*
X059272Y038039D01*
X059238Y037999D01*
X059201Y037962D01*
X059161Y037928D01*
X059119Y037897D01*
X059075Y037869D01*
X059029Y037844D01*
X058981Y037823D01*
X058931Y037806D01*
X058881Y037793D01*
X058829Y037783D01*
X058777Y037777D01*
X058725Y037775D01*
X058673Y037777D01*
X058621Y037783D01*
X058569Y037793D01*
X058519Y037806D01*
X058469Y037823D01*
X058421Y037844D01*
X058375Y037869D01*
X058331Y037897D01*
X058289Y037928D01*
X058249Y037962D01*
X058212Y037999D01*
X058178Y038039D01*
X058147Y038081D01*
X058119Y038125D01*
X058094Y038171D01*
X058073Y038219D01*
X058056Y038269D01*
X058043Y038319D01*
X058033Y038371D01*
X058027Y038423D01*
X058025Y038475D01*
X015064Y035975D02*
X015066Y036015D01*
X015072Y036056D01*
X015082Y036095D01*
X015095Y036133D01*
X015113Y036170D01*
X015134Y036204D01*
X015158Y036237D01*
X015185Y036267D01*
X015215Y036294D01*
X015248Y036318D01*
X015282Y036339D01*
X015319Y036357D01*
X015357Y036370D01*
X015396Y036380D01*
X015437Y036386D01*
X015477Y036388D01*
X015517Y036386D01*
X015558Y036380D01*
X015597Y036370D01*
X015635Y036357D01*
X015672Y036339D01*
X015706Y036318D01*
X015739Y036294D01*
X015769Y036267D01*
X015796Y036237D01*
X015820Y036204D01*
X015841Y036170D01*
X015859Y036133D01*
X015872Y036095D01*
X015882Y036056D01*
X015888Y036015D01*
X015890Y035975D01*
X015888Y035935D01*
X015882Y035894D01*
X015872Y035855D01*
X015859Y035817D01*
X015841Y035780D01*
X015820Y035746D01*
X015796Y035713D01*
X015769Y035683D01*
X015739Y035656D01*
X015706Y035632D01*
X015672Y035611D01*
X015635Y035593D01*
X015597Y035580D01*
X015558Y035570D01*
X015517Y035564D01*
X015477Y035562D01*
X015437Y035564D01*
X015396Y035570D01*
X015357Y035580D01*
X015319Y035593D01*
X015282Y035611D01*
X015248Y035632D01*
X015215Y035656D01*
X015185Y035683D01*
X015158Y035713D01*
X015134Y035746D01*
X015113Y035780D01*
X015095Y035817D01*
X015082Y035855D01*
X015072Y035894D01*
X015066Y035935D01*
X015064Y035975D01*
X015066Y036015D01*
X015072Y036056D01*
X015082Y036095D01*
X015095Y036133D01*
X015113Y036170D01*
X015134Y036204D01*
X015158Y036237D01*
X015185Y036267D01*
X015215Y036294D01*
X015248Y036318D01*
X015282Y036339D01*
X015319Y036357D01*
X015357Y036370D01*
X015396Y036380D01*
X015437Y036386D01*
X015477Y036388D01*
X015517Y036386D01*
X015558Y036380D01*
X015597Y036370D01*
X015635Y036357D01*
X015672Y036339D01*
X015706Y036318D01*
X015739Y036294D01*
X015769Y036267D01*
X015796Y036237D01*
X015820Y036204D01*
X015841Y036170D01*
X015859Y036133D01*
X015872Y036095D01*
X015882Y036056D01*
X015888Y036015D01*
X015890Y035975D01*
X015888Y035935D01*
X015882Y035894D01*
X015872Y035855D01*
X015859Y035817D01*
X015841Y035780D01*
X015820Y035746D01*
X015796Y035713D01*
X015769Y035683D01*
X015739Y035656D01*
X015706Y035632D01*
X015672Y035611D01*
X015635Y035593D01*
X015597Y035580D01*
X015558Y035570D01*
X015517Y035564D01*
X015477Y035562D01*
X015437Y035564D01*
X015396Y035570D01*
X015357Y035580D01*
X015319Y035593D01*
X015282Y035611D01*
X015248Y035632D01*
X015215Y035656D01*
X015185Y035683D01*
X015158Y035713D01*
X015134Y035746D01*
X015113Y035780D01*
X015095Y035817D01*
X015082Y035855D01*
X015072Y035894D01*
X015066Y035935D01*
X015064Y035975D01*
X003265Y035615D02*
X003267Y035663D01*
X003273Y035711D01*
X003283Y035758D01*
X003296Y035804D01*
X003313Y035849D01*
X003334Y035892D01*
X003359Y035934D01*
X003386Y035973D01*
X003417Y036010D01*
X003451Y036045D01*
X003487Y036076D01*
X003526Y036105D01*
X003567Y036130D01*
X003610Y036152D01*
X003654Y036170D01*
X003700Y036184D01*
X003747Y036195D01*
X003795Y036202D01*
X003843Y036205D01*
X003891Y036204D01*
X003939Y036199D01*
X003986Y036190D01*
X004033Y036178D01*
X004078Y036161D01*
X004122Y036141D01*
X004164Y036118D01*
X004204Y036091D01*
X004241Y036061D01*
X004276Y036028D01*
X004309Y035992D01*
X004338Y035954D01*
X004364Y035913D01*
X004387Y035871D01*
X004406Y035827D01*
X004421Y035781D01*
X004433Y035735D01*
X004441Y035687D01*
X004445Y035639D01*
X004445Y035591D01*
X004441Y035543D01*
X004433Y035495D01*
X004421Y035449D01*
X004406Y035403D01*
X004387Y035359D01*
X004364Y035317D01*
X004338Y035276D01*
X004309Y035238D01*
X004276Y035202D01*
X004241Y035169D01*
X004204Y035139D01*
X004164Y035112D01*
X004122Y035089D01*
X004078Y035069D01*
X004033Y035052D01*
X003986Y035040D01*
X003939Y035031D01*
X003891Y035026D01*
X003843Y035025D01*
X003795Y035028D01*
X003747Y035035D01*
X003700Y035046D01*
X003654Y035060D01*
X003610Y035078D01*
X003567Y035100D01*
X003526Y035125D01*
X003487Y035154D01*
X003451Y035185D01*
X003417Y035220D01*
X003386Y035257D01*
X003359Y035296D01*
X003334Y035338D01*
X003313Y035381D01*
X003296Y035426D01*
X003283Y035472D01*
X003273Y035519D01*
X003267Y035567D01*
X003265Y035615D01*
X003025Y038475D02*
X003027Y038527D01*
X003033Y038579D01*
X003043Y038631D01*
X003056Y038681D01*
X003073Y038731D01*
X003094Y038779D01*
X003119Y038825D01*
X003147Y038869D01*
X003178Y038911D01*
X003212Y038951D01*
X003249Y038988D01*
X003289Y039022D01*
X003331Y039053D01*
X003375Y039081D01*
X003421Y039106D01*
X003469Y039127D01*
X003519Y039144D01*
X003569Y039157D01*
X003621Y039167D01*
X003673Y039173D01*
X003725Y039175D01*
X003777Y039173D01*
X003829Y039167D01*
X003881Y039157D01*
X003931Y039144D01*
X003981Y039127D01*
X004029Y039106D01*
X004075Y039081D01*
X004119Y039053D01*
X004161Y039022D01*
X004201Y038988D01*
X004238Y038951D01*
X004272Y038911D01*
X004303Y038869D01*
X004331Y038825D01*
X004356Y038779D01*
X004377Y038731D01*
X004394Y038681D01*
X004407Y038631D01*
X004417Y038579D01*
X004423Y038527D01*
X004425Y038475D01*
X004423Y038423D01*
X004417Y038371D01*
X004407Y038319D01*
X004394Y038269D01*
X004377Y038219D01*
X004356Y038171D01*
X004331Y038125D01*
X004303Y038081D01*
X004272Y038039D01*
X004238Y037999D01*
X004201Y037962D01*
X004161Y037928D01*
X004119Y037897D01*
X004075Y037869D01*
X004029Y037844D01*
X003981Y037823D01*
X003931Y037806D01*
X003881Y037793D01*
X003829Y037783D01*
X003777Y037777D01*
X003725Y037775D01*
X003673Y037777D01*
X003621Y037783D01*
X003569Y037793D01*
X003519Y037806D01*
X003469Y037823D01*
X003421Y037844D01*
X003375Y037869D01*
X003331Y037897D01*
X003289Y037928D01*
X003249Y037962D01*
X003212Y037999D01*
X003178Y038039D01*
X003147Y038081D01*
X003119Y038125D01*
X003094Y038171D01*
X003073Y038219D01*
X003056Y038269D01*
X003043Y038319D01*
X003033Y038371D01*
X003027Y038423D01*
X003025Y038475D01*
X003265Y032325D02*
X003267Y032373D01*
X003273Y032421D01*
X003283Y032468D01*
X003296Y032514D01*
X003313Y032559D01*
X003334Y032602D01*
X003359Y032644D01*
X003386Y032683D01*
X003417Y032720D01*
X003451Y032755D01*
X003487Y032786D01*
X003526Y032815D01*
X003567Y032840D01*
X003610Y032862D01*
X003654Y032880D01*
X003700Y032894D01*
X003747Y032905D01*
X003795Y032912D01*
X003843Y032915D01*
X003891Y032914D01*
X003939Y032909D01*
X003986Y032900D01*
X004033Y032888D01*
X004078Y032871D01*
X004122Y032851D01*
X004164Y032828D01*
X004204Y032801D01*
X004241Y032771D01*
X004276Y032738D01*
X004309Y032702D01*
X004338Y032664D01*
X004364Y032623D01*
X004387Y032581D01*
X004406Y032537D01*
X004421Y032491D01*
X004433Y032445D01*
X004441Y032397D01*
X004445Y032349D01*
X004445Y032301D01*
X004441Y032253D01*
X004433Y032205D01*
X004421Y032159D01*
X004406Y032113D01*
X004387Y032069D01*
X004364Y032027D01*
X004338Y031986D01*
X004309Y031948D01*
X004276Y031912D01*
X004241Y031879D01*
X004204Y031849D01*
X004164Y031822D01*
X004122Y031799D01*
X004078Y031779D01*
X004033Y031762D01*
X003986Y031750D01*
X003939Y031741D01*
X003891Y031736D01*
X003843Y031735D01*
X003795Y031738D01*
X003747Y031745D01*
X003700Y031756D01*
X003654Y031770D01*
X003610Y031788D01*
X003567Y031810D01*
X003526Y031835D01*
X003487Y031864D01*
X003451Y031895D01*
X003417Y031930D01*
X003386Y031967D01*
X003359Y032006D01*
X003334Y032048D01*
X003313Y032091D01*
X003296Y032136D01*
X003283Y032182D01*
X003273Y032229D01*
X003267Y032277D01*
X003265Y032325D01*
X003265Y029615D02*
X003267Y029663D01*
X003273Y029711D01*
X003283Y029758D01*
X003296Y029804D01*
X003313Y029849D01*
X003334Y029892D01*
X003359Y029934D01*
X003386Y029973D01*
X003417Y030010D01*
X003451Y030045D01*
X003487Y030076D01*
X003526Y030105D01*
X003567Y030130D01*
X003610Y030152D01*
X003654Y030170D01*
X003700Y030184D01*
X003747Y030195D01*
X003795Y030202D01*
X003843Y030205D01*
X003891Y030204D01*
X003939Y030199D01*
X003986Y030190D01*
X004033Y030178D01*
X004078Y030161D01*
X004122Y030141D01*
X004164Y030118D01*
X004204Y030091D01*
X004241Y030061D01*
X004276Y030028D01*
X004309Y029992D01*
X004338Y029954D01*
X004364Y029913D01*
X004387Y029871D01*
X004406Y029827D01*
X004421Y029781D01*
X004433Y029735D01*
X004441Y029687D01*
X004445Y029639D01*
X004445Y029591D01*
X004441Y029543D01*
X004433Y029495D01*
X004421Y029449D01*
X004406Y029403D01*
X004387Y029359D01*
X004364Y029317D01*
X004338Y029276D01*
X004309Y029238D01*
X004276Y029202D01*
X004241Y029169D01*
X004204Y029139D01*
X004164Y029112D01*
X004122Y029089D01*
X004078Y029069D01*
X004033Y029052D01*
X003986Y029040D01*
X003939Y029031D01*
X003891Y029026D01*
X003843Y029025D01*
X003795Y029028D01*
X003747Y029035D01*
X003700Y029046D01*
X003654Y029060D01*
X003610Y029078D01*
X003567Y029100D01*
X003526Y029125D01*
X003487Y029154D01*
X003451Y029185D01*
X003417Y029220D01*
X003386Y029257D01*
X003359Y029296D01*
X003334Y029338D01*
X003313Y029381D01*
X003296Y029426D01*
X003283Y029472D01*
X003273Y029519D01*
X003267Y029567D01*
X003265Y029615D01*
X003265Y026325D02*
X003267Y026373D01*
X003273Y026421D01*
X003283Y026468D01*
X003296Y026514D01*
X003313Y026559D01*
X003334Y026602D01*
X003359Y026644D01*
X003386Y026683D01*
X003417Y026720D01*
X003451Y026755D01*
X003487Y026786D01*
X003526Y026815D01*
X003567Y026840D01*
X003610Y026862D01*
X003654Y026880D01*
X003700Y026894D01*
X003747Y026905D01*
X003795Y026912D01*
X003843Y026915D01*
X003891Y026914D01*
X003939Y026909D01*
X003986Y026900D01*
X004033Y026888D01*
X004078Y026871D01*
X004122Y026851D01*
X004164Y026828D01*
X004204Y026801D01*
X004241Y026771D01*
X004276Y026738D01*
X004309Y026702D01*
X004338Y026664D01*
X004364Y026623D01*
X004387Y026581D01*
X004406Y026537D01*
X004421Y026491D01*
X004433Y026445D01*
X004441Y026397D01*
X004445Y026349D01*
X004445Y026301D01*
X004441Y026253D01*
X004433Y026205D01*
X004421Y026159D01*
X004406Y026113D01*
X004387Y026069D01*
X004364Y026027D01*
X004338Y025986D01*
X004309Y025948D01*
X004276Y025912D01*
X004241Y025879D01*
X004204Y025849D01*
X004164Y025822D01*
X004122Y025799D01*
X004078Y025779D01*
X004033Y025762D01*
X003986Y025750D01*
X003939Y025741D01*
X003891Y025736D01*
X003843Y025735D01*
X003795Y025738D01*
X003747Y025745D01*
X003700Y025756D01*
X003654Y025770D01*
X003610Y025788D01*
X003567Y025810D01*
X003526Y025835D01*
X003487Y025864D01*
X003451Y025895D01*
X003417Y025930D01*
X003386Y025967D01*
X003359Y026006D01*
X003334Y026048D01*
X003313Y026091D01*
X003296Y026136D01*
X003283Y026182D01*
X003273Y026229D01*
X003267Y026277D01*
X003265Y026325D01*
D11*
X020480Y031530D02*
X020480Y032121D01*
X020677Y031924D01*
X020874Y032121D01*
X020874Y031530D01*
X021125Y031530D02*
X021125Y032121D01*
X021420Y032121D01*
X021518Y032022D01*
X021518Y031628D01*
X021420Y031530D01*
X021125Y031530D01*
X021769Y031530D02*
X021769Y031924D01*
X021966Y032121D01*
X022163Y031924D01*
X022163Y031530D01*
X022163Y031825D02*
X021769Y031825D01*
X023058Y031628D02*
X023157Y031530D01*
X023353Y031530D01*
X023452Y031628D01*
X023452Y032121D01*
X023058Y032121D02*
X023058Y031628D01*
X024347Y031628D02*
X024446Y031530D01*
X024643Y031530D01*
X024741Y031628D01*
X024741Y031825D01*
X024643Y031924D01*
X024446Y031924D01*
X024347Y031825D01*
X024347Y031628D01*
X024992Y031825D02*
X025189Y031825D01*
X025090Y032022D02*
X025189Y032121D01*
X025090Y032022D02*
X025090Y031530D01*
X026066Y032121D02*
X026460Y032121D01*
X026263Y032121D02*
X026263Y031530D01*
X026711Y031333D02*
X026907Y031530D01*
X026809Y031530D01*
X026809Y031628D01*
X026907Y031628D01*
X026907Y031530D01*
X027180Y031071D02*
X027574Y031071D01*
X027377Y030775D02*
X027180Y030775D01*
X027180Y030480D02*
X027180Y031071D01*
X027825Y030775D02*
X027923Y030874D01*
X028120Y030874D01*
X028218Y030775D01*
X028218Y030677D01*
X027825Y030677D01*
X027825Y030775D02*
X027825Y030578D01*
X027923Y030480D01*
X028120Y030480D01*
X028469Y030480D02*
X028764Y030480D01*
X028863Y030578D01*
X028863Y030775D01*
X028764Y030874D01*
X028469Y030874D01*
X028469Y031071D02*
X028469Y030480D01*
X029114Y030480D02*
X029114Y030874D01*
X029310Y030874D02*
X029409Y030874D01*
X029310Y030874D02*
X029114Y030677D01*
X029651Y030578D02*
X029749Y030480D01*
X030044Y030480D01*
X030044Y030874D01*
X030394Y030874D02*
X030591Y030874D01*
X030689Y030775D01*
X030689Y030480D01*
X030394Y030480D01*
X030295Y030578D01*
X030394Y030677D01*
X030689Y030677D01*
X030940Y030677D02*
X031137Y030874D01*
X031235Y030874D01*
X031477Y030874D02*
X031477Y030578D01*
X031575Y030480D01*
X031871Y030480D01*
X031871Y030382D02*
X031772Y030283D01*
X031674Y030283D01*
X031871Y030382D02*
X031871Y030874D01*
X032766Y030972D02*
X032865Y031071D01*
X033061Y031071D01*
X033160Y030972D01*
X033160Y030874D01*
X032766Y030480D01*
X033160Y030480D01*
X033411Y030578D02*
X033509Y030480D01*
X033706Y030480D01*
X033804Y030578D01*
X033804Y030972D01*
X033411Y030578D01*
X033411Y030972D01*
X033509Y031071D01*
X033706Y031071D01*
X033804Y030972D01*
X034055Y030874D02*
X034252Y031071D01*
X034252Y030480D01*
X034055Y030480D02*
X034449Y030480D01*
X034700Y030480D02*
X035093Y030874D01*
X035093Y030972D01*
X034995Y031071D01*
X034798Y031071D01*
X034700Y030972D01*
X034651Y031530D02*
X034553Y031628D01*
X034553Y031825D01*
X034651Y031924D01*
X034848Y031924D01*
X034946Y031825D01*
X034946Y031727D01*
X034553Y031727D01*
X034651Y031530D02*
X034848Y031530D01*
X035197Y031530D02*
X035197Y031924D01*
X035394Y031924D02*
X035492Y031924D01*
X035394Y031924D02*
X035197Y031727D01*
X035734Y031924D02*
X035833Y031924D01*
X035833Y031530D01*
X035931Y031530D02*
X035734Y031530D01*
X036164Y031530D02*
X036459Y031530D01*
X036558Y031628D01*
X036558Y031825D01*
X036459Y031924D01*
X036164Y031924D01*
X036164Y031333D01*
X036809Y031530D02*
X036809Y032121D01*
X036907Y031924D02*
X036809Y031825D01*
X036907Y031924D02*
X037104Y031924D01*
X037202Y031825D01*
X037202Y031530D01*
X037453Y031628D02*
X037453Y031825D01*
X037552Y031924D01*
X037748Y031924D01*
X037847Y031825D01*
X037847Y031727D01*
X037453Y031727D01*
X037453Y031628D02*
X037552Y031530D01*
X037748Y031530D01*
X038098Y031530D02*
X038098Y031924D01*
X038098Y031727D02*
X038295Y031924D01*
X038393Y031924D01*
X038733Y031924D02*
X038930Y031924D01*
X039028Y031825D01*
X039028Y031530D01*
X038733Y031530D01*
X038635Y031628D01*
X038733Y031727D01*
X039028Y031727D01*
X039279Y031530D02*
X039476Y031530D01*
X039378Y031530D02*
X039378Y032121D01*
X039279Y032121D01*
X040354Y032121D02*
X040354Y031530D01*
X040649Y031530D01*
X040747Y031628D01*
X040747Y032022D01*
X040649Y032121D01*
X040354Y032121D01*
X040998Y031924D02*
X040998Y031530D01*
X040998Y031727D02*
X041195Y031924D01*
X041293Y031924D01*
X041535Y031924D02*
X041634Y031924D01*
X041634Y031530D01*
X041732Y031530D02*
X041535Y031530D01*
X041965Y031924D02*
X042162Y031530D01*
X042359Y031924D01*
X042610Y031825D02*
X042708Y031924D01*
X042905Y031924D01*
X043003Y031825D01*
X043003Y031727D01*
X042610Y031727D01*
X042610Y031825D02*
X042610Y031628D01*
X042708Y031530D01*
X042905Y031530D01*
X043254Y031530D02*
X043254Y031924D01*
X043254Y031727D02*
X043451Y031924D01*
X043549Y031924D01*
X041634Y032121D02*
X041634Y032219D01*
X035833Y032219D02*
X035833Y032121D01*
X034302Y032022D02*
X034302Y031825D01*
X034203Y031727D01*
X033908Y031727D01*
X033908Y031530D02*
X033908Y032121D01*
X034203Y032121D01*
X034302Y032022D01*
X033013Y031924D02*
X032717Y031924D01*
X032619Y031825D01*
X032619Y031628D01*
X032717Y031530D01*
X033013Y031530D01*
X033013Y032121D01*
X032368Y031825D02*
X032368Y031530D01*
X032368Y031825D02*
X032270Y031924D01*
X031974Y031924D01*
X031974Y031530D01*
X031724Y031530D02*
X031428Y031530D01*
X031330Y031628D01*
X031428Y031727D01*
X031724Y031727D01*
X031724Y031825D02*
X031724Y031530D01*
X031724Y031825D02*
X031625Y031924D01*
X031428Y031924D01*
X030443Y031924D02*
X030345Y031924D01*
X030148Y031727D01*
X030148Y031530D02*
X030148Y031924D01*
X029897Y031825D02*
X029799Y031924D01*
X029602Y031924D01*
X029504Y031825D01*
X029504Y031628D01*
X029602Y031530D01*
X029799Y031530D01*
X029897Y031628D01*
X029897Y031825D01*
X029271Y031924D02*
X029074Y031924D01*
X029172Y032022D02*
X029172Y031628D01*
X029271Y031530D01*
X028823Y031628D02*
X028823Y031825D01*
X028725Y031924D01*
X028528Y031924D01*
X028429Y031825D01*
X028429Y031628D01*
X028528Y031530D01*
X028725Y031530D01*
X028823Y031628D01*
X028179Y031530D02*
X028179Y032121D01*
X027982Y031924D01*
X027785Y032121D01*
X027785Y031530D01*
X029651Y030874D02*
X029651Y030578D01*
X030940Y030480D02*
X030940Y030874D01*
X034700Y030480D02*
X035093Y030480D01*
D12*
X036134Y022864D02*
X033979Y022864D01*
X033979Y020286D01*
X036134Y020286D01*
X036331Y020482D01*
X036331Y022668D01*
X036134Y022864D01*
X042479Y022864D02*
X042479Y020286D01*
X044634Y020286D01*
X044831Y020482D01*
X044831Y022668D01*
X044634Y022864D01*
X042479Y022864D01*
X046349Y018269D02*
X046349Y017481D01*
X046752Y017875D01*
X046349Y018269D01*
X050979Y020286D02*
X053134Y020286D01*
X053331Y020482D01*
X053331Y022668D01*
X053134Y022864D01*
X050979Y022864D01*
X050979Y020286D01*
X054949Y018269D02*
X054949Y017481D01*
X055352Y017875D01*
X054949Y018269D01*
X053134Y014864D02*
X050979Y014864D01*
X050979Y012286D01*
X053134Y012286D01*
X053331Y012482D01*
X053331Y014668D01*
X053134Y014864D01*
X050569Y010751D02*
X049781Y010751D01*
X050175Y010348D01*
X050569Y010751D01*
X044831Y012482D02*
X044634Y012286D01*
X042479Y012286D01*
X042479Y014864D01*
X044634Y014864D01*
X044831Y014668D01*
X044831Y012482D01*
X041969Y010851D02*
X041575Y010448D01*
X041181Y010851D01*
X041969Y010851D01*
X036331Y012482D02*
X036134Y012286D01*
X033979Y012286D01*
X033979Y014864D01*
X036134Y014864D01*
X036331Y014668D01*
X036331Y012482D01*
X033569Y010751D02*
X032781Y010751D01*
X033175Y010348D01*
X033569Y010751D01*
X027831Y012482D02*
X027831Y014668D01*
X027634Y014864D01*
X025479Y014864D01*
X025479Y012286D01*
X027634Y012286D01*
X027831Y012482D01*
X024969Y010851D02*
X024575Y010448D01*
X024181Y010851D01*
X024969Y010851D01*
X019331Y012482D02*
X019134Y012286D01*
X016979Y012286D01*
X016979Y014864D01*
X019134Y014864D01*
X019331Y014668D01*
X019331Y012482D01*
X016569Y010751D02*
X015781Y010751D01*
X016175Y010348D01*
X016569Y010751D01*
X010831Y012482D02*
X010831Y014668D01*
X010634Y014864D01*
X008479Y014864D01*
X008479Y012286D01*
X010634Y012286D01*
X010831Y012482D01*
X007969Y010851D02*
X007181Y010851D01*
X007575Y010448D01*
X007969Y010851D01*
X012349Y017481D02*
X012349Y018269D01*
X012752Y017875D01*
X012349Y017481D01*
X010634Y020286D02*
X008479Y020286D01*
X008479Y022864D01*
X010634Y022864D01*
X010831Y022668D01*
X010831Y020482D01*
X010634Y020286D01*
X016979Y020286D02*
X019134Y020286D01*
X019331Y020482D01*
X019331Y022668D01*
X019134Y022864D01*
X016979Y022864D01*
X016979Y020286D01*
X020949Y018269D02*
X020949Y017481D01*
X021352Y017875D01*
X020949Y018269D01*
X025479Y020286D02*
X027634Y020286D01*
X027831Y020482D01*
X027831Y022668D01*
X027634Y022864D01*
X025479Y022864D01*
X025479Y020286D01*
X029349Y018269D02*
X029349Y017481D01*
X029752Y017875D01*
X029349Y018269D01*
X037949Y018269D02*
X037949Y017481D01*
X038352Y017875D01*
X037949Y018269D01*
D13*
X033785Y021575D03*
X025285Y021575D03*
X016785Y021575D03*
X008285Y021575D03*
X008285Y013575D03*
X016785Y013575D03*
X025285Y013575D03*
X033785Y013575D03*
X042285Y013575D03*
X050785Y013575D03*
X050785Y021575D03*
X042285Y021575D03*
D14*
X042422Y023095D02*
X042345Y023172D01*
X042345Y023479D01*
X042422Y023555D01*
X042575Y023555D01*
X042652Y023479D01*
X042652Y023172D01*
X042575Y023095D01*
X042422Y023095D01*
X042498Y023248D02*
X042652Y023095D01*
X042805Y023172D02*
X042882Y023095D01*
X043036Y023095D01*
X043112Y023172D01*
X043112Y023479D01*
X043036Y023555D01*
X042882Y023555D01*
X042805Y023479D01*
X042805Y023402D01*
X042882Y023325D01*
X043112Y023325D01*
X045535Y018625D02*
X047315Y018625D01*
X047315Y017125D02*
X045535Y017125D01*
X045914Y017005D02*
X046144Y017005D01*
X046221Y016929D01*
X046221Y016622D01*
X046144Y016545D01*
X045914Y016545D01*
X045914Y017005D01*
X046374Y016852D02*
X046528Y017005D01*
X046528Y016545D01*
X046681Y016545D02*
X046374Y016545D01*
X046835Y016775D02*
X047065Y017005D01*
X047065Y016545D01*
X047142Y016775D02*
X046835Y016775D01*
X043573Y015479D02*
X043573Y015172D01*
X043496Y015095D01*
X043343Y015095D01*
X043266Y015172D01*
X043573Y015479D01*
X043496Y015555D01*
X043343Y015555D01*
X043266Y015479D01*
X043266Y015172D01*
X043112Y015095D02*
X042805Y015095D01*
X042652Y015095D02*
X042498Y015248D01*
X042345Y015172D02*
X042345Y015479D01*
X042422Y015555D01*
X042575Y015555D01*
X042652Y015479D01*
X042652Y015172D01*
X042575Y015095D01*
X042422Y015095D01*
X042345Y015172D01*
X042805Y015402D02*
X042959Y015555D01*
X042959Y015095D01*
X038915Y017125D02*
X037135Y017125D01*
X037514Y017005D02*
X037514Y016545D01*
X037744Y016545D01*
X037821Y016622D01*
X037821Y016929D01*
X037744Y017005D01*
X037514Y017005D01*
X037974Y016852D02*
X038128Y017005D01*
X038128Y016545D01*
X038281Y016545D02*
X037974Y016545D01*
X038435Y016545D02*
X038742Y016545D01*
X038588Y016545D02*
X038588Y017005D01*
X038435Y016852D01*
X038915Y018625D02*
X037135Y018625D01*
X034536Y015555D02*
X034612Y015479D01*
X034612Y015402D01*
X034536Y015325D01*
X034382Y015325D01*
X034305Y015402D01*
X034305Y015479D01*
X034382Y015555D01*
X034536Y015555D01*
X034536Y015325D02*
X034612Y015248D01*
X034612Y015172D01*
X034536Y015095D01*
X034382Y015095D01*
X034305Y015172D01*
X034305Y015248D01*
X034382Y015325D01*
X034152Y015172D02*
X034075Y015095D01*
X033922Y015095D01*
X033845Y015172D01*
X033845Y015479D01*
X033922Y015555D01*
X034075Y015555D01*
X034152Y015479D01*
X034152Y015172D01*
X034152Y015095D02*
X033998Y015248D01*
X030315Y017125D02*
X028535Y017125D01*
X029374Y017005D02*
X029374Y016545D01*
X029604Y016545D01*
X029681Y016622D01*
X029681Y016929D01*
X029604Y017005D01*
X029374Y017005D01*
X029835Y016929D02*
X029835Y016852D01*
X029911Y016775D01*
X030065Y016775D01*
X030142Y016698D01*
X030142Y016622D01*
X030065Y016545D01*
X029911Y016545D01*
X029835Y016622D01*
X029835Y016698D01*
X029911Y016775D01*
X030065Y016775D02*
X030142Y016852D01*
X030142Y016929D01*
X030065Y017005D01*
X029911Y017005D01*
X029835Y016929D01*
X030315Y018625D02*
X028535Y018625D01*
X026112Y015555D02*
X025959Y015479D01*
X025805Y015325D01*
X026036Y015325D01*
X026112Y015248D01*
X026112Y015172D01*
X026036Y015095D01*
X025882Y015095D01*
X025805Y015172D01*
X025805Y015325D01*
X025652Y015172D02*
X025652Y015479D01*
X025575Y015555D01*
X025422Y015555D01*
X025345Y015479D01*
X025345Y015172D01*
X025422Y015095D01*
X025575Y015095D01*
X025652Y015172D01*
X025652Y015095D02*
X025498Y015248D01*
X021742Y016622D02*
X021665Y016545D01*
X021511Y016545D01*
X021435Y016622D01*
X021435Y016775D02*
X021588Y016852D01*
X021665Y016852D01*
X021742Y016775D01*
X021742Y016622D01*
X021435Y016775D02*
X021435Y017005D01*
X021742Y017005D01*
X021915Y017125D02*
X020135Y017125D01*
X020974Y017005D02*
X020974Y016545D01*
X021204Y016545D01*
X021281Y016622D01*
X021281Y016929D01*
X021204Y017005D01*
X020974Y017005D01*
X020135Y018625D02*
X021915Y018625D01*
X017536Y015555D02*
X017305Y015325D01*
X017612Y015325D01*
X017536Y015095D02*
X017536Y015555D01*
X017152Y015479D02*
X017152Y015172D01*
X017075Y015095D01*
X016922Y015095D01*
X016845Y015172D01*
X016845Y015479D01*
X016922Y015555D01*
X017075Y015555D01*
X017152Y015479D01*
X016998Y015248D02*
X017152Y015095D01*
X013315Y017125D02*
X011535Y017125D01*
X012374Y017005D02*
X012374Y016545D01*
X012604Y016545D01*
X012681Y016622D01*
X012681Y016929D01*
X012604Y017005D01*
X012374Y017005D01*
X012835Y016929D02*
X012911Y017005D01*
X013065Y017005D01*
X013142Y016929D01*
X013142Y016852D01*
X012835Y016545D01*
X013142Y016545D01*
X013315Y018625D02*
X011535Y018625D01*
X008112Y015479D02*
X008036Y015555D01*
X007882Y015555D01*
X007805Y015479D01*
X007652Y015479D02*
X007652Y015172D01*
X007575Y015095D01*
X007422Y015095D01*
X007345Y015172D01*
X007345Y015479D01*
X007422Y015555D01*
X007575Y015555D01*
X007652Y015479D01*
X007498Y015248D02*
X007652Y015095D01*
X007805Y015095D02*
X008112Y015402D01*
X008112Y015479D01*
X008112Y015095D02*
X007805Y015095D01*
X008325Y011665D02*
X008325Y009885D01*
X006825Y009885D02*
X006825Y011665D01*
X006628Y010712D02*
X006552Y010712D01*
X006475Y010636D01*
X006475Y010559D01*
X006475Y010636D02*
X006398Y010712D01*
X006321Y010712D01*
X006245Y010636D01*
X006245Y010482D01*
X006321Y010405D01*
X006321Y010252D02*
X006245Y010175D01*
X006245Y009945D01*
X006705Y009945D01*
X006705Y010175D01*
X006628Y010252D01*
X006321Y010252D01*
X006628Y010405D02*
X006705Y010482D01*
X006705Y010636D01*
X006628Y010712D01*
X006609Y009505D02*
X006609Y009045D01*
X006762Y009045D02*
X006455Y009045D01*
X006302Y009045D02*
X006148Y009198D01*
X006225Y009198D02*
X005995Y009198D01*
X005995Y009045D02*
X005995Y009505D01*
X006225Y009505D01*
X006302Y009429D01*
X006302Y009275D01*
X006225Y009198D01*
X006455Y009352D02*
X006609Y009505D01*
X014845Y009845D02*
X014845Y010075D01*
X014921Y010152D01*
X015228Y010152D01*
X015305Y010075D01*
X015305Y009845D01*
X014845Y009845D01*
X015425Y009785D02*
X015425Y011565D01*
X016925Y011565D02*
X016925Y009785D01*
X015305Y010382D02*
X015305Y010536D01*
X015228Y010612D01*
X015152Y010612D01*
X015075Y010536D01*
X015075Y010305D01*
X015228Y010305D01*
X015305Y010382D01*
X015075Y010305D02*
X014921Y010459D01*
X014845Y010612D01*
X020095Y008536D02*
X020095Y008382D01*
X020171Y008305D01*
X020171Y008152D02*
X020325Y008152D01*
X020402Y008075D01*
X020402Y007845D01*
X020555Y007845D02*
X020095Y007845D01*
X020095Y008075D01*
X020171Y008152D01*
X020402Y007998D02*
X020555Y008152D01*
X020555Y008305D02*
X020248Y008612D01*
X020171Y008612D01*
X020095Y008536D01*
X020555Y008612D02*
X020555Y008305D01*
X022995Y009045D02*
X022995Y009505D01*
X023225Y009505D01*
X023302Y009429D01*
X023302Y009275D01*
X023225Y009198D01*
X022995Y009198D01*
X023148Y009198D02*
X023302Y009045D01*
X023455Y009122D02*
X023532Y009045D01*
X023686Y009045D01*
X023762Y009122D01*
X023762Y009198D01*
X023686Y009275D01*
X023609Y009275D01*
X023686Y009275D02*
X023762Y009352D01*
X023762Y009429D01*
X023686Y009505D01*
X023532Y009505D01*
X023455Y009429D01*
X023825Y009885D02*
X023825Y011665D01*
X023628Y010712D02*
X023321Y010712D01*
X023245Y010636D01*
X023245Y010482D01*
X023321Y010405D01*
X023398Y010405D01*
X023475Y010482D01*
X023475Y010712D01*
X023628Y010712D02*
X023705Y010636D01*
X023705Y010482D01*
X023628Y010405D01*
X023628Y010252D02*
X023321Y010252D01*
X023245Y010175D01*
X023245Y009945D01*
X023705Y009945D01*
X023705Y010175D01*
X023628Y010252D01*
X025325Y009885D02*
X025325Y011665D01*
X031845Y010996D02*
X031845Y010843D01*
X031921Y010766D01*
X031845Y010996D02*
X031921Y011073D01*
X031998Y011073D01*
X032305Y010766D01*
X032305Y011073D01*
X032305Y010612D02*
X032305Y010305D01*
X032305Y010459D02*
X031845Y010459D01*
X031998Y010305D01*
X031921Y010152D02*
X031845Y010075D01*
X031845Y009845D01*
X032305Y009845D01*
X032305Y010075D01*
X032228Y010152D01*
X031921Y010152D01*
X032425Y009785D02*
X032425Y011565D01*
X033925Y011565D02*
X033925Y009785D01*
X037145Y008486D02*
X037375Y008255D01*
X037375Y008562D01*
X037605Y008486D02*
X037145Y008486D01*
X037221Y008102D02*
X037375Y008102D01*
X037452Y008025D01*
X037452Y007795D01*
X037605Y007795D02*
X037145Y007795D01*
X037145Y008025D01*
X037221Y008102D01*
X037452Y007948D02*
X037605Y008102D01*
X039995Y009045D02*
X039995Y009505D01*
X040225Y009505D01*
X040302Y009429D01*
X040302Y009275D01*
X040225Y009198D01*
X039995Y009198D01*
X040148Y009198D02*
X040302Y009045D01*
X040455Y009122D02*
X040532Y009045D01*
X040686Y009045D01*
X040762Y009122D01*
X040762Y009275D01*
X040686Y009352D01*
X040609Y009352D01*
X040455Y009275D01*
X040455Y009505D01*
X040762Y009505D01*
X040825Y009885D02*
X040825Y011665D01*
X040628Y011173D02*
X040705Y011096D01*
X040705Y010943D01*
X040628Y010866D01*
X040475Y010866D02*
X040398Y011019D01*
X040398Y011096D01*
X040475Y011173D01*
X040628Y011173D01*
X040475Y010866D02*
X040245Y010866D01*
X040245Y011173D01*
X040705Y010712D02*
X040705Y010405D01*
X040705Y010559D02*
X040245Y010559D01*
X040398Y010405D01*
X040321Y010252D02*
X040245Y010175D01*
X040245Y009945D01*
X040705Y009945D01*
X040705Y010175D01*
X040628Y010252D01*
X040321Y010252D01*
X042325Y009885D02*
X042325Y011665D01*
X048845Y010996D02*
X048921Y011073D01*
X048998Y011073D01*
X049075Y010996D01*
X049075Y010843D01*
X048998Y010766D01*
X048921Y010766D01*
X048845Y010843D01*
X048845Y010996D01*
X049075Y010996D02*
X049152Y011073D01*
X049228Y011073D01*
X049305Y010996D01*
X049305Y010843D01*
X049228Y010766D01*
X049152Y010766D01*
X049075Y010843D01*
X049305Y010612D02*
X049305Y010305D01*
X049305Y010459D02*
X048845Y010459D01*
X048998Y010305D01*
X048921Y010152D02*
X048845Y010075D01*
X048845Y009845D01*
X049305Y009845D01*
X049305Y010075D01*
X049228Y010152D01*
X048921Y010152D01*
X049425Y009785D02*
X049425Y011565D01*
X050925Y011565D02*
X050925Y009785D01*
X054045Y008612D02*
X054121Y008459D01*
X054275Y008305D01*
X054275Y008536D01*
X054352Y008612D01*
X054428Y008612D01*
X054505Y008536D01*
X054505Y008382D01*
X054428Y008305D01*
X054275Y008305D01*
X054275Y008152D02*
X054352Y008075D01*
X054352Y007845D01*
X054505Y007845D02*
X054045Y007845D01*
X054045Y008075D01*
X054121Y008152D01*
X054275Y008152D01*
X054352Y007998D02*
X054505Y008152D01*
X056495Y002205D02*
X056725Y002205D01*
X056802Y002129D01*
X056802Y001975D01*
X056725Y001898D01*
X056495Y001898D01*
X056495Y001745D02*
X056495Y002205D01*
X056955Y002129D02*
X056955Y002052D01*
X057032Y001975D01*
X057262Y001975D01*
X057262Y001822D02*
X057262Y002129D01*
X057186Y002205D01*
X057032Y002205D01*
X056955Y002129D01*
X056955Y001822D02*
X057032Y001745D01*
X057186Y001745D01*
X057262Y001822D01*
X052262Y001822D02*
X052186Y001745D01*
X052032Y001745D01*
X051955Y001822D01*
X051955Y001898D01*
X052032Y001975D01*
X052186Y001975D01*
X052262Y001898D01*
X052262Y001822D01*
X052186Y001975D02*
X052262Y002052D01*
X052262Y002129D01*
X052186Y002205D01*
X052032Y002205D01*
X051955Y002129D01*
X051955Y002052D01*
X052032Y001975D01*
X051802Y001975D02*
X051802Y002129D01*
X051725Y002205D01*
X051495Y002205D01*
X051495Y001745D01*
X051495Y001898D02*
X051725Y001898D01*
X051802Y001975D01*
X047262Y002129D02*
X046955Y001822D01*
X046955Y001745D01*
X046725Y001898D02*
X046495Y001898D01*
X046495Y001745D02*
X046495Y002205D01*
X046725Y002205D01*
X046802Y002129D01*
X046802Y001975D01*
X046725Y001898D01*
X046955Y002205D02*
X047262Y002205D01*
X047262Y002129D01*
X040262Y002205D02*
X040109Y002129D01*
X039955Y001975D01*
X040186Y001975D01*
X040262Y001898D01*
X040262Y001822D01*
X040186Y001745D01*
X040032Y001745D01*
X039955Y001822D01*
X039955Y001975D01*
X039802Y001975D02*
X039725Y001898D01*
X039495Y001898D01*
X039495Y001745D02*
X039495Y002205D01*
X039725Y002205D01*
X039802Y002129D01*
X039802Y001975D01*
X035262Y001975D02*
X035262Y001822D01*
X035186Y001745D01*
X035032Y001745D01*
X034955Y001822D01*
X034955Y001975D02*
X035109Y002052D01*
X035186Y002052D01*
X035262Y001975D01*
X035262Y002205D02*
X034955Y002205D01*
X034955Y001975D01*
X034802Y001975D02*
X034802Y002129D01*
X034725Y002205D01*
X034495Y002205D01*
X034495Y001745D01*
X034495Y001898D02*
X034725Y001898D01*
X034802Y001975D01*
X030262Y001975D02*
X029955Y001975D01*
X030186Y002205D01*
X030186Y001745D01*
X029802Y001975D02*
X029725Y001898D01*
X029495Y001898D01*
X029495Y001745D02*
X029495Y002205D01*
X029725Y002205D01*
X029802Y002129D01*
X029802Y001975D01*
X023262Y001898D02*
X023262Y001822D01*
X023186Y001745D01*
X023032Y001745D01*
X022955Y001822D01*
X022802Y001975D02*
X022725Y001898D01*
X022495Y001898D01*
X022495Y001745D02*
X022495Y002205D01*
X022725Y002205D01*
X022802Y002129D01*
X022802Y001975D01*
X022955Y002129D02*
X023032Y002205D01*
X023186Y002205D01*
X023262Y002129D01*
X023262Y002052D01*
X023186Y001975D01*
X023262Y001898D01*
X023186Y001975D02*
X023109Y001975D01*
X018262Y002052D02*
X018262Y002129D01*
X018186Y002205D01*
X018032Y002205D01*
X017955Y002129D01*
X017802Y002129D02*
X017802Y001975D01*
X017725Y001898D01*
X017495Y001898D01*
X017495Y001745D02*
X017495Y002205D01*
X017725Y002205D01*
X017802Y002129D01*
X017955Y001745D02*
X018262Y002052D01*
X018262Y001745D02*
X017955Y001745D01*
X013262Y001745D02*
X012955Y001745D01*
X013109Y001745D02*
X013109Y002205D01*
X012955Y002052D01*
X012802Y002129D02*
X012802Y001975D01*
X012725Y001898D01*
X012495Y001898D01*
X012495Y001745D02*
X012495Y002205D01*
X012725Y002205D01*
X012802Y002129D01*
X016922Y023095D02*
X016845Y023172D01*
X016845Y023479D01*
X016922Y023555D01*
X017075Y023555D01*
X017152Y023479D01*
X017152Y023172D01*
X017075Y023095D01*
X016922Y023095D01*
X016998Y023248D02*
X017152Y023095D01*
X017305Y023172D02*
X017382Y023095D01*
X017536Y023095D01*
X017612Y023172D01*
X017612Y023248D01*
X017536Y023325D01*
X017459Y023325D01*
X017536Y023325D02*
X017612Y023402D01*
X017612Y023479D01*
X017536Y023555D01*
X017382Y023555D01*
X017305Y023479D01*
X014692Y028195D02*
X014385Y028195D01*
X014538Y028195D02*
X014538Y028655D01*
X014385Y028502D01*
X014231Y028579D02*
X014154Y028655D01*
X013924Y028655D01*
X013924Y028195D01*
X014154Y028195D01*
X014231Y028272D01*
X014231Y028579D01*
X013562Y028479D02*
X013562Y028402D01*
X013255Y028095D01*
X013562Y028095D01*
X013562Y028479D02*
X013486Y028555D01*
X013332Y028555D01*
X013255Y028479D01*
X013102Y028479D02*
X013025Y028555D01*
X012872Y028555D01*
X012795Y028479D01*
X012795Y028172D01*
X012872Y028095D01*
X013025Y028095D01*
X013102Y028172D01*
X007959Y023555D02*
X007959Y023095D01*
X008112Y023095D02*
X007805Y023095D01*
X007652Y023095D02*
X007498Y023248D01*
X007422Y023095D02*
X007345Y023172D01*
X007345Y023479D01*
X007422Y023555D01*
X007575Y023555D01*
X007652Y023479D01*
X007652Y023172D01*
X007575Y023095D01*
X007422Y023095D01*
X007805Y023402D02*
X007959Y023555D01*
X002205Y023614D02*
X001745Y023614D01*
X001745Y023844D01*
X001821Y023921D01*
X001975Y023921D01*
X002052Y023844D01*
X002052Y023614D01*
X002205Y024074D02*
X002205Y024381D01*
X002205Y024228D02*
X001745Y024228D01*
X001898Y024074D01*
X001898Y024535D02*
X001745Y024688D01*
X002205Y024688D01*
X002205Y024535D02*
X002205Y024842D01*
X002205Y029614D02*
X001745Y029614D01*
X001745Y029844D01*
X001821Y029921D01*
X001975Y029921D01*
X002052Y029844D01*
X002052Y029614D01*
X002205Y030074D02*
X002205Y030381D01*
X002205Y030228D02*
X001745Y030228D01*
X001898Y030074D01*
X001821Y030535D02*
X001745Y030611D01*
X001745Y030765D01*
X001821Y030842D01*
X002128Y030535D01*
X002205Y030611D01*
X002205Y030765D01*
X002128Y030842D01*
X001821Y030842D01*
X001821Y030535D02*
X002128Y030535D01*
X020395Y028479D02*
X020395Y028172D01*
X020472Y028095D01*
X020625Y028095D01*
X020702Y028172D01*
X020855Y028325D02*
X021162Y028325D01*
X021086Y028095D02*
X021086Y028555D01*
X020855Y028325D01*
X020702Y028479D02*
X020625Y028555D01*
X020472Y028555D01*
X020395Y028479D01*
X021445Y028705D02*
X021445Y028245D01*
X021675Y028245D01*
X021752Y028322D01*
X021752Y028629D01*
X021675Y028705D01*
X021445Y028705D01*
X021905Y028475D02*
X022212Y028475D01*
X022136Y028245D02*
X022136Y028705D01*
X021905Y028475D01*
X025422Y023555D02*
X025575Y023555D01*
X025652Y023479D01*
X025652Y023172D01*
X025575Y023095D01*
X025422Y023095D01*
X025345Y023172D01*
X025345Y023479D01*
X025422Y023555D01*
X025498Y023248D02*
X025652Y023095D01*
X025805Y023172D02*
X025882Y023095D01*
X026036Y023095D01*
X026112Y023172D01*
X026112Y023325D01*
X026036Y023402D01*
X025959Y023402D01*
X025805Y023325D01*
X025805Y023555D01*
X026112Y023555D01*
X029872Y028095D02*
X030025Y028095D01*
X030102Y028172D01*
X030255Y028172D02*
X030332Y028095D01*
X030486Y028095D01*
X030562Y028172D01*
X030562Y028248D01*
X030486Y028325D01*
X030409Y028325D01*
X030486Y028325D02*
X030562Y028402D01*
X030562Y028479D01*
X030486Y028555D01*
X030332Y028555D01*
X030255Y028479D01*
X030102Y028479D02*
X030025Y028555D01*
X029872Y028555D01*
X029795Y028479D01*
X029795Y028172D01*
X029872Y028095D01*
X030924Y028295D02*
X031154Y028295D01*
X031231Y028372D01*
X031231Y028679D01*
X031154Y028755D01*
X030924Y028755D01*
X030924Y028295D01*
X031385Y028295D02*
X031385Y028372D01*
X031692Y028679D01*
X031692Y028755D01*
X031385Y028755D01*
X037395Y028479D02*
X037395Y028172D01*
X037472Y028095D01*
X037625Y028095D01*
X037702Y028172D01*
X037855Y028172D02*
X037855Y028248D01*
X037932Y028325D01*
X038086Y028325D01*
X038162Y028248D01*
X038162Y028172D01*
X038086Y028095D01*
X037932Y028095D01*
X037855Y028172D01*
X037932Y028325D02*
X037855Y028402D01*
X037855Y028479D01*
X037932Y028555D01*
X038086Y028555D01*
X038162Y028479D01*
X038162Y028402D01*
X038086Y028325D01*
X038314Y028245D02*
X038314Y028705D01*
X038544Y028705D01*
X038621Y028629D01*
X038621Y028322D01*
X038544Y028245D01*
X038314Y028245D01*
X038774Y028245D02*
X039081Y028245D01*
X038928Y028245D02*
X038928Y028705D01*
X038774Y028552D01*
X039235Y028629D02*
X039235Y028322D01*
X039542Y028629D01*
X039542Y028322D01*
X039465Y028245D01*
X039311Y028245D01*
X039235Y028322D01*
X039235Y028629D02*
X039311Y028705D01*
X039465Y028705D01*
X039542Y028629D01*
X037702Y028479D02*
X037625Y028555D01*
X037472Y028555D01*
X037395Y028479D01*
X034612Y023555D02*
X034612Y023479D01*
X034305Y023172D01*
X034305Y023095D01*
X034152Y023095D02*
X033998Y023248D01*
X033922Y023095D02*
X033845Y023172D01*
X033845Y023479D01*
X033922Y023555D01*
X034075Y023555D01*
X034152Y023479D01*
X034152Y023172D01*
X034075Y023095D01*
X033922Y023095D01*
X034305Y023555D02*
X034612Y023555D01*
X046545Y028172D02*
X046622Y028095D01*
X046775Y028095D01*
X046852Y028172D01*
X047005Y028095D02*
X047312Y028095D01*
X047159Y028095D02*
X047159Y028555D01*
X047005Y028402D01*
X046852Y028479D02*
X046775Y028555D01*
X046622Y028555D01*
X046545Y028479D01*
X046545Y028172D01*
X047466Y028172D02*
X047773Y028479D01*
X047773Y028172D01*
X047696Y028095D01*
X047543Y028095D01*
X047466Y028172D01*
X047466Y028479D01*
X047543Y028555D01*
X047696Y028555D01*
X047773Y028479D01*
X047895Y028655D02*
X048125Y028655D01*
X048202Y028579D01*
X048202Y028272D01*
X048125Y028195D01*
X047895Y028195D01*
X047895Y028655D01*
X048355Y028502D02*
X048509Y028655D01*
X048509Y028195D01*
X048662Y028195D02*
X048355Y028195D01*
X048816Y028272D02*
X048893Y028195D01*
X049046Y028195D01*
X049123Y028272D01*
X049123Y028348D01*
X049046Y028425D01*
X048969Y028425D01*
X049046Y028425D02*
X049123Y028502D01*
X049123Y028579D01*
X049046Y028655D01*
X048893Y028655D01*
X048816Y028579D01*
X054014Y028429D02*
X054014Y028122D01*
X054091Y028045D01*
X054244Y028045D01*
X054321Y028122D01*
X054474Y028045D02*
X054781Y028045D01*
X054628Y028045D02*
X054628Y028505D01*
X054474Y028352D01*
X054321Y028429D02*
X054244Y028505D01*
X054091Y028505D01*
X054014Y028429D01*
X054935Y028429D02*
X055011Y028505D01*
X055165Y028505D01*
X055242Y028429D01*
X055242Y028352D01*
X054935Y028045D01*
X055242Y028045D01*
X055414Y028195D02*
X055644Y028195D01*
X055721Y028272D01*
X055721Y028579D01*
X055644Y028655D01*
X055414Y028655D01*
X055414Y028195D01*
X055874Y028195D02*
X056181Y028195D01*
X056028Y028195D02*
X056028Y028655D01*
X055874Y028502D01*
X056335Y028425D02*
X056335Y028272D01*
X056411Y028195D01*
X056565Y028195D01*
X056642Y028272D01*
X056642Y028348D01*
X056565Y028425D01*
X056335Y028425D01*
X056488Y028579D01*
X056642Y028655D01*
X051919Y023555D02*
X051919Y023095D01*
X051766Y023095D02*
X052073Y023095D01*
X051766Y023402D02*
X051919Y023555D01*
X051459Y023555D02*
X051459Y023095D01*
X051612Y023095D02*
X051305Y023095D01*
X051152Y023095D02*
X050998Y023248D01*
X050922Y023095D02*
X050845Y023172D01*
X050845Y023479D01*
X050922Y023555D01*
X051075Y023555D01*
X051152Y023479D01*
X051152Y023172D01*
X051075Y023095D01*
X050922Y023095D01*
X051305Y023402D02*
X051459Y023555D01*
X054135Y018625D02*
X055915Y018625D01*
X055915Y017125D02*
X054135Y017125D01*
X054514Y017005D02*
X054744Y017005D01*
X054821Y016929D01*
X054821Y016622D01*
X054744Y016545D01*
X054514Y016545D01*
X054514Y017005D01*
X054974Y016852D02*
X055128Y017005D01*
X055128Y016545D01*
X055281Y016545D02*
X054974Y016545D01*
X055435Y016545D02*
X055435Y016622D01*
X055742Y016929D01*
X055742Y017005D01*
X055435Y017005D01*
X052073Y015479D02*
X051996Y015555D01*
X051843Y015555D01*
X051766Y015479D01*
X052073Y015479D02*
X052073Y015402D01*
X051766Y015095D01*
X052073Y015095D01*
X051612Y015095D02*
X051305Y015095D01*
X051152Y015095D02*
X050998Y015248D01*
X050845Y015172D02*
X050845Y015479D01*
X050922Y015555D01*
X051075Y015555D01*
X051152Y015479D01*
X051152Y015172D01*
X051075Y015095D01*
X050922Y015095D01*
X050845Y015172D01*
X051305Y015402D02*
X051459Y015555D01*
X051459Y015095D01*
D15*
X058375Y021025D02*
X058625Y021025D01*
X058625Y021925D01*
X058375Y021925D01*
X058375Y021475D01*
X058375Y021025D01*
X058375Y021475D02*
X058275Y021475D01*
X056725Y021475D02*
X056727Y021573D01*
X056735Y021671D01*
X056747Y021768D01*
X056763Y021865D01*
X056785Y021961D01*
X056811Y022056D01*
X056842Y022149D01*
X056877Y022240D01*
X056917Y022330D01*
X056961Y022418D01*
X057010Y022503D01*
X057062Y022586D01*
X057119Y022666D01*
X057179Y022744D01*
X057243Y022818D01*
X057311Y022889D01*
X057382Y022957D01*
X057456Y023021D01*
X057534Y023081D01*
X057614Y023138D01*
X057697Y023190D01*
X057782Y023239D01*
X057870Y023283D01*
X057960Y023323D01*
X058051Y023358D01*
X058144Y023389D01*
X058239Y023415D01*
X058335Y023437D01*
X058432Y023453D01*
X058529Y023465D01*
X058627Y023473D01*
X058725Y023475D01*
X058823Y023473D01*
X058921Y023465D01*
X059018Y023453D01*
X059115Y023437D01*
X059211Y023415D01*
X059306Y023389D01*
X059399Y023358D01*
X059490Y023323D01*
X059580Y023283D01*
X059668Y023239D01*
X059753Y023190D01*
X059836Y023138D01*
X059916Y023081D01*
X059994Y023021D01*
X060068Y022957D01*
X060139Y022889D01*
X060207Y022818D01*
X060271Y022744D01*
X060331Y022666D01*
X060388Y022586D01*
X060440Y022503D01*
X060489Y022418D01*
X060533Y022330D01*
X060573Y022240D01*
X060608Y022149D01*
X060639Y022056D01*
X060665Y021961D01*
X060687Y021865D01*
X060703Y021768D01*
X060715Y021671D01*
X060723Y021573D01*
X060725Y021475D01*
X060723Y021377D01*
X060715Y021279D01*
X060703Y021182D01*
X060687Y021085D01*
X060665Y020989D01*
X060639Y020894D01*
X060608Y020801D01*
X060573Y020710D01*
X060533Y020620D01*
X060489Y020532D01*
X060440Y020447D01*
X060388Y020364D01*
X060331Y020284D01*
X060271Y020206D01*
X060207Y020132D01*
X060139Y020061D01*
X060068Y019993D01*
X059994Y019929D01*
X059916Y019869D01*
X059836Y019812D01*
X059753Y019760D01*
X059668Y019711D01*
X059580Y019667D01*
X059490Y019627D01*
X059399Y019592D01*
X059306Y019561D01*
X059211Y019535D01*
X059115Y019513D01*
X059018Y019497D01*
X058921Y019485D01*
X058823Y019477D01*
X058725Y019475D01*
X058627Y019477D01*
X058529Y019485D01*
X058432Y019497D01*
X058335Y019513D01*
X058239Y019535D01*
X058144Y019561D01*
X058051Y019592D01*
X057960Y019627D01*
X057870Y019667D01*
X057782Y019711D01*
X057697Y019760D01*
X057614Y019812D01*
X057534Y019869D01*
X057456Y019929D01*
X057382Y019993D01*
X057311Y020061D01*
X057243Y020132D01*
X057179Y020206D01*
X057119Y020284D01*
X057062Y020364D01*
X057010Y020447D01*
X056961Y020532D01*
X056917Y020620D01*
X056877Y020710D01*
X056842Y020801D01*
X056811Y020894D01*
X056785Y020989D01*
X056763Y021085D01*
X056747Y021182D01*
X056735Y021279D01*
X056727Y021377D01*
X056725Y021475D01*
X057075Y021975D02*
X057375Y021975D01*
X057225Y022125D02*
X057225Y021825D01*
X058975Y021475D02*
X059175Y021475D01*
X054075Y026705D02*
X054075Y027125D01*
X054075Y027525D01*
X054075Y027945D01*
X054073Y027968D01*
X054068Y027991D01*
X054059Y028013D01*
X054046Y028033D01*
X054031Y028051D01*
X054013Y028066D01*
X053993Y028079D01*
X053971Y028088D01*
X053948Y028093D01*
X053925Y028095D01*
X050725Y028095D01*
X050702Y028093D01*
X050679Y028088D01*
X050657Y028079D01*
X050637Y028066D01*
X050619Y028051D01*
X050604Y028033D01*
X050591Y028013D01*
X050582Y027991D01*
X050577Y027968D01*
X050575Y027945D01*
X050575Y026705D02*
X050577Y026682D01*
X050582Y026659D01*
X050591Y026637D01*
X050604Y026617D01*
X050619Y026599D01*
X050637Y026584D01*
X050657Y026571D01*
X050679Y026562D01*
X050702Y026557D01*
X050725Y026555D01*
X053925Y026555D01*
X053948Y026557D01*
X053971Y026562D01*
X053993Y026571D01*
X054013Y026584D01*
X054031Y026599D01*
X054046Y026617D01*
X054059Y026637D01*
X054068Y026659D01*
X054073Y026682D01*
X054075Y026705D01*
X054075Y027125D02*
X054048Y027127D01*
X054021Y027132D01*
X053995Y027142D01*
X053971Y027154D01*
X053949Y027170D01*
X053929Y027188D01*
X053912Y027210D01*
X053897Y027233D01*
X053887Y027258D01*
X053879Y027284D01*
X053875Y027311D01*
X053875Y027339D01*
X053879Y027366D01*
X053887Y027392D01*
X053897Y027417D01*
X053912Y027440D01*
X053929Y027462D01*
X053949Y027480D01*
X053971Y027496D01*
X053995Y027508D01*
X054021Y027518D01*
X054048Y027523D01*
X054075Y027525D01*
X046325Y027525D02*
X046325Y027125D01*
X046325Y026705D01*
X046323Y026682D01*
X046318Y026659D01*
X046309Y026637D01*
X046296Y026617D01*
X046281Y026599D01*
X046263Y026584D01*
X046243Y026571D01*
X046221Y026562D01*
X046198Y026557D01*
X046175Y026555D01*
X042975Y026555D01*
X042952Y026557D01*
X042929Y026562D01*
X042907Y026571D01*
X042887Y026584D01*
X042869Y026599D01*
X042854Y026617D01*
X042841Y026637D01*
X042832Y026659D01*
X042827Y026682D01*
X042825Y026705D01*
X042825Y027945D02*
X042827Y027968D01*
X042832Y027991D01*
X042841Y028013D01*
X042854Y028033D01*
X042869Y028051D01*
X042887Y028066D01*
X042907Y028079D01*
X042929Y028088D01*
X042952Y028093D01*
X042975Y028095D01*
X046175Y028095D01*
X046198Y028093D01*
X046221Y028088D01*
X046243Y028079D01*
X046263Y028066D01*
X046281Y028051D01*
X046296Y028033D01*
X046309Y028013D01*
X046318Y027991D01*
X046323Y027968D01*
X046325Y027945D01*
X046325Y027525D01*
X046298Y027523D01*
X046271Y027518D01*
X046245Y027508D01*
X046221Y027496D01*
X046199Y027480D01*
X046179Y027462D01*
X046162Y027440D01*
X046147Y027417D01*
X046137Y027392D01*
X046129Y027366D01*
X046125Y027339D01*
X046125Y027311D01*
X046129Y027284D01*
X046137Y027258D01*
X046147Y027233D01*
X046162Y027210D01*
X046179Y027188D01*
X046199Y027170D01*
X046221Y027154D01*
X046245Y027142D01*
X046271Y027132D01*
X046298Y027127D01*
X046325Y027125D01*
X037075Y027125D02*
X037075Y026705D01*
X037073Y026682D01*
X037068Y026659D01*
X037059Y026637D01*
X037046Y026617D01*
X037031Y026599D01*
X037013Y026584D01*
X036993Y026571D01*
X036971Y026562D01*
X036948Y026557D01*
X036925Y026555D01*
X033725Y026555D01*
X033702Y026557D01*
X033679Y026562D01*
X033657Y026571D01*
X033637Y026584D01*
X033619Y026599D01*
X033604Y026617D01*
X033591Y026637D01*
X033582Y026659D01*
X033577Y026682D01*
X033575Y026705D01*
X033575Y027945D02*
X033577Y027968D01*
X033582Y027991D01*
X033591Y028013D01*
X033604Y028033D01*
X033619Y028051D01*
X033637Y028066D01*
X033657Y028079D01*
X033679Y028088D01*
X033702Y028093D01*
X033725Y028095D01*
X036925Y028095D01*
X036948Y028093D01*
X036971Y028088D01*
X036993Y028079D01*
X037013Y028066D01*
X037031Y028051D01*
X037046Y028033D01*
X037059Y028013D01*
X037068Y027991D01*
X037073Y027968D01*
X037075Y027945D01*
X037075Y027525D01*
X037075Y027125D01*
X037048Y027127D01*
X037021Y027132D01*
X036995Y027142D01*
X036971Y027154D01*
X036949Y027170D01*
X036929Y027188D01*
X036912Y027210D01*
X036897Y027233D01*
X036887Y027258D01*
X036879Y027284D01*
X036875Y027311D01*
X036875Y027339D01*
X036879Y027366D01*
X036887Y027392D01*
X036897Y027417D01*
X036912Y027440D01*
X036929Y027462D01*
X036949Y027480D01*
X036971Y027496D01*
X036995Y027508D01*
X037021Y027518D01*
X037048Y027523D01*
X037075Y027525D01*
X029325Y027525D02*
X029325Y027125D01*
X029325Y026705D01*
X029323Y026682D01*
X029318Y026659D01*
X029309Y026637D01*
X029296Y026617D01*
X029281Y026599D01*
X029263Y026584D01*
X029243Y026571D01*
X029221Y026562D01*
X029198Y026557D01*
X029175Y026555D01*
X025975Y026555D01*
X025952Y026557D01*
X025929Y026562D01*
X025907Y026571D01*
X025887Y026584D01*
X025869Y026599D01*
X025854Y026617D01*
X025841Y026637D01*
X025832Y026659D01*
X025827Y026682D01*
X025825Y026705D01*
X025825Y027945D02*
X025827Y027968D01*
X025832Y027991D01*
X025841Y028013D01*
X025854Y028033D01*
X025869Y028051D01*
X025887Y028066D01*
X025907Y028079D01*
X025929Y028088D01*
X025952Y028093D01*
X025975Y028095D01*
X029175Y028095D01*
X029198Y028093D01*
X029221Y028088D01*
X029243Y028079D01*
X029263Y028066D01*
X029281Y028051D01*
X029296Y028033D01*
X029309Y028013D01*
X029318Y027991D01*
X029323Y027968D01*
X029325Y027945D01*
X029325Y027525D01*
X029298Y027523D01*
X029271Y027518D01*
X029245Y027508D01*
X029221Y027496D01*
X029199Y027480D01*
X029179Y027462D01*
X029162Y027440D01*
X029147Y027417D01*
X029137Y027392D01*
X029129Y027366D01*
X029125Y027339D01*
X029125Y027311D01*
X029129Y027284D01*
X029137Y027258D01*
X029147Y027233D01*
X029162Y027210D01*
X029179Y027188D01*
X029199Y027170D01*
X029221Y027154D01*
X029245Y027142D01*
X029271Y027132D01*
X029298Y027127D01*
X029325Y027125D01*
X020075Y027125D02*
X020075Y026705D01*
X020073Y026682D01*
X020068Y026659D01*
X020059Y026637D01*
X020046Y026617D01*
X020031Y026599D01*
X020013Y026584D01*
X019993Y026571D01*
X019971Y026562D01*
X019948Y026557D01*
X019925Y026555D01*
X016725Y026555D01*
X016702Y026557D01*
X016679Y026562D01*
X016657Y026571D01*
X016637Y026584D01*
X016619Y026599D01*
X016604Y026617D01*
X016591Y026637D01*
X016582Y026659D01*
X016577Y026682D01*
X016575Y026705D01*
X016575Y027945D02*
X016577Y027968D01*
X016582Y027991D01*
X016591Y028013D01*
X016604Y028033D01*
X016619Y028051D01*
X016637Y028066D01*
X016657Y028079D01*
X016679Y028088D01*
X016702Y028093D01*
X016725Y028095D01*
X019925Y028095D01*
X019948Y028093D01*
X019971Y028088D01*
X019993Y028079D01*
X020013Y028066D01*
X020031Y028051D01*
X020046Y028033D01*
X020059Y028013D01*
X020068Y027991D01*
X020073Y027968D01*
X020075Y027945D01*
X020075Y027525D01*
X020075Y027125D01*
X020048Y027127D01*
X020021Y027132D01*
X019995Y027142D01*
X019971Y027154D01*
X019949Y027170D01*
X019929Y027188D01*
X019912Y027210D01*
X019897Y027233D01*
X019887Y027258D01*
X019879Y027284D01*
X019875Y027311D01*
X019875Y027339D01*
X019879Y027366D01*
X019887Y027392D01*
X019897Y027417D01*
X019912Y027440D01*
X019929Y027462D01*
X019949Y027480D01*
X019971Y027496D01*
X019995Y027508D01*
X020021Y027518D01*
X020048Y027523D01*
X020075Y027525D01*
X012325Y027525D02*
X012325Y027125D01*
X012325Y026705D01*
X012323Y026682D01*
X012318Y026659D01*
X012309Y026637D01*
X012296Y026617D01*
X012281Y026599D01*
X012263Y026584D01*
X012243Y026571D01*
X012221Y026562D01*
X012198Y026557D01*
X012175Y026555D01*
X008975Y026555D01*
X008952Y026557D01*
X008929Y026562D01*
X008907Y026571D01*
X008887Y026584D01*
X008869Y026599D01*
X008854Y026617D01*
X008841Y026637D01*
X008832Y026659D01*
X008827Y026682D01*
X008825Y026705D01*
X008825Y027945D02*
X008827Y027968D01*
X008832Y027991D01*
X008841Y028013D01*
X008854Y028033D01*
X008869Y028051D01*
X008887Y028066D01*
X008907Y028079D01*
X008929Y028088D01*
X008952Y028093D01*
X008975Y028095D01*
X012175Y028095D01*
X012198Y028093D01*
X012221Y028088D01*
X012243Y028079D01*
X012263Y028066D01*
X012281Y028051D01*
X012296Y028033D01*
X012309Y028013D01*
X012318Y027991D01*
X012323Y027968D01*
X012325Y027945D01*
X012325Y027525D01*
X012298Y027523D01*
X012271Y027518D01*
X012245Y027508D01*
X012221Y027496D01*
X012199Y027480D01*
X012179Y027462D01*
X012162Y027440D01*
X012147Y027417D01*
X012137Y027392D01*
X012129Y027366D01*
X012125Y027339D01*
X012125Y027311D01*
X012129Y027284D01*
X012137Y027258D01*
X012147Y027233D01*
X012162Y027210D01*
X012179Y027188D01*
X012199Y027170D01*
X012221Y027154D01*
X012245Y027142D01*
X012271Y027132D01*
X012298Y027127D01*
X012325Y027125D01*
X004075Y022425D02*
X004075Y021975D01*
X004075Y021525D01*
X003825Y021525D01*
X003825Y022425D01*
X004075Y022425D01*
X004075Y021975D02*
X004175Y021975D01*
X001725Y021975D02*
X001727Y022073D01*
X001735Y022171D01*
X001747Y022268D01*
X001763Y022365D01*
X001785Y022461D01*
X001811Y022556D01*
X001842Y022649D01*
X001877Y022740D01*
X001917Y022830D01*
X001961Y022918D01*
X002010Y023003D01*
X002062Y023086D01*
X002119Y023166D01*
X002179Y023244D01*
X002243Y023318D01*
X002311Y023389D01*
X002382Y023457D01*
X002456Y023521D01*
X002534Y023581D01*
X002614Y023638D01*
X002697Y023690D01*
X002782Y023739D01*
X002870Y023783D01*
X002960Y023823D01*
X003051Y023858D01*
X003144Y023889D01*
X003239Y023915D01*
X003335Y023937D01*
X003432Y023953D01*
X003529Y023965D01*
X003627Y023973D01*
X003725Y023975D01*
X003823Y023973D01*
X003921Y023965D01*
X004018Y023953D01*
X004115Y023937D01*
X004211Y023915D01*
X004306Y023889D01*
X004399Y023858D01*
X004490Y023823D01*
X004580Y023783D01*
X004668Y023739D01*
X004753Y023690D01*
X004836Y023638D01*
X004916Y023581D01*
X004994Y023521D01*
X005068Y023457D01*
X005139Y023389D01*
X005207Y023318D01*
X005271Y023244D01*
X005331Y023166D01*
X005388Y023086D01*
X005440Y023003D01*
X005489Y022918D01*
X005533Y022830D01*
X005573Y022740D01*
X005608Y022649D01*
X005639Y022556D01*
X005665Y022461D01*
X005687Y022365D01*
X005703Y022268D01*
X005715Y022171D01*
X005723Y022073D01*
X005725Y021975D01*
X005723Y021877D01*
X005715Y021779D01*
X005703Y021682D01*
X005687Y021585D01*
X005665Y021489D01*
X005639Y021394D01*
X005608Y021301D01*
X005573Y021210D01*
X005533Y021120D01*
X005489Y021032D01*
X005440Y020947D01*
X005388Y020864D01*
X005331Y020784D01*
X005271Y020706D01*
X005207Y020632D01*
X005139Y020561D01*
X005068Y020493D01*
X004994Y020429D01*
X004916Y020369D01*
X004836Y020312D01*
X004753Y020260D01*
X004668Y020211D01*
X004580Y020167D01*
X004490Y020127D01*
X004399Y020092D01*
X004306Y020061D01*
X004211Y020035D01*
X004115Y020013D01*
X004018Y019997D01*
X003921Y019985D01*
X003823Y019977D01*
X003725Y019975D01*
X003627Y019977D01*
X003529Y019985D01*
X003432Y019997D01*
X003335Y020013D01*
X003239Y020035D01*
X003144Y020061D01*
X003051Y020092D01*
X002960Y020127D01*
X002870Y020167D01*
X002782Y020211D01*
X002697Y020260D01*
X002614Y020312D01*
X002534Y020369D01*
X002456Y020429D01*
X002382Y020493D01*
X002311Y020561D01*
X002243Y020632D01*
X002179Y020706D01*
X002119Y020784D01*
X002062Y020864D01*
X002010Y020947D01*
X001961Y021032D01*
X001917Y021120D01*
X001877Y021210D01*
X001842Y021301D01*
X001811Y021394D01*
X001785Y021489D01*
X001763Y021585D01*
X001747Y021682D01*
X001735Y021779D01*
X001727Y021877D01*
X001725Y021975D01*
X003275Y021975D02*
X003475Y021975D01*
X005075Y021475D02*
X005375Y021475D01*
X005225Y021325D02*
X005225Y021625D01*
X018675Y038325D02*
X019275Y038325D01*
X019292Y038327D01*
X019309Y038331D01*
X019325Y038338D01*
X019339Y038348D01*
X019352Y038361D01*
X019362Y038375D01*
X019369Y038391D01*
X019373Y038408D01*
X019375Y038425D01*
X019375Y039525D01*
X019373Y039542D01*
X019369Y039559D01*
X019362Y039575D01*
X019352Y039589D01*
X019339Y039602D01*
X019325Y039612D01*
X019309Y039619D01*
X019292Y039623D01*
X019275Y039625D01*
X018675Y039625D01*
X018658Y039623D01*
X018641Y039619D01*
X018625Y039612D01*
X018611Y039602D01*
X018598Y039589D01*
X018588Y039575D01*
X018581Y039559D01*
X018577Y039542D01*
X018575Y039525D01*
X018575Y038425D01*
X018577Y038408D01*
X018581Y038391D01*
X018588Y038375D01*
X018598Y038361D01*
X018611Y038348D01*
X018625Y038338D01*
X018641Y038331D01*
X018658Y038327D01*
X018675Y038325D01*
X019575Y038425D02*
X019575Y039525D01*
X019577Y039542D01*
X019581Y039559D01*
X019588Y039575D01*
X019598Y039589D01*
X019611Y039602D01*
X019625Y039612D01*
X019641Y039619D01*
X019658Y039623D01*
X019675Y039625D01*
X020275Y039625D01*
X020292Y039623D01*
X020309Y039619D01*
X020325Y039612D01*
X020339Y039602D01*
X020352Y039589D01*
X020362Y039575D01*
X020369Y039559D01*
X020373Y039542D01*
X020375Y039525D01*
X020375Y038425D01*
X020373Y038408D01*
X020369Y038391D01*
X020362Y038375D01*
X020352Y038361D01*
X020339Y038348D01*
X020325Y038338D01*
X020309Y038331D01*
X020292Y038327D01*
X020275Y038325D01*
X019675Y038325D01*
X019658Y038327D01*
X019641Y038331D01*
X019625Y038338D01*
X019611Y038348D01*
X019598Y038361D01*
X019588Y038375D01*
X019581Y038391D01*
X019577Y038408D01*
X019575Y038425D01*
X020575Y038425D02*
X020575Y039525D01*
X020577Y039542D01*
X020581Y039559D01*
X020588Y039575D01*
X020598Y039589D01*
X020611Y039602D01*
X020625Y039612D01*
X020641Y039619D01*
X020658Y039623D01*
X020675Y039625D01*
X021275Y039625D01*
X021292Y039623D01*
X021309Y039619D01*
X021325Y039612D01*
X021339Y039602D01*
X021352Y039589D01*
X021362Y039575D01*
X021369Y039559D01*
X021373Y039542D01*
X021375Y039525D01*
X021375Y038425D01*
X021373Y038408D01*
X021369Y038391D01*
X021362Y038375D01*
X021352Y038361D01*
X021339Y038348D01*
X021325Y038338D01*
X021309Y038331D01*
X021292Y038327D01*
X021275Y038325D01*
X020675Y038325D01*
X020658Y038327D01*
X020641Y038331D01*
X020625Y038338D01*
X020611Y038348D01*
X020598Y038361D01*
X020588Y038375D01*
X020581Y038391D01*
X020577Y038408D01*
X020575Y038425D01*
X022075Y038425D02*
X022075Y039525D01*
X022077Y039542D01*
X022081Y039559D01*
X022088Y039575D01*
X022098Y039589D01*
X022111Y039602D01*
X022125Y039612D01*
X022141Y039619D01*
X022158Y039623D01*
X022175Y039625D01*
X022775Y039625D01*
X022792Y039623D01*
X022809Y039619D01*
X022825Y039612D01*
X022839Y039602D01*
X022852Y039589D01*
X022862Y039575D01*
X022869Y039559D01*
X022873Y039542D01*
X022875Y039525D01*
X022875Y038425D01*
X022873Y038408D01*
X022869Y038391D01*
X022862Y038375D01*
X022852Y038361D01*
X022839Y038348D01*
X022825Y038338D01*
X022809Y038331D01*
X022792Y038327D01*
X022775Y038325D01*
X022175Y038325D01*
X022158Y038327D01*
X022141Y038331D01*
X022125Y038338D01*
X022111Y038348D01*
X022098Y038361D01*
X022088Y038375D01*
X022081Y038391D01*
X022077Y038408D01*
X022075Y038425D01*
X023075Y038425D02*
X023075Y039525D01*
X023077Y039542D01*
X023081Y039559D01*
X023088Y039575D01*
X023098Y039589D01*
X023111Y039602D01*
X023125Y039612D01*
X023141Y039619D01*
X023158Y039623D01*
X023175Y039625D01*
X023775Y039625D01*
X023792Y039623D01*
X023809Y039619D01*
X023825Y039612D01*
X023839Y039602D01*
X023852Y039589D01*
X023862Y039575D01*
X023869Y039559D01*
X023873Y039542D01*
X023875Y039525D01*
X023875Y038425D01*
X023873Y038408D01*
X023869Y038391D01*
X023862Y038375D01*
X023852Y038361D01*
X023839Y038348D01*
X023825Y038338D01*
X023809Y038331D01*
X023792Y038327D01*
X023775Y038325D01*
X023175Y038325D01*
X023158Y038327D01*
X023141Y038331D01*
X023125Y038338D01*
X023111Y038348D01*
X023098Y038361D01*
X023088Y038375D01*
X023081Y038391D01*
X023077Y038408D01*
X023075Y038425D01*
X024075Y038425D02*
X024075Y039525D01*
X024077Y039542D01*
X024081Y039559D01*
X024088Y039575D01*
X024098Y039589D01*
X024111Y039602D01*
X024125Y039612D01*
X024141Y039619D01*
X024158Y039623D01*
X024175Y039625D01*
X024775Y039625D01*
X024792Y039623D01*
X024809Y039619D01*
X024825Y039612D01*
X024839Y039602D01*
X024852Y039589D01*
X024862Y039575D01*
X024869Y039559D01*
X024873Y039542D01*
X024875Y039525D01*
X024875Y038425D01*
X024873Y038408D01*
X024869Y038391D01*
X024862Y038375D01*
X024852Y038361D01*
X024839Y038348D01*
X024825Y038338D01*
X024809Y038331D01*
X024792Y038327D01*
X024775Y038325D01*
X024175Y038325D01*
X024158Y038327D01*
X024141Y038331D01*
X024125Y038338D01*
X024111Y038348D01*
X024098Y038361D01*
X024088Y038375D01*
X024081Y038391D01*
X024077Y038408D01*
X024075Y038425D01*
X025575Y038425D02*
X025575Y039525D01*
X025577Y039542D01*
X025581Y039559D01*
X025588Y039575D01*
X025598Y039589D01*
X025611Y039602D01*
X025625Y039612D01*
X025641Y039619D01*
X025658Y039623D01*
X025675Y039625D01*
X026275Y039625D01*
X026292Y039623D01*
X026309Y039619D01*
X026325Y039612D01*
X026339Y039602D01*
X026352Y039589D01*
X026362Y039575D01*
X026369Y039559D01*
X026373Y039542D01*
X026375Y039525D01*
X026375Y038425D01*
X026373Y038408D01*
X026369Y038391D01*
X026362Y038375D01*
X026352Y038361D01*
X026339Y038348D01*
X026325Y038338D01*
X026309Y038331D01*
X026292Y038327D01*
X026275Y038325D01*
X025675Y038325D01*
X025658Y038327D01*
X025641Y038331D01*
X025625Y038338D01*
X025611Y038348D01*
X025598Y038361D01*
X025588Y038375D01*
X025581Y038391D01*
X025577Y038408D01*
X025575Y038425D01*
X026575Y038425D02*
X026575Y039525D01*
X026577Y039542D01*
X026581Y039559D01*
X026588Y039575D01*
X026598Y039589D01*
X026611Y039602D01*
X026625Y039612D01*
X026641Y039619D01*
X026658Y039623D01*
X026675Y039625D01*
X027275Y039625D01*
X027292Y039623D01*
X027309Y039619D01*
X027325Y039612D01*
X027339Y039602D01*
X027352Y039589D01*
X027362Y039575D01*
X027369Y039559D01*
X027373Y039542D01*
X027375Y039525D01*
X027375Y038425D01*
X027373Y038408D01*
X027369Y038391D01*
X027362Y038375D01*
X027352Y038361D01*
X027339Y038348D01*
X027325Y038338D01*
X027309Y038331D01*
X027292Y038327D01*
X027275Y038325D01*
X026675Y038325D01*
X026658Y038327D01*
X026641Y038331D01*
X026625Y038338D01*
X026611Y038348D01*
X026598Y038361D01*
X026588Y038375D01*
X026581Y038391D01*
X026577Y038408D01*
X026575Y038425D01*
X027575Y038425D02*
X027575Y039525D01*
X027577Y039542D01*
X027581Y039559D01*
X027588Y039575D01*
X027598Y039589D01*
X027611Y039602D01*
X027625Y039612D01*
X027641Y039619D01*
X027658Y039623D01*
X027675Y039625D01*
X028275Y039625D01*
X028292Y039623D01*
X028309Y039619D01*
X028325Y039612D01*
X028339Y039602D01*
X028352Y039589D01*
X028362Y039575D01*
X028369Y039559D01*
X028373Y039542D01*
X028375Y039525D01*
X028375Y038425D01*
X028373Y038408D01*
X028369Y038391D01*
X028362Y038375D01*
X028352Y038361D01*
X028339Y038348D01*
X028325Y038338D01*
X028309Y038331D01*
X028292Y038327D01*
X028275Y038325D01*
X027675Y038325D01*
X027658Y038327D01*
X027641Y038331D01*
X027625Y038338D01*
X027611Y038348D01*
X027598Y038361D01*
X027588Y038375D01*
X027581Y038391D01*
X027577Y038408D01*
X027575Y038425D01*
X029075Y038425D02*
X029075Y039525D01*
X029077Y039542D01*
X029081Y039559D01*
X029088Y039575D01*
X029098Y039589D01*
X029111Y039602D01*
X029125Y039612D01*
X029141Y039619D01*
X029158Y039623D01*
X029175Y039625D01*
X029775Y039625D01*
X029792Y039623D01*
X029809Y039619D01*
X029825Y039612D01*
X029839Y039602D01*
X029852Y039589D01*
X029862Y039575D01*
X029869Y039559D01*
X029873Y039542D01*
X029875Y039525D01*
X029875Y038425D01*
X029873Y038408D01*
X029869Y038391D01*
X029862Y038375D01*
X029852Y038361D01*
X029839Y038348D01*
X029825Y038338D01*
X029809Y038331D01*
X029792Y038327D01*
X029775Y038325D01*
X029175Y038325D01*
X029158Y038327D01*
X029141Y038331D01*
X029125Y038338D01*
X029111Y038348D01*
X029098Y038361D01*
X029088Y038375D01*
X029081Y038391D01*
X029077Y038408D01*
X029075Y038425D01*
X030075Y038425D02*
X030075Y039525D01*
X030077Y039542D01*
X030081Y039559D01*
X030088Y039575D01*
X030098Y039589D01*
X030111Y039602D01*
X030125Y039612D01*
X030141Y039619D01*
X030158Y039623D01*
X030175Y039625D01*
X030775Y039625D01*
X030792Y039623D01*
X030809Y039619D01*
X030825Y039612D01*
X030839Y039602D01*
X030852Y039589D01*
X030862Y039575D01*
X030869Y039559D01*
X030873Y039542D01*
X030875Y039525D01*
X030875Y038425D01*
X030873Y038408D01*
X030869Y038391D01*
X030862Y038375D01*
X030852Y038361D01*
X030839Y038348D01*
X030825Y038338D01*
X030809Y038331D01*
X030792Y038327D01*
X030775Y038325D01*
X030175Y038325D01*
X030158Y038327D01*
X030141Y038331D01*
X030125Y038338D01*
X030111Y038348D01*
X030098Y038361D01*
X030088Y038375D01*
X030081Y038391D01*
X030077Y038408D01*
X030075Y038425D01*
X031075Y038425D02*
X031075Y039525D01*
X031077Y039542D01*
X031081Y039559D01*
X031088Y039575D01*
X031098Y039589D01*
X031111Y039602D01*
X031125Y039612D01*
X031141Y039619D01*
X031158Y039623D01*
X031175Y039625D01*
X031775Y039625D01*
X031792Y039623D01*
X031809Y039619D01*
X031825Y039612D01*
X031839Y039602D01*
X031852Y039589D01*
X031862Y039575D01*
X031869Y039559D01*
X031873Y039542D01*
X031875Y039525D01*
X031875Y038425D01*
X031873Y038408D01*
X031869Y038391D01*
X031862Y038375D01*
X031852Y038361D01*
X031839Y038348D01*
X031825Y038338D01*
X031809Y038331D01*
X031792Y038327D01*
X031775Y038325D01*
X031175Y038325D01*
X031158Y038327D01*
X031141Y038331D01*
X031125Y038338D01*
X031111Y038348D01*
X031098Y038361D01*
X031088Y038375D01*
X031081Y038391D01*
X031077Y038408D01*
X031075Y038425D01*
X032575Y038425D02*
X032575Y039525D01*
X032577Y039542D01*
X032581Y039559D01*
X032588Y039575D01*
X032598Y039589D01*
X032611Y039602D01*
X032625Y039612D01*
X032641Y039619D01*
X032658Y039623D01*
X032675Y039625D01*
X033275Y039625D01*
X033292Y039623D01*
X033309Y039619D01*
X033325Y039612D01*
X033339Y039602D01*
X033352Y039589D01*
X033362Y039575D01*
X033369Y039559D01*
X033373Y039542D01*
X033375Y039525D01*
X033375Y038425D01*
X033373Y038408D01*
X033369Y038391D01*
X033362Y038375D01*
X033352Y038361D01*
X033339Y038348D01*
X033325Y038338D01*
X033309Y038331D01*
X033292Y038327D01*
X033275Y038325D01*
X032675Y038325D01*
X032658Y038327D01*
X032641Y038331D01*
X032625Y038338D01*
X032611Y038348D01*
X032598Y038361D01*
X032588Y038375D01*
X032581Y038391D01*
X032577Y038408D01*
X032575Y038425D01*
X033575Y038425D02*
X033575Y039525D01*
X033577Y039542D01*
X033581Y039559D01*
X033588Y039575D01*
X033598Y039589D01*
X033611Y039602D01*
X033625Y039612D01*
X033641Y039619D01*
X033658Y039623D01*
X033675Y039625D01*
X034275Y039625D01*
X034292Y039623D01*
X034309Y039619D01*
X034325Y039612D01*
X034339Y039602D01*
X034352Y039589D01*
X034362Y039575D01*
X034369Y039559D01*
X034373Y039542D01*
X034375Y039525D01*
X034375Y038425D01*
X034373Y038408D01*
X034369Y038391D01*
X034362Y038375D01*
X034352Y038361D01*
X034339Y038348D01*
X034325Y038338D01*
X034309Y038331D01*
X034292Y038327D01*
X034275Y038325D01*
X033675Y038325D01*
X033658Y038327D01*
X033641Y038331D01*
X033625Y038338D01*
X033611Y038348D01*
X033598Y038361D01*
X033588Y038375D01*
X033581Y038391D01*
X033577Y038408D01*
X033575Y038425D01*
X034575Y038425D02*
X034575Y039525D01*
X034577Y039542D01*
X034581Y039559D01*
X034588Y039575D01*
X034598Y039589D01*
X034611Y039602D01*
X034625Y039612D01*
X034641Y039619D01*
X034658Y039623D01*
X034675Y039625D01*
X035275Y039625D01*
X035292Y039623D01*
X035309Y039619D01*
X035325Y039612D01*
X035339Y039602D01*
X035352Y039589D01*
X035362Y039575D01*
X035369Y039559D01*
X035373Y039542D01*
X035375Y039525D01*
X035375Y038425D01*
X035373Y038408D01*
X035369Y038391D01*
X035362Y038375D01*
X035352Y038361D01*
X035339Y038348D01*
X035325Y038338D01*
X035309Y038331D01*
X035292Y038327D01*
X035275Y038325D01*
X034675Y038325D01*
X034658Y038327D01*
X034641Y038331D01*
X034625Y038338D01*
X034611Y038348D01*
X034598Y038361D01*
X034588Y038375D01*
X034581Y038391D01*
X034577Y038408D01*
X034575Y038425D01*
X036075Y038425D02*
X036075Y039525D01*
X036077Y039542D01*
X036081Y039559D01*
X036088Y039575D01*
X036098Y039589D01*
X036111Y039602D01*
X036125Y039612D01*
X036141Y039619D01*
X036158Y039623D01*
X036175Y039625D01*
X036775Y039625D01*
X036792Y039623D01*
X036809Y039619D01*
X036825Y039612D01*
X036839Y039602D01*
X036852Y039589D01*
X036862Y039575D01*
X036869Y039559D01*
X036873Y039542D01*
X036875Y039525D01*
X036875Y038425D01*
X036873Y038408D01*
X036869Y038391D01*
X036862Y038375D01*
X036852Y038361D01*
X036839Y038348D01*
X036825Y038338D01*
X036809Y038331D01*
X036792Y038327D01*
X036775Y038325D01*
X036175Y038325D01*
X036158Y038327D01*
X036141Y038331D01*
X036125Y038338D01*
X036111Y038348D01*
X036098Y038361D01*
X036088Y038375D01*
X036081Y038391D01*
X036077Y038408D01*
X036075Y038425D01*
X037075Y038425D02*
X037075Y039525D01*
X037077Y039542D01*
X037081Y039559D01*
X037088Y039575D01*
X037098Y039589D01*
X037111Y039602D01*
X037125Y039612D01*
X037141Y039619D01*
X037158Y039623D01*
X037175Y039625D01*
X037775Y039625D01*
X037792Y039623D01*
X037809Y039619D01*
X037825Y039612D01*
X037839Y039602D01*
X037852Y039589D01*
X037862Y039575D01*
X037869Y039559D01*
X037873Y039542D01*
X037875Y039525D01*
X037875Y038425D01*
X037873Y038408D01*
X037869Y038391D01*
X037862Y038375D01*
X037852Y038361D01*
X037839Y038348D01*
X037825Y038338D01*
X037809Y038331D01*
X037792Y038327D01*
X037775Y038325D01*
X037175Y038325D01*
X037158Y038327D01*
X037141Y038331D01*
X037125Y038338D01*
X037111Y038348D01*
X037098Y038361D01*
X037088Y038375D01*
X037081Y038391D01*
X037077Y038408D01*
X037075Y038425D01*
X038075Y038425D02*
X038075Y039525D01*
X038077Y039542D01*
X038081Y039559D01*
X038088Y039575D01*
X038098Y039589D01*
X038111Y039602D01*
X038125Y039612D01*
X038141Y039619D01*
X038158Y039623D01*
X038175Y039625D01*
X038775Y039625D01*
X038792Y039623D01*
X038809Y039619D01*
X038825Y039612D01*
X038839Y039602D01*
X038852Y039589D01*
X038862Y039575D01*
X038869Y039559D01*
X038873Y039542D01*
X038875Y039525D01*
X038875Y038425D01*
X038873Y038408D01*
X038869Y038391D01*
X038862Y038375D01*
X038852Y038361D01*
X038839Y038348D01*
X038825Y038338D01*
X038809Y038331D01*
X038792Y038327D01*
X038775Y038325D01*
X038175Y038325D01*
X038158Y038327D01*
X038141Y038331D01*
X038125Y038338D01*
X038111Y038348D01*
X038098Y038361D01*
X038088Y038375D01*
X038081Y038391D01*
X038077Y038408D01*
X038075Y038425D01*
D16*
X037075Y027955D02*
X033575Y027955D01*
X029325Y027955D02*
X025825Y027955D01*
X020075Y027955D02*
X016575Y027955D01*
X012325Y027955D02*
X008825Y027955D01*
X042825Y027955D02*
X046325Y027955D01*
X050575Y027955D02*
X054075Y027955D01*
D17*
X055637Y027200D02*
X055825Y026950D01*
X055825Y026854D01*
X055825Y026950D02*
X055637Y026950D01*
X055825Y026950D02*
X056013Y026950D01*
X055825Y026950D02*
X056013Y027200D01*
X055825Y027200D01*
X055825Y027296D01*
X055825Y027200D02*
X055637Y027200D01*
X050340Y027275D02*
X050340Y027350D01*
X050265Y027425D01*
X050040Y027425D01*
X050040Y027275D01*
X050115Y027200D01*
X050265Y027200D01*
X050340Y027275D01*
X050190Y027575D02*
X050040Y027425D01*
X050190Y027575D02*
X050340Y027650D01*
X049879Y027650D02*
X049879Y027275D01*
X049804Y027200D01*
X049654Y027200D01*
X049579Y027275D01*
X049579Y027650D01*
X048513Y027200D02*
X048325Y026950D01*
X048325Y026854D01*
X048325Y026950D02*
X048137Y026950D01*
X048325Y026950D02*
X048513Y026950D01*
X048325Y026950D02*
X048137Y027200D01*
X048325Y027200D01*
X048325Y027296D01*
X048325Y027200D02*
X048513Y027200D01*
X042540Y027275D02*
X042465Y027200D01*
X042315Y027200D01*
X042240Y027275D01*
X042240Y027425D02*
X042390Y027500D01*
X042465Y027500D01*
X042540Y027425D01*
X042540Y027275D01*
X042240Y027425D02*
X042240Y027650D01*
X042540Y027650D01*
X042079Y027650D02*
X042079Y027275D01*
X042004Y027200D01*
X041854Y027200D01*
X041779Y027275D01*
X041779Y027650D01*
X039013Y027200D02*
X038825Y026950D01*
X038825Y026854D01*
X038825Y026950D02*
X038637Y026950D01*
X038825Y026950D02*
X038637Y027200D01*
X038825Y027200D01*
X038825Y027296D01*
X038825Y027200D02*
X039013Y027200D01*
X039013Y026950D02*
X038825Y026950D01*
X033261Y027425D02*
X032960Y027425D01*
X033186Y027650D01*
X033186Y027200D01*
X032800Y027275D02*
X032800Y027650D01*
X032500Y027650D02*
X032500Y027275D01*
X032575Y027200D01*
X032725Y027200D01*
X032800Y027275D01*
X031513Y027200D02*
X031325Y026950D01*
X031325Y026854D01*
X031325Y026950D02*
X031137Y026950D01*
X031325Y026950D02*
X031513Y026950D01*
X031325Y026950D02*
X031137Y027200D01*
X031325Y027200D01*
X031325Y027296D01*
X031325Y027200D02*
X031513Y027200D01*
X025540Y027225D02*
X025465Y027150D01*
X025315Y027150D01*
X025240Y027225D01*
X025079Y027225D02*
X025079Y027600D01*
X025240Y027525D02*
X025315Y027600D01*
X025465Y027600D01*
X025540Y027525D01*
X025540Y027450D01*
X025465Y027375D01*
X025540Y027300D01*
X025540Y027225D01*
X025465Y027375D02*
X025390Y027375D01*
X025079Y027225D02*
X025004Y027150D01*
X024854Y027150D01*
X024779Y027225D01*
X024779Y027600D01*
X022013Y027200D02*
X021825Y026950D01*
X021825Y026854D01*
X021825Y026950D02*
X021637Y026950D01*
X021825Y026950D02*
X021637Y027200D01*
X021825Y027200D01*
X021825Y027296D01*
X021825Y027200D02*
X022013Y027200D01*
X022013Y026950D02*
X021825Y026950D01*
X016311Y027200D02*
X016010Y027200D01*
X016311Y027500D01*
X016311Y027575D01*
X016236Y027650D01*
X016085Y027650D01*
X016010Y027575D01*
X015850Y027650D02*
X015850Y027275D01*
X015775Y027200D01*
X015625Y027200D01*
X015550Y027275D01*
X015550Y027650D01*
X014513Y027200D02*
X014325Y027200D01*
X014325Y027296D01*
X014325Y027200D02*
X014137Y027200D01*
X014325Y026950D01*
X014325Y026854D01*
X014325Y026950D02*
X014137Y026950D01*
X014325Y026950D02*
X014513Y026950D01*
X014325Y026950D02*
X014513Y027200D01*
X008711Y027150D02*
X008410Y027150D01*
X008561Y027150D02*
X008561Y027600D01*
X008410Y027450D01*
X008250Y027600D02*
X008250Y027225D01*
X008175Y027150D01*
X008025Y027150D01*
X007950Y027225D01*
X007950Y027600D01*
X003690Y023170D02*
X003690Y022720D01*
X003540Y022720D02*
X003840Y022720D01*
X003540Y023020D02*
X003690Y023170D01*
X003379Y023095D02*
X003304Y023170D01*
X003154Y023170D01*
X003079Y023095D01*
X003079Y022795D01*
X003154Y022720D01*
X003304Y022720D01*
X003379Y022795D01*
X014225Y034597D02*
X014225Y037353D01*
X014247Y037353D02*
X048203Y037353D01*
X048225Y037353D02*
X048225Y034597D01*
X048203Y034597D02*
X014247Y034597D01*
X058200Y022755D02*
X058200Y022455D01*
X058275Y022380D01*
X058425Y022380D01*
X058500Y022455D01*
X058660Y022380D02*
X058961Y022380D01*
X058811Y022380D02*
X058811Y022830D01*
X058660Y022680D01*
X058500Y022755D02*
X058425Y022830D01*
X058275Y022830D01*
X058200Y022755D01*
X059121Y022605D02*
X059421Y022605D01*
X059346Y022380D02*
X059346Y022830D01*
X059121Y022605D01*
D18*
X058950Y021475D03*
X003500Y021975D03*
M02*
