%
M48
M72
T01C0.0160
T02C0.0200
T03C0.0360
T04C0.0400
T05C0.0787
T06C0.0827
T07C0.1180
T08C0.1400
%
T01
X16475Y35575
X16975Y35575
X17475Y35575
X17975Y35575
X18475Y35575
X18975Y35575
X19475Y35575
X19975Y35575
X20475Y35575
X20975Y35575
X21475Y35575
X21975Y35575
X22475Y35575
X22975Y35575
X23475Y35575
X23975Y35575
X24475Y35575
X24975Y35575
X25475Y35575
X25975Y35575
X26475Y35575
X26975Y35575
X27475Y35575
X27975Y35575
X28475Y35575
X28975Y35575
X29475Y35575
X29975Y35575
X30475Y35575
X30975Y35575
X31475Y35575
X31975Y35575
X32475Y35575
X32975Y35575
X33475Y35575
X33975Y35575
X34475Y35575
X34975Y35575
X35475Y35575
X35975Y35575
X36475Y35575
X36975Y35575
X37475Y35575
X37975Y35575
X38475Y35575
X38975Y35575
X39475Y35575
X39975Y35575
X40475Y35575
X40975Y35575
X41475Y35575
X41975Y35575
X42475Y35575
X42975Y35575
X43475Y35575
X43975Y35575
X44475Y35575
X44975Y35575
X45475Y35575
X45975Y35575
X45975Y36375
X45475Y36375
X44975Y36375
X44475Y36375
X43975Y36375
X43475Y36375
X42975Y36375
X42475Y36375
X41975Y36375
X41475Y36375
X40975Y36375
X40475Y36375
X39975Y36375
X39475Y36375
X38975Y36375
X38475Y36375
X37975Y36375
X37475Y36375
X36975Y36375
X36475Y36375
X35975Y36375
X35475Y36375
X34975Y36375
X34475Y36375
X33975Y36375
X33475Y36375
X32975Y36375
X32475Y36375
X31975Y36375
X31475Y36375
X30975Y36375
X30475Y36375
X29975Y36375
X29475Y36375
X28975Y36375
X28475Y36375
X27975Y36375
X27475Y36375
X26975Y36375
X26475Y36375
X25975Y36375
X25475Y36375
X24975Y36375
X24475Y36375
X23975Y36375
X23475Y36375
X22975Y36375
X22475Y36375
X21975Y36375
X21475Y36375
X20975Y36375
X20475Y36375
X19975Y36375
X19475Y36375
X18975Y36375
X18475Y36375
X17975Y36375
X17475Y36375
X16975Y36375
X16475Y36375
T02
X15325Y38725
X14325Y39275
X13225Y39925
X22075Y31875
X23575Y31875
X25075Y31875
X29075Y29475
X29075Y29125
X27075Y29125
X25075Y26775
X24675Y26775
X22375Y23675
X21375Y23675
X20375Y23675
X20075Y25075
X15925Y26825
X15525Y26825
X17825Y29075
X19825Y29075
X19825Y29425
X12075Y29475
X12075Y29125
X10075Y29075
X11925Y25075
X11875Y23675
X12875Y23675
X13875Y23675
X13875Y19525
X12875Y19525
X11875Y19525
X20375Y19525
X21375Y19525
X22375Y19525
X28875Y19525
X29875Y19525
X30875Y19525
X30875Y23675
X29875Y23675
X28875Y23675
X29075Y25075
X32575Y26775
X32975Y26775
X34825Y29075
X36825Y29075
X36825Y29425
X39325Y31875
X40825Y31875
X42325Y31875
X46175Y29425
X46075Y29125
X44075Y29075
X42075Y26775
X41625Y26775
X39375Y23675
X38375Y23675
X37375Y23675
X37025Y25125
X37375Y19525
X38375Y19525
X39375Y19525
X45875Y19525
X46875Y19525
X47875Y19525
X47875Y23675
X46875Y23675
X45875Y23675
X46075Y25125
X49525Y26825
X49925Y26825
X51825Y29075
X53825Y29075
X53825Y29375
X54375Y23675
X55375Y23675
X56375Y23675
X56375Y19525
X55375Y19525
X54375Y19525
X50225Y13025
X49725Y13025
X49725Y12275
X50225Y12275
X41825Y12275
X41225Y12275
X41225Y12925
X41825Y12925
X33225Y13025
X32725Y13025
X32725Y12275
X33225Y12275
X24825Y12275
X24225Y12275
X24225Y12925
X24825Y12925
X16225Y13025
X15725Y13025
X15725Y12275
X16225Y12275
X7825Y12275
X7225Y12275
X7225Y12925
X7825Y12925
X47625Y39325
X48625Y39825
X49675Y40325
T03
X53225Y39975
X51575Y35925
X51575Y32175
X49575Y29625
X40825Y29625
X31725Y29625
X31725Y32475
X23575Y29625
X15175Y29675
X12425Y32675
X9975Y32725
X2225Y30975
X9725Y39975
X2225Y17975
X2225Y7975
X60225Y8975
X60225Y25975
X60225Y30475
X60225Y34475
T04
X59725Y21475
X57725Y21475
X4725Y21975
X2725Y21975
T05
X6725Y26325
X6725Y27975
X6725Y29625
X6725Y32325
X6725Y33975
X6725Y35625
X7825Y6725
X9475Y6725
X11125Y6725
X12825Y6725
X14475Y6725
X16125Y6725
X17825Y6725
X19475Y6725
X21125Y6725
X24825Y6725
X26475Y6725
X28125Y6725
X29825Y6725
X31475Y6725
X33125Y6725
X34825Y6725
X36475Y6725
X38125Y6725
X41825Y6725
X43475Y6725
X45125Y6725
X46825Y6725
X48475Y6725
X50125Y6725
X51825Y6725
X53475Y6725
X55125Y6725
T06
X46973Y35975
X46973Y35975
X15477Y35975
X15477Y35975
T07
X3855Y35615
X3855Y32325
X3855Y29615
X3855Y26325
X7835Y3855
X11125Y3855
X12835Y3855
X16125Y3855
X17835Y3855
X21125Y3855
X24835Y3855
X28125Y3855
X29835Y3855
X33125Y3855
X34835Y3855
X38125Y3855
X41835Y3855
X45125Y3855
X46835Y3855
X50125Y3855
X51835Y3855
X55125Y3855
T08
X3725Y3475
X58725Y3475
X58725Y38475
X3725Y38475
M30
