%
M48
M72
T01C0.0276
T02C0.0354
T03C0.0400
T04C0.0430
T05C0.0550
T06C0.0830
T07C0.1480
%
T01
X20050Y14598
X20050Y17098
X20050Y21598
X21050Y21598
X21050Y24098
X20050Y24098
X20050Y25098
X18050Y25098
X16050Y25098
X14050Y25098
X12050Y25098
X13300Y27098
X13300Y28348
X15300Y28348
X15300Y27098
X17300Y27098
X17300Y28348
X19300Y27098
X21300Y27098
X23300Y27098
X25300Y27098
X24050Y25098
X22050Y25098
X11550Y30098
X10050Y29598
X10050Y27848
X9300Y27848
X10800Y27848
X7800Y28848
T02
X8050Y27598
X5300Y28598
X9800Y24848
X9800Y22848
X8300Y22848
X7300Y22848
X9800Y18848
X9800Y15848
X8300Y15848
X7300Y15848
X9800Y11848
X9800Y8848
X8300Y8848
X7300Y8848
X9800Y4848
X16800Y4598
X16800Y5348
X18800Y5848
X16800Y11598
X16800Y12348
X18800Y12848
X16800Y18598
X16800Y19348
X18800Y19848
X28550Y27598
X30550Y24098
T03
X4300Y24348
X4300Y23348
X3300Y23348
X3300Y24348
X3300Y25348
X4300Y25348
X4300Y26348
X3300Y26348
T04
X32300Y18348
X36300Y18348
T05
X38800Y24848
X38800Y26848
X34300Y30848
X32300Y30848
X3300Y15848
X3300Y13848
X3300Y11848
X21800Y4848
X23800Y4848
X25800Y4848
X27800Y4848
X29800Y4848
T06
X30800Y12348
X37800Y13348
T07
X4300Y4098
X4300Y31598
X38300Y31598
X38300Y4098
M30
