G75*
G70*
%OFA0B0*%
%FSLAX24Y24*%
%IPPOS*%
%LPD*%
%AMOC8*
5,1,8,0,0,1.08239X$1,22.5*
%
%ADD10C,0.0000*%
%ADD11C,0.0060*%
%ADD12C,0.0050*%
%ADD13C,0.0080*%
%ADD14C,0.0168*%
%ADD15C,0.0040*%
D10*
X001300Y002848D02*
X001300Y032848D01*
X041300Y032848D01*
X041300Y002848D01*
X001300Y002848D01*
D11*
X005687Y011628D02*
X005580Y011735D01*
X005687Y011628D02*
X005900Y011628D01*
X006007Y011735D01*
X006007Y011842D01*
X005900Y011948D01*
X005794Y011948D01*
X005900Y011948D02*
X006007Y012055D01*
X006007Y012162D01*
X005900Y012269D01*
X005687Y012269D01*
X005580Y012162D01*
X006225Y011735D02*
X006331Y011735D01*
X006331Y011628D01*
X006225Y011628D01*
X006225Y011735D01*
X006547Y011735D02*
X006654Y011628D01*
X006867Y011628D01*
X006974Y011735D01*
X006974Y011842D01*
X006867Y011948D01*
X006760Y011948D01*
X006867Y011948D02*
X006974Y012055D01*
X006974Y012162D01*
X006867Y012269D01*
X006654Y012269D01*
X006547Y012162D01*
X006150Y013628D02*
X005937Y013628D01*
X005830Y013735D01*
X005830Y013948D02*
X006044Y014055D01*
X006150Y014055D01*
X006257Y013948D01*
X006257Y013735D01*
X006150Y013628D01*
X005830Y013948D02*
X005830Y014269D01*
X006257Y014269D01*
X006225Y015628D02*
X006652Y016055D01*
X006652Y016162D01*
X006545Y016269D01*
X006331Y016269D01*
X006225Y016162D01*
X005794Y016269D02*
X005794Y015628D01*
X006007Y015628D02*
X005580Y015628D01*
X006225Y015628D02*
X006652Y015628D01*
X005794Y016269D02*
X005580Y016055D01*
X004550Y022848D02*
X003050Y022848D01*
X002800Y023098D01*
X002800Y023598D01*
X003050Y023848D01*
X004550Y023848D01*
X004800Y023598D01*
X004800Y023098D01*
X004550Y022848D01*
X004550Y023848D02*
X004800Y024098D01*
X004800Y024598D01*
X004550Y024848D01*
X003050Y024848D01*
X002800Y024598D01*
X002800Y024098D01*
X003050Y023848D01*
X003050Y024848D02*
X002800Y025098D01*
X002800Y025598D01*
X003050Y025848D01*
X004550Y025848D01*
X004800Y025598D01*
X004800Y025098D01*
X004550Y024848D01*
X004550Y025848D02*
X004800Y026098D01*
X004800Y026598D01*
X004550Y026848D01*
X003050Y026848D01*
X002800Y026598D01*
X002800Y026098D01*
X003050Y025848D01*
X012830Y031378D02*
X012830Y032019D01*
X013044Y032019D01*
X013260Y032019D02*
X013473Y031805D01*
X013687Y032019D01*
X013687Y031378D01*
X013904Y031378D02*
X014225Y031378D01*
X014331Y031485D01*
X014331Y031912D01*
X014225Y032019D01*
X013904Y032019D01*
X013904Y031378D01*
X014549Y031378D02*
X014549Y031805D01*
X014762Y032019D01*
X014976Y031805D01*
X014976Y031378D01*
X015193Y031378D02*
X015407Y031378D01*
X015407Y032019D01*
X015193Y032019D01*
X014976Y031698D02*
X014549Y031698D01*
X013260Y031378D02*
X013260Y032019D01*
X013044Y031378D02*
X012830Y031378D01*
X015830Y030805D02*
X015830Y030378D01*
X015830Y030698D02*
X016257Y030698D01*
X016257Y030805D02*
X016257Y030378D01*
X016475Y030378D02*
X016688Y030378D01*
X016581Y030378D02*
X016581Y031019D01*
X016475Y031019D01*
X016257Y030805D02*
X016044Y031019D01*
X015830Y030805D01*
X016268Y031378D02*
X016268Y032019D01*
X016588Y032019D01*
X016695Y031912D01*
X016695Y031698D01*
X016588Y031592D01*
X016268Y031592D01*
X016912Y031698D02*
X016912Y031485D01*
X017019Y031378D01*
X017232Y031378D01*
X017339Y031485D01*
X017339Y031698D01*
X017232Y031805D01*
X017019Y031805D01*
X016912Y031698D01*
X017557Y031805D02*
X017557Y031485D01*
X017663Y031378D01*
X017770Y031485D01*
X017877Y031378D01*
X017984Y031485D01*
X017984Y031805D01*
X018201Y031698D02*
X018308Y031805D01*
X018522Y031805D01*
X018628Y031698D01*
X018628Y031592D01*
X018201Y031592D01*
X018201Y031698D02*
X018201Y031485D01*
X018308Y031378D01*
X018522Y031378D01*
X018846Y031378D02*
X018846Y031805D01*
X018846Y031592D02*
X019059Y031805D01*
X019166Y031805D01*
X019589Y031125D02*
X019589Y031019D01*
X019589Y030805D02*
X019589Y030378D01*
X019482Y030378D02*
X019696Y030378D01*
X019912Y030485D02*
X020019Y030378D01*
X020339Y030378D01*
X020339Y030271D02*
X020339Y030805D01*
X020019Y030805D01*
X019912Y030698D01*
X019912Y030485D01*
X020126Y030165D02*
X020232Y030165D01*
X020339Y030271D01*
X020557Y030485D02*
X020663Y030378D01*
X020984Y030378D01*
X020984Y030271D02*
X020984Y030805D01*
X020663Y030805D01*
X020557Y030698D01*
X020557Y030485D01*
X020770Y030165D02*
X020877Y030165D01*
X020984Y030271D01*
X021201Y030485D02*
X021308Y030378D01*
X021522Y030378D01*
X021628Y030485D01*
X021628Y030698D01*
X021522Y030805D01*
X021308Y030805D01*
X021201Y030698D01*
X021201Y030485D01*
X021846Y030805D02*
X022059Y030805D01*
X021953Y030912D02*
X021953Y030485D01*
X022059Y030378D01*
X022382Y030485D02*
X022489Y030378D01*
X022382Y030485D02*
X022382Y030912D01*
X022275Y030805D02*
X022489Y030805D01*
X022819Y031165D02*
X022926Y031165D01*
X023033Y031271D01*
X023033Y031805D01*
X022712Y031805D01*
X022606Y031698D01*
X022606Y031485D01*
X022712Y031378D01*
X023033Y031378D01*
X023250Y031485D02*
X023250Y031698D01*
X023357Y031805D01*
X023570Y031805D01*
X023677Y031698D01*
X023677Y031592D01*
X023250Y031592D01*
X023250Y031485D02*
X023357Y031378D01*
X023570Y031378D01*
X023895Y031378D02*
X023895Y031805D01*
X024002Y031805D01*
X024108Y031698D01*
X024215Y031805D01*
X024322Y031698D01*
X024322Y031378D01*
X024108Y031378D02*
X024108Y031698D01*
X024539Y031698D02*
X024646Y031805D01*
X024860Y031805D01*
X024966Y031698D01*
X024966Y031592D01*
X024539Y031592D01*
X024539Y031698D02*
X024539Y031485D01*
X024646Y031378D01*
X024860Y031378D01*
X025184Y031378D02*
X025184Y031805D01*
X025504Y031805D01*
X025611Y031698D01*
X025611Y031378D01*
X025935Y031485D02*
X026042Y031378D01*
X025935Y031485D02*
X025935Y031912D01*
X025828Y031805D02*
X026042Y031805D01*
X026903Y031698D02*
X027223Y031698D01*
X027330Y031592D01*
X027330Y031485D01*
X027223Y031378D01*
X026903Y031378D01*
X026903Y032019D01*
X027223Y032019D01*
X027330Y031912D01*
X027330Y031805D01*
X027223Y031698D01*
X027547Y031698D02*
X027654Y031805D01*
X027867Y031805D01*
X027974Y031698D01*
X027974Y031485D01*
X027867Y031378D01*
X027654Y031378D01*
X027547Y031485D01*
X027547Y031698D01*
X028192Y031485D02*
X028299Y031592D01*
X028619Y031592D01*
X028619Y031698D02*
X028619Y031378D01*
X028299Y031378D01*
X028192Y031485D01*
X028299Y031805D02*
X028512Y031805D01*
X028619Y031698D01*
X028836Y031592D02*
X029050Y031805D01*
X029157Y031805D01*
X029373Y031698D02*
X029480Y031805D01*
X029800Y031805D01*
X029800Y032019D02*
X029800Y031378D01*
X029480Y031378D01*
X029373Y031485D01*
X029373Y031698D01*
X028836Y031805D02*
X028836Y031378D01*
X026571Y030805D02*
X026571Y030592D01*
X026358Y030378D01*
X026140Y030378D02*
X025713Y030378D01*
X026140Y030805D01*
X026140Y030912D01*
X026033Y031019D01*
X025820Y031019D01*
X025713Y030912D01*
X025282Y031019D02*
X025282Y030378D01*
X025069Y030378D02*
X025496Y030378D01*
X024851Y030485D02*
X024744Y030378D01*
X024531Y030378D01*
X024424Y030485D01*
X024851Y030912D01*
X024851Y030485D01*
X025069Y030805D02*
X025282Y031019D01*
X024851Y030912D02*
X024744Y031019D01*
X024531Y031019D01*
X024424Y030912D01*
X024424Y030485D01*
X024206Y030378D02*
X023779Y030378D01*
X024206Y030805D01*
X024206Y030912D01*
X024100Y031019D01*
X023886Y031019D01*
X023779Y030912D01*
X023563Y031019D02*
X023350Y030805D01*
X023350Y030592D01*
X023563Y030378D01*
X022388Y031378D02*
X022068Y031378D01*
X021961Y031485D01*
X022068Y031592D01*
X022388Y031592D01*
X022388Y031698D02*
X022388Y031378D01*
X022388Y031698D02*
X022281Y031805D01*
X022068Y031805D01*
X021744Y031698D02*
X021744Y031378D01*
X021744Y031698D02*
X021637Y031805D01*
X021317Y031805D01*
X021317Y031378D01*
X021099Y031378D02*
X020779Y031378D01*
X020672Y031485D01*
X020779Y031592D01*
X021099Y031592D01*
X021099Y031698D02*
X021099Y031378D01*
X021099Y031698D02*
X020992Y031805D01*
X020779Y031805D01*
X020455Y032019D02*
X020455Y031378D01*
X020027Y031378D02*
X020027Y032019D01*
X020241Y031805D01*
X020455Y032019D01*
X019589Y030805D02*
X019482Y030805D01*
X019265Y030698D02*
X019158Y030592D01*
X018838Y030592D01*
X018838Y030378D02*
X018838Y031019D01*
X019158Y031019D01*
X019265Y030912D01*
X019265Y030698D01*
X017976Y030805D02*
X017549Y030378D01*
X017331Y030592D02*
X016904Y030592D01*
X016904Y030698D02*
X017011Y030805D01*
X017225Y030805D01*
X017331Y030698D01*
X017331Y030592D01*
X017225Y030378D02*
X017011Y030378D01*
X016904Y030485D01*
X016904Y030698D01*
X017549Y030805D02*
X017976Y030378D01*
X026358Y031019D02*
X026571Y030805D01*
X037830Y028662D02*
X037830Y028235D01*
X037937Y028128D01*
X038150Y028128D01*
X038257Y028235D01*
X038257Y028448D01*
X038044Y028448D01*
X038257Y028662D02*
X038150Y028769D01*
X037937Y028769D01*
X037830Y028662D01*
X038475Y028769D02*
X038475Y028128D01*
X038902Y028128D02*
X038902Y028769D01*
X039119Y028769D02*
X039439Y028769D01*
X039546Y028662D01*
X039546Y028235D01*
X039439Y028128D01*
X039119Y028128D01*
X039119Y028769D01*
X038475Y028769D02*
X038902Y028128D01*
X038650Y023519D02*
X038437Y023519D01*
X038330Y023412D01*
X038650Y023519D02*
X038757Y023412D01*
X038757Y023305D01*
X038330Y022878D01*
X038757Y022878D01*
X038975Y023198D02*
X039402Y023198D01*
X039295Y022878D02*
X039295Y023519D01*
X038975Y023198D01*
X030295Y007769D02*
X029975Y007448D01*
X030402Y007448D01*
X030295Y007128D02*
X030295Y007769D01*
X029757Y007662D02*
X029650Y007769D01*
X029437Y007769D01*
X029330Y007662D01*
X029757Y007662D02*
X029757Y007555D01*
X029330Y007128D01*
X029757Y007128D01*
X028402Y007128D02*
X027975Y007128D01*
X028402Y007555D01*
X028402Y007662D01*
X028295Y007769D01*
X028081Y007769D01*
X027975Y007662D01*
X027544Y007769D02*
X027544Y007128D01*
X027757Y007128D02*
X027330Y007128D01*
X027330Y007555D02*
X027544Y007769D01*
X026007Y007769D02*
X025580Y007769D01*
X025580Y007448D01*
X025794Y007555D01*
X025900Y007555D01*
X026007Y007448D01*
X026007Y007235D01*
X025900Y007128D01*
X025687Y007128D01*
X025580Y007235D01*
X024474Y007235D02*
X024367Y007128D01*
X024154Y007128D01*
X024047Y007235D01*
X023831Y007235D02*
X023831Y007128D01*
X023725Y007128D01*
X023725Y007235D01*
X023831Y007235D01*
X023507Y007235D02*
X023400Y007128D01*
X023187Y007128D01*
X023080Y007235D01*
X023294Y007448D02*
X023400Y007448D01*
X023507Y007342D01*
X023507Y007235D01*
X023400Y007448D02*
X023507Y007555D01*
X023507Y007662D01*
X023400Y007769D01*
X023187Y007769D01*
X023080Y007662D01*
X022296Y007662D02*
X022296Y007235D01*
X022189Y007128D01*
X021869Y007128D01*
X021869Y007769D01*
X022189Y007769D01*
X022296Y007662D01*
X021652Y007769D02*
X021652Y007128D01*
X021225Y007769D01*
X021225Y007128D01*
X021007Y007235D02*
X021007Y007448D01*
X020794Y007448D01*
X021007Y007235D02*
X020900Y007128D01*
X020687Y007128D01*
X020580Y007235D01*
X020580Y007662D01*
X020687Y007769D01*
X020900Y007769D01*
X021007Y007662D01*
X024047Y007662D02*
X024154Y007769D01*
X024367Y007769D01*
X024474Y007662D01*
X024474Y007555D01*
X024367Y007448D01*
X024474Y007342D01*
X024474Y007235D01*
X024367Y007448D02*
X024260Y007448D01*
D12*
X020800Y006848D02*
X030800Y006848D01*
X030800Y002848D01*
X020800Y002848D01*
X020800Y006848D01*
X018436Y004574D02*
X018436Y004123D01*
X018586Y004123D02*
X018285Y004123D01*
X018125Y004198D02*
X018050Y004123D01*
X017900Y004123D01*
X017825Y004198D01*
X017825Y004498D01*
X017900Y004574D01*
X018050Y004574D01*
X018125Y004498D01*
X018285Y004423D02*
X018436Y004574D01*
X017800Y004848D02*
X016800Y004848D01*
X017800Y004848D02*
X017800Y008348D01*
X017300Y008848D01*
X016800Y008848D01*
X017300Y008098D02*
X017300Y007598D01*
X017050Y007848D02*
X017550Y007848D01*
X014800Y008848D02*
X014300Y008848D01*
X013800Y008348D01*
X013800Y004848D01*
X014800Y004848D01*
X013366Y004498D02*
X013366Y004423D01*
X013291Y004348D01*
X013366Y004273D01*
X013366Y004198D01*
X013291Y004123D01*
X013140Y004123D01*
X013065Y004198D01*
X012905Y004123D02*
X012605Y004123D01*
X012605Y004574D01*
X012300Y004848D02*
X013300Y004848D01*
X013300Y008848D01*
X012300Y008848D01*
X010300Y008848D02*
X009300Y008848D01*
X009300Y004848D01*
X010300Y004848D01*
X013065Y004498D02*
X013140Y004574D01*
X013291Y004574D01*
X013366Y004498D01*
X013291Y004348D02*
X013216Y004348D01*
X005300Y010848D02*
X001300Y010848D01*
X001300Y016848D01*
X005300Y016848D01*
X005300Y010848D01*
X009300Y011848D02*
X010300Y011848D01*
X009300Y011848D02*
X009300Y015848D01*
X010300Y015848D01*
X012300Y015848D02*
X013300Y015848D01*
X013300Y011848D01*
X012300Y011848D01*
X012605Y011574D02*
X012605Y011123D01*
X012905Y011123D01*
X013065Y011123D02*
X013366Y011423D01*
X013366Y011498D01*
X013291Y011574D01*
X013140Y011574D01*
X013065Y011498D01*
X013065Y011123D02*
X013366Y011123D01*
X013800Y011848D02*
X013800Y015348D01*
X014300Y015848D01*
X014800Y015848D01*
X016800Y015848D02*
X017300Y015848D01*
X017800Y015348D01*
X017800Y011848D01*
X016800Y011848D01*
X017825Y011498D02*
X017825Y011198D01*
X017900Y011123D01*
X018050Y011123D01*
X018125Y011198D01*
X018285Y011123D02*
X018586Y011423D01*
X018586Y011498D01*
X018511Y011574D01*
X018360Y011574D01*
X018285Y011498D01*
X018125Y011498D02*
X018050Y011574D01*
X017900Y011574D01*
X017825Y011498D01*
X018285Y011123D02*
X018586Y011123D01*
X014800Y011848D02*
X013800Y011848D01*
X017050Y014848D02*
X017550Y014848D01*
X017300Y015098D02*
X017300Y014598D01*
X017900Y018123D02*
X018050Y018123D01*
X018125Y018198D01*
X018285Y018198D02*
X018360Y018123D01*
X018511Y018123D01*
X018586Y018198D01*
X018586Y018273D01*
X018511Y018348D01*
X018436Y018348D01*
X018511Y018348D02*
X018586Y018423D01*
X018586Y018498D01*
X018511Y018574D01*
X018360Y018574D01*
X018285Y018498D01*
X018125Y018498D02*
X018050Y018574D01*
X017900Y018574D01*
X017825Y018498D01*
X017825Y018198D01*
X017900Y018123D01*
X017800Y018848D02*
X016800Y018848D01*
X017800Y018848D02*
X017800Y022348D01*
X017300Y022848D01*
X016800Y022848D01*
X017300Y022098D02*
X017300Y021598D01*
X017050Y021848D02*
X017550Y021848D01*
X014800Y022848D02*
X014300Y022848D01*
X013800Y022348D01*
X013800Y018848D01*
X014800Y018848D01*
X013300Y018848D02*
X012300Y018848D01*
X012605Y018574D02*
X012605Y018123D01*
X012905Y018123D01*
X013065Y018123D02*
X013366Y018123D01*
X013216Y018123D02*
X013216Y018574D01*
X013065Y018423D01*
X013300Y018848D02*
X013300Y022848D01*
X012300Y022848D01*
X010300Y022848D02*
X009300Y022848D01*
X009300Y018848D01*
X010300Y018848D01*
X004734Y017824D02*
X004734Y017373D01*
X004434Y017824D01*
X004434Y017373D01*
X004277Y017373D02*
X004127Y017373D01*
X004202Y017373D02*
X004202Y017824D01*
X004127Y017824D02*
X004277Y017824D01*
X003967Y017298D02*
X003667Y017298D01*
X003506Y017448D02*
X003431Y017373D01*
X003281Y017373D01*
X003206Y017448D01*
X003206Y017748D01*
X003281Y017824D01*
X003431Y017824D01*
X003506Y017748D01*
X003046Y017748D02*
X002971Y017824D01*
X002746Y017824D01*
X002746Y017373D01*
X002971Y017373D01*
X003046Y017448D01*
X003046Y017748D01*
X002586Y017748D02*
X002511Y017824D01*
X002360Y017824D01*
X002285Y017748D01*
X002285Y017448D01*
X002360Y017373D01*
X002511Y017373D01*
X002586Y017448D01*
X002125Y017448D02*
X002125Y017748D01*
X002050Y017824D01*
X001825Y017824D01*
X001825Y017373D01*
X002050Y017373D01*
X002125Y017448D01*
X005450Y025492D02*
X005525Y025567D01*
X005525Y025642D01*
X005450Y025717D01*
X005075Y025717D01*
X005075Y025642D02*
X005075Y025792D01*
X005075Y025952D02*
X005075Y026178D01*
X005150Y026253D01*
X005300Y026253D01*
X005375Y026178D01*
X005375Y025952D01*
X005525Y025952D02*
X005075Y025952D01*
X005225Y026413D02*
X005075Y026563D01*
X005525Y026563D01*
X005525Y026413D02*
X005525Y026713D01*
X012117Y027391D02*
X012117Y027805D01*
X012983Y027805D01*
X012983Y027391D01*
X012117Y027391D01*
X012150Y028373D02*
X012300Y028373D01*
X012375Y028448D01*
X012375Y028824D01*
X012535Y028748D02*
X012535Y028673D01*
X012610Y028598D01*
X012761Y028598D01*
X012836Y028523D01*
X012836Y028448D01*
X012761Y028373D01*
X012610Y028373D01*
X012535Y028448D01*
X012535Y028523D01*
X012610Y028598D01*
X012761Y028598D02*
X012836Y028673D01*
X012836Y028748D01*
X012761Y028824D01*
X012610Y028824D01*
X012535Y028748D01*
X012075Y028824D02*
X012075Y028448D01*
X012150Y028373D01*
X014075Y028448D02*
X014150Y028373D01*
X014300Y028373D01*
X014375Y028448D01*
X014375Y028824D01*
X014535Y028824D02*
X014836Y028824D01*
X014836Y028748D01*
X014535Y028448D01*
X014535Y028373D01*
X014075Y028448D02*
X014075Y028824D01*
X014117Y027805D02*
X014983Y027805D01*
X014983Y027391D01*
X014117Y027391D01*
X014117Y027805D01*
X016117Y027805D02*
X016117Y027391D01*
X016983Y027391D01*
X016983Y027805D01*
X016117Y027805D01*
X016150Y028373D02*
X016300Y028373D01*
X016375Y028448D01*
X016375Y028824D01*
X016535Y028598D02*
X016761Y028598D01*
X016836Y028523D01*
X016836Y028448D01*
X016761Y028373D01*
X016610Y028373D01*
X016535Y028448D01*
X016535Y028598D01*
X016686Y028748D01*
X016836Y028824D01*
X016075Y028824D02*
X016075Y028448D01*
X016150Y028373D01*
X018075Y028448D02*
X018150Y028373D01*
X018300Y028373D01*
X018375Y028448D01*
X018375Y028824D01*
X018535Y028824D02*
X018535Y028598D01*
X018686Y028673D01*
X018761Y028673D01*
X018836Y028598D01*
X018836Y028448D01*
X018761Y028373D01*
X018610Y028373D01*
X018535Y028448D01*
X018535Y028824D02*
X018836Y028824D01*
X018075Y028824D02*
X018075Y028448D01*
X018117Y027805D02*
X018983Y027805D01*
X018983Y027391D01*
X018117Y027391D01*
X018117Y027805D01*
X020117Y027805D02*
X020117Y027391D01*
X020983Y027391D01*
X020983Y027805D01*
X020117Y027805D01*
X020150Y028373D02*
X020300Y028373D01*
X020375Y028448D01*
X020375Y028824D01*
X020535Y028598D02*
X020836Y028598D01*
X020761Y028373D02*
X020761Y028824D01*
X020535Y028598D01*
X020150Y028373D02*
X020075Y028448D01*
X020075Y028824D01*
X022075Y028824D02*
X022075Y028448D01*
X022150Y028373D01*
X022300Y028373D01*
X022375Y028448D01*
X022375Y028824D01*
X022535Y028748D02*
X022610Y028824D01*
X022761Y028824D01*
X022836Y028748D01*
X022836Y028673D01*
X022761Y028598D01*
X022836Y028523D01*
X022836Y028448D01*
X022761Y028373D01*
X022610Y028373D01*
X022535Y028448D01*
X022686Y028598D02*
X022761Y028598D01*
X022983Y027805D02*
X022117Y027805D01*
X022117Y027391D01*
X022983Y027391D01*
X022983Y027805D01*
X024117Y027805D02*
X024117Y027391D01*
X024983Y027391D01*
X024983Y027805D01*
X024117Y027805D01*
X024150Y028373D02*
X024300Y028373D01*
X024375Y028448D01*
X024375Y028824D01*
X024535Y028748D02*
X024610Y028824D01*
X024761Y028824D01*
X024836Y028748D01*
X024836Y028673D01*
X024535Y028373D01*
X024836Y028373D01*
X024150Y028373D02*
X024075Y028448D01*
X024075Y028824D01*
X031300Y028848D02*
X031300Y032848D01*
X035300Y032848D01*
X035300Y028848D01*
X031300Y028848D01*
X032063Y028324D02*
X032288Y028324D01*
X032363Y028248D01*
X032363Y028098D01*
X032288Y028023D01*
X032063Y028023D01*
X032213Y028023D02*
X032363Y027873D01*
X032523Y027873D02*
X032523Y028324D01*
X032823Y028324D01*
X032983Y028324D02*
X032983Y027873D01*
X033284Y027873D01*
X033444Y027873D02*
X033669Y027873D01*
X033744Y027948D01*
X033744Y028248D01*
X033669Y028324D01*
X033444Y028324D01*
X033444Y027873D01*
X033134Y028098D02*
X032983Y028098D01*
X032983Y028324D02*
X033284Y028324D01*
X033904Y028248D02*
X033904Y028173D01*
X033979Y028098D01*
X034129Y028098D01*
X034204Y028023D01*
X034204Y027948D01*
X034129Y027873D01*
X033979Y027873D01*
X033904Y027948D01*
X033904Y028248D02*
X033979Y028324D01*
X034129Y028324D01*
X034204Y028248D01*
X034365Y028324D02*
X034365Y027873D01*
X034515Y028023D01*
X034665Y027873D01*
X034665Y028324D01*
X036075Y027436D02*
X036150Y027436D01*
X036300Y027286D01*
X036525Y027286D01*
X036300Y027286D02*
X036150Y027136D01*
X036075Y027136D01*
X036150Y026975D02*
X036300Y026975D01*
X036375Y026900D01*
X036375Y026675D01*
X036525Y026675D02*
X036075Y026675D01*
X036075Y026900D01*
X036150Y026975D01*
X036375Y026825D02*
X036525Y026975D01*
X036525Y026515D02*
X036525Y026215D01*
X036075Y026215D01*
X036075Y026515D01*
X036300Y026365D02*
X036300Y026215D01*
X036075Y026055D02*
X036075Y025754D01*
X036075Y025904D02*
X036525Y025904D01*
X036525Y025444D02*
X036075Y025444D01*
X036075Y025294D02*
X036075Y025594D01*
X036225Y025134D02*
X036075Y024984D01*
X036225Y024834D01*
X036525Y024834D01*
X036450Y024673D02*
X036525Y024598D01*
X036525Y024373D01*
X036075Y024373D01*
X036075Y024598D01*
X036150Y024673D01*
X036225Y024673D01*
X036300Y024598D01*
X036300Y024373D01*
X036300Y024598D02*
X036375Y024673D01*
X036450Y024673D01*
X036300Y024834D02*
X036300Y025134D01*
X036225Y025134D02*
X036525Y025134D01*
X036800Y023848D02*
X040800Y023848D01*
X040800Y027848D01*
X036800Y027848D01*
X036800Y023848D01*
X034300Y023848D02*
X032300Y023848D01*
X032300Y026848D01*
X034300Y026848D01*
X034300Y023848D01*
X033971Y023574D02*
X034046Y023498D01*
X033746Y023198D01*
X033821Y023123D01*
X033971Y023123D01*
X034046Y023198D01*
X034046Y023498D01*
X033971Y023574D02*
X033821Y023574D01*
X033746Y023498D01*
X033746Y023198D01*
X033586Y023123D02*
X033285Y023123D01*
X033436Y023123D02*
X033436Y023574D01*
X033285Y023423D01*
X033125Y023574D02*
X033125Y023198D01*
X033050Y023123D01*
X032900Y023123D01*
X032825Y023198D01*
X032825Y023574D01*
X032600Y026348D02*
X032602Y026376D01*
X032608Y026403D01*
X032617Y026429D01*
X032630Y026454D01*
X032647Y026477D01*
X032666Y026497D01*
X032688Y026514D01*
X032712Y026528D01*
X032738Y026538D01*
X032765Y026545D01*
X032793Y026548D01*
X032821Y026547D01*
X032848Y026542D01*
X032875Y026533D01*
X032900Y026521D01*
X032923Y026506D01*
X032944Y026487D01*
X032962Y026466D01*
X032977Y026442D01*
X032988Y026416D01*
X032996Y026390D01*
X033000Y026362D01*
X033000Y026334D01*
X032996Y026306D01*
X032988Y026280D01*
X032977Y026254D01*
X032962Y026230D01*
X032944Y026209D01*
X032923Y026190D01*
X032900Y026175D01*
X032875Y026163D01*
X032848Y026154D01*
X032821Y026149D01*
X032793Y026148D01*
X032765Y026151D01*
X032738Y026158D01*
X032712Y026168D01*
X032688Y026182D01*
X032666Y026199D01*
X032647Y026219D01*
X032630Y026242D01*
X032617Y026267D01*
X032608Y026293D01*
X032602Y026320D01*
X032600Y026348D01*
X032523Y027873D02*
X032823Y027873D01*
X032673Y028098D02*
X032523Y028098D01*
X032063Y027873D02*
X032063Y028324D01*
X038404Y007824D02*
X038404Y007373D01*
X038404Y007523D02*
X038704Y007824D01*
X038865Y007673D02*
X039015Y007824D01*
X039015Y007373D01*
X038865Y007373D02*
X039165Y007373D01*
X038704Y007373D02*
X038479Y007598D01*
X031775Y006063D02*
X031325Y006063D01*
X031325Y005913D02*
X031325Y006213D01*
X031325Y005753D02*
X031700Y005753D01*
X031775Y005678D01*
X031775Y005527D01*
X031700Y005452D01*
X031325Y005452D01*
X031400Y005292D02*
X031550Y005292D01*
X031625Y005217D01*
X031625Y004992D01*
X031775Y004992D02*
X031325Y004992D01*
X031325Y005217D01*
X031400Y005292D01*
X031325Y004832D02*
X031325Y004532D01*
X031325Y004682D02*
X031775Y004682D01*
X031700Y004371D02*
X031325Y004371D01*
X031325Y004071D02*
X031700Y004071D01*
X031775Y004146D01*
X031775Y004296D01*
X031700Y004371D01*
X031700Y003911D02*
X031400Y003911D01*
X031325Y003836D01*
X031325Y003686D01*
X031400Y003611D01*
X031700Y003611D01*
X031775Y003686D01*
X031775Y003836D01*
X031700Y003911D01*
D13*
X010646Y028404D02*
X008954Y028404D01*
X008954Y030292D01*
X010646Y030292D01*
X010646Y028404D01*
D14*
X010420Y028590D03*
D15*
X010550Y026715D02*
X010550Y026408D01*
X010320Y026638D01*
X010780Y026638D01*
X010780Y026254D02*
X010780Y025947D01*
X010780Y026101D02*
X010320Y026101D01*
X010473Y025947D01*
X010396Y025794D02*
X010320Y025717D01*
X010320Y025564D01*
X010396Y025487D01*
X010703Y025487D01*
X010780Y025564D01*
X010780Y025717D01*
X010703Y025794D01*
X011820Y024596D02*
X011896Y024442D01*
X012050Y024289D01*
X012050Y024519D01*
X012127Y024596D01*
X012203Y024596D01*
X012280Y024519D01*
X012280Y024366D01*
X012203Y024289D01*
X012050Y024289D01*
X012280Y024135D02*
X012280Y023829D01*
X012280Y023982D02*
X011820Y023982D01*
X011973Y023829D01*
X011896Y023675D02*
X012050Y023675D01*
X012127Y023598D01*
X012127Y023368D01*
X012280Y023368D02*
X011820Y023368D01*
X011820Y023598D01*
X011896Y023675D01*
X012127Y023522D02*
X012280Y023675D01*
X012820Y023598D02*
X012820Y023368D01*
X013280Y023368D01*
X013127Y023368D02*
X013127Y023598D01*
X013050Y023675D01*
X012896Y023675D01*
X012820Y023598D01*
X012973Y023829D02*
X012820Y023982D01*
X013280Y023982D01*
X013280Y023829D02*
X013280Y024135D01*
X013203Y024289D02*
X013280Y024366D01*
X013280Y024519D01*
X013203Y024596D01*
X013050Y024596D01*
X012973Y024519D01*
X012973Y024442D01*
X013050Y024289D01*
X012820Y024289D01*
X012820Y024596D01*
X013820Y024519D02*
X014050Y024289D01*
X014050Y024596D01*
X014280Y024519D02*
X013820Y024519D01*
X013820Y023982D02*
X014280Y023982D01*
X014280Y023829D02*
X014280Y024135D01*
X013973Y023829D02*
X013820Y023982D01*
X013896Y023675D02*
X013820Y023598D01*
X013820Y023368D01*
X014280Y023368D01*
X014127Y023368D02*
X014127Y023598D01*
X014050Y023675D01*
X013896Y023675D01*
X014127Y023522D02*
X014280Y023675D01*
X014820Y023868D02*
X014820Y024098D01*
X014896Y024175D01*
X015050Y024175D01*
X015127Y024098D01*
X015127Y023868D01*
X015280Y023868D02*
X014820Y023868D01*
X015127Y024022D02*
X015280Y024175D01*
X015280Y024329D02*
X015280Y024635D01*
X015280Y024482D02*
X014820Y024482D01*
X014973Y024329D01*
X014896Y024789D02*
X014820Y024866D01*
X014820Y025019D01*
X014896Y025096D01*
X014973Y025096D01*
X015050Y025019D01*
X015127Y025096D01*
X015203Y025096D01*
X015280Y025019D01*
X015280Y024866D01*
X015203Y024789D01*
X015050Y024942D02*
X015050Y025019D01*
X015439Y024579D02*
X015669Y024579D01*
X015746Y024502D01*
X015746Y024348D01*
X015669Y024272D01*
X015439Y024272D01*
X015592Y024272D02*
X015746Y024118D01*
X015899Y024118D02*
X016206Y024118D01*
X016053Y024118D02*
X016053Y024579D01*
X015899Y024425D01*
X016360Y024502D02*
X016436Y024579D01*
X016590Y024579D01*
X016667Y024502D01*
X016667Y024425D01*
X016360Y024118D01*
X016667Y024118D01*
X017070Y023982D02*
X017223Y023829D01*
X017146Y023675D02*
X017300Y023675D01*
X017377Y023598D01*
X017377Y023368D01*
X017530Y023368D02*
X017070Y023368D01*
X017070Y023598D01*
X017146Y023675D01*
X017377Y023522D02*
X017530Y023675D01*
X017530Y023829D02*
X017530Y024135D01*
X017530Y023982D02*
X017070Y023982D01*
X017223Y024289D02*
X017070Y024442D01*
X017530Y024442D01*
X017530Y024289D02*
X017530Y024596D01*
X017820Y024519D02*
X017896Y024596D01*
X018203Y024289D01*
X018280Y024366D01*
X018280Y024519D01*
X018203Y024596D01*
X017896Y024596D01*
X017820Y024519D02*
X017820Y024366D01*
X017896Y024289D01*
X018203Y024289D01*
X018280Y024135D02*
X018280Y023829D01*
X018280Y023982D02*
X017820Y023982D01*
X017973Y023829D01*
X017896Y023675D02*
X018050Y023675D01*
X018127Y023598D01*
X018127Y023368D01*
X018280Y023368D02*
X017820Y023368D01*
X017820Y023598D01*
X017896Y023675D01*
X018127Y023522D02*
X018280Y023675D01*
X018820Y023598D02*
X018820Y023368D01*
X019280Y023368D01*
X019127Y023368D02*
X019127Y023598D01*
X019050Y023675D01*
X018896Y023675D01*
X018820Y023598D01*
X018896Y023829D02*
X018973Y023829D01*
X019050Y023905D01*
X019050Y024135D01*
X019203Y024135D02*
X018896Y024135D01*
X018820Y024059D01*
X018820Y023905D01*
X018896Y023829D01*
X019203Y023829D02*
X019280Y023905D01*
X019280Y024059D01*
X019203Y024135D01*
X019280Y023675D02*
X019127Y023522D01*
X019820Y023559D02*
X019896Y023635D01*
X019973Y023635D01*
X020050Y023559D01*
X020050Y023405D01*
X019973Y023329D01*
X019896Y023329D01*
X019820Y023405D01*
X019820Y023559D01*
X020050Y023559D02*
X020127Y023635D01*
X020203Y023635D01*
X020280Y023559D01*
X020280Y023405D01*
X020203Y023329D01*
X020127Y023329D01*
X020050Y023405D01*
X020050Y023175D02*
X020127Y023098D01*
X020127Y022868D01*
X020280Y022868D02*
X019820Y022868D01*
X019820Y023098D01*
X019896Y023175D01*
X020050Y023175D01*
X020127Y023022D02*
X020280Y023175D01*
X020820Y023098D02*
X020820Y022868D01*
X021280Y022868D01*
X021127Y022868D02*
X021127Y023098D01*
X021050Y023175D01*
X020896Y023175D01*
X020820Y023098D01*
X020820Y023329D02*
X020820Y023635D01*
X020896Y023635D01*
X021203Y023329D01*
X021280Y023329D01*
X021280Y023175D02*
X021127Y023022D01*
X021820Y023368D02*
X021820Y023598D01*
X021896Y023675D01*
X022050Y023675D01*
X022127Y023598D01*
X022127Y023368D01*
X022280Y023368D02*
X021820Y023368D01*
X022127Y023522D02*
X022280Y023675D01*
X022203Y023829D02*
X022280Y023905D01*
X022280Y024059D01*
X022203Y024135D01*
X022127Y024135D01*
X022050Y024059D01*
X022050Y023829D01*
X022203Y023829D01*
X022050Y023829D02*
X021896Y023982D01*
X021820Y024135D01*
X022820Y024135D02*
X022820Y023829D01*
X023050Y023829D01*
X022973Y023982D01*
X022973Y024059D01*
X023050Y024135D01*
X023203Y024135D01*
X023280Y024059D01*
X023280Y023905D01*
X023203Y023829D01*
X023280Y023675D02*
X023127Y023522D01*
X023127Y023598D02*
X023127Y023368D01*
X023280Y023368D02*
X022820Y023368D01*
X022820Y023598D01*
X022896Y023675D01*
X023050Y023675D01*
X023127Y023598D01*
X023820Y023598D02*
X023820Y023368D01*
X024280Y023368D01*
X024127Y023368D02*
X024127Y023598D01*
X024050Y023675D01*
X023896Y023675D01*
X023820Y023598D01*
X024127Y023522D02*
X024280Y023675D01*
X024050Y023829D02*
X024050Y024135D01*
X024280Y024059D02*
X023820Y024059D01*
X024050Y023829D01*
X024820Y023905D02*
X024820Y024059D01*
X024896Y024135D01*
X024973Y024135D01*
X025050Y024059D01*
X025127Y024135D01*
X025203Y024135D01*
X025280Y024059D01*
X025280Y023905D01*
X025203Y023829D01*
X025280Y023675D02*
X025127Y023522D01*
X025127Y023598D02*
X025127Y023368D01*
X025280Y023368D02*
X024820Y023368D01*
X024820Y023598D01*
X024896Y023675D01*
X025050Y023675D01*
X025127Y023598D01*
X024896Y023829D02*
X024820Y023905D01*
X025050Y023982D02*
X025050Y024059D01*
X027570Y026197D02*
X027570Y026428D01*
X027646Y026504D01*
X027800Y026504D01*
X027877Y026428D01*
X027877Y026197D01*
X028030Y026197D02*
X027570Y026197D01*
X027877Y026351D02*
X028030Y026504D01*
X028030Y026658D02*
X027723Y026965D01*
X027646Y026965D01*
X027570Y026888D01*
X027570Y026734D01*
X027646Y026658D01*
X028030Y026658D02*
X028030Y026965D01*
X030320Y026811D02*
X030780Y026811D01*
X030780Y026658D02*
X030780Y026965D01*
X030473Y026658D02*
X030320Y026811D01*
X030396Y026504D02*
X030550Y026504D01*
X030627Y026428D01*
X030627Y026197D01*
X030780Y026197D02*
X030320Y026197D01*
X030320Y026428D01*
X030396Y026504D01*
X030627Y026351D02*
X030780Y026504D01*
X029711Y023394D02*
X029558Y023394D01*
X029481Y023317D01*
X029481Y023240D01*
X029558Y023163D01*
X029788Y023163D01*
X029788Y023010D02*
X029788Y023317D01*
X029711Y023394D01*
X029328Y023394D02*
X029328Y023010D01*
X029251Y022933D01*
X029098Y022933D01*
X029021Y023010D01*
X029021Y023394D01*
X029481Y023010D02*
X029558Y022933D01*
X029711Y022933D01*
X029788Y023010D01*
X020548Y020752D02*
X020241Y020445D01*
X020318Y020368D01*
X020471Y020368D01*
X020548Y020445D01*
X020548Y020752D01*
X020471Y020829D01*
X020318Y020829D01*
X020241Y020752D01*
X020241Y020445D01*
X020087Y020368D02*
X019780Y020368D01*
X019934Y020368D02*
X019934Y020829D01*
X019780Y020675D01*
X019627Y020752D02*
X019550Y020829D01*
X019397Y020829D01*
X019320Y020752D01*
X019320Y020445D01*
X019397Y020368D01*
X019550Y020368D01*
X019627Y020445D01*
X015439Y024118D02*
X015439Y024579D01*
X013280Y023675D02*
X013127Y023522D01*
X008530Y020059D02*
X008070Y020059D01*
X008300Y019829D01*
X008300Y020135D01*
X008453Y019675D02*
X008530Y019598D01*
X008530Y019445D01*
X008453Y019368D01*
X008146Y019368D01*
X008070Y019445D01*
X008070Y019598D01*
X008146Y019675D01*
X007530Y019598D02*
X007530Y019445D01*
X007453Y019368D01*
X007146Y019368D01*
X007070Y019445D01*
X007070Y019598D01*
X007146Y019675D01*
X007070Y019829D02*
X007070Y020135D01*
X007146Y020135D01*
X007453Y019829D01*
X007530Y019829D01*
X007453Y019675D02*
X007530Y019598D01*
X007453Y013135D02*
X007530Y013059D01*
X007530Y012905D01*
X007453Y012829D01*
X007377Y012829D01*
X007300Y012905D01*
X007300Y013059D01*
X007377Y013135D01*
X007453Y013135D01*
X007300Y013059D02*
X007223Y013135D01*
X007146Y013135D01*
X007070Y013059D01*
X007070Y012905D01*
X007146Y012829D01*
X007223Y012829D01*
X007300Y012905D01*
X007453Y012675D02*
X007530Y012598D01*
X007530Y012445D01*
X007453Y012368D01*
X007146Y012368D01*
X007070Y012445D01*
X007070Y012598D01*
X007146Y012675D01*
X008070Y012598D02*
X008070Y012445D01*
X008146Y012368D01*
X008453Y012368D01*
X008530Y012445D01*
X008530Y012598D01*
X008453Y012675D01*
X008453Y012829D02*
X008530Y012905D01*
X008530Y013059D01*
X008453Y013135D01*
X008300Y013135D01*
X008223Y013059D01*
X008223Y012982D01*
X008300Y012829D01*
X008070Y012829D01*
X008070Y013135D01*
X008146Y012675D02*
X008070Y012598D01*
X008146Y006135D02*
X008070Y006059D01*
X008070Y005905D01*
X008146Y005829D01*
X008223Y005829D01*
X008300Y005905D01*
X008300Y006135D01*
X008453Y006135D02*
X008146Y006135D01*
X008453Y006135D02*
X008530Y006059D01*
X008530Y005905D01*
X008453Y005829D01*
X008453Y005675D02*
X008530Y005598D01*
X008530Y005445D01*
X008453Y005368D01*
X008146Y005368D01*
X008070Y005445D01*
X008070Y005598D01*
X008146Y005675D01*
X007530Y005598D02*
X007530Y005445D01*
X007453Y005368D01*
X007146Y005368D01*
X007070Y005445D01*
X007070Y005598D01*
X007146Y005675D01*
X007300Y005829D02*
X007146Y005982D01*
X007070Y006135D01*
X007300Y006059D02*
X007300Y005829D01*
X007453Y005829D01*
X007530Y005905D01*
X007530Y006059D01*
X007453Y006135D01*
X007377Y006135D01*
X007300Y006059D01*
X007453Y005675D02*
X007530Y005598D01*
X019320Y006445D02*
X019397Y006368D01*
X019550Y006368D01*
X019627Y006445D01*
X019780Y006368D02*
X020087Y006368D01*
X019934Y006368D02*
X019934Y006829D01*
X019780Y006675D01*
X019627Y006752D02*
X019550Y006829D01*
X019397Y006829D01*
X019320Y006752D01*
X019320Y006445D01*
X020241Y006368D02*
X020548Y006675D01*
X020548Y006752D01*
X020471Y006829D01*
X020318Y006829D01*
X020241Y006752D01*
X020241Y006368D02*
X020548Y006368D01*
X020548Y013368D02*
X020241Y013368D01*
X020394Y013368D02*
X020394Y013829D01*
X020241Y013675D01*
X020087Y013368D02*
X019780Y013368D01*
X019934Y013368D02*
X019934Y013829D01*
X019780Y013675D01*
X019627Y013752D02*
X019550Y013829D01*
X019397Y013829D01*
X019320Y013752D01*
X019320Y013445D01*
X019397Y013368D01*
X019550Y013368D01*
X019627Y013445D01*
X004167Y027195D02*
X004090Y027118D01*
X003936Y027118D01*
X003860Y027195D01*
X003706Y027118D02*
X003399Y027118D01*
X003553Y027118D02*
X003553Y027579D01*
X003399Y027425D01*
X003246Y027502D02*
X003169Y027579D01*
X003016Y027579D01*
X002939Y027502D01*
X002939Y027195D01*
X003016Y027118D01*
X003169Y027118D01*
X003246Y027195D01*
X003860Y027502D02*
X003936Y027579D01*
X004090Y027579D01*
X004167Y027502D01*
X004167Y027425D01*
X004090Y027348D01*
X004167Y027272D01*
X004167Y027195D01*
X004090Y027348D02*
X004013Y027348D01*
X009399Y030695D02*
X009476Y030618D01*
X009629Y030618D01*
X009706Y030695D01*
X009706Y031079D01*
X009860Y030925D02*
X010013Y031079D01*
X010013Y030618D01*
X009860Y030618D02*
X010167Y030618D01*
X009399Y030695D02*
X009399Y031079D01*
M02*
