G75*
G70*
%OFA0B0*%
%FSLAX24Y24*%
%IPPOS*%
%LPD*%
%AMOC8*
5,1,8,0,0,1.08239X$1,22.5*
%
%ADD10C,0.0000*%
%ADD11C,0.0060*%
%ADD12C,0.0050*%
%ADD13C,0.0080*%
%ADD14C,0.0348*%
%ADD15C,0.0040*%
%ADD16C,0.0010*%
%ADD17C,0.0120*%
%ADD18C,0.0020*%
%ADD19R,0.0200X0.0200*%
D10*
X000125Y001663D02*
X000125Y041663D01*
X060125Y041663D01*
X060125Y001663D01*
X000125Y001663D01*
X001925Y004163D02*
X001927Y004215D01*
X001933Y004267D01*
X001943Y004319D01*
X001956Y004369D01*
X001973Y004419D01*
X001994Y004467D01*
X002019Y004513D01*
X002047Y004557D01*
X002078Y004599D01*
X002112Y004639D01*
X002149Y004676D01*
X002189Y004710D01*
X002231Y004741D01*
X002275Y004769D01*
X002321Y004794D01*
X002369Y004815D01*
X002419Y004832D01*
X002469Y004845D01*
X002521Y004855D01*
X002573Y004861D01*
X002625Y004863D01*
X002677Y004861D01*
X002729Y004855D01*
X002781Y004845D01*
X002831Y004832D01*
X002881Y004815D01*
X002929Y004794D01*
X002975Y004769D01*
X003019Y004741D01*
X003061Y004710D01*
X003101Y004676D01*
X003138Y004639D01*
X003172Y004599D01*
X003203Y004557D01*
X003231Y004513D01*
X003256Y004467D01*
X003277Y004419D01*
X003294Y004369D01*
X003307Y004319D01*
X003317Y004267D01*
X003323Y004215D01*
X003325Y004163D01*
X003323Y004111D01*
X003317Y004059D01*
X003307Y004007D01*
X003294Y003957D01*
X003277Y003907D01*
X003256Y003859D01*
X003231Y003813D01*
X003203Y003769D01*
X003172Y003727D01*
X003138Y003687D01*
X003101Y003650D01*
X003061Y003616D01*
X003019Y003585D01*
X002975Y003557D01*
X002929Y003532D01*
X002881Y003511D01*
X002831Y003494D01*
X002781Y003481D01*
X002729Y003471D01*
X002677Y003465D01*
X002625Y003463D01*
X002573Y003465D01*
X002521Y003471D01*
X002469Y003481D01*
X002419Y003494D01*
X002369Y003511D01*
X002321Y003532D01*
X002275Y003557D01*
X002231Y003585D01*
X002189Y003616D01*
X002149Y003650D01*
X002112Y003687D01*
X002078Y003727D01*
X002047Y003769D01*
X002019Y003813D01*
X001994Y003859D01*
X001973Y003907D01*
X001956Y003957D01*
X001943Y004007D01*
X001933Y004059D01*
X001927Y004111D01*
X001925Y004163D01*
X003265Y010613D02*
X003267Y010661D01*
X003273Y010709D01*
X003283Y010756D01*
X003296Y010802D01*
X003313Y010847D01*
X003334Y010890D01*
X003359Y010932D01*
X003386Y010971D01*
X003417Y011008D01*
X003451Y011043D01*
X003487Y011074D01*
X003526Y011103D01*
X003567Y011128D01*
X003610Y011150D01*
X003654Y011168D01*
X003700Y011182D01*
X003747Y011193D01*
X003795Y011200D01*
X003843Y011203D01*
X003891Y011202D01*
X003939Y011197D01*
X003986Y011188D01*
X004033Y011176D01*
X004078Y011159D01*
X004122Y011139D01*
X004164Y011116D01*
X004204Y011089D01*
X004241Y011059D01*
X004276Y011026D01*
X004309Y010990D01*
X004338Y010952D01*
X004364Y010911D01*
X004387Y010869D01*
X004406Y010825D01*
X004421Y010779D01*
X004433Y010733D01*
X004441Y010685D01*
X004445Y010637D01*
X004445Y010589D01*
X004441Y010541D01*
X004433Y010493D01*
X004421Y010447D01*
X004406Y010401D01*
X004387Y010357D01*
X004364Y010315D01*
X004338Y010274D01*
X004309Y010236D01*
X004276Y010200D01*
X004241Y010167D01*
X004204Y010137D01*
X004164Y010110D01*
X004122Y010087D01*
X004078Y010067D01*
X004033Y010050D01*
X003986Y010038D01*
X003939Y010029D01*
X003891Y010024D01*
X003843Y010023D01*
X003795Y010026D01*
X003747Y010033D01*
X003700Y010044D01*
X003654Y010058D01*
X003610Y010076D01*
X003567Y010098D01*
X003526Y010123D01*
X003487Y010152D01*
X003451Y010183D01*
X003417Y010218D01*
X003386Y010255D01*
X003359Y010294D01*
X003334Y010336D01*
X003313Y010379D01*
X003296Y010424D01*
X003283Y010470D01*
X003273Y010517D01*
X003267Y010565D01*
X003265Y010613D01*
X003265Y013903D02*
X003267Y013951D01*
X003273Y013999D01*
X003283Y014046D01*
X003296Y014092D01*
X003313Y014137D01*
X003334Y014180D01*
X003359Y014222D01*
X003386Y014261D01*
X003417Y014298D01*
X003451Y014333D01*
X003487Y014364D01*
X003526Y014393D01*
X003567Y014418D01*
X003610Y014440D01*
X003654Y014458D01*
X003700Y014472D01*
X003747Y014483D01*
X003795Y014490D01*
X003843Y014493D01*
X003891Y014492D01*
X003939Y014487D01*
X003986Y014478D01*
X004033Y014466D01*
X004078Y014449D01*
X004122Y014429D01*
X004164Y014406D01*
X004204Y014379D01*
X004241Y014349D01*
X004276Y014316D01*
X004309Y014280D01*
X004338Y014242D01*
X004364Y014201D01*
X004387Y014159D01*
X004406Y014115D01*
X004421Y014069D01*
X004433Y014023D01*
X004441Y013975D01*
X004445Y013927D01*
X004445Y013879D01*
X004441Y013831D01*
X004433Y013783D01*
X004421Y013737D01*
X004406Y013691D01*
X004387Y013647D01*
X004364Y013605D01*
X004338Y013564D01*
X004309Y013526D01*
X004276Y013490D01*
X004241Y013457D01*
X004204Y013427D01*
X004164Y013400D01*
X004122Y013377D01*
X004078Y013357D01*
X004033Y013340D01*
X003986Y013328D01*
X003939Y013319D01*
X003891Y013314D01*
X003843Y013313D01*
X003795Y013316D01*
X003747Y013323D01*
X003700Y013334D01*
X003654Y013348D01*
X003610Y013366D01*
X003567Y013388D01*
X003526Y013413D01*
X003487Y013442D01*
X003451Y013473D01*
X003417Y013508D01*
X003386Y013545D01*
X003359Y013584D01*
X003334Y013626D01*
X003313Y013669D01*
X003296Y013714D01*
X003283Y013760D01*
X003273Y013807D01*
X003267Y013855D01*
X003265Y013903D01*
X002348Y020797D02*
X002350Y020823D01*
X002356Y020849D01*
X002366Y020874D01*
X002379Y020897D01*
X002395Y020917D01*
X002415Y020935D01*
X002437Y020950D01*
X002460Y020962D01*
X002486Y020970D01*
X002512Y020974D01*
X002538Y020974D01*
X002564Y020970D01*
X002590Y020962D01*
X002614Y020950D01*
X002635Y020935D01*
X002655Y020917D01*
X002671Y020897D01*
X002684Y020874D01*
X002694Y020849D01*
X002700Y020823D01*
X002702Y020797D01*
X002700Y020771D01*
X002694Y020745D01*
X002684Y020720D01*
X002671Y020697D01*
X002655Y020677D01*
X002635Y020659D01*
X002613Y020644D01*
X002590Y020632D01*
X002564Y020624D01*
X002538Y020620D01*
X002512Y020620D01*
X002486Y020624D01*
X002460Y020632D01*
X002436Y020644D01*
X002415Y020659D01*
X002395Y020677D01*
X002379Y020697D01*
X002366Y020720D01*
X002356Y020745D01*
X002350Y020771D01*
X002348Y020797D01*
X002348Y022529D02*
X002350Y022555D01*
X002356Y022581D01*
X002366Y022606D01*
X002379Y022629D01*
X002395Y022649D01*
X002415Y022667D01*
X002437Y022682D01*
X002460Y022694D01*
X002486Y022702D01*
X002512Y022706D01*
X002538Y022706D01*
X002564Y022702D01*
X002590Y022694D01*
X002614Y022682D01*
X002635Y022667D01*
X002655Y022649D01*
X002671Y022629D01*
X002684Y022606D01*
X002694Y022581D01*
X002700Y022555D01*
X002702Y022529D01*
X002700Y022503D01*
X002694Y022477D01*
X002684Y022452D01*
X002671Y022429D01*
X002655Y022409D01*
X002635Y022391D01*
X002613Y022376D01*
X002590Y022364D01*
X002564Y022356D01*
X002538Y022352D01*
X002512Y022352D01*
X002486Y022356D01*
X002460Y022364D01*
X002436Y022376D01*
X002415Y022391D01*
X002395Y022409D01*
X002379Y022429D01*
X002366Y022452D01*
X002356Y022477D01*
X002350Y022503D01*
X002348Y022529D01*
X013964Y036663D02*
X013966Y036703D01*
X013972Y036744D01*
X013982Y036783D01*
X013995Y036821D01*
X014013Y036858D01*
X014034Y036892D01*
X014058Y036925D01*
X014085Y036955D01*
X014115Y036982D01*
X014148Y037006D01*
X014182Y037027D01*
X014219Y037045D01*
X014257Y037058D01*
X014296Y037068D01*
X014337Y037074D01*
X014377Y037076D01*
X014417Y037074D01*
X014458Y037068D01*
X014497Y037058D01*
X014535Y037045D01*
X014572Y037027D01*
X014606Y037006D01*
X014639Y036982D01*
X014669Y036955D01*
X014696Y036925D01*
X014720Y036892D01*
X014741Y036858D01*
X014759Y036821D01*
X014772Y036783D01*
X014782Y036744D01*
X014788Y036703D01*
X014790Y036663D01*
X014788Y036623D01*
X014782Y036582D01*
X014772Y036543D01*
X014759Y036505D01*
X014741Y036468D01*
X014720Y036434D01*
X014696Y036401D01*
X014669Y036371D01*
X014639Y036344D01*
X014606Y036320D01*
X014572Y036299D01*
X014535Y036281D01*
X014497Y036268D01*
X014458Y036258D01*
X014417Y036252D01*
X014377Y036250D01*
X014337Y036252D01*
X014296Y036258D01*
X014257Y036268D01*
X014219Y036281D01*
X014182Y036299D01*
X014148Y036320D01*
X014115Y036344D01*
X014085Y036371D01*
X014058Y036401D01*
X014034Y036434D01*
X014013Y036468D01*
X013995Y036505D01*
X013982Y036543D01*
X013972Y036582D01*
X013966Y036623D01*
X013964Y036663D01*
X001925Y039163D02*
X001927Y039215D01*
X001933Y039267D01*
X001943Y039319D01*
X001956Y039369D01*
X001973Y039419D01*
X001994Y039467D01*
X002019Y039513D01*
X002047Y039557D01*
X002078Y039599D01*
X002112Y039639D01*
X002149Y039676D01*
X002189Y039710D01*
X002231Y039741D01*
X002275Y039769D01*
X002321Y039794D01*
X002369Y039815D01*
X002419Y039832D01*
X002469Y039845D01*
X002521Y039855D01*
X002573Y039861D01*
X002625Y039863D01*
X002677Y039861D01*
X002729Y039855D01*
X002781Y039845D01*
X002831Y039832D01*
X002881Y039815D01*
X002929Y039794D01*
X002975Y039769D01*
X003019Y039741D01*
X003061Y039710D01*
X003101Y039676D01*
X003138Y039639D01*
X003172Y039599D01*
X003203Y039557D01*
X003231Y039513D01*
X003256Y039467D01*
X003277Y039419D01*
X003294Y039369D01*
X003307Y039319D01*
X003317Y039267D01*
X003323Y039215D01*
X003325Y039163D01*
X003323Y039111D01*
X003317Y039059D01*
X003307Y039007D01*
X003294Y038957D01*
X003277Y038907D01*
X003256Y038859D01*
X003231Y038813D01*
X003203Y038769D01*
X003172Y038727D01*
X003138Y038687D01*
X003101Y038650D01*
X003061Y038616D01*
X003019Y038585D01*
X002975Y038557D01*
X002929Y038532D01*
X002881Y038511D01*
X002831Y038494D01*
X002781Y038481D01*
X002729Y038471D01*
X002677Y038465D01*
X002625Y038463D01*
X002573Y038465D01*
X002521Y038471D01*
X002469Y038481D01*
X002419Y038494D01*
X002369Y038511D01*
X002321Y038532D01*
X002275Y038557D01*
X002231Y038585D01*
X002189Y038616D01*
X002149Y038650D01*
X002112Y038687D01*
X002078Y038727D01*
X002047Y038769D01*
X002019Y038813D01*
X001994Y038859D01*
X001973Y038907D01*
X001956Y038957D01*
X001943Y039007D01*
X001933Y039059D01*
X001927Y039111D01*
X001925Y039163D01*
X045460Y036663D02*
X045462Y036703D01*
X045468Y036744D01*
X045478Y036783D01*
X045491Y036821D01*
X045509Y036858D01*
X045530Y036892D01*
X045554Y036925D01*
X045581Y036955D01*
X045611Y036982D01*
X045644Y037006D01*
X045678Y037027D01*
X045715Y037045D01*
X045753Y037058D01*
X045792Y037068D01*
X045833Y037074D01*
X045873Y037076D01*
X045913Y037074D01*
X045954Y037068D01*
X045993Y037058D01*
X046031Y037045D01*
X046068Y037027D01*
X046102Y037006D01*
X046135Y036982D01*
X046165Y036955D01*
X046192Y036925D01*
X046216Y036892D01*
X046237Y036858D01*
X046255Y036821D01*
X046268Y036783D01*
X046278Y036744D01*
X046284Y036703D01*
X046286Y036663D01*
X046284Y036623D01*
X046278Y036582D01*
X046268Y036543D01*
X046255Y036505D01*
X046237Y036468D01*
X046216Y036434D01*
X046192Y036401D01*
X046165Y036371D01*
X046135Y036344D01*
X046102Y036320D01*
X046068Y036299D01*
X046031Y036281D01*
X045993Y036268D01*
X045954Y036258D01*
X045913Y036252D01*
X045873Y036250D01*
X045833Y036252D01*
X045792Y036258D01*
X045753Y036268D01*
X045715Y036281D01*
X045678Y036299D01*
X045644Y036320D01*
X045611Y036344D01*
X045581Y036371D01*
X045554Y036401D01*
X045530Y036434D01*
X045509Y036468D01*
X045491Y036505D01*
X045478Y036543D01*
X045468Y036582D01*
X045462Y036623D01*
X045460Y036663D01*
X056925Y039163D02*
X056927Y039215D01*
X056933Y039267D01*
X056943Y039319D01*
X056956Y039369D01*
X056973Y039419D01*
X056994Y039467D01*
X057019Y039513D01*
X057047Y039557D01*
X057078Y039599D01*
X057112Y039639D01*
X057149Y039676D01*
X057189Y039710D01*
X057231Y039741D01*
X057275Y039769D01*
X057321Y039794D01*
X057369Y039815D01*
X057419Y039832D01*
X057469Y039845D01*
X057521Y039855D01*
X057573Y039861D01*
X057625Y039863D01*
X057677Y039861D01*
X057729Y039855D01*
X057781Y039845D01*
X057831Y039832D01*
X057881Y039815D01*
X057929Y039794D01*
X057975Y039769D01*
X058019Y039741D01*
X058061Y039710D01*
X058101Y039676D01*
X058138Y039639D01*
X058172Y039599D01*
X058203Y039557D01*
X058231Y039513D01*
X058256Y039467D01*
X058277Y039419D01*
X058294Y039369D01*
X058307Y039319D01*
X058317Y039267D01*
X058323Y039215D01*
X058325Y039163D01*
X058323Y039111D01*
X058317Y039059D01*
X058307Y039007D01*
X058294Y038957D01*
X058277Y038907D01*
X058256Y038859D01*
X058231Y038813D01*
X058203Y038769D01*
X058172Y038727D01*
X058138Y038687D01*
X058101Y038650D01*
X058061Y038616D01*
X058019Y038585D01*
X057975Y038557D01*
X057929Y038532D01*
X057881Y038511D01*
X057831Y038494D01*
X057781Y038481D01*
X057729Y038471D01*
X057677Y038465D01*
X057625Y038463D01*
X057573Y038465D01*
X057521Y038471D01*
X057469Y038481D01*
X057419Y038494D01*
X057369Y038511D01*
X057321Y038532D01*
X057275Y038557D01*
X057231Y038585D01*
X057189Y038616D01*
X057149Y038650D01*
X057112Y038687D01*
X057078Y038727D01*
X057047Y038769D01*
X057019Y038813D01*
X056994Y038859D01*
X056973Y038907D01*
X056956Y038957D01*
X056943Y039007D01*
X056933Y039059D01*
X056927Y039111D01*
X056925Y039163D01*
X056925Y004163D02*
X056927Y004215D01*
X056933Y004267D01*
X056943Y004319D01*
X056956Y004369D01*
X056973Y004419D01*
X056994Y004467D01*
X057019Y004513D01*
X057047Y004557D01*
X057078Y004599D01*
X057112Y004639D01*
X057149Y004676D01*
X057189Y004710D01*
X057231Y004741D01*
X057275Y004769D01*
X057321Y004794D01*
X057369Y004815D01*
X057419Y004832D01*
X057469Y004845D01*
X057521Y004855D01*
X057573Y004861D01*
X057625Y004863D01*
X057677Y004861D01*
X057729Y004855D01*
X057781Y004845D01*
X057831Y004832D01*
X057881Y004815D01*
X057929Y004794D01*
X057975Y004769D01*
X058019Y004741D01*
X058061Y004710D01*
X058101Y004676D01*
X058138Y004639D01*
X058172Y004599D01*
X058203Y004557D01*
X058231Y004513D01*
X058256Y004467D01*
X058277Y004419D01*
X058294Y004369D01*
X058307Y004319D01*
X058317Y004267D01*
X058323Y004215D01*
X058325Y004163D01*
X058323Y004111D01*
X058317Y004059D01*
X058307Y004007D01*
X058294Y003957D01*
X058277Y003907D01*
X058256Y003859D01*
X058231Y003813D01*
X058203Y003769D01*
X058172Y003727D01*
X058138Y003687D01*
X058101Y003650D01*
X058061Y003616D01*
X058019Y003585D01*
X057975Y003557D01*
X057929Y003532D01*
X057881Y003511D01*
X057831Y003494D01*
X057781Y003481D01*
X057729Y003471D01*
X057677Y003465D01*
X057625Y003463D01*
X057573Y003465D01*
X057521Y003471D01*
X057469Y003481D01*
X057419Y003494D01*
X057369Y003511D01*
X057321Y003532D01*
X057275Y003557D01*
X057231Y003585D01*
X057189Y003616D01*
X057149Y003650D01*
X057112Y003687D01*
X057078Y003727D01*
X057047Y003769D01*
X057019Y003813D01*
X056994Y003859D01*
X056973Y003907D01*
X056956Y003957D01*
X056943Y004007D01*
X056933Y004059D01*
X056927Y004111D01*
X056925Y004163D01*
D11*
X054925Y004413D02*
X054675Y004163D01*
X054925Y003913D01*
X054925Y003413D01*
X054675Y003163D01*
X054175Y003163D01*
X053925Y003413D01*
X053925Y003913D01*
X054175Y004163D01*
X053925Y004413D01*
X053925Y004913D01*
X054175Y005163D01*
X053925Y005413D01*
X053925Y005913D01*
X054175Y006163D01*
X054675Y006163D01*
X054925Y005913D01*
X054925Y005413D01*
X054675Y005163D01*
X054925Y004913D01*
X054925Y004413D01*
X054675Y004163D02*
X054175Y004163D01*
X053625Y004513D02*
X053625Y002763D01*
X053425Y002763D01*
X053275Y002763D02*
X053125Y002763D01*
X053125Y006563D01*
X051625Y006563D01*
X051625Y006363D01*
X051625Y006563D02*
X051125Y006563D01*
X051125Y002763D01*
X053125Y002763D01*
X051275Y003263D02*
X051277Y003300D01*
X051283Y003337D01*
X051293Y003373D01*
X051306Y003408D01*
X051323Y003441D01*
X051344Y003472D01*
X051368Y003500D01*
X051395Y003526D01*
X051424Y003549D01*
X051455Y003569D01*
X051489Y003585D01*
X051524Y003598D01*
X051560Y003607D01*
X051597Y003612D01*
X051634Y003613D01*
X051671Y003610D01*
X051708Y003603D01*
X051744Y003592D01*
X051778Y003578D01*
X051811Y003560D01*
X051841Y003538D01*
X051869Y003514D01*
X051894Y003486D01*
X051917Y003456D01*
X051936Y003424D01*
X051951Y003390D01*
X051963Y003355D01*
X051971Y003319D01*
X051975Y003282D01*
X051975Y003244D01*
X051971Y003207D01*
X051963Y003171D01*
X051951Y003136D01*
X051936Y003102D01*
X051917Y003070D01*
X051894Y003040D01*
X051869Y003012D01*
X051841Y002988D01*
X051811Y002966D01*
X051778Y002948D01*
X051744Y002934D01*
X051708Y002923D01*
X051671Y002916D01*
X051634Y002913D01*
X051597Y002914D01*
X051560Y002919D01*
X051524Y002928D01*
X051489Y002941D01*
X051455Y002957D01*
X051424Y002977D01*
X051395Y003000D01*
X051368Y003026D01*
X051344Y003054D01*
X051323Y003085D01*
X051306Y003118D01*
X051293Y003153D01*
X051283Y003189D01*
X051277Y003226D01*
X051275Y003263D01*
X051625Y003763D02*
X051625Y003963D01*
X051625Y004163D02*
X051625Y004313D01*
X051625Y005063D02*
X051625Y006163D01*
X053125Y006563D02*
X053275Y006563D01*
X053425Y006563D02*
X053625Y006563D01*
X053625Y004813D01*
X054175Y005163D02*
X054675Y005163D01*
X054995Y007551D02*
X054995Y007764D01*
X054995Y007658D02*
X054354Y007658D01*
X054354Y007764D02*
X054354Y007551D01*
X054354Y007980D02*
X054568Y008194D01*
X054354Y008408D01*
X054995Y008408D01*
X054888Y008625D02*
X054995Y008732D01*
X054995Y008945D01*
X054888Y009052D01*
X054354Y009052D01*
X054354Y008625D02*
X054888Y008625D01*
X054995Y007980D02*
X054354Y007980D01*
X056325Y008313D02*
X056325Y008813D01*
X056575Y009063D01*
X058075Y009063D01*
X058325Y009313D01*
X058325Y009813D01*
X058075Y010063D01*
X056575Y010063D01*
X056325Y010313D01*
X056325Y010813D01*
X056575Y011063D01*
X058075Y011063D01*
X058325Y011313D01*
X058325Y011813D01*
X058075Y012063D01*
X056575Y012063D01*
X056325Y012313D01*
X056325Y012813D01*
X056575Y013063D01*
X056325Y013313D01*
X056325Y013813D01*
X056575Y014063D01*
X058075Y014063D01*
X058325Y013813D01*
X058325Y013313D01*
X058075Y013063D01*
X056575Y013063D01*
X054995Y013244D02*
X054995Y013564D01*
X054995Y013244D02*
X054888Y013137D01*
X054675Y013137D01*
X054568Y013244D01*
X054568Y013564D01*
X054568Y013781D02*
X054568Y013995D01*
X054461Y013888D02*
X054888Y013888D01*
X054995Y013995D01*
X054888Y014211D02*
X054675Y014211D01*
X054568Y014318D01*
X054568Y014531D01*
X054675Y014638D01*
X054888Y014638D01*
X054995Y014531D01*
X054995Y014318D01*
X054888Y014211D01*
X054781Y014856D02*
X054568Y015069D01*
X054568Y015176D01*
X054568Y014856D02*
X054995Y014856D01*
X052925Y014813D02*
X052925Y014313D01*
X052675Y014063D01*
X052925Y013813D01*
X052925Y013313D01*
X052675Y013063D01*
X051175Y013063D01*
X050925Y013313D01*
X050925Y013813D01*
X051175Y014063D01*
X052675Y014063D01*
X052925Y014813D02*
X052675Y015063D01*
X051175Y015063D01*
X050925Y015313D01*
X050925Y015813D01*
X051175Y016063D01*
X052675Y016063D01*
X052925Y015813D01*
X052925Y015313D01*
X052675Y015063D01*
X052675Y016063D02*
X052925Y016313D01*
X052925Y016813D01*
X052675Y017063D01*
X051175Y017063D01*
X050925Y017313D01*
X050925Y017813D01*
X051175Y018063D01*
X052675Y018063D01*
X052925Y017813D01*
X052925Y017313D01*
X052675Y017063D01*
X052675Y018063D02*
X052925Y018313D01*
X052925Y018813D01*
X052675Y019063D01*
X051175Y019063D01*
X050925Y019313D01*
X050925Y019813D01*
X051175Y020063D01*
X052675Y020063D01*
X052925Y019813D01*
X052925Y019313D01*
X052675Y019063D01*
X052675Y020063D02*
X052925Y020313D01*
X052925Y020813D01*
X052675Y021063D01*
X051175Y021063D01*
X050925Y020813D01*
X050925Y020313D01*
X051175Y020063D01*
X051175Y021063D02*
X050925Y021313D01*
X050925Y021813D01*
X051175Y022063D01*
X052675Y022063D01*
X052925Y021813D01*
X052925Y021313D01*
X052675Y021063D01*
X052675Y022063D02*
X052925Y022313D01*
X052925Y022813D01*
X052675Y023063D01*
X051175Y023063D01*
X050925Y022813D01*
X050925Y022313D01*
X051175Y022063D01*
X051175Y023063D02*
X050925Y023313D01*
X050925Y023813D01*
X051175Y024063D01*
X052675Y024063D01*
X052925Y023813D01*
X052925Y023313D01*
X052675Y023063D01*
X052675Y024063D02*
X052925Y024313D01*
X052925Y024813D01*
X052675Y025063D01*
X051175Y025063D01*
X050925Y024813D01*
X050925Y024313D01*
X051175Y024063D01*
X051175Y025063D02*
X050925Y025313D01*
X050925Y025813D01*
X051175Y026063D01*
X052675Y026063D01*
X052925Y025813D01*
X052925Y025313D01*
X052675Y025063D01*
X058854Y025765D02*
X058854Y025978D01*
X058961Y026085D01*
X059388Y025658D01*
X059495Y025765D01*
X059495Y025978D01*
X059388Y026085D01*
X058961Y026085D01*
X059068Y026303D02*
X058854Y026516D01*
X059495Y026516D01*
X059495Y026303D02*
X059495Y026730D01*
X059175Y027592D02*
X059175Y028019D01*
X059388Y028881D02*
X059495Y028988D01*
X059495Y029094D01*
X059388Y029201D01*
X058854Y029201D01*
X058854Y029094D02*
X058854Y029308D01*
X059068Y029632D02*
X059068Y029846D01*
X059175Y029952D01*
X059495Y029952D01*
X059495Y029632D01*
X059388Y029525D01*
X059281Y029632D01*
X059281Y029952D01*
X059068Y030170D02*
X059068Y030490D01*
X059175Y030597D01*
X059495Y030597D01*
X059495Y030170D02*
X059068Y030170D01*
X059068Y031459D02*
X058961Y031566D01*
X058748Y031566D01*
X059068Y031781D02*
X058854Y031995D01*
X059495Y031995D01*
X059495Y032208D02*
X059495Y031781D01*
X059495Y032426D02*
X059068Y032853D01*
X058961Y032853D01*
X058854Y032746D01*
X058854Y032533D01*
X058961Y032426D01*
X059495Y032426D02*
X059495Y032853D01*
X058854Y025765D02*
X058961Y025658D01*
X059388Y025658D01*
X059068Y025441D02*
X059495Y025227D01*
X059068Y025014D01*
X059175Y024796D02*
X059281Y024796D01*
X059281Y024369D01*
X059175Y024369D02*
X059068Y024476D01*
X059068Y024689D01*
X059175Y024796D01*
X059495Y024689D02*
X059495Y024476D01*
X059388Y024369D01*
X059175Y024369D01*
X059175Y024151D02*
X058961Y024151D01*
X058854Y024045D01*
X058854Y023724D01*
X059495Y023724D01*
X059281Y023724D02*
X059281Y024045D01*
X059175Y024151D01*
X059281Y023938D02*
X059495Y024151D01*
X059495Y022862D02*
X058854Y022862D01*
X059068Y022862D02*
X059068Y022542D01*
X059175Y022435D01*
X059388Y022435D01*
X059495Y022542D01*
X059495Y022862D01*
X059068Y022218D02*
X059068Y022112D01*
X059281Y021898D01*
X059068Y021898D02*
X059495Y021898D01*
X059495Y021681D02*
X059495Y021360D01*
X059388Y021254D01*
X059281Y021360D01*
X059281Y021681D01*
X059175Y021681D02*
X059495Y021681D01*
X059175Y021681D02*
X059068Y021574D01*
X059068Y021360D01*
X059175Y021036D02*
X059068Y020929D01*
X059068Y020716D01*
X059175Y020609D01*
X059388Y020609D01*
X059495Y020716D01*
X059495Y020929D01*
X059388Y021036D01*
X059175Y021036D01*
X059281Y020392D02*
X059388Y020392D01*
X059495Y020285D01*
X059495Y019965D01*
X058854Y019965D01*
X058854Y020285D01*
X058961Y020392D01*
X059068Y020392D01*
X059175Y020285D01*
X059175Y019965D01*
X059175Y020285D02*
X059281Y020392D01*
X059281Y019102D02*
X059281Y018675D01*
X059175Y018675D02*
X059068Y018782D01*
X059068Y018996D01*
X059175Y019102D01*
X059281Y019102D01*
X059495Y018996D02*
X059495Y018782D01*
X059388Y018675D01*
X059175Y018675D01*
X059068Y018458D02*
X059068Y018138D01*
X059175Y018031D01*
X059388Y018031D01*
X059495Y018138D01*
X059495Y018458D01*
X059495Y017813D02*
X059495Y017493D01*
X059388Y017386D01*
X059281Y017493D01*
X059281Y017813D01*
X059175Y017813D02*
X059495Y017813D01*
X059175Y017813D02*
X059068Y017707D01*
X059068Y017493D01*
X059175Y017170D02*
X059175Y016957D01*
X058961Y017063D02*
X059495Y017063D01*
X058961Y017063D02*
X058854Y017170D01*
X059068Y016740D02*
X059068Y016633D01*
X059281Y016420D01*
X059068Y016420D02*
X059495Y016420D01*
X059281Y016202D02*
X059281Y015775D01*
X059175Y015775D02*
X059068Y015882D01*
X059068Y016095D01*
X059175Y016202D01*
X059281Y016202D01*
X059495Y016095D02*
X059495Y015882D01*
X059388Y015775D01*
X059175Y015775D01*
X059068Y015559D02*
X059068Y015345D01*
X058961Y015452D02*
X059388Y015452D01*
X059495Y015559D01*
X059495Y015128D02*
X059175Y015128D01*
X059068Y015021D01*
X059068Y014701D01*
X059495Y014701D01*
X059495Y014485D02*
X059495Y014271D01*
X059495Y014378D02*
X058854Y014378D01*
X058854Y014271D02*
X058854Y014485D01*
X059068Y013409D02*
X059495Y013409D01*
X059175Y013409D02*
X059175Y012982D01*
X059068Y012982D02*
X058854Y013195D01*
X059068Y013409D01*
X059068Y012982D02*
X059495Y012982D01*
X059388Y012764D02*
X058961Y012764D01*
X058854Y012658D01*
X058854Y012337D01*
X059495Y012337D01*
X059495Y012658D01*
X059388Y012764D01*
X059495Y012120D02*
X058854Y012120D01*
X059068Y011906D01*
X058854Y011693D01*
X059495Y011693D01*
X058325Y012313D02*
X058325Y012813D01*
X058075Y013063D01*
X058325Y012313D02*
X058075Y012063D01*
X058075Y011063D02*
X058325Y010813D01*
X058325Y010313D01*
X058075Y010063D01*
X058075Y009063D02*
X058325Y008813D01*
X058325Y008313D01*
X058075Y008063D01*
X056575Y008063D01*
X056325Y008313D01*
X056575Y009063D02*
X056325Y009313D01*
X056325Y009813D01*
X056575Y010063D01*
X056575Y011063D02*
X056325Y011313D01*
X056325Y011813D01*
X056575Y012063D01*
X054995Y012275D02*
X054675Y012275D01*
X054568Y012168D01*
X054568Y011848D01*
X054995Y011848D01*
X054995Y011630D02*
X054675Y011630D01*
X054568Y011524D01*
X054568Y011203D01*
X054995Y011203D01*
X054888Y010986D02*
X054675Y010986D01*
X054568Y010879D01*
X054568Y010665D01*
X054675Y010559D01*
X054888Y010559D01*
X054995Y010665D01*
X054995Y010879D01*
X054888Y010986D01*
X054888Y010341D02*
X054995Y010234D01*
X054995Y010021D01*
X054888Y009914D01*
X054461Y009914D01*
X054354Y010021D01*
X054354Y010234D01*
X054461Y010341D01*
X054675Y012492D02*
X054568Y012599D01*
X054568Y012813D01*
X054675Y012919D01*
X054781Y012919D01*
X054781Y012492D01*
X054675Y012492D02*
X054888Y012492D01*
X054995Y012599D01*
X054995Y012813D01*
X051175Y014063D02*
X050925Y014313D01*
X050925Y014813D01*
X051175Y015063D01*
X051175Y016063D02*
X050925Y016313D01*
X050925Y016813D01*
X051175Y017063D01*
X051175Y018063D02*
X050925Y018313D01*
X050925Y018813D01*
X051175Y019063D01*
X040125Y026413D02*
X039875Y026163D01*
X039375Y026163D01*
X039125Y026413D01*
X039125Y027913D01*
X038875Y028163D01*
X038375Y028163D01*
X038125Y027913D01*
X038125Y026413D01*
X037875Y026163D01*
X037375Y026163D01*
X037125Y026413D01*
X037125Y027913D01*
X036875Y028163D01*
X036375Y028163D01*
X036125Y027913D01*
X036125Y026413D01*
X035875Y026163D01*
X035375Y026163D01*
X035125Y026413D01*
X035125Y027913D01*
X034875Y028163D01*
X034375Y028163D01*
X034125Y027913D01*
X034125Y026413D01*
X033875Y026163D01*
X033375Y026163D01*
X033125Y026413D01*
X033125Y027913D01*
X033375Y028163D01*
X033875Y028163D01*
X034125Y027913D01*
X033125Y027913D02*
X032875Y028163D01*
X032375Y028163D01*
X032125Y027913D01*
X032125Y026413D01*
X031875Y026163D01*
X031375Y026163D01*
X031125Y026413D01*
X031125Y027913D01*
X031375Y028163D01*
X031875Y028163D01*
X032125Y027913D01*
X031125Y027913D02*
X030875Y028163D01*
X030375Y028163D01*
X030125Y027913D01*
X030125Y026413D01*
X029875Y026163D01*
X029375Y026163D01*
X029125Y026413D01*
X029125Y027913D01*
X029375Y028163D01*
X029875Y028163D01*
X030125Y027913D01*
X029125Y027913D02*
X028875Y028163D01*
X028375Y028163D01*
X028125Y027913D01*
X028125Y026413D01*
X027875Y026163D01*
X027375Y026163D01*
X027125Y026413D01*
X027125Y027913D01*
X027375Y028163D01*
X027875Y028163D01*
X028125Y027913D01*
X027125Y027913D02*
X026875Y028163D01*
X026375Y028163D01*
X026125Y027913D01*
X026125Y026413D01*
X025875Y026163D01*
X025375Y026163D01*
X025125Y026413D01*
X025125Y027913D01*
X025375Y028163D01*
X025875Y028163D01*
X026125Y027913D01*
X025125Y027913D02*
X024875Y028163D01*
X024375Y028163D01*
X024125Y027913D01*
X024125Y026413D01*
X023875Y026163D01*
X023375Y026163D01*
X023125Y026413D01*
X023125Y027913D01*
X023375Y028163D01*
X023875Y028163D01*
X024125Y027913D01*
X023125Y027913D02*
X022875Y028163D01*
X022375Y028163D01*
X022125Y027913D01*
X022125Y026413D01*
X021875Y026163D01*
X021375Y026163D01*
X021125Y026413D01*
X020875Y026163D01*
X020375Y026163D01*
X020125Y026413D01*
X020125Y027913D01*
X020375Y028163D01*
X020875Y028163D01*
X021125Y027913D01*
X021125Y026413D01*
X022125Y026413D02*
X022375Y026163D01*
X022875Y026163D01*
X023125Y026413D01*
X024125Y026413D02*
X024375Y026163D01*
X024875Y026163D01*
X025125Y026413D01*
X026125Y026413D02*
X026375Y026163D01*
X026875Y026163D01*
X027125Y026413D01*
X028125Y026413D02*
X028375Y026163D01*
X028875Y026163D01*
X029125Y026413D01*
X030125Y026413D02*
X030375Y026163D01*
X030875Y026163D01*
X031125Y026413D01*
X032125Y026413D02*
X032375Y026163D01*
X032875Y026163D01*
X033125Y026413D01*
X034125Y026413D02*
X034375Y026163D01*
X034875Y026163D01*
X035125Y026413D01*
X036125Y026413D02*
X036375Y026163D01*
X036875Y026163D01*
X037125Y026413D01*
X038125Y026413D02*
X038375Y026163D01*
X038875Y026163D01*
X039125Y026413D01*
X040125Y026413D02*
X040125Y027913D01*
X039875Y028163D01*
X039375Y028163D01*
X039125Y027913D01*
X038125Y027913D02*
X037875Y028163D01*
X037375Y028163D01*
X037125Y027913D01*
X036125Y027913D02*
X035875Y028163D01*
X035375Y028163D01*
X035125Y027913D01*
X022125Y027913D02*
X021875Y028163D01*
X021375Y028163D01*
X021125Y027913D01*
X013295Y024904D02*
X013295Y024690D01*
X013295Y024797D02*
X012654Y024797D01*
X012654Y024690D01*
X012975Y024473D02*
X013295Y024473D01*
X013295Y024153D01*
X013188Y024046D01*
X013081Y024153D01*
X013081Y024473D01*
X012975Y024473D02*
X012868Y024366D01*
X012868Y024153D01*
X012868Y023723D02*
X013295Y023723D01*
X013295Y023616D02*
X013295Y023830D01*
X012868Y023723D02*
X012868Y023616D01*
X012868Y023399D02*
X012868Y023292D01*
X013081Y023079D01*
X012868Y023079D02*
X013295Y023079D01*
X013081Y022861D02*
X013081Y022434D01*
X012975Y022434D02*
X012868Y022541D01*
X012868Y022755D01*
X012975Y022861D01*
X013081Y022861D01*
X013295Y022755D02*
X013295Y022541D01*
X013188Y022434D01*
X012975Y022434D01*
X013081Y022217D02*
X013188Y022217D01*
X013295Y022110D01*
X013295Y021897D01*
X013188Y021790D01*
X012975Y021897D02*
X012975Y022110D01*
X013081Y022217D01*
X012761Y022217D02*
X012654Y022110D01*
X012654Y021897D01*
X012761Y021790D01*
X012868Y021790D01*
X012975Y021897D01*
X012975Y020928D02*
X012868Y020821D01*
X012868Y020607D01*
X012975Y020501D01*
X013188Y020501D01*
X013295Y020607D01*
X013295Y020821D01*
X013188Y020928D01*
X012975Y020928D01*
X012868Y020285D02*
X012868Y020071D01*
X012761Y020178D02*
X013188Y020178D01*
X013295Y020285D01*
X013188Y019209D02*
X013295Y019102D01*
X013295Y018782D01*
X012654Y018782D01*
X012654Y019102D01*
X012761Y019209D01*
X012868Y019209D01*
X012975Y019102D01*
X012975Y018782D01*
X013081Y018564D02*
X013188Y018564D01*
X013295Y018458D01*
X013295Y018244D01*
X013188Y018137D01*
X013188Y017920D02*
X012654Y017920D01*
X012761Y018137D02*
X012868Y018137D01*
X012975Y018244D01*
X012975Y018458D01*
X013081Y018564D01*
X012761Y018564D02*
X012654Y018458D01*
X012654Y018244D01*
X012761Y018137D01*
X013188Y017920D02*
X013295Y017813D01*
X013295Y017600D01*
X013188Y017493D01*
X012654Y017493D01*
X012975Y019102D02*
X013081Y019209D01*
X013188Y019209D01*
X012654Y023723D02*
X012548Y023723D01*
X005595Y025993D02*
X004954Y025993D01*
X004954Y026313D01*
X005061Y026420D01*
X005275Y026420D01*
X005381Y026313D01*
X005381Y025993D01*
X005595Y026637D02*
X004954Y026637D01*
X005168Y026851D01*
X004954Y027064D01*
X005595Y027064D01*
X005488Y027926D02*
X005061Y027926D01*
X004954Y028033D01*
X004954Y028247D01*
X005061Y028354D01*
X005275Y028571D02*
X005488Y028571D01*
X005595Y028678D01*
X005595Y028891D01*
X005488Y028998D01*
X005275Y028998D01*
X005168Y028891D01*
X005168Y028678D01*
X005275Y028571D01*
X005488Y028354D02*
X005595Y028247D01*
X005595Y028033D01*
X005488Y027926D01*
X005595Y029216D02*
X005168Y029216D01*
X005168Y029536D01*
X005275Y029643D01*
X005595Y029643D01*
X005595Y029860D02*
X005168Y029860D01*
X005168Y030180D01*
X005275Y030287D01*
X005595Y030287D01*
X005488Y030505D02*
X005275Y030505D01*
X005168Y030611D01*
X005168Y030825D01*
X005275Y030932D01*
X005381Y030932D01*
X005381Y030505D01*
X005488Y030505D02*
X005595Y030611D01*
X005595Y030825D01*
X005488Y031149D02*
X005275Y031149D01*
X005168Y031256D01*
X005168Y031576D01*
X005168Y031794D02*
X005168Y032007D01*
X005061Y031901D02*
X005488Y031901D01*
X005595Y032007D01*
X005488Y032223D02*
X005275Y032223D01*
X005168Y032330D01*
X005168Y032544D01*
X005275Y032651D01*
X005488Y032651D01*
X005595Y032544D01*
X005595Y032330D01*
X005488Y032223D01*
X005381Y032868D02*
X005168Y033082D01*
X005168Y033188D01*
X005168Y032868D02*
X005595Y032868D01*
X005595Y031576D02*
X005595Y031256D01*
X005488Y031149D01*
X004125Y031113D02*
X004125Y030613D01*
X003875Y030363D01*
X002375Y030363D01*
X002125Y030613D01*
X002125Y031113D01*
X002375Y031363D01*
X002125Y031613D01*
X002125Y032113D01*
X002375Y032363D01*
X003875Y032363D01*
X004125Y032113D01*
X004125Y031613D01*
X003875Y031363D01*
X002375Y031363D01*
X002375Y030363D02*
X002125Y030113D01*
X002125Y029613D01*
X002375Y029363D01*
X003875Y029363D01*
X004125Y029613D01*
X004125Y030113D01*
X003875Y030363D01*
X004125Y031113D02*
X003875Y031363D01*
X003875Y029363D02*
X004125Y029113D01*
X004125Y028613D01*
X003875Y028363D01*
X002375Y028363D01*
X002125Y028613D01*
X002125Y029113D01*
X002375Y029363D01*
X002475Y034363D02*
X002225Y034613D01*
X002225Y036113D01*
X002475Y036363D01*
X002975Y036363D01*
X003225Y036113D01*
X003225Y034613D01*
X003475Y034363D01*
X003975Y034363D01*
X004225Y034613D01*
X004225Y036113D01*
X003975Y036363D01*
X003475Y036363D01*
X003225Y036113D01*
X003225Y034613D02*
X002975Y034363D01*
X002475Y034363D01*
X009054Y034323D02*
X009054Y034643D01*
X009161Y034750D01*
X009375Y034750D01*
X009481Y034643D01*
X009481Y034323D01*
X009481Y034536D02*
X009695Y034750D01*
X009695Y034323D02*
X009054Y034323D01*
X009054Y034106D02*
X009054Y033893D01*
X009054Y034000D02*
X009695Y034000D01*
X009695Y034106D02*
X009695Y033893D01*
X009695Y035612D02*
X009054Y035612D01*
X009695Y035612D02*
X009695Y036039D01*
X009695Y036256D02*
X009695Y036683D01*
X009695Y036901D02*
X009054Y036901D01*
X009054Y037221D01*
X009161Y037328D01*
X009588Y037328D01*
X009695Y037221D01*
X009695Y036901D01*
X009375Y036470D02*
X009375Y036256D01*
X009695Y036256D02*
X009054Y036256D01*
X009054Y036683D01*
X005228Y017133D02*
X005015Y017133D01*
X005122Y017133D02*
X005122Y016493D01*
X005228Y016493D02*
X005015Y016493D01*
X005445Y016493D02*
X005445Y016920D01*
X005765Y016920D01*
X005872Y016813D01*
X005872Y016493D01*
X004153Y016920D02*
X004047Y016920D01*
X003833Y016706D01*
X003833Y016493D02*
X003833Y016920D01*
X003616Y016813D02*
X003616Y016706D01*
X003189Y016706D01*
X003189Y016600D02*
X003189Y016813D01*
X003295Y016920D01*
X003509Y016920D01*
X003616Y016813D01*
X003509Y016493D02*
X003295Y016493D01*
X003189Y016600D01*
X002971Y016600D02*
X002971Y016920D01*
X002971Y016600D02*
X002864Y016493D01*
X002758Y016600D01*
X002651Y016493D01*
X002544Y016600D01*
X002544Y016920D01*
X002327Y016813D02*
X002327Y016600D01*
X002220Y016493D01*
X002006Y016493D01*
X001900Y016600D01*
X001900Y016813D01*
X002006Y016920D01*
X002220Y016920D01*
X002327Y016813D01*
X001682Y016813D02*
X001575Y016706D01*
X001255Y016706D01*
X001255Y016493D02*
X001255Y017133D01*
X001575Y017133D01*
X001682Y017027D01*
X001682Y016813D01*
X011875Y012783D02*
X011875Y011543D01*
X011877Y011520D01*
X011882Y011497D01*
X011891Y011475D01*
X011904Y011455D01*
X011919Y011437D01*
X011937Y011422D01*
X011957Y011409D01*
X011979Y011400D01*
X012002Y011395D01*
X012025Y011393D01*
X015225Y011393D01*
X015248Y011395D01*
X015271Y011400D01*
X015293Y011409D01*
X015313Y011422D01*
X015331Y011437D01*
X015346Y011455D01*
X015359Y011475D01*
X015368Y011497D01*
X015373Y011520D01*
X015375Y011543D01*
X015375Y011963D01*
X015375Y012363D01*
X015375Y012783D01*
X015373Y012806D01*
X015368Y012829D01*
X015359Y012851D01*
X015346Y012871D01*
X015331Y012889D01*
X015313Y012904D01*
X015293Y012917D01*
X015271Y012926D01*
X015248Y012931D01*
X015225Y012933D01*
X012025Y012933D01*
X012002Y012931D01*
X011979Y012926D01*
X011957Y012917D01*
X011937Y012904D01*
X011919Y012889D01*
X011904Y012871D01*
X011891Y012851D01*
X011882Y012829D01*
X011877Y012806D01*
X011875Y012783D01*
X015375Y012363D02*
X015348Y012361D01*
X015321Y012356D01*
X015295Y012346D01*
X015271Y012334D01*
X015249Y012318D01*
X015229Y012300D01*
X015212Y012278D01*
X015197Y012255D01*
X015187Y012230D01*
X015179Y012204D01*
X015175Y012177D01*
X015175Y012149D01*
X015179Y012122D01*
X015187Y012096D01*
X015197Y012071D01*
X015212Y012048D01*
X015229Y012026D01*
X015249Y012008D01*
X015271Y011992D01*
X015295Y011980D01*
X015321Y011970D01*
X015348Y011965D01*
X015375Y011963D01*
X014498Y009033D02*
X014285Y009033D01*
X014178Y008927D01*
X014178Y008820D01*
X014285Y008713D01*
X014498Y008713D01*
X014605Y008606D01*
X014605Y008500D01*
X014498Y008393D01*
X014285Y008393D01*
X014178Y008500D01*
X014605Y008927D02*
X014498Y009033D01*
X014822Y008713D02*
X014929Y008820D01*
X015143Y008820D01*
X015249Y008713D01*
X015249Y008606D01*
X014822Y008606D01*
X014822Y008500D02*
X014822Y008713D01*
X014822Y008500D02*
X014929Y008393D01*
X015143Y008393D01*
X015467Y008393D02*
X015467Y008820D01*
X015787Y008820D01*
X015894Y008713D01*
X015894Y008393D01*
X016111Y008393D02*
X016432Y008393D01*
X016538Y008500D01*
X016432Y008606D01*
X016218Y008606D01*
X016111Y008713D01*
X016218Y008820D01*
X016538Y008820D01*
X016756Y008713D02*
X016863Y008820D01*
X017076Y008820D01*
X017183Y008713D01*
X017183Y008606D01*
X016756Y008606D01*
X016756Y008500D02*
X016756Y008713D01*
X016756Y008500D02*
X016863Y008393D01*
X017076Y008393D01*
X017125Y006563D02*
X016625Y006563D01*
X016625Y002763D01*
X018625Y002763D01*
X018775Y002763D01*
X018925Y002763D02*
X019125Y002763D01*
X019125Y004513D01*
X019125Y004813D02*
X019125Y006563D01*
X018925Y006563D01*
X018775Y006563D02*
X018625Y006563D01*
X017125Y006563D01*
X017125Y006363D01*
X017125Y006163D02*
X017125Y005063D01*
X017125Y004313D02*
X017125Y004163D01*
X017125Y003963D02*
X017125Y003763D01*
X016775Y003263D02*
X016777Y003300D01*
X016783Y003337D01*
X016793Y003373D01*
X016806Y003408D01*
X016823Y003441D01*
X016844Y003472D01*
X016868Y003500D01*
X016895Y003526D01*
X016924Y003549D01*
X016955Y003569D01*
X016989Y003585D01*
X017024Y003598D01*
X017060Y003607D01*
X017097Y003612D01*
X017134Y003613D01*
X017171Y003610D01*
X017208Y003603D01*
X017244Y003592D01*
X017278Y003578D01*
X017311Y003560D01*
X017341Y003538D01*
X017369Y003514D01*
X017394Y003486D01*
X017417Y003456D01*
X017436Y003424D01*
X017451Y003390D01*
X017463Y003355D01*
X017471Y003319D01*
X017475Y003282D01*
X017475Y003244D01*
X017471Y003207D01*
X017463Y003171D01*
X017451Y003136D01*
X017436Y003102D01*
X017417Y003070D01*
X017394Y003040D01*
X017369Y003012D01*
X017341Y002988D01*
X017311Y002966D01*
X017278Y002948D01*
X017244Y002934D01*
X017208Y002923D01*
X017171Y002916D01*
X017134Y002913D01*
X017097Y002914D01*
X017060Y002919D01*
X017024Y002928D01*
X016989Y002941D01*
X016955Y002957D01*
X016924Y002977D01*
X016895Y003000D01*
X016868Y003026D01*
X016844Y003054D01*
X016823Y003085D01*
X016806Y003118D01*
X016793Y003153D01*
X016783Y003189D01*
X016777Y003226D01*
X016775Y003263D01*
X018625Y002763D02*
X018625Y006563D01*
X019625Y005913D02*
X019875Y006163D01*
X020375Y006163D01*
X020625Y005913D01*
X020625Y005413D01*
X020375Y005163D01*
X020625Y004913D01*
X020625Y004413D01*
X020375Y004163D01*
X020625Y003913D01*
X020625Y003413D01*
X020375Y003163D01*
X019875Y003163D01*
X019625Y003413D01*
X019625Y003913D01*
X019875Y004163D01*
X019625Y004413D01*
X019625Y004913D01*
X019875Y005163D01*
X019625Y005413D01*
X019625Y005913D01*
X019875Y005163D02*
X020375Y005163D01*
X020375Y004163D02*
X019875Y004163D01*
X023625Y002763D02*
X023625Y006563D01*
X024125Y006563D01*
X025625Y006563D01*
X025775Y006563D01*
X025625Y006563D02*
X025625Y002763D01*
X025775Y002763D01*
X025625Y002763D02*
X023625Y002763D01*
X023775Y003263D02*
X023777Y003300D01*
X023783Y003337D01*
X023793Y003373D01*
X023806Y003408D01*
X023823Y003441D01*
X023844Y003472D01*
X023868Y003500D01*
X023895Y003526D01*
X023924Y003549D01*
X023955Y003569D01*
X023989Y003585D01*
X024024Y003598D01*
X024060Y003607D01*
X024097Y003612D01*
X024134Y003613D01*
X024171Y003610D01*
X024208Y003603D01*
X024244Y003592D01*
X024278Y003578D01*
X024311Y003560D01*
X024341Y003538D01*
X024369Y003514D01*
X024394Y003486D01*
X024417Y003456D01*
X024436Y003424D01*
X024451Y003390D01*
X024463Y003355D01*
X024471Y003319D01*
X024475Y003282D01*
X024475Y003244D01*
X024471Y003207D01*
X024463Y003171D01*
X024451Y003136D01*
X024436Y003102D01*
X024417Y003070D01*
X024394Y003040D01*
X024369Y003012D01*
X024341Y002988D01*
X024311Y002966D01*
X024278Y002948D01*
X024244Y002934D01*
X024208Y002923D01*
X024171Y002916D01*
X024134Y002913D01*
X024097Y002914D01*
X024060Y002919D01*
X024024Y002928D01*
X023989Y002941D01*
X023955Y002957D01*
X023924Y002977D01*
X023895Y003000D01*
X023868Y003026D01*
X023844Y003054D01*
X023823Y003085D01*
X023806Y003118D01*
X023793Y003153D01*
X023783Y003189D01*
X023777Y003226D01*
X023775Y003263D01*
X024125Y003763D02*
X024125Y003963D01*
X024125Y004163D02*
X024125Y004313D01*
X024125Y005063D02*
X024125Y006163D01*
X024125Y006363D02*
X024125Y006563D01*
X025925Y006563D02*
X026125Y006563D01*
X026125Y004813D01*
X026125Y004513D02*
X026125Y002763D01*
X025925Y002763D01*
X026625Y003413D02*
X026875Y003163D01*
X027375Y003163D01*
X027625Y003413D01*
X027625Y003913D01*
X027375Y004163D01*
X027625Y004413D01*
X027625Y004913D01*
X027375Y005163D01*
X027625Y005413D01*
X027625Y005913D01*
X027375Y006163D01*
X026875Y006163D01*
X026625Y005913D01*
X026625Y005413D01*
X026875Y005163D01*
X027375Y005163D01*
X026875Y005163D02*
X026625Y004913D01*
X026625Y004413D01*
X026875Y004163D01*
X027375Y004163D01*
X026875Y004163D02*
X026625Y003913D01*
X026625Y003413D01*
X030625Y002763D02*
X032625Y002763D01*
X032775Y002763D01*
X032925Y002763D02*
X033125Y002763D01*
X033125Y004513D01*
X033125Y004813D02*
X033125Y006563D01*
X032925Y006563D01*
X032775Y006563D02*
X032625Y006563D01*
X031125Y006563D01*
X031125Y006363D01*
X031125Y006563D02*
X030625Y006563D01*
X030625Y002763D01*
X030775Y003263D02*
X030777Y003300D01*
X030783Y003337D01*
X030793Y003373D01*
X030806Y003408D01*
X030823Y003441D01*
X030844Y003472D01*
X030868Y003500D01*
X030895Y003526D01*
X030924Y003549D01*
X030955Y003569D01*
X030989Y003585D01*
X031024Y003598D01*
X031060Y003607D01*
X031097Y003612D01*
X031134Y003613D01*
X031171Y003610D01*
X031208Y003603D01*
X031244Y003592D01*
X031278Y003578D01*
X031311Y003560D01*
X031341Y003538D01*
X031369Y003514D01*
X031394Y003486D01*
X031417Y003456D01*
X031436Y003424D01*
X031451Y003390D01*
X031463Y003355D01*
X031471Y003319D01*
X031475Y003282D01*
X031475Y003244D01*
X031471Y003207D01*
X031463Y003171D01*
X031451Y003136D01*
X031436Y003102D01*
X031417Y003070D01*
X031394Y003040D01*
X031369Y003012D01*
X031341Y002988D01*
X031311Y002966D01*
X031278Y002948D01*
X031244Y002934D01*
X031208Y002923D01*
X031171Y002916D01*
X031134Y002913D01*
X031097Y002914D01*
X031060Y002919D01*
X031024Y002928D01*
X030989Y002941D01*
X030955Y002957D01*
X030924Y002977D01*
X030895Y003000D01*
X030868Y003026D01*
X030844Y003054D01*
X030823Y003085D01*
X030806Y003118D01*
X030793Y003153D01*
X030783Y003189D01*
X030777Y003226D01*
X030775Y003263D01*
X031125Y003763D02*
X031125Y003963D01*
X031125Y004163D02*
X031125Y004313D01*
X031125Y005063D02*
X031125Y006163D01*
X032625Y006563D02*
X032625Y002763D01*
X033625Y003413D02*
X033875Y003163D01*
X034375Y003163D01*
X034625Y003413D01*
X034625Y003913D01*
X034375Y004163D01*
X034625Y004413D01*
X034625Y004913D01*
X034375Y005163D01*
X034625Y005413D01*
X034625Y005913D01*
X034375Y006163D01*
X033875Y006163D01*
X033625Y005913D01*
X033625Y005413D01*
X033875Y005163D01*
X034375Y005163D01*
X033875Y005163D02*
X033625Y004913D01*
X033625Y004413D01*
X033875Y004163D01*
X034375Y004163D01*
X033875Y004163D02*
X033625Y003913D01*
X033625Y003413D01*
X037625Y002763D02*
X037625Y006563D01*
X038125Y006563D01*
X039625Y006563D01*
X039775Y006563D01*
X039925Y006563D02*
X040125Y006563D01*
X040125Y004813D01*
X040125Y004513D02*
X040125Y002763D01*
X039925Y002763D01*
X039775Y002763D02*
X039625Y002763D01*
X039625Y006563D01*
X040625Y005913D02*
X040875Y006163D01*
X041375Y006163D01*
X041625Y005913D01*
X041625Y005413D01*
X041375Y005163D01*
X041625Y004913D01*
X041625Y004413D01*
X041375Y004163D01*
X041625Y003913D01*
X041625Y003413D01*
X041375Y003163D01*
X040875Y003163D01*
X040625Y003413D01*
X040625Y003913D01*
X040875Y004163D01*
X040625Y004413D01*
X040625Y004913D01*
X040875Y005163D01*
X040625Y005413D01*
X040625Y005913D01*
X040875Y005163D02*
X041375Y005163D01*
X041375Y004163D02*
X040875Y004163D01*
X039625Y002763D02*
X037625Y002763D01*
X037775Y003263D02*
X037777Y003300D01*
X037783Y003337D01*
X037793Y003373D01*
X037806Y003408D01*
X037823Y003441D01*
X037844Y003472D01*
X037868Y003500D01*
X037895Y003526D01*
X037924Y003549D01*
X037955Y003569D01*
X037989Y003585D01*
X038024Y003598D01*
X038060Y003607D01*
X038097Y003612D01*
X038134Y003613D01*
X038171Y003610D01*
X038208Y003603D01*
X038244Y003592D01*
X038278Y003578D01*
X038311Y003560D01*
X038341Y003538D01*
X038369Y003514D01*
X038394Y003486D01*
X038417Y003456D01*
X038436Y003424D01*
X038451Y003390D01*
X038463Y003355D01*
X038471Y003319D01*
X038475Y003282D01*
X038475Y003244D01*
X038471Y003207D01*
X038463Y003171D01*
X038451Y003136D01*
X038436Y003102D01*
X038417Y003070D01*
X038394Y003040D01*
X038369Y003012D01*
X038341Y002988D01*
X038311Y002966D01*
X038278Y002948D01*
X038244Y002934D01*
X038208Y002923D01*
X038171Y002916D01*
X038134Y002913D01*
X038097Y002914D01*
X038060Y002919D01*
X038024Y002928D01*
X037989Y002941D01*
X037955Y002957D01*
X037924Y002977D01*
X037895Y003000D01*
X037868Y003026D01*
X037844Y003054D01*
X037823Y003085D01*
X037806Y003118D01*
X037793Y003153D01*
X037783Y003189D01*
X037777Y003226D01*
X037775Y003263D01*
X038125Y003763D02*
X038125Y003963D01*
X038125Y004163D02*
X038125Y004313D01*
X038125Y005063D02*
X038125Y006163D01*
X038125Y006363D02*
X038125Y006563D01*
X037875Y009063D02*
X037375Y009063D01*
X037125Y009313D01*
X037125Y010813D01*
X037375Y011063D01*
X037875Y011063D01*
X038125Y010813D01*
X038125Y009313D01*
X037875Y009063D01*
X038125Y009313D02*
X038375Y009063D01*
X038875Y009063D01*
X039125Y009313D01*
X039375Y009063D01*
X039875Y009063D01*
X040125Y009313D01*
X040125Y010813D01*
X039875Y011063D01*
X039375Y011063D01*
X039125Y010813D01*
X039125Y009313D01*
X039125Y010813D02*
X038875Y011063D01*
X038375Y011063D01*
X038125Y010813D01*
X037125Y010813D02*
X036875Y011063D01*
X036375Y011063D01*
X036125Y010813D01*
X036125Y009313D01*
X035875Y009063D01*
X035375Y009063D01*
X035125Y009313D01*
X035125Y010813D01*
X035375Y011063D01*
X035875Y011063D01*
X036125Y010813D01*
X035125Y010813D02*
X034875Y011063D01*
X034375Y011063D01*
X034125Y010813D01*
X034125Y009313D01*
X033875Y009063D01*
X033375Y009063D01*
X033125Y009313D01*
X033125Y010813D01*
X033375Y011063D01*
X033875Y011063D01*
X034125Y010813D01*
X033125Y010813D02*
X032875Y011063D01*
X032375Y011063D01*
X032125Y010813D01*
X032125Y009313D01*
X031875Y009063D01*
X031375Y009063D01*
X031125Y009313D01*
X031125Y010813D01*
X031375Y011063D01*
X031875Y011063D01*
X032125Y010813D01*
X031125Y010813D02*
X030875Y011063D01*
X030375Y011063D01*
X030125Y010813D01*
X030125Y009313D01*
X029875Y009063D01*
X029375Y009063D01*
X029125Y009313D01*
X029125Y010813D01*
X029375Y011063D01*
X029875Y011063D01*
X030125Y010813D01*
X029125Y010813D02*
X028875Y011063D01*
X028375Y011063D01*
X028125Y010813D01*
X028125Y009313D01*
X027875Y009063D01*
X027375Y009063D01*
X027125Y009313D01*
X027125Y010813D01*
X027375Y011063D01*
X027875Y011063D01*
X028125Y010813D01*
X027125Y010813D02*
X026875Y011063D01*
X026375Y011063D01*
X026125Y010813D01*
X026125Y009313D01*
X026375Y009063D01*
X026875Y009063D01*
X027125Y009313D01*
X028125Y009313D02*
X028375Y009063D01*
X028875Y009063D01*
X029125Y009313D01*
X030125Y009313D02*
X030375Y009063D01*
X030875Y009063D01*
X031125Y009313D01*
X032125Y009313D02*
X032375Y009063D01*
X032875Y009063D01*
X033125Y009313D01*
X034125Y009313D02*
X034375Y009063D01*
X034875Y009063D01*
X035125Y009313D01*
X036125Y009313D02*
X036375Y009063D01*
X036875Y009063D01*
X037125Y009313D01*
X044625Y006563D02*
X045125Y006563D01*
X046625Y006563D01*
X046775Y006563D01*
X046925Y006563D02*
X047125Y006563D01*
X047125Y004813D01*
X047125Y004513D02*
X047125Y002763D01*
X046925Y002763D01*
X046775Y002763D02*
X046625Y002763D01*
X046625Y006563D01*
X047625Y005913D02*
X047875Y006163D01*
X048375Y006163D01*
X048625Y005913D01*
X048625Y005413D01*
X048375Y005163D01*
X048625Y004913D01*
X048625Y004413D01*
X048375Y004163D01*
X048625Y003913D01*
X048625Y003413D01*
X048375Y003163D01*
X047875Y003163D01*
X047625Y003413D01*
X047625Y003913D01*
X047875Y004163D01*
X047625Y004413D01*
X047625Y004913D01*
X047875Y005163D01*
X047625Y005413D01*
X047625Y005913D01*
X047875Y005163D02*
X048375Y005163D01*
X048375Y004163D02*
X047875Y004163D01*
X046625Y002763D02*
X044625Y002763D01*
X044625Y006563D01*
X045125Y006563D02*
X045125Y006363D01*
X045125Y006163D02*
X045125Y005063D01*
X045125Y004313D02*
X045125Y004163D01*
X045125Y003963D02*
X045125Y003763D01*
X044775Y003263D02*
X044777Y003300D01*
X044783Y003337D01*
X044793Y003373D01*
X044806Y003408D01*
X044823Y003441D01*
X044844Y003472D01*
X044868Y003500D01*
X044895Y003526D01*
X044924Y003549D01*
X044955Y003569D01*
X044989Y003585D01*
X045024Y003598D01*
X045060Y003607D01*
X045097Y003612D01*
X045134Y003613D01*
X045171Y003610D01*
X045208Y003603D01*
X045244Y003592D01*
X045278Y003578D01*
X045311Y003560D01*
X045341Y003538D01*
X045369Y003514D01*
X045394Y003486D01*
X045417Y003456D01*
X045436Y003424D01*
X045451Y003390D01*
X045463Y003355D01*
X045471Y003319D01*
X045475Y003282D01*
X045475Y003244D01*
X045471Y003207D01*
X045463Y003171D01*
X045451Y003136D01*
X045436Y003102D01*
X045417Y003070D01*
X045394Y003040D01*
X045369Y003012D01*
X045341Y002988D01*
X045311Y002966D01*
X045278Y002948D01*
X045244Y002934D01*
X045208Y002923D01*
X045171Y002916D01*
X045134Y002913D01*
X045097Y002914D01*
X045060Y002919D01*
X045024Y002928D01*
X044989Y002941D01*
X044955Y002957D01*
X044924Y002977D01*
X044895Y003000D01*
X044868Y003026D01*
X044844Y003054D01*
X044823Y003085D01*
X044806Y003118D01*
X044793Y003153D01*
X044783Y003189D01*
X044777Y003226D01*
X044775Y003263D01*
X026125Y009313D02*
X025875Y009063D01*
X025375Y009063D01*
X025125Y009313D01*
X025125Y010813D01*
X025375Y011063D01*
X025875Y011063D01*
X026125Y010813D01*
X025125Y010813D02*
X024875Y011063D01*
X024375Y011063D01*
X024125Y010813D01*
X024125Y009313D01*
X024375Y009063D01*
X024875Y009063D01*
X025125Y009313D01*
X024125Y009313D02*
X023875Y009063D01*
X023375Y009063D01*
X023125Y009313D01*
X023125Y010813D01*
X023375Y011063D01*
X023875Y011063D01*
X024125Y010813D01*
X023125Y010813D02*
X022875Y011063D01*
X022375Y011063D01*
X022125Y010813D01*
X022125Y009313D01*
X022375Y009063D01*
X022875Y009063D01*
X023125Y009313D01*
X022125Y009313D02*
X021875Y009063D01*
X021375Y009063D01*
X021125Y009313D01*
X021125Y010813D01*
X021375Y011063D01*
X021875Y011063D01*
X022125Y010813D01*
X021125Y010813D02*
X020875Y011063D01*
X020375Y011063D01*
X020125Y010813D01*
X020125Y009313D01*
X020375Y009063D01*
X020875Y009063D01*
X021125Y009313D01*
X013316Y008713D02*
X013316Y008500D01*
X013209Y008393D01*
X012889Y008393D01*
X012889Y008179D02*
X012889Y008820D01*
X013209Y008820D01*
X013316Y008713D01*
X012671Y008713D02*
X012671Y008393D01*
X012458Y008393D02*
X012458Y008713D01*
X012564Y008820D01*
X012671Y008713D01*
X012458Y008713D02*
X012351Y008820D01*
X012244Y008820D01*
X012244Y008393D01*
X012027Y008606D02*
X011600Y008606D01*
X011600Y008500D02*
X011600Y008713D01*
X011706Y008820D01*
X011920Y008820D01*
X012027Y008713D01*
X012027Y008606D01*
X011920Y008393D02*
X011706Y008393D01*
X011600Y008500D01*
X011169Y008393D02*
X011169Y009033D01*
X011382Y009033D02*
X010955Y009033D01*
X011625Y006563D02*
X010125Y006563D01*
X010125Y006363D01*
X010125Y006563D02*
X009625Y006563D01*
X009625Y002763D01*
X011625Y002763D01*
X011775Y002763D01*
X011925Y002763D02*
X012125Y002763D01*
X012125Y004513D01*
X012125Y004813D02*
X012125Y006563D01*
X011925Y006563D01*
X011775Y006563D02*
X011625Y006563D01*
X011625Y002763D01*
X012625Y003413D02*
X012875Y003163D01*
X013375Y003163D01*
X013625Y003413D01*
X013625Y003913D01*
X013375Y004163D01*
X013625Y004413D01*
X013625Y004913D01*
X013375Y005163D01*
X013625Y005413D01*
X013625Y005913D01*
X013375Y006163D01*
X012875Y006163D01*
X012625Y005913D01*
X012625Y005413D01*
X012875Y005163D01*
X013375Y005163D01*
X012875Y005163D02*
X012625Y004913D01*
X012625Y004413D01*
X012875Y004163D01*
X013375Y004163D01*
X012875Y004163D02*
X012625Y003913D01*
X012625Y003413D01*
X009775Y003263D02*
X009777Y003300D01*
X009783Y003337D01*
X009793Y003373D01*
X009806Y003408D01*
X009823Y003441D01*
X009844Y003472D01*
X009868Y003500D01*
X009895Y003526D01*
X009924Y003549D01*
X009955Y003569D01*
X009989Y003585D01*
X010024Y003598D01*
X010060Y003607D01*
X010097Y003612D01*
X010134Y003613D01*
X010171Y003610D01*
X010208Y003603D01*
X010244Y003592D01*
X010278Y003578D01*
X010311Y003560D01*
X010341Y003538D01*
X010369Y003514D01*
X010394Y003486D01*
X010417Y003456D01*
X010436Y003424D01*
X010451Y003390D01*
X010463Y003355D01*
X010471Y003319D01*
X010475Y003282D01*
X010475Y003244D01*
X010471Y003207D01*
X010463Y003171D01*
X010451Y003136D01*
X010436Y003102D01*
X010417Y003070D01*
X010394Y003040D01*
X010369Y003012D01*
X010341Y002988D01*
X010311Y002966D01*
X010278Y002948D01*
X010244Y002934D01*
X010208Y002923D01*
X010171Y002916D01*
X010134Y002913D01*
X010097Y002914D01*
X010060Y002919D01*
X010024Y002928D01*
X009989Y002941D01*
X009955Y002957D01*
X009924Y002977D01*
X009895Y003000D01*
X009868Y003026D01*
X009844Y003054D01*
X009823Y003085D01*
X009806Y003118D01*
X009793Y003153D01*
X009783Y003189D01*
X009777Y003226D01*
X009775Y003263D01*
X010125Y003763D02*
X010125Y003963D01*
X010125Y004163D02*
X010125Y004313D01*
X010125Y005063D02*
X010125Y006163D01*
D12*
X010050Y006868D02*
X009900Y007018D01*
X009975Y007018D02*
X009750Y007018D01*
X009750Y006868D02*
X009750Y007318D01*
X009975Y007318D01*
X010050Y007243D01*
X010050Y007093D01*
X009975Y007018D01*
X010210Y007168D02*
X010361Y007318D01*
X010361Y006868D01*
X010511Y006868D02*
X010210Y006868D01*
X010900Y006203D02*
X010975Y006278D01*
X011050Y006278D01*
X011125Y006203D01*
X011200Y006278D01*
X011275Y006278D01*
X011350Y006203D01*
X011350Y006052D01*
X011275Y005977D01*
X011125Y006128D02*
X011125Y006203D01*
X010900Y006203D02*
X010900Y006052D01*
X010975Y005977D01*
X011350Y003128D02*
X011350Y002827D01*
X011350Y002978D02*
X010900Y002978D01*
X011050Y002827D01*
X012299Y002543D02*
X012374Y002468D01*
X012449Y002468D01*
X012524Y002543D01*
X012524Y002918D01*
X012449Y002918D02*
X012599Y002918D01*
X012759Y002918D02*
X012759Y002468D01*
X012759Y002618D02*
X012984Y002618D01*
X013059Y002693D01*
X013059Y002843D01*
X012984Y002918D01*
X012759Y002918D01*
X013220Y002918D02*
X013220Y002693D01*
X013370Y002768D01*
X013445Y002768D01*
X013520Y002693D01*
X013520Y002543D01*
X013445Y002468D01*
X013295Y002468D01*
X013220Y002543D01*
X013220Y002918D02*
X013520Y002918D01*
X017900Y002978D02*
X018050Y002827D01*
X017900Y002978D02*
X018350Y002978D01*
X018350Y003128D02*
X018350Y002827D01*
X019299Y002543D02*
X019374Y002468D01*
X019449Y002468D01*
X019524Y002543D01*
X019524Y002918D01*
X019449Y002918D02*
X019599Y002918D01*
X019759Y002918D02*
X019984Y002918D01*
X020059Y002843D01*
X020059Y002693D01*
X019984Y002618D01*
X019759Y002618D01*
X019759Y002468D02*
X019759Y002918D01*
X020220Y002693D02*
X020445Y002693D01*
X020520Y002618D01*
X020520Y002543D01*
X020445Y002468D01*
X020295Y002468D01*
X020220Y002543D01*
X020220Y002693D01*
X020370Y002843D01*
X020520Y002918D01*
X024900Y002978D02*
X025050Y002827D01*
X024900Y002978D02*
X025350Y002978D01*
X025350Y003128D02*
X025350Y002827D01*
X025930Y003308D02*
X025930Y003458D01*
X025930Y003383D02*
X026305Y003383D01*
X026380Y003308D01*
X026380Y003233D01*
X026305Y003158D01*
X026380Y003618D02*
X025930Y003618D01*
X025930Y003843D01*
X026005Y003918D01*
X026155Y003918D01*
X026230Y003843D01*
X026230Y003618D01*
X026305Y004079D02*
X026380Y004079D01*
X026305Y004079D02*
X026005Y004379D01*
X025930Y004379D01*
X025930Y004079D01*
X025275Y005977D02*
X025350Y006052D01*
X025350Y006203D01*
X025275Y006278D01*
X025200Y006278D01*
X025125Y006203D01*
X025125Y006128D01*
X025125Y006203D02*
X025050Y006278D01*
X024975Y006278D01*
X024900Y006203D01*
X024900Y006052D01*
X024975Y005977D01*
X024436Y006868D02*
X024285Y006868D01*
X024210Y006943D01*
X024050Y006868D02*
X023900Y007018D01*
X023975Y007018D02*
X023750Y007018D01*
X023750Y006868D02*
X023750Y007318D01*
X023975Y007318D01*
X024050Y007243D01*
X024050Y007093D01*
X023975Y007018D01*
X024210Y007243D02*
X024285Y007318D01*
X024436Y007318D01*
X024511Y007243D01*
X024511Y007168D01*
X024436Y007093D01*
X024511Y007018D01*
X024511Y006943D01*
X024436Y006868D01*
X024436Y007093D02*
X024361Y007093D01*
X018350Y006203D02*
X018350Y006052D01*
X018275Y005977D01*
X018125Y006128D02*
X018125Y006203D01*
X018200Y006278D01*
X018275Y006278D01*
X018350Y006203D01*
X018125Y006203D02*
X018050Y006278D01*
X017975Y006278D01*
X017900Y006203D01*
X017900Y006052D01*
X017975Y005977D01*
X017511Y006868D02*
X017210Y006868D01*
X017511Y007168D01*
X017511Y007243D01*
X017436Y007318D01*
X017285Y007318D01*
X017210Y007243D01*
X017050Y007243D02*
X017050Y007093D01*
X016975Y007018D01*
X016750Y007018D01*
X016900Y007018D02*
X017050Y006868D01*
X016750Y006868D02*
X016750Y007318D01*
X016975Y007318D01*
X017050Y007243D01*
X016050Y011460D02*
X016050Y011610D01*
X016050Y011535D02*
X015600Y011535D01*
X015600Y011460D02*
X015600Y011610D01*
X015675Y011767D02*
X015600Y011842D01*
X015600Y011992D01*
X015675Y012067D01*
X015675Y012227D02*
X015600Y012302D01*
X015600Y012453D01*
X015675Y012528D01*
X015750Y012528D01*
X016050Y012227D01*
X016050Y012528D01*
X015975Y012067D02*
X016050Y011992D01*
X016050Y011842D01*
X015975Y011767D01*
X015675Y011767D01*
X020150Y011413D02*
X020225Y011338D01*
X020300Y011338D01*
X020375Y011413D01*
X020375Y011788D01*
X020300Y011788D02*
X020450Y011788D01*
X020610Y011788D02*
X020610Y011338D01*
X020610Y011488D02*
X020836Y011488D01*
X020911Y011563D01*
X020911Y011713D01*
X020836Y011788D01*
X020610Y011788D01*
X021071Y011638D02*
X021221Y011788D01*
X021221Y011338D01*
X021071Y011338D02*
X021371Y011338D01*
X030750Y007318D02*
X030750Y006868D01*
X030750Y007018D02*
X030975Y007018D01*
X031050Y007093D01*
X031050Y007243D01*
X030975Y007318D01*
X030750Y007318D01*
X030900Y007018D02*
X031050Y006868D01*
X031210Y007093D02*
X031511Y007093D01*
X031436Y006868D02*
X031436Y007318D01*
X031210Y007093D01*
X031975Y006278D02*
X031900Y006203D01*
X031900Y006052D01*
X031975Y005977D01*
X032125Y006128D02*
X032125Y006203D01*
X032200Y006278D01*
X032275Y006278D01*
X032350Y006203D01*
X032350Y006052D01*
X032275Y005977D01*
X032125Y006203D02*
X032050Y006278D01*
X031975Y006278D01*
X032350Y003128D02*
X032350Y002827D01*
X032350Y002978D02*
X031900Y002978D01*
X032050Y002827D01*
X033299Y002543D02*
X033374Y002468D01*
X033449Y002468D01*
X033524Y002543D01*
X033524Y002918D01*
X033449Y002918D02*
X033599Y002918D01*
X033759Y002918D02*
X033759Y002468D01*
X033759Y002618D02*
X033984Y002618D01*
X034059Y002693D01*
X034059Y002843D01*
X033984Y002918D01*
X033759Y002918D01*
X034220Y002843D02*
X034220Y002768D01*
X034295Y002693D01*
X034445Y002693D01*
X034520Y002618D01*
X034520Y002543D01*
X034445Y002468D01*
X034295Y002468D01*
X034220Y002543D01*
X034220Y002618D01*
X034295Y002693D01*
X034445Y002693D02*
X034520Y002768D01*
X034520Y002843D01*
X034445Y002918D01*
X034295Y002918D01*
X034220Y002843D01*
X038900Y002978D02*
X039050Y002827D01*
X038900Y002978D02*
X039350Y002978D01*
X039350Y003128D02*
X039350Y002827D01*
X040620Y002483D02*
X040695Y002408D01*
X040770Y002408D01*
X040845Y002483D01*
X040845Y002858D01*
X040770Y002858D02*
X040920Y002858D01*
X041080Y002858D02*
X041080Y002408D01*
X041080Y002558D02*
X041306Y002558D01*
X041381Y002633D01*
X041381Y002783D01*
X041306Y002858D01*
X041080Y002858D01*
X041541Y002783D02*
X041541Y002708D01*
X041616Y002633D01*
X041841Y002633D01*
X041841Y002483D02*
X041841Y002783D01*
X041766Y002858D01*
X041616Y002858D01*
X041541Y002783D01*
X041541Y002483D02*
X041616Y002408D01*
X041766Y002408D01*
X041841Y002483D01*
X045900Y002978D02*
X046050Y002827D01*
X045900Y002978D02*
X046350Y002978D01*
X046350Y003128D02*
X046350Y002827D01*
X047338Y002543D02*
X047413Y002468D01*
X047489Y002468D01*
X047564Y002543D01*
X047564Y002918D01*
X047489Y002918D02*
X047639Y002918D01*
X047799Y002918D02*
X048024Y002918D01*
X048099Y002843D01*
X048099Y002693D01*
X048024Y002618D01*
X047799Y002618D01*
X047799Y002468D02*
X047799Y002918D01*
X048259Y002768D02*
X048409Y002918D01*
X048409Y002468D01*
X048259Y002468D02*
X048559Y002468D01*
X048720Y002543D02*
X049020Y002843D01*
X049020Y002543D01*
X048945Y002468D01*
X048795Y002468D01*
X048720Y002543D01*
X048720Y002843D01*
X048795Y002918D01*
X048945Y002918D01*
X049020Y002843D01*
X052400Y002978D02*
X052550Y002827D01*
X052400Y002978D02*
X052850Y002978D01*
X052850Y003128D02*
X052850Y002827D01*
X053489Y002718D02*
X053639Y002718D01*
X053564Y002718D02*
X053564Y002343D01*
X053489Y002268D01*
X053413Y002268D01*
X053338Y002343D01*
X053799Y002418D02*
X054024Y002418D01*
X054099Y002493D01*
X054099Y002643D01*
X054024Y002718D01*
X053799Y002718D01*
X053799Y002268D01*
X054259Y002268D02*
X054559Y002268D01*
X054409Y002268D02*
X054409Y002718D01*
X054259Y002568D01*
X054720Y002568D02*
X054870Y002718D01*
X054870Y002268D01*
X054720Y002268D02*
X055020Y002268D01*
X052775Y005977D02*
X052850Y006052D01*
X052850Y006203D01*
X052775Y006278D01*
X052700Y006278D01*
X052625Y006203D01*
X052625Y006128D01*
X052625Y006203D02*
X052550Y006278D01*
X052475Y006278D01*
X052400Y006203D01*
X052400Y006052D01*
X052475Y005977D01*
X051710Y006868D02*
X051710Y006943D01*
X052011Y007243D01*
X052011Y007318D01*
X051710Y007318D01*
X051550Y007243D02*
X051550Y007093D01*
X051475Y007018D01*
X051250Y007018D01*
X051400Y007018D02*
X051550Y006868D01*
X051250Y006868D02*
X051250Y007318D01*
X051475Y007318D01*
X051550Y007243D01*
X055600Y008238D02*
X055600Y008388D01*
X055600Y008313D02*
X055975Y008313D01*
X056050Y008238D01*
X056050Y008163D01*
X055975Y008088D01*
X056050Y008548D02*
X055600Y008548D01*
X055600Y008773D01*
X055675Y008848D01*
X055825Y008848D01*
X055900Y008773D01*
X055900Y008548D01*
X056050Y009009D02*
X056050Y009309D01*
X056050Y009159D02*
X055600Y009159D01*
X055750Y009009D01*
X055675Y009469D02*
X055600Y009544D01*
X055600Y009694D01*
X055675Y009769D01*
X055750Y009769D01*
X056050Y009469D01*
X056050Y009769D01*
X052471Y012313D02*
X052396Y012238D01*
X052246Y012238D01*
X052171Y012313D01*
X052321Y012463D02*
X052396Y012463D01*
X052471Y012388D01*
X052471Y012313D01*
X052396Y012463D02*
X052471Y012538D01*
X052471Y012613D01*
X052396Y012688D01*
X052246Y012688D01*
X052171Y012613D01*
X052011Y012613D02*
X052011Y012463D01*
X051936Y012388D01*
X051710Y012388D01*
X051710Y012238D02*
X051710Y012688D01*
X051936Y012688D01*
X052011Y012613D01*
X051550Y012688D02*
X051400Y012688D01*
X051475Y012688D02*
X051475Y012313D01*
X051400Y012238D01*
X051325Y012238D01*
X051250Y012313D01*
X045511Y007318D02*
X045361Y007243D01*
X045210Y007093D01*
X045436Y007093D01*
X045511Y007018D01*
X045511Y006943D01*
X045436Y006868D01*
X045285Y006868D01*
X045210Y006943D01*
X045210Y007093D01*
X045050Y007093D02*
X045050Y007243D01*
X044975Y007318D01*
X044750Y007318D01*
X044750Y006868D01*
X044750Y007018D02*
X044975Y007018D01*
X045050Y007093D01*
X044900Y007018D02*
X045050Y006868D01*
X045900Y006203D02*
X045975Y006278D01*
X046050Y006278D01*
X046125Y006203D01*
X046200Y006278D01*
X046275Y006278D01*
X046350Y006203D01*
X046350Y006052D01*
X046275Y005977D01*
X046125Y006128D02*
X046125Y006203D01*
X045900Y006203D02*
X045900Y006052D01*
X045975Y005977D01*
X039350Y006052D02*
X039275Y005977D01*
X039350Y006052D02*
X039350Y006203D01*
X039275Y006278D01*
X039200Y006278D01*
X039125Y006203D01*
X039125Y006128D01*
X039125Y006203D02*
X039050Y006278D01*
X038975Y006278D01*
X038900Y006203D01*
X038900Y006052D01*
X038975Y005977D01*
X038436Y006868D02*
X038285Y006868D01*
X038210Y006943D01*
X038210Y007093D02*
X038361Y007168D01*
X038436Y007168D01*
X038511Y007093D01*
X038511Y006943D01*
X038436Y006868D01*
X038210Y007093D02*
X038210Y007318D01*
X038511Y007318D01*
X038050Y007243D02*
X038050Y007093D01*
X037975Y007018D01*
X037750Y007018D01*
X037900Y007018D02*
X038050Y006868D01*
X037750Y006868D02*
X037750Y007318D01*
X037975Y007318D01*
X038050Y007243D01*
X038844Y025438D02*
X038919Y025438D01*
X038994Y025513D01*
X038994Y025888D01*
X038919Y025888D02*
X039069Y025888D01*
X039229Y025888D02*
X039229Y025438D01*
X039229Y025588D02*
X039454Y025588D01*
X039529Y025663D01*
X039529Y025813D01*
X039454Y025888D01*
X039229Y025888D01*
X039690Y025813D02*
X039765Y025888D01*
X039915Y025888D01*
X039990Y025813D01*
X039990Y025738D01*
X039690Y025438D01*
X039990Y025438D01*
X038844Y025438D02*
X038769Y025513D01*
X003790Y027663D02*
X003490Y027663D01*
X003715Y027888D01*
X003715Y027438D01*
X003329Y027663D02*
X003254Y027588D01*
X003029Y027588D01*
X003029Y027438D02*
X003029Y027888D01*
X003254Y027888D01*
X003329Y027813D01*
X003329Y027663D01*
X002869Y027888D02*
X002719Y027888D01*
X002794Y027888D02*
X002794Y027513D01*
X002719Y027438D01*
X002644Y027438D01*
X002569Y027513D01*
X002710Y036638D02*
X002710Y037088D01*
X002936Y037088D01*
X003011Y037013D01*
X003011Y036863D01*
X002936Y036788D01*
X002710Y036788D01*
X002475Y036713D02*
X002475Y037088D01*
X002400Y037088D02*
X002550Y037088D01*
X002475Y036713D02*
X002400Y036638D01*
X002325Y036638D01*
X002250Y036713D01*
X003171Y036638D02*
X003471Y036638D01*
X003321Y036638D02*
X003321Y037088D01*
X003171Y036938D01*
X003631Y036863D02*
X003931Y036863D01*
X003856Y036638D02*
X003856Y037088D01*
X003631Y036863D01*
D13*
X002840Y023159D02*
X002013Y023159D01*
X003824Y022883D02*
X003824Y022529D01*
X003824Y020797D02*
X003824Y020442D01*
X002840Y020167D02*
X002013Y020167D01*
X007317Y021239D02*
X011333Y021239D01*
X011333Y023286D01*
X007317Y023286D01*
X007317Y021239D01*
D14*
X010979Y022903D03*
D15*
X011489Y022768D02*
X011949Y022768D01*
X011949Y022615D02*
X011949Y022922D01*
X011642Y022615D02*
X011489Y022768D01*
X011565Y022461D02*
X011489Y022385D01*
X011489Y022231D01*
X011565Y022154D01*
X011872Y022154D01*
X011949Y022231D01*
X011949Y022385D01*
X011872Y022461D01*
X011949Y022001D02*
X011949Y021847D01*
X011949Y021924D02*
X011489Y021924D01*
X011489Y021847D02*
X011489Y022001D01*
X009715Y018643D02*
X009561Y018643D01*
X009485Y018566D01*
X009331Y018566D02*
X009254Y018643D01*
X009101Y018643D01*
X009024Y018566D01*
X009024Y018260D01*
X009101Y018183D01*
X009254Y018183D01*
X009331Y018260D01*
X009485Y018260D02*
X009561Y018183D01*
X009715Y018183D01*
X009792Y018260D01*
X009792Y018336D01*
X009715Y018413D01*
X009638Y018413D01*
X009715Y018413D02*
X009792Y018490D01*
X009792Y018566D01*
X009715Y018643D01*
X007373Y018683D02*
X007066Y018683D01*
X007219Y018683D02*
X007219Y019143D01*
X007066Y018990D01*
X006759Y019143D02*
X006759Y018683D01*
X006912Y018683D02*
X006605Y018683D01*
X006452Y018683D02*
X006298Y018836D01*
X006375Y018836D02*
X006145Y018836D01*
X006145Y018683D02*
X006145Y019143D01*
X006375Y019143D01*
X006452Y019066D01*
X006452Y018913D01*
X006375Y018836D01*
X006605Y018990D02*
X006759Y019143D01*
X005873Y019066D02*
X005566Y018760D01*
X005643Y018683D01*
X005796Y018683D01*
X005873Y018760D01*
X005873Y019066D01*
X005796Y019143D01*
X005643Y019143D01*
X005566Y019066D01*
X005566Y018760D01*
X005412Y018683D02*
X005105Y018683D01*
X004952Y018683D02*
X004798Y018836D01*
X004875Y018836D02*
X004645Y018836D01*
X004645Y018683D02*
X004645Y019143D01*
X004875Y019143D01*
X004952Y019066D01*
X004952Y018913D01*
X004875Y018836D01*
X005105Y018990D02*
X005259Y019143D01*
X005259Y018683D01*
X005192Y024083D02*
X004885Y024083D01*
X005192Y024390D01*
X005192Y024466D01*
X005115Y024543D01*
X004961Y024543D01*
X004885Y024466D01*
X004731Y024466D02*
X004654Y024543D01*
X004501Y024543D01*
X004424Y024466D01*
X004424Y024160D01*
X004501Y024083D01*
X004654Y024083D01*
X004731Y024160D01*
X006224Y024160D02*
X006301Y024083D01*
X006454Y024083D01*
X006531Y024160D01*
X006685Y024083D02*
X006992Y024083D01*
X006838Y024083D02*
X006838Y024543D01*
X006685Y024390D01*
X006531Y024466D02*
X006454Y024543D01*
X006301Y024543D01*
X006224Y024466D01*
X006224Y024160D01*
X001836Y032983D02*
X001682Y032983D01*
X001605Y033060D01*
X001682Y033213D02*
X001912Y033213D01*
X001912Y033060D02*
X001912Y033366D01*
X001836Y033443D01*
X001682Y033443D01*
X001605Y033366D01*
X001605Y033290D01*
X001682Y033213D01*
X001452Y033213D02*
X001375Y033136D01*
X001145Y033136D01*
X001145Y032983D02*
X001145Y033443D01*
X001375Y033443D01*
X001452Y033366D01*
X001452Y033213D01*
X001298Y033136D02*
X001452Y032983D01*
X001836Y032983D02*
X001912Y033060D01*
X001736Y036483D02*
X001582Y036483D01*
X001505Y036560D01*
X001505Y036636D01*
X001582Y036713D01*
X001736Y036713D01*
X001812Y036636D01*
X001812Y036560D01*
X001736Y036483D01*
X001736Y036713D02*
X001812Y036790D01*
X001812Y036866D01*
X001736Y036943D01*
X001582Y036943D01*
X001505Y036866D01*
X001505Y036790D01*
X001582Y036713D01*
X001352Y036713D02*
X001275Y036636D01*
X001045Y036636D01*
X001045Y036483D02*
X001045Y036943D01*
X001275Y036943D01*
X001352Y036866D01*
X001352Y036713D01*
X001198Y036636D02*
X001352Y036483D01*
X007723Y036545D02*
X007800Y036468D01*
X007954Y036468D01*
X008030Y036545D01*
X008030Y036928D01*
X008184Y036851D02*
X008184Y036775D01*
X008261Y036698D01*
X008491Y036698D01*
X008491Y036545D02*
X008491Y036851D01*
X008414Y036928D01*
X008261Y036928D01*
X008184Y036851D01*
X008184Y036545D02*
X008261Y036468D01*
X008414Y036468D01*
X008491Y036545D01*
X007723Y036545D02*
X007723Y036928D01*
X007723Y034928D02*
X007723Y034545D01*
X007800Y034468D01*
X007954Y034468D01*
X008030Y034545D01*
X008030Y034928D01*
X008184Y034775D02*
X008337Y034928D01*
X008337Y034468D01*
X008184Y034468D02*
X008491Y034468D01*
X017605Y012129D02*
X017605Y011822D01*
X017605Y011669D02*
X017605Y011362D01*
X017605Y011515D02*
X017145Y011515D01*
X017298Y011362D01*
X017221Y011209D02*
X017145Y011132D01*
X017145Y010978D01*
X017221Y010902D01*
X017528Y010902D01*
X017605Y010978D01*
X017605Y011132D01*
X017528Y011209D01*
X017298Y011822D02*
X017145Y011976D01*
X017605Y011976D01*
X007312Y008783D02*
X007005Y008783D01*
X007159Y008783D02*
X007159Y009243D01*
X007005Y009090D01*
X006852Y009166D02*
X006852Y009013D01*
X006775Y008936D01*
X006545Y008936D01*
X006545Y008783D02*
X006545Y009243D01*
X006775Y009243D01*
X006852Y009166D01*
X008301Y003143D02*
X008224Y003066D01*
X008224Y002760D01*
X008301Y002683D01*
X008454Y002683D01*
X008531Y002760D01*
X008685Y002913D02*
X008992Y002913D01*
X008915Y002683D02*
X008915Y003143D01*
X008685Y002913D01*
X008531Y003066D02*
X008454Y003143D01*
X008301Y003143D01*
X015224Y003066D02*
X015224Y002760D01*
X015301Y002683D01*
X015454Y002683D01*
X015531Y002760D01*
X015685Y002760D02*
X015761Y002683D01*
X015915Y002683D01*
X015992Y002760D01*
X015992Y002913D01*
X015915Y002990D01*
X015838Y002990D01*
X015685Y002913D01*
X015685Y003143D01*
X015992Y003143D01*
X015531Y003066D02*
X015454Y003143D01*
X015301Y003143D01*
X015224Y003066D01*
X022224Y003066D02*
X022224Y002760D01*
X022301Y002683D01*
X022454Y002683D01*
X022531Y002760D01*
X022685Y002760D02*
X022761Y002683D01*
X022915Y002683D01*
X022992Y002760D01*
X022992Y002836D01*
X022915Y002913D01*
X022685Y002913D01*
X022685Y002760D01*
X022685Y002913D02*
X022838Y003066D01*
X022992Y003143D01*
X022531Y003066D02*
X022454Y003143D01*
X022301Y003143D01*
X022224Y003066D01*
X029224Y003066D02*
X029224Y002760D01*
X029301Y002683D01*
X029454Y002683D01*
X029531Y002760D01*
X029685Y002760D02*
X029685Y002683D01*
X029685Y002760D02*
X029992Y003066D01*
X029992Y003143D01*
X029685Y003143D01*
X029531Y003066D02*
X029454Y003143D01*
X029301Y003143D01*
X029224Y003066D01*
X036224Y003066D02*
X036224Y002760D01*
X036301Y002683D01*
X036454Y002683D01*
X036531Y002760D01*
X036685Y002760D02*
X036685Y002836D01*
X036761Y002913D01*
X036915Y002913D01*
X036992Y002836D01*
X036992Y002760D01*
X036915Y002683D01*
X036761Y002683D01*
X036685Y002760D01*
X036761Y002913D02*
X036685Y002990D01*
X036685Y003066D01*
X036761Y003143D01*
X036915Y003143D01*
X036992Y003066D01*
X036992Y002990D01*
X036915Y002913D01*
X036531Y003066D02*
X036454Y003143D01*
X036301Y003143D01*
X036224Y003066D01*
X043224Y003066D02*
X043224Y002760D01*
X043301Y002683D01*
X043454Y002683D01*
X043531Y002760D01*
X043685Y002760D02*
X043761Y002683D01*
X043915Y002683D01*
X043992Y002760D01*
X043992Y003066D01*
X043915Y003143D01*
X043761Y003143D01*
X043685Y003066D01*
X043685Y002990D01*
X043761Y002913D01*
X043992Y002913D01*
X043531Y003066D02*
X043454Y003143D01*
X043301Y003143D01*
X043224Y003066D01*
X049364Y003066D02*
X049364Y002760D01*
X049441Y002683D01*
X049594Y002683D01*
X049671Y002760D01*
X049824Y002683D02*
X050131Y002683D01*
X049978Y002683D02*
X049978Y003143D01*
X049824Y002990D01*
X049671Y003066D02*
X049594Y003143D01*
X049441Y003143D01*
X049364Y003066D01*
X050285Y003066D02*
X050285Y002760D01*
X050592Y003066D01*
X050592Y002760D01*
X050515Y002683D01*
X050361Y002683D01*
X050285Y002760D01*
X050285Y003066D02*
X050361Y003143D01*
X050515Y003143D01*
X050592Y003066D01*
D16*
X001277Y022168D02*
X001177Y022168D01*
X001130Y022168D02*
X001030Y022318D01*
X001130Y022318D02*
X001030Y022168D01*
X001177Y022268D02*
X001227Y022318D01*
X001227Y022168D01*
D17*
X009925Y003463D02*
X010325Y003063D01*
X016925Y003463D02*
X017325Y003063D01*
X023925Y003463D02*
X024325Y003063D01*
X030925Y003463D02*
X031325Y003063D01*
X037925Y003463D02*
X038325Y003063D01*
X044925Y003463D02*
X045325Y003063D01*
X051425Y003463D02*
X051825Y003063D01*
D18*
X051375Y003263D02*
X051377Y003294D01*
X051383Y003325D01*
X051393Y003355D01*
X051406Y003383D01*
X051423Y003410D01*
X051443Y003434D01*
X051466Y003456D01*
X051491Y003474D01*
X051519Y003489D01*
X051548Y003501D01*
X051578Y003509D01*
X051609Y003513D01*
X051641Y003513D01*
X051672Y003509D01*
X051702Y003501D01*
X051731Y003489D01*
X051759Y003474D01*
X051784Y003456D01*
X051807Y003434D01*
X051827Y003410D01*
X051844Y003383D01*
X051857Y003355D01*
X051867Y003325D01*
X051873Y003294D01*
X051875Y003263D01*
X051873Y003232D01*
X051867Y003201D01*
X051857Y003171D01*
X051844Y003143D01*
X051827Y003116D01*
X051807Y003092D01*
X051784Y003070D01*
X051759Y003052D01*
X051731Y003037D01*
X051702Y003025D01*
X051672Y003017D01*
X051641Y003013D01*
X051609Y003013D01*
X051578Y003017D01*
X051548Y003025D01*
X051519Y003037D01*
X051491Y003052D01*
X051466Y003070D01*
X051443Y003092D01*
X051423Y003116D01*
X051406Y003143D01*
X051393Y003171D01*
X051383Y003201D01*
X051377Y003232D01*
X051375Y003263D01*
X044875Y003263D02*
X044877Y003294D01*
X044883Y003325D01*
X044893Y003355D01*
X044906Y003383D01*
X044923Y003410D01*
X044943Y003434D01*
X044966Y003456D01*
X044991Y003474D01*
X045019Y003489D01*
X045048Y003501D01*
X045078Y003509D01*
X045109Y003513D01*
X045141Y003513D01*
X045172Y003509D01*
X045202Y003501D01*
X045231Y003489D01*
X045259Y003474D01*
X045284Y003456D01*
X045307Y003434D01*
X045327Y003410D01*
X045344Y003383D01*
X045357Y003355D01*
X045367Y003325D01*
X045373Y003294D01*
X045375Y003263D01*
X045373Y003232D01*
X045367Y003201D01*
X045357Y003171D01*
X045344Y003143D01*
X045327Y003116D01*
X045307Y003092D01*
X045284Y003070D01*
X045259Y003052D01*
X045231Y003037D01*
X045202Y003025D01*
X045172Y003017D01*
X045141Y003013D01*
X045109Y003013D01*
X045078Y003017D01*
X045048Y003025D01*
X045019Y003037D01*
X044991Y003052D01*
X044966Y003070D01*
X044943Y003092D01*
X044923Y003116D01*
X044906Y003143D01*
X044893Y003171D01*
X044883Y003201D01*
X044877Y003232D01*
X044875Y003263D01*
X037875Y003263D02*
X037877Y003294D01*
X037883Y003325D01*
X037893Y003355D01*
X037906Y003383D01*
X037923Y003410D01*
X037943Y003434D01*
X037966Y003456D01*
X037991Y003474D01*
X038019Y003489D01*
X038048Y003501D01*
X038078Y003509D01*
X038109Y003513D01*
X038141Y003513D01*
X038172Y003509D01*
X038202Y003501D01*
X038231Y003489D01*
X038259Y003474D01*
X038284Y003456D01*
X038307Y003434D01*
X038327Y003410D01*
X038344Y003383D01*
X038357Y003355D01*
X038367Y003325D01*
X038373Y003294D01*
X038375Y003263D01*
X038373Y003232D01*
X038367Y003201D01*
X038357Y003171D01*
X038344Y003143D01*
X038327Y003116D01*
X038307Y003092D01*
X038284Y003070D01*
X038259Y003052D01*
X038231Y003037D01*
X038202Y003025D01*
X038172Y003017D01*
X038141Y003013D01*
X038109Y003013D01*
X038078Y003017D01*
X038048Y003025D01*
X038019Y003037D01*
X037991Y003052D01*
X037966Y003070D01*
X037943Y003092D01*
X037923Y003116D01*
X037906Y003143D01*
X037893Y003171D01*
X037883Y003201D01*
X037877Y003232D01*
X037875Y003263D01*
X030875Y003263D02*
X030877Y003294D01*
X030883Y003325D01*
X030893Y003355D01*
X030906Y003383D01*
X030923Y003410D01*
X030943Y003434D01*
X030966Y003456D01*
X030991Y003474D01*
X031019Y003489D01*
X031048Y003501D01*
X031078Y003509D01*
X031109Y003513D01*
X031141Y003513D01*
X031172Y003509D01*
X031202Y003501D01*
X031231Y003489D01*
X031259Y003474D01*
X031284Y003456D01*
X031307Y003434D01*
X031327Y003410D01*
X031344Y003383D01*
X031357Y003355D01*
X031367Y003325D01*
X031373Y003294D01*
X031375Y003263D01*
X031373Y003232D01*
X031367Y003201D01*
X031357Y003171D01*
X031344Y003143D01*
X031327Y003116D01*
X031307Y003092D01*
X031284Y003070D01*
X031259Y003052D01*
X031231Y003037D01*
X031202Y003025D01*
X031172Y003017D01*
X031141Y003013D01*
X031109Y003013D01*
X031078Y003017D01*
X031048Y003025D01*
X031019Y003037D01*
X030991Y003052D01*
X030966Y003070D01*
X030943Y003092D01*
X030923Y003116D01*
X030906Y003143D01*
X030893Y003171D01*
X030883Y003201D01*
X030877Y003232D01*
X030875Y003263D01*
X023875Y003263D02*
X023877Y003294D01*
X023883Y003325D01*
X023893Y003355D01*
X023906Y003383D01*
X023923Y003410D01*
X023943Y003434D01*
X023966Y003456D01*
X023991Y003474D01*
X024019Y003489D01*
X024048Y003501D01*
X024078Y003509D01*
X024109Y003513D01*
X024141Y003513D01*
X024172Y003509D01*
X024202Y003501D01*
X024231Y003489D01*
X024259Y003474D01*
X024284Y003456D01*
X024307Y003434D01*
X024327Y003410D01*
X024344Y003383D01*
X024357Y003355D01*
X024367Y003325D01*
X024373Y003294D01*
X024375Y003263D01*
X024373Y003232D01*
X024367Y003201D01*
X024357Y003171D01*
X024344Y003143D01*
X024327Y003116D01*
X024307Y003092D01*
X024284Y003070D01*
X024259Y003052D01*
X024231Y003037D01*
X024202Y003025D01*
X024172Y003017D01*
X024141Y003013D01*
X024109Y003013D01*
X024078Y003017D01*
X024048Y003025D01*
X024019Y003037D01*
X023991Y003052D01*
X023966Y003070D01*
X023943Y003092D01*
X023923Y003116D01*
X023906Y003143D01*
X023893Y003171D01*
X023883Y003201D01*
X023877Y003232D01*
X023875Y003263D01*
X016875Y003263D02*
X016877Y003294D01*
X016883Y003325D01*
X016893Y003355D01*
X016906Y003383D01*
X016923Y003410D01*
X016943Y003434D01*
X016966Y003456D01*
X016991Y003474D01*
X017019Y003489D01*
X017048Y003501D01*
X017078Y003509D01*
X017109Y003513D01*
X017141Y003513D01*
X017172Y003509D01*
X017202Y003501D01*
X017231Y003489D01*
X017259Y003474D01*
X017284Y003456D01*
X017307Y003434D01*
X017327Y003410D01*
X017344Y003383D01*
X017357Y003355D01*
X017367Y003325D01*
X017373Y003294D01*
X017375Y003263D01*
X017373Y003232D01*
X017367Y003201D01*
X017357Y003171D01*
X017344Y003143D01*
X017327Y003116D01*
X017307Y003092D01*
X017284Y003070D01*
X017259Y003052D01*
X017231Y003037D01*
X017202Y003025D01*
X017172Y003017D01*
X017141Y003013D01*
X017109Y003013D01*
X017078Y003017D01*
X017048Y003025D01*
X017019Y003037D01*
X016991Y003052D01*
X016966Y003070D01*
X016943Y003092D01*
X016923Y003116D01*
X016906Y003143D01*
X016893Y003171D01*
X016883Y003201D01*
X016877Y003232D01*
X016875Y003263D01*
X009875Y003263D02*
X009877Y003294D01*
X009883Y003325D01*
X009893Y003355D01*
X009906Y003383D01*
X009923Y003410D01*
X009943Y003434D01*
X009966Y003456D01*
X009991Y003474D01*
X010019Y003489D01*
X010048Y003501D01*
X010078Y003509D01*
X010109Y003513D01*
X010141Y003513D01*
X010172Y003509D01*
X010202Y003501D01*
X010231Y003489D01*
X010259Y003474D01*
X010284Y003456D01*
X010307Y003434D01*
X010327Y003410D01*
X010344Y003383D01*
X010357Y003355D01*
X010367Y003325D01*
X010373Y003294D01*
X010375Y003263D01*
X010373Y003232D01*
X010367Y003201D01*
X010357Y003171D01*
X010344Y003143D01*
X010327Y003116D01*
X010307Y003092D01*
X010284Y003070D01*
X010259Y003052D01*
X010231Y003037D01*
X010202Y003025D01*
X010172Y003017D01*
X010141Y003013D01*
X010109Y003013D01*
X010078Y003017D01*
X010048Y003025D01*
X010019Y003037D01*
X009991Y003052D01*
X009966Y003070D01*
X009943Y003092D01*
X009923Y003116D01*
X009906Y003143D01*
X009893Y003171D01*
X009883Y003201D01*
X009877Y003232D01*
X009875Y003263D01*
X011875Y012793D02*
X015375Y012793D01*
D19*
X051425Y013563D03*
X051425Y014563D03*
X052425Y014563D03*
X052425Y013563D03*
X052425Y015563D03*
X052425Y016563D03*
X051425Y016563D03*
X051425Y015563D03*
X051425Y017563D03*
X051425Y018563D03*
X051425Y019563D03*
X052425Y019563D03*
X052425Y018563D03*
X052425Y017563D03*
X052425Y020563D03*
X052425Y021563D03*
X051425Y021563D03*
X051425Y020563D03*
X051425Y022563D03*
X051425Y023563D03*
X051425Y024563D03*
X052425Y024563D03*
X052425Y023563D03*
X052425Y022563D03*
X052425Y025563D03*
X051425Y025563D03*
M02*
