G75*
G70*
%OFA0B0*%
%FSLAX24Y24*%
%IPPOS*%
%LPD*%
%AMOC8*
5,1,8,0,0,1.08239X$1,22.5*
%
%ADD10C,0.1480*%
%ADD11OC8,0.0680*%
%ADD12R,0.0237X0.0671*%
%ADD13R,0.1064X0.0277*%
%ADD14R,0.1064X0.0867*%
%ADD15C,0.0434*%
%ADD16R,0.0671X0.0592*%
%ADD17R,0.0592X0.0671*%
%ADD18R,0.0287X0.0198*%
%ADD19R,0.0287X0.0356*%
%ADD20OC8,0.0600*%
%ADD21C,0.0680*%
%ADD22R,0.0340X0.0880*%
%ADD23C,0.0907*%
%ADD24R,0.0631X0.0474*%
%ADD25R,0.0867X0.0710*%
%ADD26R,0.0710X0.0867*%
%ADD27C,0.1330*%
%ADD28C,0.1260*%
%ADD29R,0.0710X0.0592*%
%ADD30C,0.0480*%
%ADD31C,0.0476*%
D10*
X002625Y004163D03*
X002625Y039163D03*
X057625Y039163D03*
X057625Y004163D03*
D11*
X057825Y008563D03*
X057825Y009563D03*
X056825Y009563D03*
X056825Y008563D03*
X056825Y010563D03*
X056825Y011563D03*
X057825Y011563D03*
X057825Y010563D03*
X057825Y012563D03*
X057825Y013563D03*
X056825Y013563D03*
X056825Y012563D03*
X052425Y013563D03*
X052425Y014563D03*
X051425Y014563D03*
X051425Y013563D03*
X051425Y015563D03*
X051425Y016563D03*
X052425Y016563D03*
X052425Y015563D03*
X052425Y017563D03*
X052425Y018563D03*
X052425Y019563D03*
X051425Y019563D03*
X051425Y018563D03*
X051425Y017563D03*
X051425Y020563D03*
X051425Y021563D03*
X052425Y021563D03*
X052425Y020563D03*
X052425Y022563D03*
X052425Y023563D03*
X052425Y024563D03*
X051425Y024563D03*
X051425Y023563D03*
X051425Y022563D03*
X051425Y025563D03*
X052425Y025563D03*
X039625Y026663D03*
X038625Y026663D03*
X037625Y026663D03*
X036625Y026663D03*
X035625Y026663D03*
X034625Y026663D03*
X033625Y026663D03*
X032625Y026663D03*
X031625Y026663D03*
X030625Y026663D03*
X029625Y026663D03*
X028625Y026663D03*
X027625Y026663D03*
X026625Y026663D03*
X025625Y026663D03*
X024625Y026663D03*
X023625Y026663D03*
X022625Y026663D03*
X021625Y026663D03*
X020625Y026663D03*
X020625Y027663D03*
X021625Y027663D03*
X022625Y027663D03*
X023625Y027663D03*
X024625Y027663D03*
X025625Y027663D03*
X026625Y027663D03*
X027625Y027663D03*
X028625Y027663D03*
X029625Y027663D03*
X030625Y027663D03*
X031625Y027663D03*
X032625Y027663D03*
X033625Y027663D03*
X034625Y027663D03*
X035625Y027663D03*
X036625Y027663D03*
X037625Y027663D03*
X038625Y027663D03*
X039625Y027663D03*
X039625Y010563D03*
X038625Y010563D03*
X037625Y010563D03*
X036625Y010563D03*
X035625Y010563D03*
X034625Y010563D03*
X033625Y010563D03*
X032625Y010563D03*
X031625Y010563D03*
X030625Y010563D03*
X029625Y010563D03*
X028625Y010563D03*
X027625Y010563D03*
X026625Y010563D03*
X025625Y010563D03*
X024625Y010563D03*
X023625Y010563D03*
X022625Y010563D03*
X021625Y010563D03*
X020625Y010563D03*
X020625Y009563D03*
X021625Y009563D03*
X022625Y009563D03*
X023625Y009563D03*
X024625Y009563D03*
X025625Y009563D03*
X026625Y009563D03*
X027625Y009563D03*
X028625Y009563D03*
X029625Y009563D03*
X030625Y009563D03*
X031625Y009563D03*
X032625Y009563D03*
X033625Y009563D03*
X034625Y009563D03*
X035625Y009563D03*
X036625Y009563D03*
X037625Y009563D03*
X038625Y009563D03*
X039625Y009563D03*
X003625Y028863D03*
X003625Y029863D03*
X003625Y030863D03*
X002625Y030863D03*
X002625Y029863D03*
X002625Y028863D03*
X002625Y031863D03*
X003625Y031863D03*
X003725Y034863D03*
X003725Y035863D03*
X002725Y035863D03*
X002725Y034863D03*
D12*
X007662Y023690D03*
X007918Y023690D03*
X008173Y023690D03*
X008429Y023690D03*
X008685Y023690D03*
X008941Y023690D03*
X009197Y023690D03*
X009453Y023690D03*
X009709Y023690D03*
X009965Y023690D03*
X010221Y023690D03*
X010477Y023690D03*
X010732Y023690D03*
X010988Y023690D03*
X010988Y020836D03*
X010732Y020836D03*
X010477Y020836D03*
X010221Y020836D03*
X009965Y020836D03*
X009709Y020836D03*
X009453Y020836D03*
X009197Y020836D03*
X008941Y020836D03*
X008685Y020836D03*
X008429Y020836D03*
X008173Y020836D03*
X007918Y020836D03*
X007662Y020836D03*
D13*
X003509Y021033D03*
X003509Y021348D03*
X003509Y021663D03*
X003509Y021978D03*
X003509Y022293D03*
D14*
X003509Y023434D03*
X001344Y023434D03*
X001344Y019891D03*
X003509Y019891D03*
D15*
X002525Y020797D03*
X002525Y022529D03*
D16*
X005025Y022789D03*
X005025Y023537D03*
X006725Y023537D03*
X006725Y022789D03*
X016625Y012037D03*
X016625Y011289D03*
D17*
X009799Y019163D03*
X009051Y019163D03*
X008999Y003663D03*
X008251Y003663D03*
X015251Y003663D03*
X015999Y003663D03*
X022251Y003663D03*
X022999Y003663D03*
X029251Y003663D03*
X029999Y003663D03*
X036251Y003663D03*
X036999Y003663D03*
X043251Y003663D03*
X043999Y003663D03*
X049851Y003663D03*
X050599Y003663D03*
D18*
X050594Y004907D03*
X049856Y004907D03*
X049856Y005419D03*
X043994Y004907D03*
X043256Y004907D03*
X043256Y005419D03*
X036994Y004907D03*
X036256Y004907D03*
X036256Y005419D03*
X029994Y004907D03*
X029256Y004907D03*
X029256Y005419D03*
X022994Y004907D03*
X022256Y004907D03*
X022256Y005419D03*
X015994Y004907D03*
X015256Y004907D03*
X015256Y005419D03*
X008994Y004907D03*
X008256Y004907D03*
X008256Y005419D03*
D19*
X008994Y005360D03*
X015994Y005360D03*
X022994Y005360D03*
X029994Y005360D03*
X036994Y005360D03*
X043994Y005360D03*
X050594Y005360D03*
D20*
X051625Y004663D03*
X052625Y004663D03*
X052625Y005663D03*
X052625Y003663D03*
X046125Y003663D03*
X046125Y004663D03*
X046125Y005663D03*
X045125Y004663D03*
X039125Y004663D03*
X038125Y004663D03*
X039125Y005663D03*
X039125Y003663D03*
X032125Y003663D03*
X032125Y004663D03*
X032125Y005663D03*
X031125Y004663D03*
X025125Y004663D03*
X024125Y004663D03*
X025125Y005663D03*
X025125Y003663D03*
X018125Y003663D03*
X018125Y004663D03*
X018125Y005663D03*
X017125Y004663D03*
X011125Y004663D03*
X011125Y005663D03*
X010125Y004663D03*
X011125Y003663D03*
D21*
X012825Y003663D02*
X013425Y003663D01*
X013425Y004663D02*
X012825Y004663D01*
X012825Y005663D02*
X013425Y005663D01*
X019825Y005663D02*
X020425Y005663D01*
X020425Y004663D02*
X019825Y004663D01*
X019825Y003663D02*
X020425Y003663D01*
X026825Y003663D02*
X027425Y003663D01*
X027425Y004663D02*
X026825Y004663D01*
X026825Y005663D02*
X027425Y005663D01*
X033825Y005663D02*
X034425Y005663D01*
X034425Y004663D02*
X033825Y004663D01*
X033825Y003663D02*
X034425Y003663D01*
X040825Y003663D02*
X041425Y003663D01*
X041425Y004663D02*
X040825Y004663D01*
X040825Y005663D02*
X041425Y005663D01*
X047825Y005663D02*
X048425Y005663D01*
X048425Y004663D02*
X047825Y004663D01*
X047825Y003663D02*
X048425Y003663D01*
X054125Y003663D02*
X054725Y003663D01*
X054725Y004663D02*
X054125Y004663D01*
X054125Y005663D02*
X054725Y005663D01*
D22*
X015125Y010953D03*
X014625Y010953D03*
X014125Y010953D03*
X013625Y010953D03*
X013125Y010953D03*
X012625Y010953D03*
X012125Y010953D03*
X012125Y013373D03*
X012625Y013373D03*
X013125Y013373D03*
X013625Y013373D03*
X014125Y013373D03*
X014625Y013373D03*
X015125Y013373D03*
D23*
X014377Y036663D03*
X045873Y036663D03*
D24*
X007238Y037037D03*
X007238Y036289D03*
X006212Y036663D03*
X007238Y035037D03*
X007238Y034289D03*
X006212Y034663D03*
D25*
X001425Y034712D03*
X001425Y035814D03*
D26*
X002574Y033463D03*
X003676Y033463D03*
D27*
X006725Y013913D03*
X006725Y012263D03*
X006725Y010613D03*
D28*
X003855Y010613D03*
X003855Y013903D03*
D29*
X005625Y019789D03*
X005625Y020537D03*
X006625Y020537D03*
X006625Y019789D03*
D30*
X015125Y015163D03*
X011325Y012163D03*
X016025Y010063D03*
X007625Y005163D03*
X050925Y006063D03*
X042825Y036563D03*
X042325Y036763D03*
X040925Y036763D03*
X040325Y036563D03*
X039825Y036763D03*
X039325Y036563D03*
X038925Y036863D03*
X038425Y036563D03*
X037425Y036863D03*
X036925Y036563D03*
X036425Y036863D03*
X035925Y036563D03*
X035425Y036863D03*
X034925Y036563D03*
X033925Y036863D03*
X033425Y036563D03*
X032925Y036863D03*
X032425Y036563D03*
X031925Y036863D03*
X031325Y036563D03*
X030325Y036863D03*
X029825Y036563D03*
X029325Y036863D03*
X028825Y036563D03*
X028325Y036863D03*
X027825Y036563D03*
X026925Y036863D03*
X026325Y036563D03*
X025825Y036863D03*
X025325Y036563D03*
X024825Y036863D03*
X024325Y036563D03*
X023425Y036763D03*
X022925Y036563D03*
X022425Y036863D03*
X021925Y036563D03*
X021425Y036863D03*
X020925Y036563D03*
X019925Y036563D03*
X019425Y036763D03*
X018925Y036563D03*
X018425Y036763D03*
X017925Y036563D03*
X017425Y036763D03*
D31*
X016125Y039663D03*
X014125Y039663D03*
X012125Y039663D03*
X010125Y039663D03*
X008125Y039663D03*
X006125Y039663D03*
X006125Y037663D03*
X008125Y037663D03*
X010125Y037663D03*
X012125Y037663D03*
X012125Y035663D03*
X010125Y035663D03*
X008125Y035663D03*
X008125Y033663D03*
X006125Y033663D03*
X005125Y033463D03*
X006125Y031663D03*
X008125Y031663D03*
X010125Y031663D03*
X012125Y031663D03*
X014125Y031663D03*
X012125Y033663D03*
X010125Y033663D03*
X016125Y033663D03*
X018125Y033663D03*
X023825Y033663D03*
X023825Y034163D03*
X027325Y034163D03*
X027325Y033663D03*
X030825Y033663D03*
X030825Y034163D03*
X034425Y034163D03*
X034425Y033663D03*
X037925Y033663D03*
X037925Y034163D03*
X041625Y034163D03*
X041625Y033663D03*
X043925Y036563D03*
X043425Y036763D03*
X046125Y033663D03*
X048125Y033663D03*
X048125Y031663D03*
X050125Y031663D03*
X050125Y029663D03*
X052125Y029663D03*
X056125Y033663D03*
X058125Y033663D03*
X058125Y035663D03*
X056125Y035663D03*
X054125Y035663D03*
X054125Y037663D03*
X052125Y037663D03*
X052125Y039663D03*
X050125Y039663D03*
X054125Y039663D03*
X058125Y031663D03*
X050125Y025663D03*
X048125Y025663D03*
X046125Y025663D03*
X046125Y027663D03*
X046125Y023663D03*
X044125Y023663D03*
X044125Y021663D03*
X046125Y021663D03*
X048125Y021663D03*
X048125Y019663D03*
X046125Y019663D03*
X044125Y019663D03*
X042125Y019663D03*
X042125Y021663D03*
X042125Y017663D03*
X044125Y017663D03*
X046125Y017663D03*
X048125Y017663D03*
X048125Y015663D03*
X046125Y015663D03*
X044125Y015663D03*
X042125Y015663D03*
X042125Y013663D03*
X044125Y013663D03*
X046125Y013663D03*
X048125Y013663D03*
X048125Y011663D03*
X046125Y011663D03*
X044125Y011663D03*
X042125Y011663D03*
X042125Y009663D03*
X044125Y009663D03*
X046125Y009663D03*
X048125Y009663D03*
X048125Y007663D03*
X046125Y007663D03*
X044125Y007663D03*
X042125Y007663D03*
X040125Y007663D03*
X038125Y007663D03*
X052125Y010663D03*
X054125Y010663D03*
X054625Y009663D03*
X055125Y008663D03*
X055125Y007163D03*
X054125Y007163D03*
X057625Y007163D03*
X058625Y007163D03*
X057225Y014663D03*
X058125Y015563D03*
X057725Y018163D03*
X058325Y018963D03*
X057225Y019763D03*
X056525Y019763D03*
X055925Y019263D03*
X050625Y020663D03*
X050625Y021663D03*
X050625Y022663D03*
X050625Y023663D03*
X048125Y023663D03*
X018125Y019663D03*
X016125Y019663D03*
X014125Y019663D03*
X012125Y019663D03*
X010625Y019163D03*
X010125Y017663D03*
X012125Y017663D03*
X014125Y017663D03*
X016125Y017663D03*
X018125Y017663D03*
X018125Y015663D03*
X016125Y015663D03*
X016125Y013663D03*
X018125Y013663D03*
X018125Y011663D03*
X018125Y009663D03*
X010125Y007663D03*
X006125Y007663D03*
X004125Y007663D03*
X002125Y007663D03*
X006125Y005663D03*
X008125Y013663D03*
X008125Y015663D03*
X006125Y017663D03*
X004125Y017663D03*
X002125Y017663D03*
X005625Y021163D03*
X006625Y021163D03*
X008125Y020163D03*
X005625Y022663D03*
X005625Y023663D03*
X006125Y023663D03*
X006125Y025663D03*
X008125Y025663D03*
X009425Y024563D03*
X011125Y025663D03*
X010625Y026163D03*
X011625Y025163D03*
X012125Y024663D03*
X015125Y024163D03*
X015125Y023163D03*
X016125Y021663D03*
X012125Y021663D03*
X004125Y025663D03*
X002125Y025663D03*
X002125Y027663D03*
M02*
