%
M48
M72
T01C0.0236
T02C0.0240
T03C0.0320
T04C0.0354
T05C0.0400
T06C0.0787
T07C0.0827
T08C0.1180
T09C0.1400
%
T01
X6125Y5663
X6125Y7663
X4125Y7663
X2125Y7663
X10125Y7663
X8125Y13663
X8125Y15663
X6125Y17663
X4125Y17663
X2125Y17663
X5625Y21163
X6625Y21163
X8125Y20163
X10625Y19163
X12125Y19663
X14125Y19663
X16125Y19663
X16125Y21663
X15125Y23163
X15125Y24163
X12125Y24663
X11625Y25163
X11125Y25663
X10625Y26163
X9425Y24563
X8125Y25663
X6125Y25663
X4125Y25663
X2125Y25663
X2125Y27663
X6125Y31663
X8125Y31663
X10125Y31663
X12125Y31663
X14125Y31663
X12125Y33663
X10125Y33663
X8125Y33663
X6125Y33663
X5125Y33463
X8125Y35663
X10125Y35663
X12125Y35663
X12125Y37663
X12125Y39663
X14125Y39663
X16125Y39663
X10125Y39663
X8125Y39663
X6125Y39663
X6125Y37663
X8125Y37663
X10125Y37663
X16125Y33663
X18125Y33663
X23825Y33663
X23825Y34163
X27325Y34163
X27325Y33663
X30825Y33663
X30825Y34163
X34425Y34163
X34425Y33663
X37925Y33663
X37925Y34163
X41625Y34163
X41625Y33663
X43925Y36563
X43425Y36763
X46125Y33663
X48125Y33663
X48125Y31663
X50125Y31663
X50125Y29663
X52125Y29663
X56125Y33663
X58125Y33663
X58125Y35663
X56125Y35663
X54125Y35663
X54125Y37663
X52125Y37663
X52125Y39663
X50125Y39663
X54125Y39663
X58125Y31663
X50125Y25663
X48125Y25663
X46125Y25663
X46125Y27663
X46125Y23663
X44125Y23663
X44125Y21663
X46125Y21663
X48125Y21663
X48125Y19663
X46125Y19663
X44125Y19663
X42125Y19663
X42125Y21663
X42125Y17663
X44125Y17663
X46125Y17663
X48125Y17663
X48125Y15663
X46125Y15663
X44125Y15663
X42125Y15663
X42125Y13663
X44125Y13663
X46125Y13663
X48125Y13663
X48125Y11663
X46125Y11663
X44125Y11663
X42125Y11663
X42125Y9663
X44125Y9663
X46125Y9663
X48125Y9663
X48125Y7663
X46125Y7663
X44125Y7663
X42125Y7663
X40125Y7663
X38125Y7663
X52125Y10663
X54125Y10663
X54625Y9663
X55125Y8663
X55125Y7163
X54125Y7163
X57625Y7163
X58625Y7163
X57225Y14663
X58125Y15563
X57725Y18163
X58325Y18963
X57225Y19763
X56525Y19763
X55925Y19263
X50625Y20663
X50625Y21663
X50625Y22663
X50625Y23663
X48125Y23663
X18125Y19663
X18125Y17663
X16125Y17663
X14125Y17663
X12125Y17663
X10125Y17663
X12125Y21663
X6125Y23663
X5625Y23663
X5625Y22663
X16125Y15663
X18125Y15663
X18125Y13663
X16125Y13663
X18125Y11663
X18125Y9663
T02
X16025Y10063
X11325Y12163
X15125Y15163
X7625Y5163
X50925Y6063
X42825Y36563
X42325Y36763
X40925Y36763
X40325Y36563
X39825Y36763
X39325Y36563
X38925Y36863
X38425Y36563
X37425Y36863
X36925Y36563
X36425Y36863
X35925Y36563
X35425Y36863
X34925Y36563
X33925Y36863
X33425Y36563
X32925Y36863
X32425Y36563
X31925Y36863
X31325Y36563
X30325Y36863
X29825Y36563
X29325Y36863
X28825Y36563
X28325Y36863
X27825Y36563
X26925Y36863
X26325Y36563
X25825Y36863
X25325Y36563
X24825Y36863
X24325Y36563
X23425Y36763
X22925Y36563
X22425Y36863
X21925Y36563
X21425Y36863
X20925Y36563
X19925Y36563
X19425Y36763
X18925Y36563
X18425Y36763
X17925Y36563
X17425Y36763
T03
X18125Y5663
X18125Y4663
X17125Y4663
X18125Y3663
X24125Y4663
X25125Y4663
X25125Y5663
X25125Y3663
X31125Y4663
X32125Y4663
X32125Y5663
X32125Y3663
X38125Y4663
X39125Y4663
X39125Y5663
X39125Y3663
X45125Y4663
X46125Y4663
X46125Y5663
X46125Y3663
X51625Y4663
X52625Y4663
X52625Y5663
X52625Y3663
X11125Y3663
X11125Y4663
X11125Y5663
X10125Y4663
T04
X2525Y20797
X2525Y22529
T05
X2625Y28863
X2625Y29863
X2625Y30863
X3625Y30863
X3625Y29863
X3625Y28863
X3625Y31863
X2625Y31863
X2725Y34863
X2725Y35863
X3725Y35863
X3725Y34863
X20625Y27663
X21625Y27663
X22625Y27663
X23625Y27663
X24625Y27663
X25625Y27663
X26625Y27663
X27625Y27663
X28625Y27663
X29625Y27663
X30625Y27663
X31625Y27663
X32625Y27663
X33625Y27663
X34625Y27663
X35625Y27663
X36625Y27663
X37625Y27663
X38625Y27663
X39625Y27663
X39625Y26663
X38625Y26663
X37625Y26663
X36625Y26663
X35625Y26663
X34625Y26663
X33625Y26663
X32625Y26663
X31625Y26663
X30625Y26663
X29625Y26663
X28625Y26663
X27625Y26663
X26625Y26663
X25625Y26663
X24625Y26663
X23625Y26663
X22625Y26663
X21625Y26663
X20625Y26663
X20625Y10563
X21625Y10563
X22625Y10563
X23625Y10563
X24625Y10563
X25625Y10563
X26625Y10563
X27625Y10563
X28625Y10563
X29625Y10563
X30625Y10563
X31625Y10563
X32625Y10563
X33625Y10563
X34625Y10563
X35625Y10563
X36625Y10563
X37625Y10563
X38625Y10563
X39625Y10563
X39625Y9563
X38625Y9563
X37625Y9563
X36625Y9563
X35625Y9563
X34625Y9563
X33625Y9563
X32625Y9563
X31625Y9563
X30625Y9563
X29625Y9563
X28625Y9563
X27625Y9563
X26625Y9563
X25625Y9563
X24625Y9563
X23625Y9563
X22625Y9563
X21625Y9563
X20625Y9563
X20125Y5663
X20125Y4663
X20125Y3663
X13125Y3663
X13125Y4663
X13125Y5663
X27125Y5663
X27125Y4663
X27125Y3663
X34125Y3663
X34125Y4663
X34125Y5663
X41125Y5663
X41125Y4663
X41125Y3663
X48125Y3663
X48125Y4663
X48125Y5663
X54425Y5663
X54425Y4663
X54425Y3663
X56825Y8563
X56825Y9563
X57825Y9563
X57825Y8563
X57825Y10563
X57825Y11563
X56825Y11563
X56825Y10563
X56825Y12563
X56825Y13563
X57825Y13563
X57825Y12563
X52425Y13563
X52425Y14563
X51425Y14563
X51425Y13563
X51425Y15563
X51425Y16563
X52425Y16563
X52425Y15563
X52425Y17563
X52425Y18563
X52425Y19563
X51425Y19563
X51425Y18563
X51425Y17563
X51425Y20563
X51425Y21563
X52425Y21563
X52425Y20563
X52425Y22563
X52425Y23563
X52425Y24563
X51425Y24563
X51425Y23563
X51425Y22563
X51425Y25563
X52425Y25563
T06
X6725Y13913
X6725Y12263
X6725Y10613
T07
X14377Y36663
X45873Y36663
T08
X3855Y13903
X3855Y10613
T09
X2625Y4163
X2625Y39163
X57625Y39163
X57625Y4163
M30
