G75*
G70*
%OFA0B0*%
%FSLAX24Y24*%
%IPPOS*%
%LPD*%
%AMOC8*
5,1,8,0,0,1.08239X$1,22.5*
%
%ADD10OC8,0.0600*%
%ADD11R,0.0157X0.0591*%
%ADD12R,0.0984X0.0197*%
%ADD13R,0.0984X0.0787*%
%ADD14R,0.0591X0.0512*%
%ADD15R,0.0512X0.0591*%
%ADD16R,0.0207X0.0118*%
%ADD17R,0.0207X0.0276*%
%ADD18OC8,0.0520*%
%ADD19C,0.0600*%
%ADD20R,0.0260X0.0800*%
%ADD21R,0.0551X0.0394*%
%ADD22R,0.0787X0.0630*%
%ADD23R,0.0630X0.0787*%
%ADD24C,0.1250*%
%ADD25R,0.0630X0.0512*%
%ADD26C,0.0160*%
%ADD27C,0.0400*%
%ADD28C,0.0396*%
%ADD29C,0.0240*%
D10*
X020625Y009563D03*
X021625Y009563D03*
X022625Y009563D03*
X023625Y009563D03*
X024625Y009563D03*
X025625Y009563D03*
X026625Y009563D03*
X027625Y009563D03*
X028625Y009563D03*
X029625Y009563D03*
X030625Y009563D03*
X031625Y009563D03*
X032625Y009563D03*
X033625Y009563D03*
X034625Y009563D03*
X035625Y009563D03*
X036625Y009563D03*
X037625Y009563D03*
X038625Y009563D03*
X039625Y009563D03*
X039625Y010563D03*
X038625Y010563D03*
X037625Y010563D03*
X036625Y010563D03*
X035625Y010563D03*
X034625Y010563D03*
X033625Y010563D03*
X032625Y010563D03*
X031625Y010563D03*
X030625Y010563D03*
X029625Y010563D03*
X028625Y010563D03*
X027625Y010563D03*
X026625Y010563D03*
X025625Y010563D03*
X024625Y010563D03*
X023625Y010563D03*
X022625Y010563D03*
X021625Y010563D03*
X020625Y010563D03*
X020625Y026663D03*
X021625Y026663D03*
X022625Y026663D03*
X023625Y026663D03*
X024625Y026663D03*
X025625Y026663D03*
X026625Y026663D03*
X027625Y026663D03*
X028625Y026663D03*
X029625Y026663D03*
X030625Y026663D03*
X031625Y026663D03*
X032625Y026663D03*
X033625Y026663D03*
X034625Y026663D03*
X035625Y026663D03*
X036625Y026663D03*
X037625Y026663D03*
X038625Y026663D03*
X039625Y026663D03*
X039625Y027663D03*
X038625Y027663D03*
X037625Y027663D03*
X036625Y027663D03*
X035625Y027663D03*
X034625Y027663D03*
X033625Y027663D03*
X032625Y027663D03*
X031625Y027663D03*
X030625Y027663D03*
X029625Y027663D03*
X028625Y027663D03*
X027625Y027663D03*
X026625Y027663D03*
X025625Y027663D03*
X024625Y027663D03*
X023625Y027663D03*
X022625Y027663D03*
X021625Y027663D03*
X020625Y027663D03*
X003625Y028863D03*
X003625Y029863D03*
X003625Y030863D03*
X002625Y030863D03*
X002625Y029863D03*
X002625Y028863D03*
X002625Y031863D03*
X003625Y031863D03*
X003725Y034863D03*
X003725Y035863D03*
X002725Y035863D03*
X002725Y034863D03*
X051425Y025563D03*
X052425Y025563D03*
X052425Y024563D03*
X051425Y024563D03*
X051425Y023563D03*
X052425Y023563D03*
X052425Y022563D03*
X051425Y022563D03*
X051425Y021563D03*
X052425Y021563D03*
X052425Y020563D03*
X051425Y020563D03*
X051425Y019563D03*
X052425Y019563D03*
X052425Y018563D03*
X051425Y018563D03*
X051425Y017563D03*
X052425Y017563D03*
X052425Y016563D03*
X051425Y016563D03*
X051425Y015563D03*
X052425Y015563D03*
X052425Y014563D03*
X051425Y014563D03*
X051425Y013563D03*
X052425Y013563D03*
X056825Y013563D03*
X057825Y013563D03*
X057825Y012563D03*
X056825Y012563D03*
X056825Y011563D03*
X057825Y011563D03*
X057825Y010563D03*
X056825Y010563D03*
X056825Y009563D03*
X057825Y009563D03*
X057825Y008563D03*
X056825Y008563D03*
D11*
X010988Y020836D03*
X010732Y020836D03*
X010477Y020836D03*
X010221Y020836D03*
X009965Y020836D03*
X009709Y020836D03*
X009453Y020836D03*
X009197Y020836D03*
X008941Y020836D03*
X008685Y020836D03*
X008429Y020836D03*
X008173Y020836D03*
X007918Y020836D03*
X007662Y020836D03*
X007662Y023690D03*
X007918Y023690D03*
X008173Y023690D03*
X008429Y023690D03*
X008685Y023690D03*
X008941Y023690D03*
X009197Y023690D03*
X009453Y023690D03*
X009709Y023690D03*
X009965Y023690D03*
X010221Y023690D03*
X010477Y023690D03*
X010732Y023690D03*
X010988Y023690D03*
D12*
X003509Y022293D03*
X003509Y021978D03*
X003509Y021663D03*
X003509Y021348D03*
X003509Y021033D03*
D13*
X003509Y019891D03*
X001344Y019891D03*
X001344Y023434D03*
X003509Y023434D03*
D14*
X005025Y023537D03*
X005025Y022789D03*
X006725Y022789D03*
X006725Y023537D03*
X016625Y012037D03*
X016625Y011289D03*
D15*
X009799Y019163D03*
X009051Y019163D03*
X008999Y003663D03*
X008251Y003663D03*
X015251Y003663D03*
X015999Y003663D03*
X022251Y003663D03*
X022999Y003663D03*
X029251Y003663D03*
X029999Y003663D03*
X036251Y003663D03*
X036999Y003663D03*
X043251Y003663D03*
X043999Y003663D03*
X049851Y003663D03*
X050599Y003663D03*
D16*
X050594Y004907D03*
X049856Y004907D03*
X049856Y005419D03*
X043994Y004907D03*
X043256Y004907D03*
X043256Y005419D03*
X036994Y004907D03*
X036256Y004907D03*
X036256Y005419D03*
X029994Y004907D03*
X029256Y004907D03*
X029256Y005419D03*
X022994Y004907D03*
X022256Y004907D03*
X022256Y005419D03*
X015994Y004907D03*
X015256Y004907D03*
X015256Y005419D03*
X008994Y004907D03*
X008256Y004907D03*
X008256Y005419D03*
D17*
X008994Y005360D03*
X015994Y005360D03*
X022994Y005360D03*
X029994Y005360D03*
X036994Y005360D03*
X043994Y005360D03*
X050594Y005360D03*
D18*
X051625Y004663D03*
X052625Y004663D03*
X052625Y005663D03*
X052625Y003663D03*
X046125Y003663D03*
X046125Y004663D03*
X046125Y005663D03*
X045125Y004663D03*
X039125Y004663D03*
X038125Y004663D03*
X039125Y005663D03*
X039125Y003663D03*
X032125Y003663D03*
X032125Y004663D03*
X032125Y005663D03*
X031125Y004663D03*
X025125Y004663D03*
X024125Y004663D03*
X025125Y005663D03*
X025125Y003663D03*
X018125Y003663D03*
X018125Y004663D03*
X018125Y005663D03*
X017125Y004663D03*
X011125Y004663D03*
X011125Y005663D03*
X010125Y004663D03*
X011125Y003663D03*
D19*
X012825Y003663D02*
X013425Y003663D01*
X013425Y004663D02*
X012825Y004663D01*
X012825Y005663D02*
X013425Y005663D01*
X019825Y005663D02*
X020425Y005663D01*
X020425Y004663D02*
X019825Y004663D01*
X019825Y003663D02*
X020425Y003663D01*
X026825Y003663D02*
X027425Y003663D01*
X027425Y004663D02*
X026825Y004663D01*
X026825Y005663D02*
X027425Y005663D01*
X033825Y005663D02*
X034425Y005663D01*
X034425Y004663D02*
X033825Y004663D01*
X033825Y003663D02*
X034425Y003663D01*
X040825Y003663D02*
X041425Y003663D01*
X041425Y004663D02*
X040825Y004663D01*
X040825Y005663D02*
X041425Y005663D01*
X047825Y005663D02*
X048425Y005663D01*
X048425Y004663D02*
X047825Y004663D01*
X047825Y003663D02*
X048425Y003663D01*
X054125Y003663D02*
X054725Y003663D01*
X054725Y004663D02*
X054125Y004663D01*
X054125Y005663D02*
X054725Y005663D01*
D20*
X015125Y010953D03*
X014625Y010953D03*
X014125Y010953D03*
X013625Y010953D03*
X013125Y010953D03*
X012625Y010953D03*
X012125Y010953D03*
X012125Y013373D03*
X012625Y013373D03*
X013125Y013373D03*
X013625Y013373D03*
X014125Y013373D03*
X014625Y013373D03*
X015125Y013373D03*
D21*
X007238Y034289D03*
X007238Y035037D03*
X006212Y034663D03*
X007238Y036289D03*
X007238Y037037D03*
X006212Y036663D03*
D22*
X001425Y035814D03*
X001425Y034712D03*
D23*
X002574Y033463D03*
X003676Y033463D03*
D24*
X006725Y013913D03*
X006725Y012263D03*
X006725Y010613D03*
D25*
X006625Y019789D03*
X006625Y020537D03*
X005625Y020537D03*
X005625Y019789D03*
D26*
X003728Y002252D02*
X003514Y002163D01*
X056736Y002163D01*
X056522Y002252D01*
X056522Y002252D01*
X056065Y002602D01*
X056065Y002602D01*
X056065Y002602D01*
X055714Y003059D01*
X055714Y003059D01*
X055493Y003592D01*
X055493Y003592D01*
X055418Y004163D01*
X055418Y004163D01*
X055493Y004734D01*
X055493Y004734D01*
X055714Y005266D01*
X055714Y005266D01*
X056065Y005723D01*
X056065Y005723D01*
X056522Y006074D01*
X056522Y006074D01*
X057054Y006294D01*
X057625Y006370D01*
X058196Y006294D01*
X058728Y006074D01*
X059185Y005723D01*
X059185Y005723D01*
X059536Y005266D01*
X059536Y005266D01*
X059625Y005052D01*
X059625Y038274D01*
X059536Y038059D01*
X059536Y038059D01*
X059185Y037602D01*
X059185Y037602D01*
X059185Y037602D01*
X058728Y037252D01*
X058728Y037252D01*
X058196Y037031D01*
X057625Y036956D01*
X057054Y037031D01*
X056522Y037252D01*
X056065Y037602D01*
X056065Y037602D01*
X055714Y038059D01*
X055714Y038059D01*
X055493Y038592D01*
X055493Y038592D01*
X055418Y039163D01*
X055418Y039163D01*
X055493Y039734D01*
X055493Y039734D01*
X055714Y040266D01*
X055714Y040266D01*
X056065Y040723D01*
X056065Y040723D01*
X056522Y041074D01*
X056522Y041074D01*
X056736Y041163D01*
X003514Y041163D01*
X003728Y041074D01*
X003728Y041074D01*
X004185Y040723D01*
X004185Y040723D01*
X004185Y040723D01*
X004536Y040266D01*
X004536Y040266D01*
X004757Y039734D01*
X004757Y039734D01*
X004832Y039163D01*
X004757Y038592D01*
X004757Y038592D01*
X004536Y038059D01*
X004536Y038059D01*
X004185Y037602D01*
X004185Y037602D01*
X004185Y037602D01*
X003728Y037252D01*
X003728Y037252D01*
X003196Y037031D01*
X003196Y037031D01*
X002625Y036956D01*
X002625Y036956D01*
X002054Y037031D01*
X002054Y037031D01*
X001522Y037252D01*
X001522Y037252D01*
X001065Y037602D01*
X001065Y037602D01*
X001065Y037602D01*
X000714Y038059D01*
X000714Y038059D01*
X000625Y038274D01*
X000625Y023908D01*
X000648Y023964D01*
X000716Y024032D01*
X000804Y024068D01*
X001884Y024068D01*
X001972Y024032D01*
X002039Y023964D01*
X002076Y023876D01*
X002076Y023009D01*
X002153Y023086D01*
X002394Y023186D01*
X002656Y023186D01*
X002777Y023136D01*
X002777Y023876D01*
X002814Y023964D01*
X002881Y024032D01*
X002969Y024068D01*
X004049Y024068D01*
X004137Y024032D01*
X004205Y023964D01*
X004241Y023876D01*
X004241Y022993D01*
X004205Y022905D01*
X004137Y022837D01*
X004049Y022801D01*
X003124Y022801D01*
X003182Y022660D01*
X003182Y022631D01*
X004049Y022631D01*
X004094Y022613D01*
X004396Y022613D01*
X004490Y022706D01*
X004490Y023092D01*
X004526Y023181D01*
X004561Y023215D01*
X004550Y023257D01*
X004550Y023489D01*
X004977Y023489D01*
X004977Y023585D01*
X004977Y023973D01*
X004706Y023973D01*
X004660Y023960D01*
X004619Y023937D01*
X004586Y023903D01*
X004562Y023862D01*
X004550Y023816D01*
X004550Y023585D01*
X004977Y023585D01*
X005073Y023585D01*
X005073Y023973D01*
X005344Y023973D01*
X005390Y023960D01*
X005431Y023937D01*
X005464Y023903D01*
X005488Y023862D01*
X005500Y023816D01*
X005500Y023585D01*
X005073Y023585D01*
X005073Y023489D01*
X005500Y023489D01*
X005500Y023257D01*
X005489Y023215D01*
X005524Y023181D01*
X005554Y023109D01*
X005563Y023109D01*
X005582Y023101D01*
X005712Y023101D01*
X005873Y023034D01*
X005996Y022911D01*
X006063Y022750D01*
X006063Y022576D01*
X005996Y022415D01*
X005880Y022298D01*
X006370Y022298D01*
X006294Y022329D01*
X006226Y022397D01*
X006190Y022485D01*
X006190Y023092D01*
X006226Y023181D01*
X006261Y023215D01*
X006250Y023257D01*
X006250Y023489D01*
X006677Y023489D01*
X006677Y023585D01*
X006677Y023973D01*
X006406Y023973D01*
X006360Y023960D01*
X006319Y023937D01*
X006286Y023903D01*
X006262Y023862D01*
X006250Y023816D01*
X006250Y023585D01*
X006677Y023585D01*
X006773Y023585D01*
X006773Y023973D01*
X007044Y023973D01*
X007090Y023960D01*
X007131Y023937D01*
X007164Y023903D01*
X007188Y023862D01*
X007200Y023816D01*
X007200Y023585D01*
X006773Y023585D01*
X006773Y023489D01*
X007200Y023489D01*
X007200Y023257D01*
X007189Y023215D01*
X007224Y023181D01*
X007260Y023092D01*
X007260Y022980D01*
X008187Y022053D01*
X008258Y022083D01*
X008992Y022083D01*
X009901Y022991D01*
X009901Y023155D01*
X009838Y023155D01*
X009837Y023155D01*
X009835Y023155D01*
X009582Y023155D01*
X009494Y023191D01*
X009471Y023215D01*
X009453Y023215D01*
X009453Y023232D01*
X009453Y023232D01*
X009453Y023232D01*
X009453Y023215D01*
X009435Y023215D01*
X009412Y023191D01*
X009324Y023155D01*
X009071Y023155D01*
X009069Y023155D01*
X009068Y023155D01*
X008815Y023155D01*
X008813Y023155D01*
X008812Y023155D01*
X008559Y023155D01*
X008557Y023155D01*
X008556Y023155D01*
X008303Y023155D01*
X008301Y023155D01*
X008300Y023155D01*
X008047Y023155D01*
X008045Y023155D01*
X008044Y023155D01*
X007791Y023155D01*
X007790Y023155D01*
X007788Y023155D01*
X007535Y023155D01*
X007447Y023191D01*
X007379Y023259D01*
X007343Y023347D01*
X007343Y024033D01*
X007379Y024121D01*
X007447Y024189D01*
X007535Y024225D01*
X007788Y024225D01*
X007790Y024225D01*
X007791Y024225D01*
X008044Y024225D01*
X008045Y024225D01*
X008047Y024225D01*
X008109Y024225D01*
X008109Y025031D01*
X008158Y025148D01*
X008248Y025238D01*
X009444Y026434D01*
X009561Y026483D01*
X010325Y026483D01*
X010377Y026534D01*
X010538Y026601D01*
X010712Y026601D01*
X010873Y026534D01*
X010996Y026411D01*
X011063Y026250D01*
X011063Y026101D01*
X011212Y026101D01*
X011373Y026034D01*
X011496Y025911D01*
X011563Y025750D01*
X011563Y025601D01*
X011712Y025601D01*
X011873Y025534D01*
X011996Y025411D01*
X012063Y025250D01*
X012063Y025101D01*
X012212Y025101D01*
X012373Y025034D01*
X012496Y024911D01*
X012563Y024750D01*
X012563Y024576D01*
X012496Y024415D01*
X012373Y024291D01*
X012212Y024225D01*
X012038Y024225D01*
X011877Y024291D01*
X011825Y024343D01*
X011758Y024343D01*
X011308Y023894D01*
X011308Y023626D01*
X011307Y023623D01*
X011307Y023347D01*
X011271Y023259D01*
X011203Y023191D01*
X011115Y023155D01*
X010862Y023155D01*
X010860Y023155D01*
X010859Y023155D01*
X010606Y023155D01*
X010605Y023155D01*
X010603Y023155D01*
X010541Y023155D01*
X010541Y022795D01*
X010492Y022677D01*
X009396Y021582D01*
X009396Y021582D01*
X009306Y021492D01*
X009189Y021443D01*
X008493Y021443D01*
X008493Y021344D01*
X008559Y021371D01*
X008812Y021371D01*
X008813Y021370D01*
X008815Y021371D01*
X009068Y021371D01*
X009156Y021334D01*
X009179Y021311D01*
X009197Y021311D01*
X009197Y021293D01*
X009197Y021293D01*
X009197Y021293D01*
X009197Y021311D01*
X009215Y021311D01*
X009238Y021334D01*
X009326Y021371D01*
X009579Y021371D01*
X009581Y021370D01*
X009582Y021371D01*
X009835Y021371D01*
X009837Y021370D01*
X009838Y021371D01*
X010091Y021371D01*
X010179Y021334D01*
X010203Y021311D01*
X010221Y021311D01*
X010221Y021293D01*
X010221Y021293D01*
X010221Y021311D01*
X010323Y021311D01*
X010349Y021304D01*
X010374Y021311D01*
X010477Y021311D01*
X010477Y021293D01*
X010477Y021293D01*
X010477Y021311D01*
X010494Y021311D01*
X010518Y021334D01*
X010606Y021371D01*
X010859Y021371D01*
X010860Y021370D01*
X010862Y021371D01*
X011115Y021371D01*
X011203Y021334D01*
X011271Y021267D01*
X011307Y021179D01*
X011307Y020493D01*
X011271Y020404D01*
X011203Y020337D01*
X011115Y020300D01*
X010862Y020300D01*
X010860Y020301D01*
X010859Y020300D01*
X010606Y020300D01*
X010518Y020337D01*
X010494Y020360D01*
X010477Y020360D01*
X010477Y020378D01*
X010477Y020378D01*
X010477Y020360D01*
X010374Y020360D01*
X010349Y020367D01*
X010323Y020360D01*
X010221Y020360D01*
X010221Y020378D01*
X010221Y020378D01*
X010221Y020360D01*
X010203Y020360D01*
X010179Y020337D01*
X010091Y020300D01*
X009838Y020300D01*
X009837Y020301D01*
X009835Y020300D01*
X009582Y020300D01*
X009581Y020301D01*
X009579Y020300D01*
X009326Y020300D01*
X009261Y020327D01*
X009261Y019698D01*
X009355Y019698D01*
X009443Y019662D01*
X009478Y019627D01*
X009519Y019638D01*
X009751Y019638D01*
X009751Y019211D01*
X009847Y019211D01*
X009847Y019638D01*
X010079Y019638D01*
X010124Y019626D01*
X010165Y019602D01*
X010199Y019569D01*
X010223Y019528D01*
X010235Y019482D01*
X010235Y019211D01*
X009847Y019211D01*
X009847Y019115D01*
X010235Y019115D01*
X010235Y018844D01*
X010223Y018798D01*
X010199Y018757D01*
X010165Y018724D01*
X010124Y018700D01*
X010079Y018688D01*
X009847Y018688D01*
X009847Y019115D01*
X009751Y019115D01*
X009751Y018688D01*
X009519Y018688D01*
X009478Y018699D01*
X009443Y018664D01*
X009411Y018651D01*
X009411Y018317D01*
X009356Y018185D01*
X009255Y018084D01*
X009255Y018084D01*
X005585Y014414D01*
X005585Y013912D01*
X005933Y013564D01*
X005860Y013741D01*
X005860Y014085D01*
X005992Y014403D01*
X006235Y014646D01*
X006553Y014778D01*
X006897Y014778D01*
X007215Y014646D01*
X007458Y014403D01*
X007590Y014085D01*
X007590Y013741D01*
X007458Y013423D01*
X007215Y013180D01*
X006994Y013088D01*
X007215Y012996D01*
X007458Y012753D01*
X007590Y012435D01*
X007590Y012091D01*
X007458Y011773D01*
X007215Y011530D01*
X006900Y011399D01*
X006984Y011377D01*
X007082Y011336D01*
X007173Y011284D01*
X007257Y011219D01*
X007332Y011145D01*
X007396Y011061D01*
X007449Y010970D01*
X007489Y010872D01*
X007516Y010770D01*
X007526Y010693D01*
X006805Y010693D01*
X006805Y010533D01*
X007526Y010533D01*
X007516Y010455D01*
X007489Y010354D01*
X007449Y010256D01*
X007396Y010165D01*
X007332Y010081D01*
X007257Y010006D01*
X007173Y009942D01*
X007082Y009889D01*
X006984Y009849D01*
X006882Y009822D01*
X006805Y009811D01*
X006805Y010533D01*
X006645Y010533D01*
X005924Y010533D01*
X005934Y010455D01*
X005961Y010354D01*
X006001Y010256D01*
X006054Y010165D01*
X006118Y010081D01*
X006193Y010006D01*
X006277Y009942D01*
X006368Y009889D01*
X006466Y009849D01*
X006568Y009822D01*
X006645Y009811D01*
X006645Y010533D01*
X006645Y010693D01*
X005924Y010693D01*
X005934Y010770D01*
X005961Y010872D01*
X006001Y010970D01*
X006054Y011061D01*
X006118Y011145D01*
X006193Y011219D01*
X006277Y011284D01*
X006368Y011336D01*
X006466Y011377D01*
X006550Y011399D01*
X006235Y011530D01*
X005992Y011773D01*
X005860Y012091D01*
X005860Y012435D01*
X005914Y012565D01*
X004920Y013559D01*
X004890Y013631D01*
X004852Y013490D01*
X004711Y013246D01*
X004512Y013047D01*
X004268Y012906D01*
X003996Y012833D01*
X003714Y012833D01*
X003442Y012906D01*
X003198Y013047D01*
X002999Y013246D01*
X002858Y013490D01*
X002785Y013762D01*
X002785Y014044D01*
X002858Y014316D01*
X002999Y014560D01*
X003198Y014759D01*
X003442Y014900D01*
X003714Y014973D01*
X003996Y014973D01*
X004268Y014900D01*
X004512Y014759D01*
X004711Y014560D01*
X004852Y014316D01*
X004865Y014268D01*
X004865Y014634D01*
X004920Y014767D01*
X005021Y014868D01*
X008691Y018538D01*
X008691Y018651D01*
X008659Y018664D01*
X008592Y018732D01*
X008555Y018820D01*
X008555Y019440D01*
X008506Y019392D01*
X008389Y019343D01*
X007089Y019343D01*
X007076Y019329D01*
X006988Y019293D01*
X006262Y019293D01*
X006174Y019329D01*
X006125Y019379D01*
X006076Y019329D01*
X005988Y019293D01*
X005262Y019293D01*
X005174Y019329D01*
X005107Y019397D01*
X005070Y019485D01*
X005070Y020092D01*
X005107Y020181D01*
X005141Y020215D01*
X005130Y020257D01*
X005130Y020489D01*
X005577Y020489D01*
X005577Y020585D01*
X005577Y020973D01*
X005286Y020973D01*
X005241Y020960D01*
X005200Y020937D01*
X005166Y020903D01*
X005142Y020862D01*
X005130Y020816D01*
X005130Y020585D01*
X005577Y020585D01*
X005673Y020585D01*
X005673Y020973D01*
X005964Y020973D01*
X006009Y020960D01*
X006050Y020937D01*
X006084Y020903D01*
X006091Y020891D01*
X006107Y020929D01*
X006174Y020996D01*
X006213Y021012D01*
X006187Y021076D01*
X006187Y021250D01*
X006225Y021343D01*
X004241Y021343D01*
X004241Y021202D01*
X004205Y021113D01*
X004181Y021090D01*
X004181Y021033D01*
X004106Y021033D01*
X004106Y021033D01*
X004181Y021033D01*
X004181Y020911D01*
X004169Y020865D01*
X004145Y020824D01*
X004112Y020790D01*
X004071Y020767D01*
X004025Y020754D01*
X003509Y020754D01*
X003509Y021009D01*
X003509Y021009D01*
X003509Y020754D01*
X003182Y020754D01*
X003182Y020666D01*
X003124Y020525D01*
X004049Y020525D01*
X004137Y020488D01*
X004205Y020421D01*
X004241Y020333D01*
X004241Y019450D01*
X004205Y019362D01*
X004137Y019294D01*
X004049Y019257D01*
X002969Y019257D01*
X002881Y019294D01*
X002814Y019362D01*
X002777Y019450D01*
X002777Y020190D01*
X002656Y020140D01*
X002394Y020140D01*
X002153Y020240D01*
X002076Y020316D01*
X002076Y019450D01*
X002039Y019362D01*
X001972Y019294D01*
X001884Y019257D01*
X000804Y019257D01*
X000716Y019294D01*
X000648Y019362D01*
X000625Y019418D01*
X000625Y005052D01*
X000714Y005266D01*
X000714Y005266D01*
X001065Y005723D01*
X001065Y005723D01*
X001522Y006074D01*
X001522Y006074D01*
X002054Y006294D01*
X002054Y006294D01*
X002625Y006370D01*
X002625Y006370D01*
X003196Y006294D01*
X003196Y006294D01*
X003728Y006074D01*
X003728Y006074D01*
X004185Y005723D01*
X004185Y005723D01*
X004185Y005723D01*
X004536Y005266D01*
X004536Y005266D01*
X004757Y004734D01*
X004757Y004734D01*
X004832Y004163D01*
X004757Y003592D01*
X004757Y003592D01*
X004536Y003059D01*
X004536Y003059D01*
X004185Y002602D01*
X004185Y002602D01*
X004185Y002602D01*
X003728Y002252D01*
X003728Y002252D01*
X003787Y002297D02*
X056463Y002297D01*
X056256Y002455D02*
X003994Y002455D01*
X004194Y002614D02*
X056056Y002614D01*
X055934Y002772D02*
X004316Y002772D01*
X004437Y002931D02*
X055813Y002931D01*
X055701Y003089D02*
X004549Y003089D01*
X004614Y003248D02*
X007785Y003248D01*
X007792Y003232D02*
X007859Y003164D01*
X007947Y003128D01*
X008555Y003128D01*
X008643Y003164D01*
X008678Y003199D01*
X008719Y003188D01*
X008951Y003188D01*
X008951Y003615D01*
X009047Y003615D01*
X009047Y003711D01*
X008951Y003711D01*
X008951Y004138D01*
X008719Y004138D01*
X008678Y004127D01*
X008643Y004162D01*
X008611Y004175D01*
X008611Y004823D01*
X008616Y004835D01*
X008616Y004979D01*
X008561Y005111D01*
X008505Y005166D01*
X008563Y005224D01*
X008599Y005312D01*
X008599Y005526D01*
X008576Y005582D01*
X008576Y007661D01*
X009806Y008892D01*
X009896Y008982D01*
X009945Y009099D01*
X009945Y009890D01*
X013703Y006132D01*
X013532Y006203D01*
X012718Y006203D01*
X012519Y006121D01*
X012367Y005969D01*
X012285Y005770D01*
X012285Y005555D01*
X012367Y005357D01*
X012519Y005205D01*
X012621Y005163D01*
X012519Y005121D01*
X012381Y004983D01*
X012258Y004983D01*
X011625Y005615D01*
X011625Y005870D01*
X011332Y006163D01*
X010918Y006163D01*
X010625Y005870D01*
X010625Y005456D01*
X010918Y005163D01*
X011172Y005163D01*
X011172Y005163D01*
X010918Y005163D01*
X010625Y004870D01*
X010625Y004456D01*
X010918Y004163D01*
X011332Y004163D01*
X011625Y004456D01*
X011625Y004710D01*
X011944Y004392D01*
X012061Y004343D01*
X012381Y004343D01*
X012519Y004205D01*
X012704Y004128D01*
X012641Y004108D01*
X012573Y004073D01*
X012512Y004029D01*
X012459Y003976D01*
X012414Y003914D01*
X012380Y003847D01*
X012357Y003775D01*
X012345Y003701D01*
X012345Y003683D01*
X013105Y003683D01*
X013105Y003643D01*
X012345Y003643D01*
X012345Y003625D01*
X012357Y003550D01*
X012380Y003479D01*
X012414Y003411D01*
X012459Y003350D01*
X012512Y003297D01*
X012573Y003252D01*
X012641Y003218D01*
X012713Y003195D01*
X012787Y003183D01*
X013105Y003183D01*
X013105Y003643D01*
X013145Y003643D01*
X013145Y003683D01*
X013905Y003683D01*
X013905Y003701D01*
X013893Y003775D01*
X013870Y003847D01*
X013836Y003914D01*
X013791Y003976D01*
X013738Y004029D01*
X013677Y004073D01*
X013609Y004108D01*
X013546Y004128D01*
X013731Y004205D01*
X013883Y004357D01*
X013965Y004555D01*
X013965Y004770D01*
X013934Y004844D01*
X014177Y004602D01*
X014309Y004547D01*
X014891Y004547D01*
X014891Y004175D01*
X014859Y004162D01*
X014792Y004094D01*
X014755Y004006D01*
X014755Y003320D01*
X014792Y003232D01*
X014859Y003164D01*
X014947Y003128D01*
X015555Y003128D01*
X015643Y003164D01*
X015678Y003199D01*
X015719Y003188D01*
X015951Y003188D01*
X015951Y003615D01*
X016047Y003615D01*
X016047Y003711D01*
X015951Y003711D01*
X015951Y004138D01*
X015719Y004138D01*
X015678Y004127D01*
X015643Y004162D01*
X015611Y004175D01*
X015611Y004823D01*
X015616Y004835D01*
X015616Y004979D01*
X015561Y005111D01*
X015505Y005166D01*
X015563Y005224D01*
X015599Y005312D01*
X015599Y005526D01*
X015563Y005614D01*
X015495Y005681D01*
X015407Y005718D01*
X015370Y005718D01*
X015320Y005739D01*
X015002Y005739D01*
X010445Y010295D01*
X010445Y010390D01*
X014444Y006392D01*
X014561Y006343D01*
X021492Y006343D01*
X021936Y005899D01*
X021936Y005582D01*
X021913Y005526D01*
X021913Y005384D01*
X021430Y005867D01*
X021329Y005968D01*
X021197Y006023D01*
X020829Y006023D01*
X020731Y006121D01*
X020532Y006203D01*
X019718Y006203D01*
X019519Y006121D01*
X019367Y005969D01*
X019285Y005770D01*
X019285Y005555D01*
X019367Y005357D01*
X019519Y005205D01*
X019621Y005163D01*
X019519Y005121D01*
X019381Y004983D01*
X019258Y004983D01*
X018625Y005615D01*
X018625Y005870D01*
X018332Y006163D01*
X017918Y006163D01*
X017625Y005870D01*
X017625Y005456D01*
X017918Y005163D01*
X018172Y005163D01*
X018172Y005163D01*
X017918Y005163D01*
X017625Y004870D01*
X017625Y004456D01*
X017918Y004163D01*
X018332Y004163D01*
X018625Y004456D01*
X018625Y004710D01*
X018944Y004392D01*
X019061Y004343D01*
X019381Y004343D01*
X019519Y004205D01*
X019704Y004128D01*
X019641Y004108D01*
X019573Y004073D01*
X019512Y004029D01*
X019459Y003976D01*
X019414Y003914D01*
X019380Y003847D01*
X019357Y003775D01*
X019345Y003701D01*
X019345Y003683D01*
X020105Y003683D01*
X020105Y003643D01*
X019345Y003643D01*
X019345Y003625D01*
X019357Y003550D01*
X019380Y003479D01*
X019414Y003411D01*
X019459Y003350D01*
X019512Y003297D01*
X019573Y003252D01*
X019641Y003218D01*
X019713Y003195D01*
X019787Y003183D01*
X020105Y003183D01*
X020105Y003643D01*
X020145Y003643D01*
X020145Y003683D01*
X020905Y003683D01*
X020905Y003701D01*
X020893Y003775D01*
X020870Y003847D01*
X020836Y003914D01*
X020791Y003976D01*
X020738Y004029D01*
X020677Y004073D01*
X020609Y004108D01*
X020546Y004128D01*
X020731Y004205D01*
X020883Y004357D01*
X020965Y004555D01*
X020965Y004770D01*
X020883Y004969D01*
X020731Y005121D01*
X020629Y005163D01*
X020731Y005205D01*
X020829Y005303D01*
X020976Y005303D01*
X021677Y004602D01*
X021809Y004547D01*
X021896Y004547D01*
X021896Y004177D01*
X021859Y004162D01*
X021792Y004094D01*
X021755Y004006D01*
X021755Y003320D01*
X021792Y003232D01*
X021859Y003164D01*
X021947Y003128D01*
X022555Y003128D01*
X022643Y003164D01*
X022678Y003199D01*
X022719Y003188D01*
X022951Y003188D01*
X022951Y003615D01*
X023047Y003615D01*
X023047Y003711D01*
X022951Y003711D01*
X022951Y004138D01*
X022719Y004138D01*
X022678Y004127D01*
X022643Y004162D01*
X022616Y004173D01*
X022616Y004979D01*
X022561Y005111D01*
X022505Y005166D01*
X022563Y005224D01*
X022599Y005312D01*
X022599Y005526D01*
X022576Y005582D01*
X022576Y006096D01*
X022527Y006213D01*
X021898Y006843D01*
X028492Y006843D01*
X028936Y006399D01*
X028936Y005582D01*
X028913Y005526D01*
X028913Y005312D01*
X028931Y005267D01*
X028530Y005267D01*
X027921Y005876D01*
X027883Y005969D01*
X027731Y006121D01*
X027532Y006203D01*
X026718Y006203D01*
X026519Y006121D01*
X026367Y005969D01*
X026285Y005770D01*
X026285Y005555D01*
X026367Y005357D01*
X026519Y005205D01*
X026621Y005163D01*
X026519Y005121D01*
X026381Y004983D01*
X026258Y004983D01*
X025625Y005615D01*
X025625Y005870D01*
X025332Y006163D01*
X024918Y006163D01*
X024625Y005870D01*
X024625Y005456D01*
X024918Y005163D01*
X025172Y005163D01*
X025172Y005163D01*
X024918Y005163D01*
X024625Y004870D01*
X024625Y004456D01*
X024918Y004163D01*
X025332Y004163D01*
X025625Y004456D01*
X025625Y004710D01*
X025944Y004392D01*
X026061Y004343D01*
X026381Y004343D01*
X026519Y004205D01*
X026704Y004128D01*
X026641Y004108D01*
X026573Y004073D01*
X026512Y004029D01*
X026459Y003976D01*
X026414Y003914D01*
X026380Y003847D01*
X026357Y003775D01*
X026345Y003701D01*
X026345Y003683D01*
X027105Y003683D01*
X027105Y003643D01*
X026345Y003643D01*
X026345Y003625D01*
X026357Y003550D01*
X026380Y003479D01*
X026414Y003411D01*
X026459Y003350D01*
X026512Y003297D01*
X026573Y003252D01*
X026641Y003218D01*
X026713Y003195D01*
X026787Y003183D01*
X027105Y003183D01*
X027105Y003643D01*
X027145Y003643D01*
X027145Y003683D01*
X027905Y003683D01*
X027905Y003701D01*
X027893Y003775D01*
X027870Y003847D01*
X027836Y003914D01*
X027791Y003976D01*
X027738Y004029D01*
X027677Y004073D01*
X027609Y004108D01*
X027546Y004128D01*
X027731Y004205D01*
X027883Y004357D01*
X027965Y004555D01*
X027965Y004770D01*
X027934Y004844D01*
X028076Y004703D01*
X028177Y004602D01*
X028309Y004547D01*
X028891Y004547D01*
X028891Y004175D01*
X028859Y004162D01*
X028792Y004094D01*
X028755Y004006D01*
X028755Y003320D01*
X028792Y003232D01*
X028859Y003164D01*
X028947Y003128D01*
X029555Y003128D01*
X029643Y003164D01*
X029678Y003199D01*
X029719Y003188D01*
X029951Y003188D01*
X029951Y003615D01*
X030047Y003615D01*
X030047Y003711D01*
X029951Y003711D01*
X029951Y004138D01*
X029719Y004138D01*
X029678Y004127D01*
X029643Y004162D01*
X029611Y004175D01*
X029611Y004823D01*
X029616Y004835D01*
X029616Y004979D01*
X029561Y005111D01*
X029505Y005166D01*
X029563Y005224D01*
X029599Y005312D01*
X029599Y005526D01*
X029576Y005582D01*
X029576Y006596D01*
X029527Y006713D01*
X028898Y007343D01*
X035492Y007343D01*
X035936Y006899D01*
X035936Y005582D01*
X035913Y005526D01*
X035913Y005312D01*
X035931Y005267D01*
X035530Y005267D01*
X034921Y005876D01*
X034883Y005969D01*
X034731Y006121D01*
X034532Y006203D01*
X033718Y006203D01*
X033519Y006121D01*
X033367Y005969D01*
X033285Y005770D01*
X033285Y005555D01*
X033367Y005357D01*
X033519Y005205D01*
X033621Y005163D01*
X033519Y005121D01*
X033381Y004983D01*
X033258Y004983D01*
X032625Y005615D01*
X032625Y005870D01*
X032332Y006163D01*
X031918Y006163D01*
X031625Y005870D01*
X031625Y005456D01*
X031918Y005163D01*
X032172Y005163D01*
X032172Y005163D01*
X031918Y005163D01*
X031625Y004870D01*
X031625Y004456D01*
X031918Y004163D01*
X032332Y004163D01*
X032625Y004456D01*
X032625Y004710D01*
X032944Y004392D01*
X033061Y004343D01*
X033381Y004343D01*
X033519Y004205D01*
X033704Y004128D01*
X033641Y004108D01*
X033573Y004073D01*
X033512Y004029D01*
X033459Y003976D01*
X033414Y003914D01*
X033380Y003847D01*
X033357Y003775D01*
X033345Y003701D01*
X033345Y003683D01*
X034105Y003683D01*
X034105Y003643D01*
X033345Y003643D01*
X033345Y003625D01*
X033357Y003550D01*
X033380Y003479D01*
X033414Y003411D01*
X033459Y003350D01*
X033512Y003297D01*
X033573Y003252D01*
X033641Y003218D01*
X033713Y003195D01*
X033787Y003183D01*
X034105Y003183D01*
X034105Y003643D01*
X034145Y003643D01*
X034145Y003683D01*
X034905Y003683D01*
X034905Y003701D01*
X034893Y003775D01*
X034870Y003847D01*
X034836Y003914D01*
X034791Y003976D01*
X034738Y004029D01*
X034677Y004073D01*
X034609Y004108D01*
X034546Y004128D01*
X034731Y004205D01*
X034883Y004357D01*
X034965Y004555D01*
X034965Y004770D01*
X034934Y004844D01*
X035177Y004602D01*
X035309Y004547D01*
X035891Y004547D01*
X035891Y004175D01*
X035859Y004162D01*
X035792Y004094D01*
X035755Y004006D01*
X035755Y003320D01*
X035792Y003232D01*
X035859Y003164D01*
X035947Y003128D01*
X036555Y003128D01*
X036643Y003164D01*
X036678Y003199D01*
X036719Y003188D01*
X036951Y003188D01*
X036951Y003615D01*
X037047Y003615D01*
X037047Y003711D01*
X036951Y003711D01*
X036951Y004138D01*
X036719Y004138D01*
X036678Y004127D01*
X036643Y004162D01*
X036611Y004175D01*
X036611Y004823D01*
X036616Y004835D01*
X036616Y004979D01*
X036561Y005111D01*
X036505Y005166D01*
X036563Y005224D01*
X036599Y005312D01*
X036599Y005526D01*
X036576Y005582D01*
X036576Y007096D01*
X036527Y007213D01*
X035898Y007843D01*
X042492Y007843D01*
X042936Y007399D01*
X042936Y005582D01*
X042913Y005526D01*
X042913Y005312D01*
X042931Y005267D01*
X042530Y005267D01*
X041921Y005876D01*
X041883Y005969D01*
X041731Y006121D01*
X041532Y006203D01*
X040718Y006203D01*
X040519Y006121D01*
X040367Y005969D01*
X040285Y005770D01*
X040285Y005555D01*
X040367Y005357D01*
X040519Y005205D01*
X040621Y005163D01*
X040519Y005121D01*
X040381Y004983D01*
X040258Y004983D01*
X039625Y005615D01*
X039625Y005870D01*
X039332Y006163D01*
X038918Y006163D01*
X038625Y005870D01*
X038625Y005456D01*
X038918Y005163D01*
X039172Y005163D01*
X039172Y005163D01*
X038918Y005163D01*
X038625Y004870D01*
X038625Y004456D01*
X038918Y004163D01*
X039332Y004163D01*
X039625Y004456D01*
X039625Y004710D01*
X039944Y004392D01*
X040061Y004343D01*
X040381Y004343D01*
X040519Y004205D01*
X040704Y004128D01*
X040641Y004108D01*
X040573Y004073D01*
X040512Y004029D01*
X040459Y003976D01*
X040414Y003914D01*
X040380Y003847D01*
X040357Y003775D01*
X040345Y003701D01*
X040345Y003683D01*
X041105Y003683D01*
X041105Y003643D01*
X040345Y003643D01*
X040345Y003625D01*
X040357Y003550D01*
X040380Y003479D01*
X040414Y003411D01*
X040459Y003350D01*
X040512Y003297D01*
X040573Y003252D01*
X040641Y003218D01*
X040713Y003195D01*
X040787Y003183D01*
X041105Y003183D01*
X041105Y003643D01*
X041145Y003643D01*
X041145Y003683D01*
X041905Y003683D01*
X041905Y003701D01*
X041893Y003775D01*
X041870Y003847D01*
X041836Y003914D01*
X041791Y003976D01*
X041738Y004029D01*
X041677Y004073D01*
X041609Y004108D01*
X041546Y004128D01*
X041731Y004205D01*
X041883Y004357D01*
X041965Y004555D01*
X041965Y004770D01*
X041934Y004844D01*
X042177Y004602D01*
X042309Y004547D01*
X042891Y004547D01*
X042891Y004175D01*
X042859Y004162D01*
X042792Y004094D01*
X042755Y004006D01*
X042755Y003320D01*
X042792Y003232D01*
X042859Y003164D01*
X042947Y003128D01*
X043555Y003128D01*
X043643Y003164D01*
X043678Y003199D01*
X043719Y003188D01*
X043951Y003188D01*
X043951Y003615D01*
X044047Y003615D01*
X044047Y003711D01*
X043951Y003711D01*
X043951Y004138D01*
X043719Y004138D01*
X043678Y004127D01*
X043643Y004162D01*
X043611Y004175D01*
X043611Y004823D01*
X043616Y004835D01*
X043616Y004979D01*
X043561Y005111D01*
X043505Y005166D01*
X043563Y005224D01*
X043599Y005312D01*
X043599Y005526D01*
X043576Y005582D01*
X043576Y007596D01*
X043527Y007713D01*
X042898Y008343D01*
X048992Y008343D01*
X049536Y007799D01*
X049536Y005582D01*
X049513Y005526D01*
X049513Y005312D01*
X049531Y005267D01*
X049530Y005267D01*
X048921Y005876D01*
X048883Y005969D01*
X048731Y006121D01*
X048532Y006203D01*
X047718Y006203D01*
X047519Y006121D01*
X047367Y005969D01*
X047285Y005770D01*
X047285Y005555D01*
X047367Y005357D01*
X047519Y005205D01*
X047621Y005163D01*
X047519Y005121D01*
X047381Y004983D01*
X047258Y004983D01*
X046625Y005615D01*
X046625Y005870D01*
X046332Y006163D01*
X045918Y006163D01*
X045625Y005870D01*
X045625Y005456D01*
X045918Y005163D01*
X046172Y005163D01*
X046172Y005163D01*
X045918Y005163D01*
X045625Y004870D01*
X045625Y004456D01*
X045918Y004163D01*
X046332Y004163D01*
X046625Y004456D01*
X046625Y004710D01*
X046944Y004392D01*
X047061Y004343D01*
X047381Y004343D01*
X047519Y004205D01*
X047704Y004128D01*
X047641Y004108D01*
X047573Y004073D01*
X047512Y004029D01*
X047459Y003976D01*
X047414Y003914D01*
X047380Y003847D01*
X047357Y003775D01*
X047345Y003701D01*
X047345Y003683D01*
X048105Y003683D01*
X048105Y003643D01*
X047345Y003643D01*
X047345Y003625D01*
X047357Y003550D01*
X047380Y003479D01*
X047414Y003411D01*
X047459Y003350D01*
X047512Y003297D01*
X047573Y003252D01*
X047641Y003218D01*
X047713Y003195D01*
X047787Y003183D01*
X048105Y003183D01*
X048105Y003643D01*
X048145Y003643D01*
X048145Y003683D01*
X048905Y003683D01*
X048905Y003701D01*
X048893Y003775D01*
X048870Y003847D01*
X048836Y003914D01*
X048791Y003976D01*
X048738Y004029D01*
X048677Y004073D01*
X048609Y004108D01*
X048546Y004128D01*
X048731Y004205D01*
X048883Y004357D01*
X048965Y004555D01*
X048965Y004770D01*
X048934Y004844D01*
X049177Y004602D01*
X049309Y004547D01*
X049491Y004547D01*
X049491Y004175D01*
X049459Y004162D01*
X049392Y004094D01*
X049355Y004006D01*
X049355Y003320D01*
X049392Y003232D01*
X049459Y003164D01*
X049547Y003128D01*
X050155Y003128D01*
X050243Y003164D01*
X050278Y003199D01*
X050319Y003188D01*
X050551Y003188D01*
X050551Y003615D01*
X050647Y003615D01*
X050647Y003711D01*
X050551Y003711D01*
X050551Y004138D01*
X050319Y004138D01*
X050278Y004127D01*
X050243Y004162D01*
X050211Y004175D01*
X050211Y004823D01*
X050216Y004835D01*
X050216Y004979D01*
X050161Y005111D01*
X050105Y005166D01*
X050163Y005224D01*
X050199Y005312D01*
X050199Y005526D01*
X050176Y005582D01*
X050176Y007996D01*
X050127Y008113D01*
X049396Y008844D01*
X049306Y008934D01*
X049189Y008983D01*
X015758Y008983D01*
X014445Y010295D01*
X014445Y010314D01*
X014447Y010313D01*
X014803Y010313D01*
X014875Y010343D01*
X014947Y010313D01*
X015303Y010313D01*
X015391Y010349D01*
X015458Y010417D01*
X015495Y010505D01*
X015495Y010593D01*
X015765Y010593D01*
X015765Y010425D01*
X015652Y010312D01*
X015585Y010150D01*
X015585Y009975D01*
X015652Y009814D01*
X015776Y009690D01*
X015937Y009623D01*
X016113Y009623D01*
X016274Y009690D01*
X016398Y009814D01*
X016465Y009975D01*
X016465Y010043D01*
X016485Y010091D01*
X016485Y010614D01*
X016580Y010709D01*
X016664Y010793D01*
X016968Y010793D01*
X017056Y010829D01*
X017124Y010897D01*
X017160Y010985D01*
X017160Y011592D01*
X017124Y011681D01*
X017089Y011715D01*
X017100Y011757D01*
X017100Y011989D01*
X016673Y011989D01*
X016673Y012085D01*
X016577Y012085D01*
X016577Y012473D01*
X016306Y012473D01*
X016260Y012460D01*
X016219Y012437D01*
X016186Y012403D01*
X016162Y012362D01*
X016150Y012316D01*
X016150Y012085D01*
X016577Y012085D01*
X016577Y011989D01*
X016150Y011989D01*
X016150Y011757D01*
X016161Y011715D01*
X016126Y011681D01*
X016090Y011592D01*
X016090Y011313D01*
X015495Y011313D01*
X015495Y011401D01*
X015458Y011489D01*
X015391Y011556D01*
X015303Y011593D01*
X014947Y011593D01*
X014945Y011592D01*
X014945Y012734D01*
X014947Y012733D01*
X015303Y012733D01*
X015391Y012769D01*
X015458Y012837D01*
X015495Y012925D01*
X015495Y013821D01*
X015458Y013909D01*
X015445Y013922D01*
X015445Y014861D01*
X015498Y014914D01*
X015565Y015075D01*
X015565Y015250D01*
X015498Y015412D01*
X015374Y015536D01*
X015213Y015603D01*
X015037Y015603D01*
X014876Y015536D01*
X014752Y015412D01*
X014685Y015250D01*
X014685Y015075D01*
X014752Y014914D01*
X014805Y014861D01*
X014805Y014012D01*
X014803Y014013D01*
X014447Y014013D01*
X014445Y014012D01*
X014445Y015226D01*
X014396Y015344D01*
X014306Y015434D01*
X013806Y015934D01*
X013689Y015983D01*
X010061Y015983D01*
X009944Y015934D01*
X009354Y015344D01*
X009305Y015226D01*
X009305Y009295D01*
X007985Y007975D01*
X007936Y007857D01*
X007936Y005582D01*
X007913Y005526D01*
X007913Y005498D01*
X007874Y005536D01*
X007713Y005603D01*
X007537Y005603D01*
X007376Y005536D01*
X007252Y005412D01*
X007185Y005250D01*
X007185Y005075D01*
X007252Y004914D01*
X007376Y004790D01*
X007537Y004723D01*
X007556Y004723D01*
X007576Y004703D01*
X007677Y004602D01*
X007809Y004547D01*
X007891Y004547D01*
X007891Y004175D01*
X007859Y004162D01*
X007792Y004094D01*
X007755Y004006D01*
X007755Y003320D01*
X007792Y003232D01*
X007755Y003406D02*
X004680Y003406D01*
X004745Y003565D02*
X007755Y003565D01*
X007755Y003723D02*
X004774Y003723D01*
X004795Y003882D02*
X007755Y003882D01*
X007769Y004040D02*
X004816Y004040D01*
X004827Y004199D02*
X007891Y004199D01*
X007891Y004357D02*
X004806Y004357D01*
X004785Y004516D02*
X007891Y004516D01*
X007604Y004674D02*
X004764Y004674D01*
X004716Y004833D02*
X007333Y004833D01*
X007220Y004991D02*
X004650Y004991D01*
X004584Y005150D02*
X007185Y005150D01*
X007209Y005308D02*
X004504Y005308D01*
X004382Y005467D02*
X007307Y005467D01*
X007936Y005625D02*
X004261Y005625D01*
X004107Y005784D02*
X007936Y005784D01*
X007936Y005942D02*
X003900Y005942D01*
X003664Y006101D02*
X007936Y006101D01*
X007936Y006259D02*
X003281Y006259D01*
X001969Y006259D02*
X000625Y006259D01*
X000625Y006101D02*
X001586Y006101D01*
X001350Y005942D02*
X000625Y005942D01*
X000625Y005784D02*
X001143Y005784D01*
X001065Y005723D02*
X001065Y005723D01*
X000989Y005625D02*
X000625Y005625D01*
X000625Y005467D02*
X000868Y005467D01*
X000746Y005308D02*
X000625Y005308D01*
X000625Y005150D02*
X000666Y005150D01*
X000625Y006418D02*
X007936Y006418D01*
X007936Y006576D02*
X000625Y006576D01*
X000625Y006735D02*
X007936Y006735D01*
X007936Y006893D02*
X000625Y006893D01*
X000625Y007052D02*
X007936Y007052D01*
X007936Y007210D02*
X000625Y007210D01*
X000625Y007369D02*
X007936Y007369D01*
X007936Y007527D02*
X000625Y007527D01*
X000625Y007686D02*
X007936Y007686D01*
X007936Y007844D02*
X000625Y007844D01*
X000625Y008003D02*
X008012Y008003D01*
X008171Y008161D02*
X000625Y008161D01*
X000625Y008320D02*
X008329Y008320D01*
X008488Y008478D02*
X000625Y008478D01*
X000625Y008637D02*
X008646Y008637D01*
X008805Y008795D02*
X000625Y008795D01*
X000625Y008954D02*
X008963Y008954D01*
X009122Y009112D02*
X000625Y009112D01*
X000625Y009271D02*
X009280Y009271D01*
X009305Y009429D02*
X000625Y009429D01*
X000625Y009588D02*
X003546Y009588D01*
X003442Y009616D02*
X003714Y009543D01*
X003996Y009543D01*
X004268Y009616D01*
X004512Y009757D01*
X004711Y009956D01*
X004852Y010200D01*
X004925Y010472D01*
X004925Y010754D01*
X004852Y011026D01*
X004711Y011270D01*
X004512Y011469D01*
X004268Y011610D01*
X003996Y011683D01*
X003714Y011683D01*
X003442Y011610D01*
X003198Y011469D01*
X002999Y011270D01*
X002858Y011026D01*
X002785Y010754D01*
X002785Y010472D01*
X002858Y010200D01*
X002999Y009956D01*
X003198Y009757D01*
X003442Y009616D01*
X003216Y009746D02*
X000625Y009746D01*
X000625Y009905D02*
X003050Y009905D01*
X002937Y010063D02*
X000625Y010063D01*
X000625Y010222D02*
X002852Y010222D01*
X002810Y010380D02*
X000625Y010380D01*
X000625Y010539D02*
X002785Y010539D01*
X002785Y010697D02*
X000625Y010697D01*
X000625Y010856D02*
X002812Y010856D01*
X002855Y011014D02*
X000625Y011014D01*
X000625Y011173D02*
X002943Y011173D01*
X003060Y011331D02*
X000625Y011331D01*
X000625Y011490D02*
X003234Y011490D01*
X003585Y011648D02*
X000625Y011648D01*
X000625Y011807D02*
X005978Y011807D01*
X005912Y011965D02*
X000625Y011965D01*
X000625Y012124D02*
X005860Y012124D01*
X005860Y012282D02*
X000625Y012282D01*
X000625Y012441D02*
X005862Y012441D01*
X005879Y012599D02*
X000625Y012599D01*
X000625Y012758D02*
X005721Y012758D01*
X005562Y012916D02*
X004286Y012916D01*
X004540Y013075D02*
X005404Y013075D01*
X005245Y013233D02*
X004699Y013233D01*
X004796Y013392D02*
X005087Y013392D01*
X004928Y013550D02*
X004868Y013550D01*
X005630Y013867D02*
X005860Y013867D01*
X005873Y013709D02*
X005788Y013709D01*
X005860Y014026D02*
X005585Y014026D01*
X005585Y014184D02*
X005901Y014184D01*
X005967Y014343D02*
X005585Y014343D01*
X005673Y014501D02*
X006090Y014501D01*
X006268Y014660D02*
X005831Y014660D01*
X005990Y014818D02*
X009305Y014818D01*
X009305Y014660D02*
X007182Y014660D01*
X007360Y014501D02*
X009305Y014501D01*
X009305Y014343D02*
X007483Y014343D01*
X007549Y014184D02*
X009305Y014184D01*
X009305Y014026D02*
X007590Y014026D01*
X007590Y013867D02*
X009305Y013867D01*
X009305Y013709D02*
X007577Y013709D01*
X007511Y013550D02*
X009305Y013550D01*
X009305Y013392D02*
X007427Y013392D01*
X007269Y013233D02*
X009305Y013233D01*
X009305Y013075D02*
X007025Y013075D01*
X007295Y012916D02*
X009305Y012916D01*
X009305Y012758D02*
X007453Y012758D01*
X007522Y012599D02*
X009305Y012599D01*
X009305Y012441D02*
X007588Y012441D01*
X007590Y012282D02*
X009305Y012282D01*
X009305Y012124D02*
X007590Y012124D01*
X007538Y011965D02*
X009305Y011965D01*
X009305Y011807D02*
X007472Y011807D01*
X007334Y011648D02*
X009305Y011648D01*
X009305Y011490D02*
X007119Y011490D01*
X007090Y011331D02*
X009305Y011331D01*
X009305Y011173D02*
X007303Y011173D01*
X007423Y011014D02*
X009305Y011014D01*
X009305Y010856D02*
X007493Y010856D01*
X007526Y010697D02*
X009305Y010697D01*
X009305Y010539D02*
X006805Y010539D01*
X006805Y010380D02*
X006645Y010380D01*
X006645Y010222D02*
X006805Y010222D01*
X006805Y010063D02*
X006645Y010063D01*
X006645Y009905D02*
X006805Y009905D01*
X007109Y009905D02*
X009305Y009905D01*
X009305Y010063D02*
X007314Y010063D01*
X007429Y010222D02*
X009305Y010222D01*
X009305Y010380D02*
X007496Y010380D01*
X006645Y010539D02*
X004925Y010539D01*
X004925Y010697D02*
X005924Y010697D01*
X005957Y010856D02*
X004898Y010856D01*
X004855Y011014D02*
X006027Y011014D01*
X006147Y011173D02*
X004767Y011173D01*
X004650Y011331D02*
X006360Y011331D01*
X006331Y011490D02*
X004476Y011490D01*
X004125Y011648D02*
X006116Y011648D01*
X005954Y010380D02*
X004900Y010380D01*
X004858Y010222D02*
X006021Y010222D01*
X006136Y010063D02*
X004773Y010063D01*
X004660Y009905D02*
X006341Y009905D01*
X004494Y009746D02*
X009305Y009746D01*
X009305Y009588D02*
X004164Y009588D01*
X008256Y007794D02*
X009625Y009163D01*
X009625Y015163D01*
X010125Y015663D01*
X013625Y015663D01*
X014125Y015163D01*
X014125Y013373D01*
X013625Y013373D02*
X013625Y014663D01*
X013125Y015163D01*
X010625Y015163D01*
X010125Y014663D01*
X010125Y010163D01*
X014869Y005419D01*
X015256Y005419D01*
X015599Y005467D02*
X015711Y005467D01*
X015711Y005521D02*
X015711Y005360D01*
X015994Y005360D01*
X015994Y005677D01*
X015867Y005677D01*
X015821Y005665D01*
X015780Y005642D01*
X015747Y005608D01*
X015723Y005567D01*
X015711Y005521D01*
X015764Y005625D02*
X015551Y005625D01*
X015711Y005360D02*
X015711Y005198D01*
X015723Y005152D01*
X015728Y005143D01*
X015687Y005102D01*
X015651Y005014D01*
X015651Y004800D01*
X015687Y004712D01*
X015755Y004644D01*
X015839Y004610D01*
X016057Y004392D01*
X016175Y004343D01*
X016738Y004343D01*
X016918Y004163D01*
X017332Y004163D01*
X017625Y004456D01*
X017625Y004870D01*
X017332Y005163D01*
X016918Y005163D01*
X016738Y004983D01*
X016371Y004983D01*
X016336Y005018D01*
X016301Y005102D01*
X016260Y005143D01*
X016265Y005152D01*
X016277Y005198D01*
X016277Y005360D01*
X016277Y005521D01*
X016265Y005567D01*
X016241Y005608D01*
X016208Y005642D01*
X016167Y005665D01*
X016121Y005677D01*
X015994Y005677D01*
X015994Y005360D01*
X015994Y005360D01*
X015994Y005360D01*
X016277Y005360D01*
X015994Y005360D01*
X015994Y005360D01*
X015711Y005360D01*
X015711Y005308D02*
X015598Y005308D01*
X015522Y005150D02*
X015724Y005150D01*
X015651Y004991D02*
X015611Y004991D01*
X015615Y004833D02*
X015651Y004833D01*
X015611Y004674D02*
X015725Y004674D01*
X015611Y004516D02*
X015933Y004516D01*
X016140Y004357D02*
X015611Y004357D01*
X015611Y004199D02*
X016882Y004199D01*
X017368Y004199D02*
X017882Y004199D01*
X017943Y004103D02*
X017685Y003845D01*
X017685Y003663D01*
X018125Y003663D01*
X018125Y004103D01*
X017943Y004103D01*
X017880Y004040D02*
X016415Y004040D01*
X016423Y004028D02*
X016399Y004069D01*
X016365Y004102D01*
X016324Y004126D01*
X016279Y004138D01*
X016047Y004138D01*
X016047Y003711D01*
X016435Y003711D01*
X016435Y003982D01*
X016423Y004028D01*
X016435Y003882D02*
X017722Y003882D01*
X017685Y003723D02*
X016435Y003723D01*
X016435Y003615D02*
X016047Y003615D01*
X016047Y003188D01*
X016279Y003188D01*
X016324Y003200D01*
X016365Y003224D01*
X016399Y003257D01*
X016423Y003298D01*
X016435Y003344D01*
X016435Y003615D01*
X016435Y003565D02*
X017685Y003565D01*
X017685Y003481D02*
X017943Y003223D01*
X018125Y003223D01*
X018307Y003223D01*
X018565Y003481D01*
X018565Y003663D01*
X018565Y003845D01*
X018307Y004103D01*
X018125Y004103D01*
X018125Y003663D01*
X018125Y003663D01*
X018125Y003663D01*
X018565Y003663D01*
X018125Y003663D01*
X018125Y003663D01*
X017685Y003663D01*
X017685Y003481D01*
X017759Y003406D02*
X016435Y003406D01*
X016390Y003248D02*
X017918Y003248D01*
X018125Y003248D02*
X018125Y003248D01*
X018125Y003223D02*
X018125Y003663D01*
X018125Y003663D01*
X018125Y003223D01*
X018125Y003406D02*
X018125Y003406D01*
X018125Y003565D02*
X018125Y003565D01*
X018125Y003723D02*
X018125Y003723D01*
X018125Y003882D02*
X018125Y003882D01*
X018125Y004040D02*
X018125Y004040D01*
X018370Y004040D02*
X019528Y004040D01*
X019534Y004199D02*
X018368Y004199D01*
X018527Y004357D02*
X019026Y004357D01*
X018819Y004516D02*
X018625Y004516D01*
X018625Y004674D02*
X018661Y004674D01*
X019125Y004663D02*
X018125Y005663D01*
X017772Y005308D02*
X016277Y005308D01*
X016264Y005150D02*
X016905Y005150D01*
X016746Y004991D02*
X016362Y004991D01*
X016238Y004663D02*
X015994Y004907D01*
X016238Y004663D02*
X017125Y004663D01*
X017625Y004674D02*
X017625Y004674D01*
X017625Y004516D02*
X017625Y004516D01*
X017527Y004357D02*
X017723Y004357D01*
X017625Y004833D02*
X017625Y004833D01*
X017504Y004991D02*
X017746Y004991D01*
X017905Y005150D02*
X017345Y005150D01*
X017625Y005467D02*
X016277Y005467D01*
X016224Y005625D02*
X017625Y005625D01*
X017625Y005784D02*
X014957Y005784D01*
X014798Y005942D02*
X017697Y005942D01*
X017856Y006101D02*
X014640Y006101D01*
X014481Y006259D02*
X021576Y006259D01*
X021734Y006101D02*
X020751Y006101D01*
X021355Y005942D02*
X021893Y005942D01*
X021936Y005784D02*
X021513Y005784D01*
X021430Y005867D02*
X021430Y005867D01*
X021672Y005625D02*
X021936Y005625D01*
X021913Y005467D02*
X021830Y005467D01*
X022256Y005419D02*
X022256Y006032D01*
X021625Y006663D01*
X014625Y006663D01*
X010625Y010663D01*
X010625Y014163D01*
X011125Y014663D01*
X012625Y014663D01*
X013125Y014163D01*
X013125Y013373D01*
X012805Y014012D02*
X012803Y014013D01*
X012447Y014013D01*
X012359Y013976D01*
X012324Y013941D01*
X012279Y013953D01*
X012125Y013953D01*
X011971Y013953D01*
X011926Y013941D01*
X011884Y013917D01*
X011851Y013883D01*
X011827Y013842D01*
X011815Y013797D01*
X011815Y013373D01*
X012125Y013373D01*
X012125Y013953D01*
X012125Y013373D01*
X012125Y013373D01*
X012125Y013373D01*
X011815Y013373D01*
X011815Y012949D01*
X011827Y012903D01*
X011851Y012862D01*
X011884Y012829D01*
X011926Y012805D01*
X011971Y012793D01*
X012125Y012793D01*
X012279Y012793D01*
X012324Y012805D01*
X012359Y012769D01*
X012447Y012733D01*
X012803Y012733D01*
X012875Y012763D01*
X012947Y012733D01*
X013303Y012733D01*
X013375Y012763D01*
X013447Y012733D01*
X013803Y012733D01*
X013875Y012763D01*
X013947Y012733D01*
X014303Y012733D01*
X014305Y012734D01*
X014305Y011592D01*
X014303Y011593D01*
X013947Y011593D01*
X013875Y011563D01*
X013803Y011593D01*
X013447Y011593D01*
X013375Y011563D01*
X013303Y011593D01*
X012947Y011593D01*
X012875Y011563D01*
X012803Y011593D01*
X012447Y011593D01*
X012375Y011563D01*
X012303Y011593D01*
X011947Y011593D01*
X011859Y011556D01*
X011792Y011489D01*
X011755Y011401D01*
X011755Y010505D01*
X011792Y010417D01*
X011859Y010349D01*
X011947Y010313D01*
X012303Y010313D01*
X012305Y010314D01*
X012305Y010099D01*
X012354Y009982D01*
X012444Y009892D01*
X015352Y006983D01*
X014758Y006983D01*
X010945Y010795D01*
X010945Y014030D01*
X011258Y014343D01*
X012492Y014343D01*
X012805Y014030D01*
X012805Y014012D01*
X012805Y014026D02*
X010945Y014026D01*
X010945Y013867D02*
X011842Y013867D01*
X011815Y013709D02*
X010945Y013709D01*
X010945Y013550D02*
X011815Y013550D01*
X011815Y013392D02*
X010945Y013392D01*
X010945Y013233D02*
X011815Y013233D01*
X011815Y013075D02*
X010945Y013075D01*
X010945Y012916D02*
X011824Y012916D01*
X012125Y012916D02*
X012125Y012916D01*
X012125Y012793D02*
X012125Y013373D01*
X012125Y013373D01*
X012125Y012793D01*
X012387Y012758D02*
X010945Y012758D01*
X010945Y012599D02*
X014305Y012599D01*
X014305Y012441D02*
X010945Y012441D01*
X010945Y012282D02*
X014305Y012282D01*
X014305Y012124D02*
X010945Y012124D01*
X010945Y011965D02*
X014305Y011965D01*
X014305Y011807D02*
X010945Y011807D01*
X010945Y011648D02*
X014305Y011648D01*
X014945Y011648D02*
X016113Y011648D01*
X016090Y011490D02*
X015457Y011490D01*
X015495Y011331D02*
X016090Y011331D01*
X016235Y010953D02*
X016275Y010913D01*
X016125Y010789D02*
X016125Y010763D01*
X016485Y010539D02*
X019505Y010539D01*
X019505Y010697D02*
X016569Y010697D01*
X016485Y010380D02*
X019505Y010380D01*
X019505Y010222D02*
X016485Y010222D01*
X016473Y010063D02*
X019572Y010063D01*
X019554Y010082D02*
X020085Y009550D01*
X020085Y009339D01*
X020401Y009023D01*
X020849Y009023D01*
X021125Y009299D01*
X021401Y009023D01*
X021849Y009023D01*
X022125Y009299D01*
X022401Y009023D01*
X022849Y009023D01*
X023125Y009299D01*
X023401Y009023D01*
X023849Y009023D01*
X024125Y009299D01*
X024401Y009023D01*
X024849Y009023D01*
X025165Y009339D01*
X025165Y009344D01*
X025426Y009083D01*
X025605Y009083D01*
X025605Y009543D01*
X025645Y009543D01*
X025645Y009083D01*
X025824Y009083D01*
X026085Y009344D01*
X026085Y009339D01*
X026401Y009023D01*
X026849Y009023D01*
X027125Y009299D01*
X027401Y009023D01*
X027849Y009023D01*
X028125Y009299D01*
X028401Y009023D01*
X028849Y009023D01*
X029125Y009299D01*
X029401Y009023D01*
X029849Y009023D01*
X030125Y009299D01*
X030401Y009023D01*
X030849Y009023D01*
X031125Y009299D01*
X031401Y009023D01*
X031849Y009023D01*
X032125Y009299D01*
X032401Y009023D01*
X032849Y009023D01*
X033125Y009299D01*
X033401Y009023D01*
X033849Y009023D01*
X034165Y009339D01*
X034165Y009344D01*
X034426Y009083D01*
X034605Y009083D01*
X034605Y009543D01*
X034645Y009543D01*
X034645Y009083D01*
X034824Y009083D01*
X035085Y009344D01*
X035085Y009339D01*
X035401Y009023D01*
X035849Y009023D01*
X036125Y009299D01*
X036401Y009023D01*
X036849Y009023D01*
X037125Y009299D01*
X037401Y009023D01*
X037849Y009023D01*
X038125Y009299D01*
X038401Y009023D01*
X038849Y009023D01*
X039125Y009299D01*
X039401Y009023D01*
X039849Y009023D01*
X040165Y009339D01*
X040165Y009650D01*
X040506Y009992D01*
X040596Y010082D01*
X040645Y010199D01*
X040645Y022230D01*
X044006Y025592D01*
X044096Y025682D01*
X044145Y025799D01*
X044145Y029826D01*
X044096Y029944D01*
X041245Y032795D01*
X041245Y036461D01*
X041298Y036514D01*
X041365Y036675D01*
X041365Y036850D01*
X041885Y036850D01*
X041885Y036675D01*
X041952Y036514D01*
X042005Y036461D01*
X042005Y034325D01*
X042005Y034324D01*
X042005Y034262D01*
X042005Y034199D01*
X042005Y034198D01*
X042005Y034197D01*
X042030Y034139D01*
X042054Y034082D01*
X042054Y034081D01*
X042055Y034080D01*
X042099Y034036D01*
X042144Y033992D01*
X042145Y033991D01*
X050099Y026136D01*
X050144Y026092D01*
X050145Y026091D01*
X050145Y026090D01*
X050203Y026067D01*
X050261Y026043D01*
X050262Y026043D01*
X050263Y026042D01*
X050326Y026043D01*
X051141Y026043D01*
X050885Y025786D01*
X050885Y025339D01*
X051161Y025063D01*
X050885Y024786D01*
X050885Y024351D01*
X050844Y024334D01*
X050611Y024101D01*
X050538Y024101D01*
X050377Y024034D01*
X050254Y023911D01*
X050187Y023750D01*
X050187Y023576D01*
X050254Y023415D01*
X050377Y023291D01*
X050538Y023225D01*
X050712Y023225D01*
X050750Y023240D01*
X050611Y023101D01*
X050538Y023101D01*
X050377Y023034D01*
X050254Y022911D01*
X050187Y022750D01*
X050187Y022576D01*
X050254Y022415D01*
X050377Y022291D01*
X050538Y022225D01*
X050712Y022225D01*
X050750Y022240D01*
X050611Y022101D01*
X050538Y022101D01*
X050377Y022034D01*
X050254Y021911D01*
X050187Y021750D01*
X050187Y021576D01*
X050254Y021415D01*
X050377Y021291D01*
X050538Y021225D01*
X050712Y021225D01*
X050750Y021240D01*
X050611Y021101D01*
X050538Y021101D01*
X050377Y021034D01*
X050254Y020911D01*
X050187Y020750D01*
X050187Y020576D01*
X050254Y020415D01*
X050377Y020291D01*
X050538Y020225D01*
X050712Y020225D01*
X050873Y020291D01*
X050903Y020321D01*
X050967Y020257D01*
X048854Y018144D01*
X048805Y018026D01*
X048805Y009599D01*
X048854Y009482D01*
X050354Y007982D01*
X050444Y007892D01*
X050561Y007843D01*
X050996Y007843D01*
X050721Y007568D01*
X050620Y007467D01*
X050565Y007334D01*
X050565Y006325D01*
X050552Y006312D01*
X050485Y006150D01*
X050485Y005975D01*
X050552Y005814D01*
X050676Y005690D01*
X050706Y005677D01*
X050594Y005677D01*
X050467Y005677D01*
X050421Y005665D01*
X050380Y005642D01*
X050347Y005608D01*
X050323Y005567D01*
X050311Y005521D01*
X050311Y005360D01*
X050594Y005360D01*
X050594Y005677D01*
X050594Y005360D01*
X050594Y005360D01*
X050594Y005360D01*
X050877Y005360D01*
X050877Y005521D01*
X050865Y005567D01*
X050841Y005608D01*
X050819Y005630D01*
X050837Y005623D01*
X051013Y005623D01*
X051174Y005690D01*
X051298Y005814D01*
X051365Y005975D01*
X051365Y006150D01*
X051298Y006312D01*
X051285Y006325D01*
X051285Y007114D01*
X051574Y007403D01*
X058597Y007403D01*
X058729Y007458D01*
X059029Y007758D01*
X059029Y007758D01*
X059130Y007859D01*
X059185Y007991D01*
X059185Y013334D01*
X059130Y013467D01*
X059029Y013568D01*
X059029Y013568D01*
X058830Y013767D01*
X058729Y013868D01*
X058597Y013923D01*
X058229Y013923D01*
X058049Y014103D01*
X057601Y014103D01*
X057285Y013786D01*
X057285Y013782D01*
X057024Y014043D01*
X056845Y014043D01*
X056845Y013583D01*
X056805Y013583D01*
X056805Y014043D01*
X056626Y014043D01*
X056345Y013762D01*
X056345Y013583D01*
X056805Y013583D01*
X056805Y013543D01*
X056345Y013543D01*
X056345Y013364D01*
X056606Y013103D01*
X056601Y013103D01*
X056381Y012883D01*
X055961Y012883D01*
X055844Y012834D01*
X054992Y011983D01*
X053061Y011983D01*
X052944Y011934D01*
X052111Y011101D01*
X052038Y011101D01*
X051877Y011034D01*
X051754Y010911D01*
X051687Y010750D01*
X051687Y010576D01*
X051703Y010538D01*
X050945Y011295D01*
X050945Y013279D01*
X051201Y013023D01*
X051649Y013023D01*
X051925Y013299D01*
X052201Y013023D01*
X052649Y013023D01*
X052965Y013339D01*
X052965Y013786D01*
X052689Y014063D01*
X052965Y014339D01*
X052965Y014343D01*
X056925Y014343D01*
X056977Y014291D01*
X057138Y014225D01*
X057312Y014225D01*
X057473Y014291D01*
X057596Y014415D01*
X057663Y014576D01*
X057663Y014750D01*
X057596Y014911D01*
X057473Y015034D01*
X057312Y015101D01*
X057138Y015101D01*
X056977Y015034D01*
X056925Y014983D01*
X052769Y014983D01*
X052689Y015063D01*
X052869Y015243D01*
X057825Y015243D01*
X057877Y015191D01*
X058038Y015125D01*
X058212Y015125D01*
X058373Y015191D01*
X058496Y015315D01*
X058563Y015476D01*
X058563Y015650D01*
X058496Y015811D01*
X058373Y015934D01*
X058212Y016001D01*
X058038Y016001D01*
X057877Y015934D01*
X057825Y015883D01*
X052869Y015883D01*
X052689Y016063D01*
X052869Y016243D01*
X056989Y016243D01*
X057106Y016292D01*
X059096Y018282D01*
X059145Y018399D01*
X059145Y028626D01*
X059096Y028744D01*
X059006Y028834D01*
X047006Y040834D01*
X046889Y040883D01*
X020361Y040883D01*
X020244Y040834D01*
X017244Y037834D01*
X017154Y037744D01*
X017105Y037626D01*
X017105Y037065D01*
X017052Y037012D01*
X016985Y036850D01*
X015266Y036850D01*
X015270Y036841D02*
X015134Y037169D01*
X014883Y037420D01*
X014555Y037556D01*
X014199Y037556D01*
X013871Y037420D01*
X013620Y037169D01*
X013484Y036841D01*
X013484Y036485D01*
X013620Y036157D01*
X013871Y035905D01*
X014199Y035769D01*
X014555Y035769D01*
X014883Y035905D01*
X015134Y036157D01*
X015270Y036485D01*
X015270Y036841D01*
X015270Y036691D02*
X016985Y036691D01*
X016985Y036675D02*
X017052Y036514D01*
X017176Y036390D01*
X017337Y036323D01*
X017513Y036323D01*
X017543Y036335D01*
X017552Y036314D01*
X017676Y036190D01*
X017837Y036123D01*
X018013Y036123D01*
X018174Y036190D01*
X018298Y036314D01*
X018307Y036335D01*
X018337Y036323D01*
X018513Y036323D01*
X018543Y036335D01*
X018552Y036314D01*
X018676Y036190D01*
X018837Y036123D01*
X019013Y036123D01*
X019174Y036190D01*
X019298Y036314D01*
X019307Y036335D01*
X019337Y036323D01*
X019513Y036323D01*
X019543Y036335D01*
X019552Y036314D01*
X019676Y036190D01*
X019837Y036123D01*
X020013Y036123D01*
X020174Y036190D01*
X020298Y036314D01*
X020365Y036475D01*
X020365Y036650D01*
X020298Y036812D01*
X020245Y036865D01*
X020245Y037123D01*
X021350Y038143D01*
X045192Y038143D01*
X045779Y037556D01*
X045695Y037556D01*
X045367Y037420D01*
X045116Y037169D01*
X044980Y036841D01*
X044980Y036485D01*
X045116Y036157D01*
X045367Y035905D01*
X045695Y035769D01*
X046051Y035769D01*
X046379Y035905D01*
X046630Y036157D01*
X046766Y036485D01*
X046766Y036569D01*
X055605Y027730D01*
X055605Y019562D01*
X055554Y019511D01*
X055487Y019350D01*
X055487Y019176D01*
X055554Y019015D01*
X055677Y018891D01*
X055838Y018825D01*
X056012Y018825D01*
X056173Y018891D01*
X056296Y019015D01*
X056363Y019176D01*
X056363Y019350D01*
X056360Y019357D01*
X056438Y019325D01*
X056612Y019325D01*
X056773Y019391D01*
X056875Y019493D01*
X056977Y019391D01*
X057138Y019325D01*
X057312Y019325D01*
X057473Y019391D01*
X057505Y019423D01*
X057505Y018546D01*
X057477Y018534D01*
X057354Y018411D01*
X057287Y018250D01*
X057287Y018076D01*
X057354Y017915D01*
X057477Y017791D01*
X057635Y017726D01*
X056792Y016883D01*
X052869Y016883D01*
X052689Y017063D01*
X052965Y017339D01*
X052965Y017786D01*
X052689Y018063D01*
X052965Y018339D01*
X052965Y018786D01*
X052689Y019063D01*
X052965Y019339D01*
X052965Y019786D01*
X052689Y020063D01*
X052965Y020339D01*
X052965Y020786D01*
X052689Y021063D01*
X052869Y021243D01*
X053889Y021243D01*
X054006Y021292D01*
X054096Y021382D01*
X054896Y022182D01*
X054945Y022299D01*
X054945Y027326D01*
X054896Y027444D01*
X054806Y027534D01*
X054206Y028134D01*
X054089Y028183D01*
X050658Y028183D01*
X044245Y034595D01*
X044245Y036263D01*
X044296Y036315D01*
X044363Y036476D01*
X044363Y036650D01*
X044296Y036811D01*
X044173Y036934D01*
X044012Y037001D01*
X043838Y037001D01*
X043806Y036988D01*
X043796Y037011D01*
X043673Y037134D01*
X043512Y037201D01*
X043338Y037201D01*
X043177Y037134D01*
X043054Y037011D01*
X043030Y036954D01*
X042913Y037003D01*
X042737Y037003D01*
X042707Y036990D01*
X042698Y037012D01*
X042574Y037136D01*
X042413Y037203D01*
X042237Y037203D01*
X042076Y037136D01*
X041952Y037012D01*
X041885Y036850D01*
X041885Y036691D02*
X041365Y036691D01*
X041365Y036850D02*
X041298Y037012D01*
X041174Y037136D01*
X041013Y037203D01*
X040837Y037203D01*
X040676Y037136D01*
X040552Y037012D01*
X040528Y036955D01*
X040413Y037003D01*
X040237Y037003D01*
X040207Y036990D01*
X040198Y037012D01*
X040074Y037136D01*
X039913Y037203D01*
X039737Y037203D01*
X039576Y037136D01*
X039452Y037012D01*
X039443Y036990D01*
X039413Y037003D01*
X039343Y037003D01*
X039298Y037112D01*
X039174Y037236D01*
X039013Y037303D01*
X038837Y037303D01*
X038676Y037236D01*
X038552Y037112D01*
X038507Y037003D01*
X038337Y037003D01*
X038176Y036936D01*
X038052Y036812D01*
X037985Y036650D01*
X037985Y036475D01*
X038052Y036314D01*
X038105Y036261D01*
X038105Y031935D01*
X037745Y032295D01*
X037745Y036561D01*
X037798Y036614D01*
X037865Y036775D01*
X037865Y036950D01*
X037798Y037112D01*
X037674Y037236D01*
X037513Y037303D01*
X037337Y037303D01*
X037176Y037236D01*
X037052Y037112D01*
X037007Y037003D01*
X036843Y037003D01*
X036798Y037112D01*
X036674Y037236D01*
X036513Y037303D01*
X036337Y037303D01*
X036176Y037236D01*
X036052Y037112D01*
X036007Y037003D01*
X035843Y037003D01*
X035798Y037112D01*
X035674Y037236D01*
X035513Y037303D01*
X035337Y037303D01*
X035176Y037236D01*
X035052Y037112D01*
X035007Y037003D01*
X034837Y037003D01*
X034676Y036936D01*
X034552Y036812D01*
X034485Y036650D01*
X034485Y036475D01*
X034552Y036314D01*
X034605Y036261D01*
X034605Y030370D01*
X034603Y030313D01*
X034605Y030306D01*
X034605Y030299D01*
X034627Y030247D01*
X034646Y030194D01*
X034651Y030188D01*
X034654Y030182D01*
X034694Y030141D01*
X036471Y028203D01*
X036401Y028203D01*
X036369Y028171D01*
X034245Y030295D01*
X034245Y036561D01*
X034298Y036614D01*
X034365Y036775D01*
X034365Y036950D01*
X034298Y037112D01*
X034174Y037236D01*
X034013Y037303D01*
X033837Y037303D01*
X033676Y037236D01*
X033552Y037112D01*
X033507Y037003D01*
X033343Y037003D01*
X033298Y037112D01*
X033174Y037236D01*
X033013Y037303D01*
X032837Y037303D01*
X032676Y037236D01*
X032552Y037112D01*
X032507Y037003D01*
X032343Y037003D01*
X032298Y037112D01*
X032174Y037236D01*
X032013Y037303D01*
X031837Y037303D01*
X031676Y037236D01*
X031552Y037112D01*
X031493Y036970D01*
X031413Y037003D01*
X031237Y037003D01*
X031076Y036936D01*
X030952Y036812D01*
X030885Y036650D01*
X030885Y036475D01*
X030952Y036314D01*
X031005Y036261D01*
X031005Y028295D01*
X030944Y028234D01*
X030881Y028171D01*
X030849Y028203D01*
X030605Y028203D01*
X030609Y028211D01*
X030627Y028238D01*
X030633Y028270D01*
X030645Y028299D01*
X030645Y028331D01*
X030651Y028363D01*
X030645Y028395D01*
X030645Y036561D01*
X030698Y036614D01*
X030765Y036775D01*
X030765Y036950D01*
X030698Y037112D01*
X030574Y037236D01*
X030413Y037303D01*
X030237Y037303D01*
X030076Y037236D01*
X029952Y037112D01*
X029907Y037003D01*
X029743Y037003D01*
X029698Y037112D01*
X029574Y037236D01*
X029413Y037303D01*
X029237Y037303D01*
X029076Y037236D01*
X028952Y037112D01*
X028907Y037003D01*
X028743Y037003D01*
X028698Y037112D01*
X028574Y037236D01*
X028413Y037303D01*
X028237Y037303D01*
X028076Y037236D01*
X027952Y037112D01*
X027907Y037003D01*
X027737Y037003D01*
X027576Y036936D01*
X027452Y036812D01*
X027385Y036650D01*
X027385Y036475D01*
X027452Y036314D01*
X027505Y036261D01*
X027505Y030995D01*
X027200Y030690D01*
X027218Y030735D01*
X027242Y030787D01*
X027243Y030794D01*
X027245Y030799D01*
X027245Y030857D01*
X027247Y030915D01*
X027245Y030920D01*
X027245Y036561D01*
X027298Y036614D01*
X027365Y036775D01*
X027365Y036950D01*
X027298Y037112D01*
X027174Y037236D01*
X027013Y037303D01*
X026837Y037303D01*
X026676Y037236D01*
X026552Y037112D01*
X026493Y036970D01*
X026413Y037003D01*
X026243Y037003D01*
X026198Y037112D01*
X026074Y037236D01*
X025913Y037303D01*
X025737Y037303D01*
X025576Y037236D01*
X025452Y037112D01*
X025407Y037003D01*
X025243Y037003D01*
X025198Y037112D01*
X025074Y037236D01*
X024913Y037303D01*
X024737Y037303D01*
X024576Y037236D01*
X024452Y037112D01*
X024407Y037003D01*
X024237Y037003D01*
X024076Y036936D01*
X023952Y036812D01*
X023885Y036650D01*
X023885Y036475D01*
X023952Y036314D01*
X024005Y036261D01*
X024005Y032995D01*
X023745Y032735D01*
X023745Y036461D01*
X023798Y036514D01*
X023865Y036675D01*
X023865Y036850D01*
X023990Y036850D01*
X023865Y036850D02*
X023798Y037012D01*
X023674Y037136D01*
X023513Y037203D01*
X023337Y037203D01*
X023176Y037136D01*
X023052Y037012D01*
X023043Y036990D01*
X023013Y037003D01*
X022843Y037003D01*
X022798Y037112D01*
X022674Y037236D01*
X022513Y037303D01*
X022337Y037303D01*
X022176Y037236D01*
X022052Y037112D01*
X022007Y037003D01*
X021843Y037003D01*
X021798Y037112D01*
X021674Y037236D01*
X021513Y037303D01*
X021337Y037303D01*
X021176Y037236D01*
X021052Y037112D01*
X021007Y037003D01*
X020837Y037003D01*
X020676Y036936D01*
X020552Y036812D01*
X020485Y036650D01*
X020485Y036475D01*
X020552Y036314D01*
X020605Y036261D01*
X020605Y034495D01*
X016345Y030235D01*
X016345Y032926D01*
X016296Y033044D01*
X016206Y033134D01*
X012780Y036560D01*
X012663Y036609D01*
X007722Y036609D01*
X007717Y036622D01*
X007650Y036689D01*
X007627Y036699D01*
X007658Y036729D01*
X007681Y036771D01*
X007694Y036816D01*
X007694Y037018D01*
X007256Y037018D01*
X007256Y037055D01*
X007220Y037055D01*
X007220Y037414D01*
X006939Y037414D01*
X006893Y037401D01*
X006852Y037378D01*
X006818Y037344D01*
X006795Y037303D01*
X006782Y037257D01*
X006782Y037055D01*
X007220Y037055D01*
X007220Y037018D01*
X006782Y037018D01*
X006782Y036816D01*
X006795Y036771D01*
X006818Y036729D01*
X006849Y036699D01*
X006826Y036689D01*
X006759Y036622D01*
X006728Y036546D01*
X006728Y036907D01*
X006691Y036996D01*
X006624Y037063D01*
X006535Y037100D01*
X005889Y037100D01*
X005800Y037063D01*
X005733Y036996D01*
X005728Y036983D01*
X004461Y036983D01*
X004344Y036934D01*
X003812Y036403D01*
X003501Y036403D01*
X003225Y036126D01*
X002949Y036403D01*
X002501Y036403D01*
X002321Y036223D01*
X002040Y036223D01*
X002022Y036265D01*
X001955Y036332D01*
X001866Y036369D01*
X000984Y036369D01*
X000895Y036332D01*
X000828Y036265D01*
X000791Y036177D01*
X000791Y035451D01*
X000828Y035363D01*
X000895Y035296D01*
X000974Y035263D01*
X000895Y035230D01*
X000828Y035163D01*
X000791Y035074D01*
X000791Y034349D01*
X000828Y034261D01*
X000895Y034193D01*
X000984Y034157D01*
X001065Y034157D01*
X001065Y033291D01*
X001120Y033159D01*
X001820Y032459D01*
X001921Y032358D01*
X002053Y032303D01*
X002301Y032303D01*
X002085Y032086D01*
X002085Y031639D01*
X002361Y031363D01*
X002085Y031086D01*
X002085Y030639D01*
X002361Y030363D01*
X002085Y030086D01*
X002085Y029639D01*
X002361Y029363D01*
X002085Y029086D01*
X002085Y028639D01*
X002401Y028323D01*
X002849Y028323D01*
X003165Y028639D01*
X003165Y028644D01*
X003426Y028383D01*
X003605Y028383D01*
X003605Y028843D01*
X003645Y028843D01*
X003645Y028883D01*
X003605Y028883D01*
X003605Y029343D01*
X003426Y029343D01*
X003165Y029082D01*
X003165Y029086D01*
X002889Y029363D01*
X003165Y029639D01*
X003165Y029644D01*
X003426Y029383D01*
X003605Y029383D01*
X003605Y029843D01*
X003645Y029843D01*
X003645Y029883D01*
X004105Y029883D01*
X004105Y030062D01*
X003844Y030323D01*
X003849Y030323D01*
X004165Y030639D01*
X004165Y031086D01*
X003889Y031363D01*
X004165Y031639D01*
X004165Y032086D01*
X003849Y032403D01*
X003474Y032403D01*
X003900Y032829D01*
X004039Y032829D01*
X004127Y032866D01*
X004195Y032933D01*
X004231Y033021D01*
X004231Y033103D01*
X004865Y033103D01*
X004877Y033091D01*
X005038Y033025D01*
X005212Y033025D01*
X005373Y033091D01*
X005496Y033215D01*
X005563Y033376D01*
X005563Y033550D01*
X005496Y033711D01*
X005373Y033834D01*
X005212Y033901D01*
X005038Y033901D01*
X004877Y033834D01*
X004865Y033823D01*
X004231Y033823D01*
X004231Y033904D01*
X004195Y033992D01*
X004127Y034060D01*
X004039Y034097D01*
X003313Y034097D01*
X003225Y034060D01*
X003158Y033992D01*
X003125Y033913D01*
X003092Y033992D01*
X003025Y034060D01*
X002937Y034097D01*
X002934Y034097D01*
X002934Y034323D01*
X002949Y034323D01*
X003225Y034599D01*
X003501Y034323D01*
X003949Y034323D01*
X003969Y034343D01*
X005728Y034343D01*
X005733Y034330D01*
X005800Y034263D01*
X005889Y034226D01*
X006535Y034226D01*
X006624Y034263D01*
X006691Y034330D01*
X006722Y034406D01*
X006722Y034044D01*
X006759Y033956D01*
X006826Y033888D01*
X006915Y033852D01*
X007239Y033852D01*
X007261Y033843D01*
X007389Y033843D01*
X007411Y033852D01*
X007561Y033852D01*
X007650Y033888D01*
X007717Y033956D01*
X007722Y033969D01*
X013866Y033969D01*
X015305Y032530D01*
X015305Y024599D01*
X015323Y024555D01*
X015212Y024601D01*
X015038Y024601D01*
X014877Y024534D01*
X014754Y024411D01*
X014687Y024250D01*
X014687Y024076D01*
X014754Y023915D01*
X014805Y023863D01*
X014805Y023462D01*
X014754Y023411D01*
X014687Y023250D01*
X014687Y023076D01*
X014754Y022915D01*
X014877Y022791D01*
X015038Y022725D01*
X015212Y022725D01*
X015373Y022791D01*
X015496Y022915D01*
X015563Y023076D01*
X015563Y023250D01*
X015496Y023411D01*
X015445Y023462D01*
X015445Y023863D01*
X015496Y023915D01*
X015563Y024076D01*
X015563Y024250D01*
X015547Y024288D01*
X019505Y020330D01*
X019505Y010199D01*
X019554Y010082D01*
X019730Y009905D02*
X016436Y009905D01*
X016331Y009746D02*
X019889Y009746D01*
X020047Y009588D02*
X015153Y009588D01*
X015311Y009429D02*
X020085Y009429D01*
X020153Y009271D02*
X015470Y009271D01*
X015628Y009112D02*
X020312Y009112D01*
X020525Y009563D02*
X020625Y009563D01*
X021125Y010063D01*
X021125Y020663D01*
X016525Y025263D01*
X016525Y029163D01*
X021425Y034063D01*
X021425Y036863D01*
X021107Y037167D02*
X020293Y037167D01*
X020245Y037008D02*
X021009Y037008D01*
X020590Y036850D02*
X020260Y036850D01*
X020348Y036691D02*
X020502Y036691D01*
X020485Y036533D02*
X020365Y036533D01*
X020323Y036374D02*
X020527Y036374D01*
X020605Y036216D02*
X020200Y036216D01*
X020605Y036057D02*
X015035Y036057D01*
X015159Y036216D02*
X017650Y036216D01*
X017925Y036563D02*
X017925Y037463D01*
X020425Y039963D01*
X046325Y039963D01*
X058325Y027963D01*
X058325Y018963D01*
X058825Y018463D02*
X056925Y016563D01*
X052425Y016563D01*
X052714Y017037D02*
X056947Y017037D01*
X057105Y017196D02*
X052822Y017196D01*
X052965Y017354D02*
X057264Y017354D01*
X057422Y017513D02*
X052965Y017513D01*
X052965Y017671D02*
X057581Y017671D01*
X057438Y017830D02*
X052922Y017830D01*
X052763Y017988D02*
X057323Y017988D01*
X057287Y018147D02*
X052773Y018147D01*
X052931Y018305D02*
X057310Y018305D01*
X057406Y018464D02*
X052965Y018464D01*
X052965Y018622D02*
X057505Y018622D01*
X057505Y018781D02*
X052965Y018781D01*
X052812Y018939D02*
X055629Y018939D01*
X055519Y019098D02*
X052724Y019098D01*
X052882Y019256D02*
X055487Y019256D01*
X055514Y019415D02*
X052965Y019415D01*
X052965Y019573D02*
X055605Y019573D01*
X055605Y019732D02*
X052965Y019732D01*
X052861Y019890D02*
X055605Y019890D01*
X055605Y020049D02*
X052703Y020049D01*
X052833Y020207D02*
X055605Y020207D01*
X055605Y020366D02*
X052965Y020366D01*
X052965Y020524D02*
X055605Y020524D01*
X055605Y020683D02*
X052965Y020683D01*
X052910Y020841D02*
X055605Y020841D01*
X055605Y021000D02*
X052752Y021000D01*
X052784Y021158D02*
X055605Y021158D01*
X055605Y021317D02*
X054032Y021317D01*
X054190Y021475D02*
X055605Y021475D01*
X055605Y021634D02*
X054349Y021634D01*
X054507Y021792D02*
X055605Y021792D01*
X055605Y021951D02*
X054666Y021951D01*
X054824Y022109D02*
X055605Y022109D01*
X055605Y022268D02*
X054932Y022268D01*
X054945Y022426D02*
X055605Y022426D01*
X055605Y022585D02*
X054945Y022585D01*
X054945Y022743D02*
X055605Y022743D01*
X055605Y022902D02*
X054945Y022902D01*
X054945Y023060D02*
X055605Y023060D01*
X055605Y023219D02*
X054945Y023219D01*
X054945Y023377D02*
X055605Y023377D01*
X055605Y023536D02*
X054945Y023536D01*
X054945Y023694D02*
X055605Y023694D01*
X055605Y023853D02*
X054945Y023853D01*
X054945Y024011D02*
X055605Y024011D01*
X055605Y024170D02*
X054945Y024170D01*
X054945Y024328D02*
X055605Y024328D01*
X055605Y024487D02*
X054945Y024487D01*
X054945Y024645D02*
X055605Y024645D01*
X055605Y024804D02*
X054945Y024804D01*
X054945Y024962D02*
X055605Y024962D01*
X055605Y025121D02*
X054945Y025121D01*
X054945Y025279D02*
X055605Y025279D01*
X055605Y025438D02*
X054945Y025438D01*
X054945Y025596D02*
X055605Y025596D01*
X055605Y025755D02*
X054945Y025755D01*
X054945Y025913D02*
X055605Y025913D01*
X055605Y026072D02*
X054945Y026072D01*
X054945Y026230D02*
X055605Y026230D01*
X055605Y026389D02*
X054945Y026389D01*
X054945Y026547D02*
X055605Y026547D01*
X055605Y026706D02*
X054945Y026706D01*
X054945Y026864D02*
X055605Y026864D01*
X055605Y027023D02*
X054945Y027023D01*
X054945Y027181D02*
X055605Y027181D01*
X055605Y027340D02*
X054939Y027340D01*
X054842Y027498D02*
X055605Y027498D01*
X055605Y027657D02*
X054684Y027657D01*
X054525Y027815D02*
X055520Y027815D01*
X055361Y027974D02*
X054367Y027974D01*
X054208Y028132D02*
X055203Y028132D01*
X055044Y028291D02*
X050550Y028291D01*
X050391Y028449D02*
X054886Y028449D01*
X054727Y028608D02*
X050233Y028608D01*
X050074Y028766D02*
X054569Y028766D01*
X054410Y028925D02*
X049916Y028925D01*
X049757Y029083D02*
X054252Y029083D01*
X054093Y029242D02*
X049599Y029242D01*
X049440Y029400D02*
X053935Y029400D01*
X053776Y029559D02*
X049282Y029559D01*
X049123Y029717D02*
X053618Y029717D01*
X053459Y029876D02*
X048965Y029876D01*
X048806Y030034D02*
X053301Y030034D01*
X053142Y030193D02*
X048648Y030193D01*
X048489Y030351D02*
X052984Y030351D01*
X052825Y030510D02*
X048331Y030510D01*
X048172Y030668D02*
X052667Y030668D01*
X052508Y030827D02*
X048014Y030827D01*
X047855Y030985D02*
X052350Y030985D01*
X052191Y031144D02*
X047697Y031144D01*
X047538Y031302D02*
X052033Y031302D01*
X051874Y031461D02*
X047380Y031461D01*
X047221Y031619D02*
X051716Y031619D01*
X051557Y031778D02*
X047063Y031778D01*
X046904Y031936D02*
X051399Y031936D01*
X051240Y032095D02*
X046745Y032095D01*
X046587Y032253D02*
X051082Y032253D01*
X050923Y032412D02*
X046428Y032412D01*
X046270Y032570D02*
X050765Y032570D01*
X050606Y032729D02*
X046111Y032729D01*
X045953Y032887D02*
X050448Y032887D01*
X050289Y033046D02*
X045794Y033046D01*
X045636Y033204D02*
X050131Y033204D01*
X049972Y033363D02*
X045477Y033363D01*
X045319Y033521D02*
X049814Y033521D01*
X049655Y033680D02*
X045160Y033680D01*
X045002Y033838D02*
X049497Y033838D01*
X049338Y033997D02*
X044843Y033997D01*
X044685Y034155D02*
X049180Y034155D01*
X049021Y034314D02*
X044526Y034314D01*
X044368Y034472D02*
X048863Y034472D01*
X048704Y034631D02*
X044245Y034631D01*
X044245Y034789D02*
X048546Y034789D01*
X048387Y034948D02*
X044245Y034948D01*
X044245Y035106D02*
X048229Y035106D01*
X048070Y035265D02*
X044245Y035265D01*
X044245Y035423D02*
X047912Y035423D01*
X047753Y035582D02*
X044245Y035582D01*
X044245Y035740D02*
X047595Y035740D01*
X047436Y035899D02*
X046363Y035899D01*
X046531Y036057D02*
X047278Y036057D01*
X047119Y036216D02*
X046655Y036216D01*
X046721Y036374D02*
X046961Y036374D01*
X046802Y036533D02*
X046766Y036533D01*
X045383Y035899D02*
X044245Y035899D01*
X044245Y036057D02*
X045215Y036057D01*
X045091Y036216D02*
X044245Y036216D01*
X044321Y036374D02*
X045026Y036374D01*
X044980Y036533D02*
X044363Y036533D01*
X044346Y036691D02*
X044980Y036691D01*
X044984Y036850D02*
X044258Y036850D01*
X043925Y036563D02*
X043925Y034463D01*
X050525Y027863D01*
X054025Y027863D01*
X054625Y027263D01*
X054625Y022363D01*
X053825Y021563D01*
X052425Y021563D01*
X051925Y021063D01*
X051125Y021063D01*
X051025Y021063D01*
X050625Y020663D01*
X050225Y020841D02*
X040645Y020841D01*
X040645Y020683D02*
X050187Y020683D01*
X050208Y020524D02*
X040645Y020524D01*
X040645Y020366D02*
X050302Y020366D01*
X050758Y020049D02*
X040645Y020049D01*
X040645Y020207D02*
X050917Y020207D01*
X051225Y020063D02*
X049125Y017963D01*
X049125Y009663D01*
X050625Y008163D01*
X055625Y008163D01*
X056525Y009063D01*
X057325Y009063D01*
X057825Y009563D01*
X057325Y010063D02*
X056025Y010063D01*
X055125Y009163D01*
X050625Y009163D01*
X049625Y010163D01*
X049625Y017663D01*
X051025Y019063D01*
X051925Y019063D01*
X052425Y019563D01*
X051925Y020063D02*
X051225Y020063D01*
X050600Y019890D02*
X040645Y019890D01*
X040645Y019732D02*
X050441Y019732D01*
X050283Y019573D02*
X040645Y019573D01*
X040645Y019415D02*
X050124Y019415D01*
X049966Y019256D02*
X040645Y019256D01*
X040645Y019098D02*
X049807Y019098D01*
X049649Y018939D02*
X040645Y018939D01*
X040645Y018781D02*
X049490Y018781D01*
X049332Y018622D02*
X040645Y018622D01*
X040645Y018464D02*
X049173Y018464D01*
X049015Y018305D02*
X040645Y018305D01*
X040645Y018147D02*
X048856Y018147D01*
X048805Y017988D02*
X040645Y017988D01*
X040645Y017830D02*
X048805Y017830D01*
X048805Y017671D02*
X040645Y017671D01*
X040645Y017513D02*
X048805Y017513D01*
X048805Y017354D02*
X040645Y017354D01*
X040645Y017196D02*
X048805Y017196D01*
X048805Y017037D02*
X040645Y017037D01*
X040645Y016879D02*
X048805Y016879D01*
X048805Y016720D02*
X040645Y016720D01*
X040645Y016562D02*
X048805Y016562D01*
X048805Y016403D02*
X040645Y016403D01*
X040645Y016245D02*
X048805Y016245D01*
X048805Y016086D02*
X040645Y016086D01*
X040645Y015928D02*
X048805Y015928D01*
X048805Y015769D02*
X040645Y015769D01*
X040645Y015611D02*
X048805Y015611D01*
X048805Y015452D02*
X040645Y015452D01*
X040645Y015294D02*
X048805Y015294D01*
X048805Y015135D02*
X040645Y015135D01*
X040645Y014977D02*
X048805Y014977D01*
X048805Y014818D02*
X040645Y014818D01*
X040645Y014660D02*
X048805Y014660D01*
X048805Y014501D02*
X040645Y014501D01*
X040645Y014343D02*
X048805Y014343D01*
X048805Y014184D02*
X040645Y014184D01*
X040645Y014026D02*
X048805Y014026D01*
X048805Y013867D02*
X040645Y013867D01*
X040645Y013709D02*
X048805Y013709D01*
X048805Y013550D02*
X040645Y013550D01*
X040645Y013392D02*
X048805Y013392D01*
X048805Y013233D02*
X040645Y013233D01*
X040645Y013075D02*
X048805Y013075D01*
X048805Y012916D02*
X040645Y012916D01*
X040645Y012758D02*
X048805Y012758D01*
X048805Y012599D02*
X040645Y012599D01*
X040645Y012441D02*
X048805Y012441D01*
X048805Y012282D02*
X040645Y012282D01*
X040645Y012124D02*
X048805Y012124D01*
X048805Y011965D02*
X040645Y011965D01*
X040645Y011807D02*
X048805Y011807D01*
X048805Y011648D02*
X040645Y011648D01*
X040645Y011490D02*
X048805Y011490D01*
X048805Y011331D02*
X040645Y011331D01*
X040645Y011173D02*
X048805Y011173D01*
X048805Y011014D02*
X040645Y011014D01*
X040645Y010856D02*
X048805Y010856D01*
X048805Y010697D02*
X040645Y010697D01*
X040645Y010539D02*
X048805Y010539D01*
X048805Y010380D02*
X040645Y010380D01*
X040645Y010222D02*
X048805Y010222D01*
X048805Y010063D02*
X040578Y010063D01*
X040420Y009905D02*
X048805Y009905D01*
X048805Y009746D02*
X040261Y009746D01*
X040165Y009588D02*
X048810Y009588D01*
X048906Y009429D02*
X040165Y009429D01*
X040097Y009271D02*
X049064Y009271D01*
X049223Y009112D02*
X039938Y009112D01*
X039625Y009563D02*
X040325Y010263D01*
X040325Y022363D01*
X043825Y025863D01*
X043825Y029763D01*
X040925Y032663D01*
X040925Y036763D01*
X040751Y037167D02*
X039999Y037167D01*
X040200Y037008D02*
X040550Y037008D01*
X040325Y036563D02*
X040325Y032563D01*
X043425Y029463D01*
X043425Y025963D01*
X039625Y022163D01*
X039625Y010563D01*
X039125Y010063D02*
X039125Y022263D01*
X042925Y026063D01*
X042925Y029163D01*
X039825Y032263D01*
X039825Y036763D01*
X039651Y037167D02*
X039243Y037167D01*
X039341Y037008D02*
X039450Y037008D01*
X039325Y036563D02*
X039325Y032163D01*
X042425Y029063D01*
X042425Y026063D01*
X038625Y022263D01*
X038625Y010563D01*
X038125Y010063D02*
X038125Y022263D01*
X042025Y026163D01*
X042025Y028863D01*
X038925Y031963D01*
X038925Y036863D01*
X038607Y037167D02*
X037743Y037167D01*
X037841Y037008D02*
X038509Y037008D01*
X038090Y036850D02*
X037865Y036850D01*
X037830Y036691D02*
X038002Y036691D01*
X037985Y036533D02*
X037745Y036533D01*
X037745Y036374D02*
X038027Y036374D01*
X038105Y036216D02*
X037745Y036216D01*
X037745Y036057D02*
X038105Y036057D01*
X038105Y035899D02*
X037745Y035899D01*
X037745Y035740D02*
X038105Y035740D01*
X038105Y035582D02*
X037745Y035582D01*
X037745Y035423D02*
X038105Y035423D01*
X038105Y035265D02*
X037745Y035265D01*
X037745Y035106D02*
X038105Y035106D01*
X038105Y034948D02*
X037745Y034948D01*
X037745Y034789D02*
X038105Y034789D01*
X038105Y034631D02*
X037745Y034631D01*
X037745Y034472D02*
X038105Y034472D01*
X038105Y034314D02*
X037745Y034314D01*
X037745Y034155D02*
X038105Y034155D01*
X038105Y033997D02*
X037745Y033997D01*
X037745Y033838D02*
X038105Y033838D01*
X038105Y033680D02*
X037745Y033680D01*
X037745Y033521D02*
X038105Y033521D01*
X038105Y033363D02*
X037745Y033363D01*
X037745Y033204D02*
X038105Y033204D01*
X038105Y033046D02*
X037745Y033046D01*
X037745Y032887D02*
X038105Y032887D01*
X038105Y032729D02*
X037745Y032729D01*
X037745Y032570D02*
X038105Y032570D01*
X038105Y032412D02*
X037745Y032412D01*
X037787Y032253D02*
X038105Y032253D01*
X038105Y032095D02*
X037945Y032095D01*
X038104Y031936D02*
X038105Y031936D01*
X038425Y031863D02*
X038425Y036563D01*
X037425Y036863D02*
X037425Y032163D01*
X041225Y028363D01*
X041225Y026463D01*
X037125Y022363D01*
X037125Y010063D01*
X036625Y009563D01*
X036938Y009112D02*
X037312Y009112D01*
X037153Y009271D02*
X037097Y009271D01*
X037625Y009563D02*
X038125Y010063D01*
X037625Y010563D02*
X037625Y022263D01*
X041625Y026263D01*
X041625Y028663D01*
X038425Y031863D01*
X036925Y032063D02*
X036925Y036563D01*
X036841Y037008D02*
X037009Y037008D01*
X037107Y037167D02*
X036743Y037167D01*
X036425Y036863D02*
X036425Y031763D01*
X040225Y027963D01*
X040225Y026463D01*
X036125Y022363D01*
X036125Y010063D01*
X035625Y009563D01*
X035938Y009112D02*
X036312Y009112D01*
X036153Y009271D02*
X036097Y009271D01*
X035312Y009112D02*
X034853Y009112D01*
X034645Y009112D02*
X034605Y009112D01*
X034605Y009271D02*
X034645Y009271D01*
X034645Y009429D02*
X034605Y009429D01*
X034397Y009112D02*
X033938Y009112D01*
X034097Y009271D02*
X034238Y009271D01*
X033625Y009563D02*
X034125Y010063D01*
X034125Y022363D01*
X038125Y026363D01*
X038125Y027963D01*
X035425Y030963D01*
X035425Y036863D01*
X035107Y037167D02*
X034243Y037167D01*
X034341Y037008D02*
X035009Y037008D01*
X034590Y036850D02*
X034365Y036850D01*
X034330Y036691D02*
X034502Y036691D01*
X034485Y036533D02*
X034245Y036533D01*
X034245Y036374D02*
X034527Y036374D01*
X034605Y036216D02*
X034245Y036216D01*
X034245Y036057D02*
X034605Y036057D01*
X034605Y035899D02*
X034245Y035899D01*
X034245Y035740D02*
X034605Y035740D01*
X034605Y035582D02*
X034245Y035582D01*
X034245Y035423D02*
X034605Y035423D01*
X034605Y035265D02*
X034245Y035265D01*
X034245Y035106D02*
X034605Y035106D01*
X034605Y034948D02*
X034245Y034948D01*
X034245Y034789D02*
X034605Y034789D01*
X034605Y034631D02*
X034245Y034631D01*
X034245Y034472D02*
X034605Y034472D01*
X034605Y034314D02*
X034245Y034314D01*
X034245Y034155D02*
X034605Y034155D01*
X034605Y033997D02*
X034245Y033997D01*
X034245Y033838D02*
X034605Y033838D01*
X034605Y033680D02*
X034245Y033680D01*
X034245Y033521D02*
X034605Y033521D01*
X034605Y033363D02*
X034245Y033363D01*
X034245Y033204D02*
X034605Y033204D01*
X034605Y033046D02*
X034245Y033046D01*
X034245Y032887D02*
X034605Y032887D01*
X034605Y032729D02*
X034245Y032729D01*
X034245Y032570D02*
X034605Y032570D01*
X034605Y032412D02*
X034245Y032412D01*
X034245Y032253D02*
X034605Y032253D01*
X034605Y032095D02*
X034245Y032095D01*
X034245Y031936D02*
X034605Y031936D01*
X034605Y031778D02*
X034245Y031778D01*
X034245Y031619D02*
X034605Y031619D01*
X034605Y031461D02*
X034245Y031461D01*
X034245Y031302D02*
X034605Y031302D01*
X034605Y031144D02*
X034245Y031144D01*
X034245Y030985D02*
X034605Y030985D01*
X034605Y030827D02*
X034245Y030827D01*
X034245Y030668D02*
X034605Y030668D01*
X034605Y030510D02*
X034245Y030510D01*
X034245Y030351D02*
X034604Y030351D01*
X034647Y030193D02*
X034348Y030193D01*
X034506Y030034D02*
X034792Y030034D01*
X034665Y029876D02*
X034937Y029876D01*
X034823Y029717D02*
X035083Y029717D01*
X034982Y029559D02*
X035228Y029559D01*
X035140Y029400D02*
X035373Y029400D01*
X035299Y029242D02*
X035518Y029242D01*
X035457Y029083D02*
X035664Y029083D01*
X035616Y028925D02*
X035809Y028925D01*
X035774Y028766D02*
X035954Y028766D01*
X035933Y028608D02*
X036100Y028608D01*
X036091Y028449D02*
X036245Y028449D01*
X036250Y028291D02*
X036390Y028291D01*
X036125Y027963D02*
X033925Y030163D01*
X033925Y036863D01*
X033607Y037167D02*
X033243Y037167D01*
X033341Y037008D02*
X033509Y037008D01*
X033425Y036563D02*
X033425Y029963D01*
X035125Y028263D01*
X035125Y026363D01*
X032625Y023863D01*
X032625Y010563D01*
X032125Y010063D02*
X032125Y024363D01*
X034125Y026363D01*
X034125Y028663D01*
X032925Y029863D01*
X032925Y036863D01*
X032607Y037167D02*
X032243Y037167D01*
X032341Y037008D02*
X032509Y037008D01*
X032425Y036563D02*
X032425Y029363D01*
X033125Y028663D01*
X033125Y026363D01*
X031625Y024863D01*
X031625Y010563D01*
X031125Y010163D02*
X031125Y025363D01*
X032125Y026363D01*
X032125Y028463D01*
X031825Y028763D01*
X031825Y036763D01*
X031925Y036863D01*
X031607Y037167D02*
X030643Y037167D01*
X030741Y037008D02*
X031509Y037008D01*
X031325Y036563D02*
X031325Y028163D01*
X031125Y027963D01*
X031125Y026263D01*
X031075Y026213D01*
X030625Y025763D01*
X030625Y010563D01*
X031125Y010163D02*
X030625Y009563D01*
X030938Y009112D02*
X031312Y009112D01*
X031153Y009271D02*
X031097Y009271D01*
X031625Y009563D02*
X032125Y010063D01*
X032625Y009563D02*
X033125Y010063D01*
X033125Y023363D01*
X036125Y026363D01*
X036125Y027963D01*
X037125Y027963D02*
X034925Y030363D01*
X034925Y036563D01*
X035925Y036563D02*
X035925Y031463D01*
X039125Y028163D01*
X039125Y026363D01*
X035625Y022863D01*
X035625Y010563D01*
X036625Y010563D02*
X036625Y022363D01*
X040825Y026563D01*
X040825Y028063D01*
X036925Y032063D01*
X041245Y032887D02*
X043262Y032887D01*
X043102Y033046D02*
X041245Y033046D01*
X041245Y033204D02*
X042941Y033204D01*
X042781Y033363D02*
X041245Y033363D01*
X041245Y033521D02*
X042620Y033521D01*
X042460Y033680D02*
X041245Y033680D01*
X041245Y033838D02*
X042299Y033838D01*
X042138Y033997D02*
X041245Y033997D01*
X041245Y034155D02*
X042023Y034155D01*
X042005Y034314D02*
X041245Y034314D01*
X041245Y034472D02*
X042005Y034472D01*
X042005Y034631D02*
X041245Y034631D01*
X041245Y034789D02*
X042005Y034789D01*
X042005Y034948D02*
X041245Y034948D01*
X041245Y035106D02*
X042005Y035106D01*
X042005Y035265D02*
X041245Y035265D01*
X041245Y035423D02*
X042005Y035423D01*
X042005Y035582D02*
X041245Y035582D01*
X041245Y035740D02*
X042005Y035740D01*
X042005Y035899D02*
X041245Y035899D01*
X041245Y036057D02*
X042005Y036057D01*
X042005Y036216D02*
X041245Y036216D01*
X041245Y036374D02*
X042005Y036374D01*
X041944Y036533D02*
X041306Y036533D01*
X041300Y037008D02*
X041950Y037008D01*
X042151Y037167D02*
X041099Y037167D01*
X042325Y036763D02*
X042325Y034263D01*
X050325Y026363D01*
X052425Y026363D01*
X052925Y025863D01*
X052925Y025063D01*
X052425Y024563D01*
X051925Y024063D01*
X051025Y024063D01*
X050625Y023663D01*
X050230Y023853D02*
X042268Y023853D01*
X042426Y024011D02*
X050354Y024011D01*
X050187Y023694D02*
X042109Y023694D01*
X041951Y023536D02*
X050203Y023536D01*
X050291Y023377D02*
X041792Y023377D01*
X041634Y023219D02*
X050728Y023219D01*
X050440Y023060D02*
X041475Y023060D01*
X041317Y022902D02*
X050250Y022902D01*
X050187Y022743D02*
X041158Y022743D01*
X041000Y022585D02*
X050187Y022585D01*
X050249Y022426D02*
X040841Y022426D01*
X040683Y022268D02*
X050434Y022268D01*
X050619Y022109D02*
X040645Y022109D01*
X040645Y021951D02*
X050293Y021951D01*
X050204Y021792D02*
X040645Y021792D01*
X040645Y021634D02*
X050187Y021634D01*
X050228Y021475D02*
X040645Y021475D01*
X040645Y021317D02*
X050351Y021317D01*
X050342Y021000D02*
X040645Y021000D01*
X040645Y021158D02*
X050668Y021158D01*
X050625Y021663D02*
X051025Y022063D01*
X051925Y022063D01*
X052425Y022563D01*
X053125Y022563D01*
X053925Y023363D01*
X053925Y026863D01*
X053425Y027363D01*
X050625Y027363D01*
X043425Y034363D01*
X043425Y036763D01*
X043594Y037167D02*
X045115Y037167D01*
X045049Y037008D02*
X043797Y037008D01*
X043256Y037167D02*
X042499Y037167D01*
X042700Y037008D02*
X043053Y037008D01*
X042825Y036563D02*
X042825Y034363D01*
X050525Y026763D01*
X052525Y026763D01*
X053325Y025963D01*
X053325Y024163D01*
X052725Y023563D01*
X052425Y023563D01*
X051925Y023063D01*
X051025Y023063D01*
X050625Y022663D01*
X050679Y024170D02*
X042585Y024170D01*
X042743Y024328D02*
X050838Y024328D01*
X050885Y024487D02*
X042902Y024487D01*
X043060Y024645D02*
X050885Y024645D01*
X050902Y024804D02*
X043219Y024804D01*
X043377Y024962D02*
X051061Y024962D01*
X051103Y025121D02*
X043536Y025121D01*
X043694Y025279D02*
X050945Y025279D01*
X050885Y025438D02*
X043853Y025438D01*
X044011Y025596D02*
X050885Y025596D01*
X050885Y025755D02*
X044127Y025755D01*
X044145Y025913D02*
X051012Y025913D01*
X050191Y026072D02*
X044145Y026072D01*
X044145Y026230D02*
X050004Y026230D01*
X049843Y026389D02*
X044145Y026389D01*
X044145Y026547D02*
X049683Y026547D01*
X049522Y026706D02*
X044145Y026706D01*
X044145Y026864D02*
X049362Y026864D01*
X049201Y027023D02*
X044145Y027023D01*
X044145Y027181D02*
X049041Y027181D01*
X048880Y027340D02*
X044145Y027340D01*
X044145Y027498D02*
X048720Y027498D01*
X048559Y027657D02*
X044145Y027657D01*
X044145Y027815D02*
X048399Y027815D01*
X048238Y027974D02*
X044145Y027974D01*
X044145Y028132D02*
X048078Y028132D01*
X047917Y028291D02*
X044145Y028291D01*
X044145Y028449D02*
X047757Y028449D01*
X047596Y028608D02*
X044145Y028608D01*
X044145Y028766D02*
X047436Y028766D01*
X047275Y028925D02*
X044145Y028925D01*
X044145Y029083D02*
X047115Y029083D01*
X046954Y029242D02*
X044145Y029242D01*
X044145Y029400D02*
X046794Y029400D01*
X046633Y029559D02*
X044145Y029559D01*
X044145Y029717D02*
X046473Y029717D01*
X046312Y029876D02*
X044125Y029876D01*
X044006Y030034D02*
X046152Y030034D01*
X045991Y030193D02*
X043848Y030193D01*
X043689Y030351D02*
X045831Y030351D01*
X045670Y030510D02*
X043531Y030510D01*
X043372Y030668D02*
X045510Y030668D01*
X045349Y030827D02*
X043214Y030827D01*
X043055Y030985D02*
X045189Y030985D01*
X045028Y031144D02*
X042897Y031144D01*
X042738Y031302D02*
X044868Y031302D01*
X044707Y031461D02*
X042580Y031461D01*
X042421Y031619D02*
X044546Y031619D01*
X044386Y031778D02*
X042263Y031778D01*
X042104Y031936D02*
X044225Y031936D01*
X044065Y032095D02*
X041945Y032095D01*
X041787Y032253D02*
X043904Y032253D01*
X043744Y032412D02*
X041628Y032412D01*
X041470Y032570D02*
X043583Y032570D01*
X043423Y032729D02*
X041311Y032729D01*
X036009Y037008D02*
X035841Y037008D01*
X035743Y037167D02*
X036107Y037167D01*
X030990Y036850D02*
X030765Y036850D01*
X030730Y036691D02*
X030902Y036691D01*
X030885Y036533D02*
X030645Y036533D01*
X030645Y036374D02*
X030927Y036374D01*
X031005Y036216D02*
X030645Y036216D01*
X030645Y036057D02*
X031005Y036057D01*
X031005Y035899D02*
X030645Y035899D01*
X030645Y035740D02*
X031005Y035740D01*
X031005Y035582D02*
X030645Y035582D01*
X030645Y035423D02*
X031005Y035423D01*
X031005Y035265D02*
X030645Y035265D01*
X030645Y035106D02*
X031005Y035106D01*
X031005Y034948D02*
X030645Y034948D01*
X030645Y034789D02*
X031005Y034789D01*
X031005Y034631D02*
X030645Y034631D01*
X030645Y034472D02*
X031005Y034472D01*
X031005Y034314D02*
X030645Y034314D01*
X030645Y034155D02*
X031005Y034155D01*
X031005Y033997D02*
X030645Y033997D01*
X030645Y033838D02*
X031005Y033838D01*
X031005Y033680D02*
X030645Y033680D01*
X030645Y033521D02*
X031005Y033521D01*
X031005Y033363D02*
X030645Y033363D01*
X030645Y033204D02*
X031005Y033204D01*
X031005Y033046D02*
X030645Y033046D01*
X030645Y032887D02*
X031005Y032887D01*
X031005Y032729D02*
X030645Y032729D01*
X030645Y032570D02*
X031005Y032570D01*
X031005Y032412D02*
X030645Y032412D01*
X030645Y032253D02*
X031005Y032253D01*
X031005Y032095D02*
X030645Y032095D01*
X030645Y031936D02*
X031005Y031936D01*
X031005Y031778D02*
X030645Y031778D01*
X030645Y031619D02*
X031005Y031619D01*
X031005Y031461D02*
X030645Y031461D01*
X030645Y031302D02*
X031005Y031302D01*
X031005Y031144D02*
X030645Y031144D01*
X030645Y030985D02*
X031005Y030985D01*
X031005Y030827D02*
X030645Y030827D01*
X030645Y030668D02*
X031005Y030668D01*
X031005Y030510D02*
X030645Y030510D01*
X030645Y030351D02*
X031005Y030351D01*
X031005Y030193D02*
X030645Y030193D01*
X030645Y030034D02*
X031005Y030034D01*
X031005Y029876D02*
X030645Y029876D01*
X030645Y029717D02*
X031005Y029717D01*
X031005Y029559D02*
X030645Y029559D01*
X030645Y029400D02*
X031005Y029400D01*
X031005Y029242D02*
X030645Y029242D01*
X030645Y029083D02*
X031005Y029083D01*
X031005Y028925D02*
X030645Y028925D01*
X030645Y028766D02*
X031005Y028766D01*
X031005Y028608D02*
X030645Y028608D01*
X030645Y028449D02*
X031005Y028449D01*
X031000Y028291D02*
X030642Y028291D01*
X030325Y028363D02*
X030125Y028063D01*
X030125Y010063D01*
X029625Y009563D01*
X029938Y009112D02*
X030312Y009112D01*
X030153Y009271D02*
X030097Y009271D01*
X029312Y009112D02*
X028938Y009112D01*
X029097Y009271D02*
X029153Y009271D01*
X028625Y009563D02*
X029125Y010063D01*
X029125Y025263D01*
X028125Y026263D01*
X028125Y028963D01*
X029325Y030063D01*
X029325Y036863D01*
X029007Y037167D02*
X028643Y037167D01*
X028741Y037008D02*
X028909Y037008D01*
X028825Y036563D02*
X028825Y030163D01*
X027125Y028663D01*
X027125Y026363D01*
X028625Y024863D01*
X028625Y010563D01*
X028125Y010063D02*
X028125Y024263D01*
X026125Y026263D01*
X026125Y028363D01*
X028325Y030463D01*
X028325Y036863D01*
X028007Y037167D02*
X027243Y037167D01*
X027341Y037008D02*
X027909Y037008D01*
X027490Y036850D02*
X027365Y036850D01*
X027330Y036691D02*
X027402Y036691D01*
X027385Y036533D02*
X027245Y036533D01*
X027245Y036374D02*
X027427Y036374D01*
X027505Y036216D02*
X027245Y036216D01*
X027245Y036057D02*
X027505Y036057D01*
X027505Y035899D02*
X027245Y035899D01*
X027245Y035740D02*
X027505Y035740D01*
X027505Y035582D02*
X027245Y035582D01*
X027245Y035423D02*
X027505Y035423D01*
X027505Y035265D02*
X027245Y035265D01*
X027245Y035106D02*
X027505Y035106D01*
X027505Y034948D02*
X027245Y034948D01*
X027245Y034789D02*
X027505Y034789D01*
X027505Y034631D02*
X027245Y034631D01*
X027245Y034472D02*
X027505Y034472D01*
X027505Y034314D02*
X027245Y034314D01*
X027245Y034155D02*
X027505Y034155D01*
X027505Y033997D02*
X027245Y033997D01*
X027245Y033838D02*
X027505Y033838D01*
X027505Y033680D02*
X027245Y033680D01*
X027245Y033521D02*
X027505Y033521D01*
X027505Y033363D02*
X027245Y033363D01*
X027245Y033204D02*
X027505Y033204D01*
X027505Y033046D02*
X027245Y033046D01*
X027245Y032887D02*
X027505Y032887D01*
X027505Y032729D02*
X027245Y032729D01*
X027245Y032570D02*
X027505Y032570D01*
X027505Y032412D02*
X027245Y032412D01*
X027245Y032253D02*
X027505Y032253D01*
X027505Y032095D02*
X027245Y032095D01*
X027245Y031936D02*
X027505Y031936D01*
X027505Y031778D02*
X027245Y031778D01*
X027245Y031619D02*
X027505Y031619D01*
X027505Y031461D02*
X027245Y031461D01*
X027245Y031302D02*
X027505Y031302D01*
X027505Y031144D02*
X027245Y031144D01*
X027245Y030985D02*
X027495Y030985D01*
X027336Y030827D02*
X027245Y030827D01*
X026925Y030863D02*
X026925Y036863D01*
X026607Y037167D02*
X026143Y037167D01*
X026241Y037008D02*
X026509Y037008D01*
X026325Y036563D02*
X026525Y036363D01*
X026525Y031163D01*
X023125Y028163D01*
X023125Y026363D01*
X026625Y022863D01*
X026625Y010563D01*
X027125Y010063D02*
X027125Y023263D01*
X024125Y026263D01*
X024125Y028263D01*
X026925Y030863D01*
X027825Y030863D02*
X027825Y036563D01*
X029643Y037167D02*
X030007Y037167D01*
X029909Y037008D02*
X029741Y037008D01*
X029825Y036563D02*
X029825Y029563D01*
X029125Y028963D01*
X029125Y026163D01*
X029625Y025663D01*
X029625Y010563D01*
X028125Y010063D02*
X027625Y009563D01*
X027938Y009112D02*
X028312Y009112D01*
X028153Y009271D02*
X028097Y009271D01*
X027312Y009112D02*
X026938Y009112D01*
X027097Y009271D02*
X027153Y009271D01*
X026625Y009563D02*
X027125Y010063D01*
X027625Y010563D02*
X027625Y023763D01*
X025125Y026263D01*
X025125Y028163D01*
X027825Y030863D01*
X025825Y031363D02*
X025825Y036863D01*
X025507Y037167D02*
X025143Y037167D01*
X025241Y037008D02*
X025409Y037008D01*
X025325Y036563D02*
X025325Y032063D01*
X021125Y028063D01*
X021125Y026363D01*
X024625Y022863D01*
X024625Y010563D01*
X024125Y010063D02*
X024125Y022163D01*
X019825Y026463D01*
X019825Y027863D01*
X024925Y032863D01*
X024925Y036763D01*
X024825Y036863D01*
X024507Y037167D02*
X023599Y037167D01*
X023800Y037008D02*
X024409Y037008D01*
X024325Y036563D02*
X024325Y032863D01*
X019125Y027663D01*
X019125Y026263D01*
X023625Y021763D01*
X023625Y010563D01*
X023125Y010063D02*
X023125Y021363D01*
X018525Y025963D01*
X018525Y027763D01*
X023425Y032663D01*
X023425Y036763D01*
X023251Y037167D02*
X022743Y037167D01*
X022841Y037008D02*
X023050Y037008D01*
X022925Y036563D02*
X022925Y032863D01*
X018025Y027963D01*
X018025Y025763D01*
X022625Y021163D01*
X022625Y010563D01*
X022125Y010063D02*
X022125Y020763D01*
X017325Y025563D01*
X017325Y028063D01*
X022425Y033163D01*
X022425Y036863D01*
X022107Y037167D02*
X021743Y037167D01*
X021841Y037008D02*
X022009Y037008D01*
X021925Y036563D02*
X021925Y033463D01*
X016925Y028463D01*
X016925Y025363D01*
X021625Y020663D01*
X021625Y010563D01*
X022125Y010063D02*
X021625Y009563D01*
X021938Y009112D02*
X022312Y009112D01*
X022153Y009271D02*
X022097Y009271D01*
X022625Y009563D02*
X023125Y010063D01*
X023625Y009563D02*
X024125Y010063D01*
X024625Y009563D02*
X025125Y010063D01*
X025125Y023363D01*
X022125Y026363D01*
X022125Y027963D01*
X025825Y031363D01*
X023897Y032887D02*
X023745Y032887D01*
X023745Y033046D02*
X024005Y033046D01*
X024005Y033204D02*
X023745Y033204D01*
X023745Y033363D02*
X024005Y033363D01*
X024005Y033521D02*
X023745Y033521D01*
X023745Y033680D02*
X024005Y033680D01*
X024005Y033838D02*
X023745Y033838D01*
X023745Y033997D02*
X024005Y033997D01*
X024005Y034155D02*
X023745Y034155D01*
X023745Y034314D02*
X024005Y034314D01*
X024005Y034472D02*
X023745Y034472D01*
X023745Y034631D02*
X024005Y034631D01*
X024005Y034789D02*
X023745Y034789D01*
X023745Y034948D02*
X024005Y034948D01*
X024005Y035106D02*
X023745Y035106D01*
X023745Y035265D02*
X024005Y035265D01*
X024005Y035423D02*
X023745Y035423D01*
X023745Y035582D02*
X024005Y035582D01*
X024005Y035740D02*
X023745Y035740D01*
X023745Y035899D02*
X024005Y035899D01*
X024005Y036057D02*
X023745Y036057D01*
X023745Y036216D02*
X024005Y036216D01*
X023927Y036374D02*
X023745Y036374D01*
X023806Y036533D02*
X023885Y036533D01*
X023902Y036691D02*
X023865Y036691D01*
X021323Y038118D02*
X045217Y038118D01*
X045376Y037959D02*
X021151Y037959D01*
X020980Y037801D02*
X045534Y037801D01*
X045693Y037642D02*
X020808Y037642D01*
X020636Y037484D02*
X045521Y037484D01*
X045272Y037325D02*
X020465Y037325D01*
X019925Y037263D02*
X019925Y036563D01*
X019650Y036216D02*
X019200Y036216D01*
X018925Y036563D02*
X018925Y037363D01*
X020825Y039263D01*
X045725Y039263D01*
X057225Y027763D01*
X057225Y019763D01*
X057497Y019415D02*
X057505Y019415D01*
X057505Y019256D02*
X056363Y019256D01*
X056331Y019098D02*
X057505Y019098D01*
X057505Y018939D02*
X056221Y018939D01*
X055925Y019263D02*
X055925Y027863D01*
X045325Y038463D01*
X021225Y038463D01*
X019925Y037263D01*
X019425Y037363D02*
X019425Y036763D01*
X019425Y037363D02*
X020925Y038863D01*
X045525Y038863D01*
X056525Y027863D01*
X056525Y019763D01*
X056797Y019415D02*
X056953Y019415D01*
X057825Y018263D02*
X057725Y018163D01*
X057825Y018263D02*
X057825Y027863D01*
X046025Y039663D01*
X020625Y039663D01*
X018425Y037463D01*
X018425Y036763D01*
X018200Y036216D02*
X018650Y036216D01*
X017425Y036763D02*
X017425Y037563D01*
X020425Y040563D01*
X046825Y040563D01*
X058825Y028563D01*
X058825Y018463D01*
X059145Y018464D02*
X059625Y018464D01*
X059625Y018622D02*
X059145Y018622D01*
X059145Y018781D02*
X059625Y018781D01*
X059625Y018939D02*
X059145Y018939D01*
X059145Y019098D02*
X059625Y019098D01*
X059625Y019256D02*
X059145Y019256D01*
X059145Y019415D02*
X059625Y019415D01*
X059625Y019573D02*
X059145Y019573D01*
X059145Y019732D02*
X059625Y019732D01*
X059625Y019890D02*
X059145Y019890D01*
X059145Y020049D02*
X059625Y020049D01*
X059625Y020207D02*
X059145Y020207D01*
X059145Y020366D02*
X059625Y020366D01*
X059625Y020524D02*
X059145Y020524D01*
X059145Y020683D02*
X059625Y020683D01*
X059625Y020841D02*
X059145Y020841D01*
X059145Y021000D02*
X059625Y021000D01*
X059625Y021158D02*
X059145Y021158D01*
X059145Y021317D02*
X059625Y021317D01*
X059625Y021475D02*
X059145Y021475D01*
X059145Y021634D02*
X059625Y021634D01*
X059625Y021792D02*
X059145Y021792D01*
X059145Y021951D02*
X059625Y021951D01*
X059625Y022109D02*
X059145Y022109D01*
X059145Y022268D02*
X059625Y022268D01*
X059625Y022426D02*
X059145Y022426D01*
X059145Y022585D02*
X059625Y022585D01*
X059625Y022743D02*
X059145Y022743D01*
X059145Y022902D02*
X059625Y022902D01*
X059625Y023060D02*
X059145Y023060D01*
X059145Y023219D02*
X059625Y023219D01*
X059625Y023377D02*
X059145Y023377D01*
X059145Y023536D02*
X059625Y023536D01*
X059625Y023694D02*
X059145Y023694D01*
X059145Y023853D02*
X059625Y023853D01*
X059625Y024011D02*
X059145Y024011D01*
X059145Y024170D02*
X059625Y024170D01*
X059625Y024328D02*
X059145Y024328D01*
X059145Y024487D02*
X059625Y024487D01*
X059625Y024645D02*
X059145Y024645D01*
X059145Y024804D02*
X059625Y024804D01*
X059625Y024962D02*
X059145Y024962D01*
X059145Y025121D02*
X059625Y025121D01*
X059625Y025279D02*
X059145Y025279D01*
X059145Y025438D02*
X059625Y025438D01*
X059625Y025596D02*
X059145Y025596D01*
X059145Y025755D02*
X059625Y025755D01*
X059625Y025913D02*
X059145Y025913D01*
X059145Y026072D02*
X059625Y026072D01*
X059625Y026230D02*
X059145Y026230D01*
X059145Y026389D02*
X059625Y026389D01*
X059625Y026547D02*
X059145Y026547D01*
X059145Y026706D02*
X059625Y026706D01*
X059625Y026864D02*
X059145Y026864D01*
X059145Y027023D02*
X059625Y027023D01*
X059625Y027181D02*
X059145Y027181D01*
X059145Y027340D02*
X059625Y027340D01*
X059625Y027498D02*
X059145Y027498D01*
X059145Y027657D02*
X059625Y027657D01*
X059625Y027815D02*
X059145Y027815D01*
X059145Y027974D02*
X059625Y027974D01*
X059625Y028132D02*
X059145Y028132D01*
X059145Y028291D02*
X059625Y028291D01*
X059625Y028449D02*
X059145Y028449D01*
X059145Y028608D02*
X059625Y028608D01*
X059625Y028766D02*
X059074Y028766D01*
X058916Y028925D02*
X059625Y028925D01*
X059625Y029083D02*
X058757Y029083D01*
X058599Y029242D02*
X059625Y029242D01*
X059625Y029400D02*
X058440Y029400D01*
X058282Y029559D02*
X059625Y029559D01*
X059625Y029717D02*
X058123Y029717D01*
X057965Y029876D02*
X059625Y029876D01*
X059625Y030034D02*
X057806Y030034D01*
X057648Y030193D02*
X059625Y030193D01*
X059625Y030351D02*
X057489Y030351D01*
X057331Y030510D02*
X059625Y030510D01*
X059625Y030668D02*
X057172Y030668D01*
X057014Y030827D02*
X059625Y030827D01*
X059625Y030985D02*
X056855Y030985D01*
X056697Y031144D02*
X059625Y031144D01*
X059625Y031302D02*
X056538Y031302D01*
X056380Y031461D02*
X059625Y031461D01*
X059625Y031619D02*
X056221Y031619D01*
X056063Y031778D02*
X059625Y031778D01*
X059625Y031936D02*
X055904Y031936D01*
X055745Y032095D02*
X059625Y032095D01*
X059625Y032253D02*
X055587Y032253D01*
X055428Y032412D02*
X059625Y032412D01*
X059625Y032570D02*
X055270Y032570D01*
X055111Y032729D02*
X059625Y032729D01*
X059625Y032887D02*
X054953Y032887D01*
X054794Y033046D02*
X059625Y033046D01*
X059625Y033204D02*
X054636Y033204D01*
X054477Y033363D02*
X059625Y033363D01*
X059625Y033521D02*
X054319Y033521D01*
X054160Y033680D02*
X059625Y033680D01*
X059625Y033838D02*
X054002Y033838D01*
X053843Y033997D02*
X059625Y033997D01*
X059625Y034155D02*
X053685Y034155D01*
X053526Y034314D02*
X059625Y034314D01*
X059625Y034472D02*
X053368Y034472D01*
X053209Y034631D02*
X059625Y034631D01*
X059625Y034789D02*
X053051Y034789D01*
X052892Y034948D02*
X059625Y034948D01*
X059625Y035106D02*
X052734Y035106D01*
X052575Y035265D02*
X059625Y035265D01*
X059625Y035423D02*
X052417Y035423D01*
X052258Y035582D02*
X059625Y035582D01*
X059625Y035740D02*
X052100Y035740D01*
X051941Y035899D02*
X059625Y035899D01*
X059625Y036057D02*
X051783Y036057D01*
X051624Y036216D02*
X059625Y036216D01*
X059625Y036374D02*
X051466Y036374D01*
X051307Y036533D02*
X059625Y036533D01*
X059625Y036691D02*
X051149Y036691D01*
X050990Y036850D02*
X059625Y036850D01*
X059625Y037008D02*
X058023Y037008D01*
X058524Y037167D02*
X059625Y037167D01*
X059625Y037325D02*
X058824Y037325D01*
X059031Y037484D02*
X059625Y037484D01*
X059625Y037642D02*
X059216Y037642D01*
X059338Y037801D02*
X059625Y037801D01*
X059625Y037959D02*
X059459Y037959D01*
X059560Y038118D02*
X059625Y038118D01*
X057227Y037008D02*
X050832Y037008D01*
X050673Y037167D02*
X056726Y037167D01*
X056426Y037325D02*
X050515Y037325D01*
X050356Y037484D02*
X056219Y037484D01*
X056034Y037642D02*
X050198Y037642D01*
X050039Y037801D02*
X055912Y037801D01*
X055791Y037959D02*
X049881Y037959D01*
X049722Y038118D02*
X055690Y038118D01*
X055624Y038276D02*
X049564Y038276D01*
X049405Y038435D02*
X055558Y038435D01*
X055493Y038593D02*
X049247Y038593D01*
X049088Y038752D02*
X055472Y038752D01*
X055451Y038910D02*
X048930Y038910D01*
X048771Y039069D02*
X055431Y039069D01*
X055427Y039227D02*
X048613Y039227D01*
X048454Y039386D02*
X055448Y039386D01*
X055468Y039544D02*
X048296Y039544D01*
X048137Y039703D02*
X055489Y039703D01*
X055546Y039861D02*
X047979Y039861D01*
X047820Y040020D02*
X055612Y040020D01*
X055677Y040178D02*
X047662Y040178D01*
X047503Y040337D02*
X055768Y040337D01*
X055890Y040495D02*
X047345Y040495D01*
X047186Y040654D02*
X056011Y040654D01*
X056065Y040723D02*
X056065Y040723D01*
X056181Y040812D02*
X047028Y040812D01*
X056387Y040971D02*
X003863Y040971D01*
X004069Y040812D02*
X020222Y040812D01*
X020064Y040654D02*
X004239Y040654D01*
X004360Y040495D02*
X019905Y040495D01*
X019747Y040337D02*
X004482Y040337D01*
X004573Y040178D02*
X019588Y040178D01*
X019430Y040020D02*
X004638Y040020D01*
X004704Y039861D02*
X019271Y039861D01*
X019113Y039703D02*
X004761Y039703D01*
X004782Y039544D02*
X018954Y039544D01*
X018796Y039386D02*
X004802Y039386D01*
X004823Y039227D02*
X018637Y039227D01*
X018479Y039069D02*
X004819Y039069D01*
X004799Y038910D02*
X018320Y038910D01*
X018162Y038752D02*
X004778Y038752D01*
X004757Y038593D02*
X018003Y038593D01*
X017845Y038435D02*
X004692Y038435D01*
X004626Y038276D02*
X017686Y038276D01*
X017528Y038118D02*
X004560Y038118D01*
X004459Y037959D02*
X017369Y037959D01*
X017211Y037801D02*
X004338Y037801D01*
X004216Y037642D02*
X017112Y037642D01*
X017105Y037484D02*
X014729Y037484D01*
X014978Y037325D02*
X017105Y037325D01*
X017105Y037167D02*
X015135Y037167D01*
X015201Y037008D02*
X017050Y037008D01*
X016985Y036850D02*
X016985Y036675D01*
X017044Y036533D02*
X015270Y036533D01*
X015224Y036374D02*
X017213Y036374D01*
X014867Y035899D02*
X020605Y035899D01*
X020605Y035740D02*
X013600Y035740D01*
X013758Y035582D02*
X020605Y035582D01*
X020605Y035423D02*
X013917Y035423D01*
X014075Y035265D02*
X020605Y035265D01*
X020605Y035106D02*
X014234Y035106D01*
X014392Y034948D02*
X020605Y034948D01*
X020605Y034789D02*
X014551Y034789D01*
X014709Y034631D02*
X020605Y034631D01*
X020582Y034472D02*
X014868Y034472D01*
X015026Y034314D02*
X020424Y034314D01*
X020265Y034155D02*
X015185Y034155D01*
X015343Y033997D02*
X020107Y033997D01*
X019948Y033838D02*
X015502Y033838D01*
X015660Y033680D02*
X019790Y033680D01*
X019631Y033521D02*
X015819Y033521D01*
X015977Y033363D02*
X019473Y033363D01*
X019314Y033204D02*
X016136Y033204D01*
X016294Y033046D02*
X019156Y033046D01*
X018997Y032887D02*
X016345Y032887D01*
X016345Y032729D02*
X018839Y032729D01*
X018680Y032570D02*
X016345Y032570D01*
X016345Y032412D02*
X018522Y032412D01*
X018363Y032253D02*
X016345Y032253D01*
X016345Y032095D02*
X018205Y032095D01*
X018046Y031936D02*
X016345Y031936D01*
X016345Y031778D02*
X017888Y031778D01*
X017729Y031619D02*
X016345Y031619D01*
X016345Y031461D02*
X017570Y031461D01*
X017412Y031302D02*
X016345Y031302D01*
X016345Y031144D02*
X017253Y031144D01*
X017095Y030985D02*
X016345Y030985D01*
X016345Y030827D02*
X016936Y030827D01*
X016778Y030668D02*
X016345Y030668D01*
X016345Y030510D02*
X016619Y030510D01*
X016461Y030351D02*
X016345Y030351D01*
X016025Y029463D02*
X016025Y032863D01*
X012599Y036289D01*
X007238Y036289D01*
X006722Y036216D02*
X004531Y036216D01*
X004658Y036343D02*
X004265Y035950D01*
X004265Y035639D01*
X003989Y035363D01*
X004265Y035086D01*
X004265Y034983D01*
X005728Y034983D01*
X005733Y034996D01*
X005800Y035063D01*
X005889Y035100D01*
X006535Y035100D01*
X006624Y035063D01*
X006691Y034996D01*
X006728Y034907D01*
X006728Y034546D01*
X006759Y034622D01*
X006826Y034689D01*
X006849Y034699D01*
X006818Y034729D01*
X006795Y034771D01*
X006782Y034816D01*
X006782Y035018D01*
X007220Y035018D01*
X007220Y035055D01*
X007220Y035414D01*
X006939Y035414D01*
X006893Y035401D01*
X006852Y035378D01*
X006818Y035344D01*
X006795Y035303D01*
X006782Y035257D01*
X006782Y035055D01*
X007220Y035055D01*
X007256Y035055D01*
X007256Y035414D01*
X007537Y035414D01*
X007583Y035401D01*
X007624Y035378D01*
X007658Y035344D01*
X007681Y035303D01*
X007694Y035257D01*
X007694Y035055D01*
X007256Y035055D01*
X007256Y035018D01*
X007694Y035018D01*
X007694Y034816D01*
X007681Y034771D01*
X007658Y034729D01*
X007627Y034699D01*
X007650Y034689D01*
X007717Y034622D01*
X007722Y034609D01*
X013826Y034609D01*
X012466Y035969D01*
X007722Y035969D01*
X007717Y035956D01*
X007650Y035888D01*
X007561Y035852D01*
X006915Y035852D01*
X006826Y035888D01*
X006759Y035956D01*
X006722Y036044D01*
X006722Y036406D01*
X006691Y036330D01*
X006624Y036263D01*
X006535Y036226D01*
X005889Y036226D01*
X005800Y036263D01*
X005733Y036330D01*
X005728Y036343D01*
X004658Y036343D01*
X004525Y036663D02*
X003725Y035863D01*
X004265Y035899D02*
X006816Y035899D01*
X006722Y036057D02*
X004372Y036057D01*
X004265Y035740D02*
X012695Y035740D01*
X012853Y035582D02*
X004208Y035582D01*
X004049Y035423D02*
X013012Y035423D01*
X013170Y035265D02*
X007692Y035265D01*
X007694Y035106D02*
X013329Y035106D01*
X013487Y034948D02*
X007694Y034948D01*
X007686Y034789D02*
X013646Y034789D01*
X013804Y034631D02*
X007708Y034631D01*
X007325Y034263D02*
X007325Y034163D01*
X007238Y034250D01*
X007238Y034289D01*
X013999Y034289D01*
X015625Y032663D01*
X015625Y024663D01*
X019825Y020463D01*
X019825Y010263D01*
X020525Y009563D01*
X020938Y009112D02*
X021312Y009112D01*
X021153Y009271D02*
X021097Y009271D01*
X020625Y010563D02*
X020625Y020563D01*
X016025Y025163D01*
X016025Y029463D01*
X020925Y034363D01*
X020925Y036563D01*
X015106Y032729D02*
X003800Y032729D01*
X003642Y032570D02*
X015265Y032570D01*
X015305Y032412D02*
X003483Y032412D01*
X003998Y032253D02*
X015305Y032253D01*
X015305Y032095D02*
X004157Y032095D01*
X004165Y031936D02*
X015305Y031936D01*
X015305Y031778D02*
X004165Y031778D01*
X004145Y031619D02*
X015305Y031619D01*
X015305Y031461D02*
X003987Y031461D01*
X003949Y031302D02*
X015305Y031302D01*
X015305Y031144D02*
X004108Y031144D01*
X004165Y030985D02*
X015305Y030985D01*
X015305Y030827D02*
X004165Y030827D01*
X004165Y030668D02*
X015305Y030668D01*
X015305Y030510D02*
X004036Y030510D01*
X003877Y030351D02*
X015305Y030351D01*
X015305Y030193D02*
X003974Y030193D01*
X004105Y030034D02*
X015305Y030034D01*
X015305Y029876D02*
X003645Y029876D01*
X003645Y029843D02*
X004105Y029843D01*
X004105Y029664D01*
X003824Y029383D01*
X003645Y029383D01*
X003645Y029843D01*
X003645Y029717D02*
X003605Y029717D01*
X003605Y029559D02*
X003645Y029559D01*
X003645Y029400D02*
X003605Y029400D01*
X003645Y029343D02*
X003645Y028883D01*
X004105Y028883D01*
X004105Y029062D01*
X003824Y029343D01*
X003645Y029343D01*
X003645Y029242D02*
X003605Y029242D01*
X003605Y029083D02*
X003645Y029083D01*
X003645Y028925D02*
X003605Y028925D01*
X003645Y028843D02*
X004105Y028843D01*
X004105Y028664D01*
X003824Y028383D01*
X003645Y028383D01*
X003645Y028843D01*
X003645Y028766D02*
X003605Y028766D01*
X003605Y028608D02*
X003645Y028608D01*
X003645Y028449D02*
X003605Y028449D01*
X003360Y028449D02*
X002975Y028449D01*
X003134Y028608D02*
X003201Y028608D01*
X003165Y029083D02*
X003167Y029083D01*
X003010Y029242D02*
X003325Y029242D01*
X003409Y029400D02*
X002926Y029400D01*
X003085Y029559D02*
X003250Y029559D01*
X003841Y029400D02*
X015305Y029400D01*
X015305Y029242D02*
X003925Y029242D01*
X004083Y029083D02*
X015305Y029083D01*
X015305Y028925D02*
X004105Y028925D01*
X004105Y028766D02*
X015305Y028766D01*
X015305Y028608D02*
X004049Y028608D01*
X003890Y028449D02*
X015305Y028449D01*
X015305Y028291D02*
X000625Y028291D01*
X000625Y028449D02*
X002275Y028449D01*
X002116Y028608D02*
X000625Y028608D01*
X000625Y028766D02*
X002085Y028766D01*
X002085Y028925D02*
X000625Y028925D01*
X000625Y029083D02*
X002085Y029083D01*
X002240Y029242D02*
X000625Y029242D01*
X000625Y029400D02*
X002324Y029400D01*
X002165Y029559D02*
X000625Y029559D01*
X000625Y029717D02*
X002085Y029717D01*
X002085Y029876D02*
X000625Y029876D01*
X000625Y030034D02*
X002085Y030034D01*
X002191Y030193D02*
X000625Y030193D01*
X000625Y030351D02*
X002350Y030351D01*
X002214Y030510D02*
X000625Y030510D01*
X000625Y030668D02*
X002085Y030668D01*
X002085Y030827D02*
X000625Y030827D01*
X000625Y030985D02*
X002085Y030985D01*
X002142Y031144D02*
X000625Y031144D01*
X000625Y031302D02*
X002301Y031302D01*
X002263Y031461D02*
X000625Y031461D01*
X000625Y031619D02*
X002105Y031619D01*
X002085Y031778D02*
X000625Y031778D01*
X000625Y031936D02*
X002085Y031936D01*
X002093Y032095D02*
X000625Y032095D01*
X000625Y032253D02*
X002252Y032253D01*
X001867Y032412D02*
X000625Y032412D01*
X000625Y032570D02*
X001708Y032570D01*
X001550Y032729D02*
X000625Y032729D01*
X000625Y032887D02*
X001391Y032887D01*
X001233Y033046D02*
X000625Y033046D01*
X000625Y033204D02*
X001101Y033204D01*
X001065Y033363D02*
X000625Y033363D01*
X000625Y033521D02*
X001065Y033521D01*
X001065Y033680D02*
X000625Y033680D01*
X000625Y033838D02*
X001065Y033838D01*
X001065Y033997D02*
X000625Y033997D01*
X000625Y034155D02*
X001065Y034155D01*
X000806Y034314D02*
X000625Y034314D01*
X000625Y034472D02*
X000791Y034472D01*
X000791Y034631D02*
X000625Y034631D01*
X000625Y034789D02*
X000791Y034789D01*
X000791Y034948D02*
X000625Y034948D01*
X000625Y035106D02*
X000805Y035106D01*
X000969Y035265D02*
X000625Y035265D01*
X000625Y035423D02*
X000803Y035423D01*
X000791Y035582D02*
X000625Y035582D01*
X000625Y035740D02*
X000791Y035740D01*
X000791Y035899D02*
X000625Y035899D01*
X000625Y036057D02*
X000791Y036057D01*
X000808Y036216D02*
X000625Y036216D01*
X000625Y036374D02*
X002473Y036374D01*
X002977Y036374D02*
X003473Y036374D01*
X003314Y036216D02*
X003136Y036216D01*
X003943Y036533D02*
X000625Y036533D01*
X000625Y036691D02*
X004101Y036691D01*
X004260Y036850D02*
X000625Y036850D01*
X000625Y037008D02*
X002227Y037008D01*
X001726Y037167D02*
X000625Y037167D01*
X000625Y037325D02*
X001426Y037325D01*
X001219Y037484D02*
X000625Y037484D01*
X000625Y037642D02*
X001034Y037642D01*
X000912Y037801D02*
X000625Y037801D01*
X000625Y037959D02*
X000791Y037959D01*
X000690Y038118D02*
X000625Y038118D01*
X003023Y037008D02*
X005746Y037008D01*
X006212Y036663D02*
X004525Y036663D01*
X004031Y037484D02*
X014025Y037484D01*
X013776Y037325D02*
X007668Y037325D01*
X007658Y037344D02*
X007624Y037378D01*
X007583Y037401D01*
X007537Y037414D01*
X007256Y037414D01*
X007256Y037055D01*
X007694Y037055D01*
X007694Y037257D01*
X007681Y037303D01*
X007658Y037344D01*
X007694Y037167D02*
X013619Y037167D01*
X013553Y037008D02*
X007694Y037008D01*
X007694Y036850D02*
X013487Y036850D01*
X013484Y036691D02*
X007644Y036691D01*
X007256Y037167D02*
X007220Y037167D01*
X007220Y037325D02*
X007256Y037325D01*
X006807Y037325D02*
X003824Y037325D01*
X003524Y037167D02*
X006782Y037167D01*
X006782Y037008D02*
X006678Y037008D01*
X006728Y036850D02*
X006782Y036850D01*
X006832Y036691D02*
X006728Y036691D01*
X006709Y036374D02*
X006722Y036374D01*
X007660Y035899D02*
X012536Y035899D01*
X013124Y036216D02*
X013595Y036216D01*
X013529Y036374D02*
X012966Y036374D01*
X012807Y036533D02*
X013484Y036533D01*
X013283Y036057D02*
X013719Y036057D01*
X013887Y035899D02*
X013441Y035899D01*
X013997Y033838D02*
X005363Y033838D01*
X005509Y033680D02*
X014155Y033680D01*
X014314Y033521D02*
X005563Y033521D01*
X005558Y033363D02*
X014472Y033363D01*
X014631Y033204D02*
X005486Y033204D01*
X005263Y033046D02*
X014789Y033046D01*
X014948Y032887D02*
X004149Y032887D01*
X004231Y033046D02*
X004987Y033046D01*
X004887Y033838D02*
X004231Y033838D01*
X004190Y033997D02*
X006742Y033997D01*
X006722Y034155D02*
X002934Y034155D01*
X002934Y034314D02*
X005749Y034314D01*
X006212Y034663D02*
X003925Y034663D01*
X003725Y034863D01*
X003352Y034472D02*
X003098Y034472D01*
X003088Y033997D02*
X003162Y033997D01*
X004245Y035106D02*
X006782Y035106D01*
X006782Y034948D02*
X006711Y034948D01*
X006728Y034789D02*
X006790Y034789D01*
X006768Y034631D02*
X006728Y034631D01*
X006722Y034314D02*
X006675Y034314D01*
X006784Y035265D02*
X004087Y035265D01*
X007220Y035265D02*
X007256Y035265D01*
X007256Y035106D02*
X007220Y035106D01*
X004105Y029717D02*
X015305Y029717D01*
X015305Y029559D02*
X004000Y029559D01*
X000625Y028132D02*
X015305Y028132D01*
X015305Y027974D02*
X000625Y027974D01*
X000625Y027815D02*
X015305Y027815D01*
X015305Y027657D02*
X000625Y027657D01*
X000625Y027498D02*
X015305Y027498D01*
X015305Y027340D02*
X000625Y027340D01*
X000625Y027181D02*
X015305Y027181D01*
X015305Y027023D02*
X000625Y027023D01*
X000625Y026864D02*
X015305Y026864D01*
X015305Y026706D02*
X000625Y026706D01*
X000625Y026547D02*
X010409Y026547D01*
X010841Y026547D02*
X015305Y026547D01*
X015305Y026389D02*
X011006Y026389D01*
X011063Y026230D02*
X015305Y026230D01*
X015305Y026072D02*
X011282Y026072D01*
X011494Y025913D02*
X015305Y025913D01*
X015305Y025755D02*
X011561Y025755D01*
X011723Y025596D02*
X015305Y025596D01*
X015305Y025438D02*
X011970Y025438D01*
X012051Y025279D02*
X015305Y025279D01*
X015305Y025121D02*
X012063Y025121D01*
X012445Y024962D02*
X015305Y024962D01*
X015305Y024804D02*
X012541Y024804D01*
X012563Y024645D02*
X015305Y024645D01*
X014829Y024487D02*
X012526Y024487D01*
X012410Y024328D02*
X014719Y024328D01*
X014687Y024170D02*
X011585Y024170D01*
X011743Y024328D02*
X011840Y024328D01*
X011625Y024663D02*
X010988Y024026D01*
X010988Y023690D01*
X011308Y023694D02*
X014805Y023694D01*
X014805Y023536D02*
X011307Y023536D01*
X011307Y023377D02*
X014740Y023377D01*
X014687Y023219D02*
X011231Y023219D01*
X010541Y023060D02*
X014693Y023060D01*
X014766Y022902D02*
X010541Y022902D01*
X010519Y022743D02*
X014993Y022743D01*
X015257Y022743D02*
X017092Y022743D01*
X017250Y022585D02*
X010400Y022585D01*
X010241Y022426D02*
X017409Y022426D01*
X017567Y022268D02*
X010083Y022268D01*
X009924Y022109D02*
X017726Y022109D01*
X017884Y021951D02*
X009766Y021951D01*
X009607Y021792D02*
X018043Y021792D01*
X018201Y021634D02*
X009449Y021634D01*
X009267Y021475D02*
X018360Y021475D01*
X018518Y021317D02*
X011221Y021317D01*
X011307Y021158D02*
X018677Y021158D01*
X018835Y021000D02*
X011307Y021000D01*
X011307Y020841D02*
X018994Y020841D01*
X019152Y020683D02*
X011307Y020683D01*
X011307Y020524D02*
X019311Y020524D01*
X019469Y020366D02*
X011232Y020366D01*
X010477Y020366D02*
X010477Y020366D01*
X010354Y020366D02*
X010344Y020366D01*
X010221Y020366D02*
X010221Y020366D01*
X010225Y020463D02*
X010225Y020163D01*
X009325Y020163D01*
X009225Y020263D01*
X009225Y020463D01*
X009197Y020491D01*
X009197Y020836D01*
X009197Y021335D01*
X009173Y021358D01*
X008429Y021358D01*
X008425Y021363D01*
X008429Y021358D02*
X008429Y020836D01*
X008429Y020467D01*
X008325Y020363D01*
X008365Y020327D02*
X008365Y020156D01*
X008192Y019983D01*
X007180Y019983D01*
X007180Y020092D01*
X007151Y020163D01*
X007180Y020233D01*
X007180Y020840D01*
X007143Y020929D01*
X007076Y020996D01*
X007037Y021012D01*
X007063Y021076D01*
X007063Y021172D01*
X007342Y020894D01*
X007342Y020772D01*
X007343Y020769D01*
X007343Y020493D01*
X007379Y020404D01*
X007447Y020337D01*
X007535Y020300D01*
X007788Y020300D01*
X007790Y020301D01*
X007791Y020300D01*
X008044Y020300D01*
X008045Y020301D01*
X008047Y020300D01*
X008300Y020300D01*
X008365Y020327D01*
X008365Y020207D02*
X007169Y020207D01*
X007180Y020049D02*
X008258Y020049D01*
X008325Y019663D02*
X006751Y019663D01*
X006625Y019789D01*
X005625Y019789D01*
X005070Y019732D02*
X004241Y019732D01*
X004241Y019890D02*
X005070Y019890D01*
X005070Y020049D02*
X004241Y020049D01*
X004241Y020207D02*
X005133Y020207D01*
X005130Y020366D02*
X004228Y020366D01*
X004050Y020524D02*
X005577Y020524D01*
X005577Y020683D02*
X005673Y020683D01*
X005673Y020841D02*
X005577Y020841D01*
X005137Y020841D02*
X004155Y020841D01*
X004181Y021000D02*
X006183Y021000D01*
X006187Y021158D02*
X004223Y021158D01*
X004241Y021317D02*
X006215Y021317D01*
X006625Y021163D02*
X006625Y020537D01*
X007180Y020524D02*
X007343Y020524D01*
X007343Y020683D02*
X007180Y020683D01*
X007180Y020841D02*
X007342Y020841D01*
X007235Y021000D02*
X007067Y021000D01*
X007063Y021158D02*
X007077Y021158D01*
X007025Y021663D02*
X007662Y021026D01*
X007662Y020836D01*
X007918Y020836D02*
X007918Y020855D01*
X007925Y020863D01*
X007925Y020763D01*
X007925Y020863D02*
X007925Y021363D01*
X007310Y021978D01*
X003509Y021978D01*
X003509Y022293D02*
X004529Y022293D01*
X005025Y022789D01*
X005499Y022789D01*
X005625Y022663D01*
X005810Y023060D02*
X006190Y023060D01*
X006190Y022902D02*
X006000Y022902D01*
X006063Y022743D02*
X006190Y022743D01*
X006190Y022585D02*
X006063Y022585D01*
X006001Y022426D02*
X006214Y022426D01*
X006725Y022789D02*
X006999Y022789D01*
X008173Y021614D01*
X008322Y021763D01*
X009125Y021763D01*
X010221Y022858D01*
X010221Y023690D01*
X010477Y023690D02*
X010477Y024514D01*
X011125Y025163D01*
X011625Y025163D01*
X011625Y024663D02*
X012125Y024663D01*
X011426Y024011D02*
X014714Y024011D01*
X014805Y023853D02*
X011308Y023853D01*
X009965Y023690D02*
X009965Y025003D01*
X010625Y025663D01*
X011125Y025663D01*
X010625Y026163D02*
X009625Y026163D01*
X008429Y024967D01*
X008429Y023690D01*
X007343Y023694D02*
X007200Y023694D01*
X007191Y023853D02*
X007343Y023853D01*
X007343Y024011D02*
X004158Y024011D01*
X004241Y023853D02*
X004559Y023853D01*
X004550Y023694D02*
X004241Y023694D01*
X004241Y023536D02*
X004977Y023536D01*
X005073Y023536D02*
X006677Y023536D01*
X006773Y023536D02*
X007343Y023536D01*
X007343Y023377D02*
X007200Y023377D01*
X007190Y023219D02*
X007419Y023219D01*
X007260Y023060D02*
X009901Y023060D01*
X009811Y022902D02*
X007339Y022902D01*
X007497Y022743D02*
X009653Y022743D01*
X009494Y022585D02*
X007656Y022585D01*
X007814Y022426D02*
X009336Y022426D01*
X009177Y022268D02*
X007973Y022268D01*
X008131Y022109D02*
X009019Y022109D01*
X009225Y021363D02*
X009197Y021335D01*
X009173Y021317D02*
X009221Y021317D01*
X010197Y021317D02*
X010500Y021317D01*
X010225Y021263D02*
X010225Y020463D01*
X010221Y020467D01*
X010221Y020836D01*
X010284Y020836D02*
X010414Y020836D01*
X010414Y020836D01*
X010284Y020836D01*
X010284Y020836D01*
X009261Y020207D02*
X019505Y020207D01*
X019505Y020049D02*
X009261Y020049D01*
X009261Y019890D02*
X019505Y019890D01*
X019505Y019732D02*
X009261Y019732D01*
X009751Y019573D02*
X009847Y019573D01*
X009847Y019415D02*
X009751Y019415D01*
X009751Y019256D02*
X009847Y019256D01*
X009847Y019098D02*
X009751Y019098D01*
X009751Y018939D02*
X009847Y018939D01*
X009847Y018781D02*
X009751Y018781D01*
X009411Y018622D02*
X019505Y018622D01*
X019505Y018464D02*
X009411Y018464D01*
X009406Y018305D02*
X019505Y018305D01*
X019505Y018147D02*
X009318Y018147D01*
X009160Y017988D02*
X019505Y017988D01*
X019505Y017830D02*
X009001Y017830D01*
X008843Y017671D02*
X019505Y017671D01*
X019505Y017513D02*
X008684Y017513D01*
X008526Y017354D02*
X019505Y017354D01*
X019505Y017196D02*
X008367Y017196D01*
X008209Y017037D02*
X019505Y017037D01*
X019505Y016879D02*
X008050Y016879D01*
X007892Y016720D02*
X019505Y016720D01*
X019505Y016562D02*
X007733Y016562D01*
X007575Y016403D02*
X019505Y016403D01*
X019505Y016245D02*
X007416Y016245D01*
X007258Y016086D02*
X019505Y016086D01*
X019505Y015928D02*
X013813Y015928D01*
X013971Y015769D02*
X019505Y015769D01*
X019505Y015611D02*
X014130Y015611D01*
X014288Y015452D02*
X014792Y015452D01*
X014703Y015294D02*
X014417Y015294D01*
X014445Y015135D02*
X014685Y015135D01*
X014726Y014977D02*
X014445Y014977D01*
X014445Y014818D02*
X014805Y014818D01*
X014805Y014660D02*
X014445Y014660D01*
X014445Y014501D02*
X014805Y014501D01*
X014805Y014343D02*
X014445Y014343D01*
X014445Y014184D02*
X014805Y014184D01*
X014805Y014026D02*
X014445Y014026D01*
X014625Y013373D02*
X014625Y010953D01*
X014125Y010953D02*
X014125Y010163D01*
X015625Y008663D01*
X049125Y008663D01*
X049856Y007932D01*
X049856Y005419D01*
X050199Y005467D02*
X050311Y005467D01*
X050311Y005360D02*
X050311Y005198D01*
X050323Y005152D01*
X050328Y005143D01*
X050287Y005102D01*
X050251Y005014D01*
X050251Y004800D01*
X050287Y004712D01*
X050355Y004644D01*
X050439Y004610D01*
X050657Y004392D01*
X050775Y004343D01*
X051238Y004343D01*
X051418Y004163D01*
X051832Y004163D01*
X052125Y004456D01*
X052125Y004870D01*
X051832Y005163D01*
X051418Y005163D01*
X051238Y004983D01*
X050971Y004983D01*
X050936Y005018D01*
X050901Y005102D01*
X050860Y005143D01*
X050865Y005152D01*
X050877Y005198D01*
X050877Y005360D01*
X050594Y005360D01*
X050594Y005360D01*
X050311Y005360D01*
X050311Y005308D02*
X050198Y005308D01*
X050122Y005150D02*
X050324Y005150D01*
X050251Y004991D02*
X050211Y004991D01*
X050215Y004833D02*
X050251Y004833D01*
X050211Y004674D02*
X050325Y004674D01*
X050211Y004516D02*
X050533Y004516D01*
X050740Y004357D02*
X050211Y004357D01*
X050211Y004199D02*
X051382Y004199D01*
X051023Y004028D02*
X050999Y004069D01*
X050965Y004102D01*
X050924Y004126D01*
X050879Y004138D01*
X050647Y004138D01*
X050647Y003711D01*
X051035Y003711D01*
X051035Y003982D01*
X051023Y004028D01*
X051015Y004040D02*
X052380Y004040D01*
X052443Y004103D02*
X052185Y003845D01*
X052185Y003663D01*
X052625Y003663D01*
X052625Y004103D01*
X052443Y004103D01*
X052418Y004163D02*
X052832Y004163D01*
X053125Y004456D01*
X053125Y004526D01*
X053147Y004498D01*
X053154Y004482D01*
X053186Y004449D01*
X053215Y004413D01*
X053231Y004404D01*
X053244Y004392D01*
X053286Y004374D01*
X053326Y004352D01*
X053345Y004350D01*
X053361Y004343D01*
X053407Y004343D01*
X053453Y004338D01*
X053470Y004343D01*
X053681Y004343D01*
X053819Y004205D01*
X054004Y004128D01*
X053941Y004108D01*
X053873Y004073D01*
X053812Y004029D01*
X053759Y003976D01*
X053714Y003914D01*
X053680Y003847D01*
X053657Y003775D01*
X053645Y003701D01*
X053645Y003683D01*
X054405Y003683D01*
X054405Y003643D01*
X053645Y003643D01*
X053645Y003625D01*
X053657Y003550D01*
X053680Y003479D01*
X053714Y003411D01*
X053759Y003350D01*
X053812Y003297D01*
X053873Y003252D01*
X053941Y003218D01*
X054013Y003195D01*
X054087Y003183D01*
X054405Y003183D01*
X054405Y003643D01*
X054445Y003643D01*
X054445Y003683D01*
X055205Y003683D01*
X055205Y003701D01*
X055193Y003775D01*
X055170Y003847D01*
X055136Y003914D01*
X055091Y003976D01*
X055038Y004029D01*
X054977Y004073D01*
X054909Y004108D01*
X054846Y004128D01*
X055031Y004205D01*
X055183Y004357D01*
X055265Y004555D01*
X055265Y004770D01*
X055183Y004969D01*
X055031Y005121D01*
X054929Y005163D01*
X055031Y005205D01*
X055183Y005357D01*
X055265Y005555D01*
X055265Y005770D01*
X055183Y005969D01*
X055031Y006121D01*
X054832Y006203D01*
X054018Y006203D01*
X053819Y006121D01*
X053667Y005969D01*
X053585Y005770D01*
X053585Y005555D01*
X053667Y005357D01*
X053819Y005205D01*
X053921Y005163D01*
X053819Y005121D01*
X053681Y004983D01*
X053579Y004983D01*
X053125Y005550D01*
X053125Y005870D01*
X052832Y006163D01*
X052418Y006163D01*
X052125Y005870D01*
X052125Y005456D01*
X052418Y005163D01*
X052615Y005163D01*
X052615Y005163D01*
X052418Y005163D01*
X052125Y004870D01*
X052125Y004456D01*
X052418Y004163D01*
X052382Y004199D02*
X051868Y004199D01*
X052027Y004357D02*
X052223Y004357D01*
X052125Y004516D02*
X052125Y004516D01*
X052125Y004674D02*
X052125Y004674D01*
X052125Y004833D02*
X052125Y004833D01*
X052004Y004991D02*
X052246Y004991D01*
X052405Y005150D02*
X051845Y005150D01*
X052125Y005467D02*
X050877Y005467D01*
X050877Y005308D02*
X052272Y005308D01*
X052125Y005625D02*
X051019Y005625D01*
X050831Y005625D02*
X050824Y005625D01*
X050594Y005625D02*
X050594Y005625D01*
X050594Y005467D02*
X050594Y005467D01*
X050364Y005625D02*
X050176Y005625D01*
X050176Y005784D02*
X050582Y005784D01*
X050499Y005942D02*
X050176Y005942D01*
X050176Y006101D02*
X050485Y006101D01*
X050530Y006259D02*
X050176Y006259D01*
X050176Y006418D02*
X050565Y006418D01*
X050565Y006576D02*
X050176Y006576D01*
X050176Y006735D02*
X050565Y006735D01*
X050565Y006893D02*
X050176Y006893D01*
X050176Y007052D02*
X050565Y007052D01*
X050565Y007210D02*
X050176Y007210D01*
X050176Y007369D02*
X050579Y007369D01*
X050680Y007527D02*
X050176Y007527D01*
X050176Y007686D02*
X050839Y007686D01*
X050721Y007568D02*
X050721Y007568D01*
X050558Y007844D02*
X050176Y007844D01*
X050173Y008003D02*
X050332Y008003D01*
X050174Y008161D02*
X050079Y008161D01*
X050015Y008320D02*
X049921Y008320D01*
X049857Y008478D02*
X049762Y008478D01*
X049698Y008637D02*
X049604Y008637D01*
X049540Y008795D02*
X049445Y008795D01*
X049396Y008844D02*
X049396Y008844D01*
X049381Y008954D02*
X049259Y008954D01*
X049015Y008320D02*
X042921Y008320D01*
X043079Y008161D02*
X049174Y008161D01*
X049332Y008003D02*
X043238Y008003D01*
X043396Y007844D02*
X049491Y007844D01*
X049536Y007686D02*
X043539Y007686D01*
X043576Y007527D02*
X049536Y007527D01*
X049536Y007369D02*
X043576Y007369D01*
X043576Y007210D02*
X049536Y007210D01*
X049536Y007052D02*
X043576Y007052D01*
X043576Y006893D02*
X049536Y006893D01*
X049536Y006735D02*
X043576Y006735D01*
X043576Y006576D02*
X049536Y006576D01*
X049536Y006418D02*
X043576Y006418D01*
X043576Y006259D02*
X049536Y006259D01*
X049536Y006101D02*
X048751Y006101D01*
X048894Y005942D02*
X049536Y005942D01*
X049536Y005784D02*
X049013Y005784D01*
X049172Y005625D02*
X049536Y005625D01*
X049513Y005467D02*
X049330Y005467D01*
X049489Y005308D02*
X049514Y005308D01*
X049856Y004907D02*
X049851Y004902D01*
X049491Y004516D02*
X048949Y004516D01*
X048965Y004674D02*
X049104Y004674D01*
X048946Y004833D02*
X048939Y004833D01*
X048883Y004357D02*
X049491Y004357D01*
X049491Y004199D02*
X048716Y004199D01*
X048722Y004040D02*
X049369Y004040D01*
X049355Y003882D02*
X048852Y003882D01*
X048901Y003723D02*
X049355Y003723D01*
X049355Y003565D02*
X048895Y003565D01*
X048893Y003550D02*
X048905Y003625D01*
X048905Y003643D01*
X048145Y003643D01*
X048145Y003183D01*
X048463Y003183D01*
X048537Y003195D01*
X048609Y003218D01*
X048677Y003252D01*
X048738Y003297D01*
X048791Y003350D01*
X048836Y003411D01*
X048870Y003479D01*
X048893Y003550D01*
X048832Y003406D02*
X049355Y003406D01*
X049385Y003248D02*
X048668Y003248D01*
X048145Y003248D02*
X048105Y003248D01*
X048105Y003406D02*
X048145Y003406D01*
X048145Y003565D02*
X048105Y003565D01*
X047582Y003248D02*
X046332Y003248D01*
X046307Y003223D02*
X046565Y003481D01*
X046565Y003663D01*
X046565Y003845D01*
X046307Y004103D01*
X046125Y004103D01*
X045943Y004103D01*
X045685Y003845D01*
X045685Y003663D01*
X046125Y003663D01*
X046125Y004103D01*
X046125Y003663D01*
X046125Y003663D01*
X046125Y003663D01*
X046565Y003663D01*
X046125Y003663D01*
X046125Y003663D01*
X045685Y003663D01*
X045685Y003481D01*
X045943Y003223D01*
X046125Y003223D01*
X046307Y003223D01*
X046125Y003223D02*
X046125Y003663D01*
X046125Y003663D01*
X046125Y003223D01*
X046125Y003248D02*
X046125Y003248D01*
X046125Y003406D02*
X046125Y003406D01*
X046125Y003565D02*
X046125Y003565D01*
X046125Y003723D02*
X046125Y003723D01*
X046125Y003882D02*
X046125Y003882D01*
X046125Y004040D02*
X046125Y004040D01*
X046370Y004040D02*
X047528Y004040D01*
X047534Y004199D02*
X046368Y004199D01*
X046527Y004357D02*
X047026Y004357D01*
X046819Y004516D02*
X046625Y004516D01*
X046625Y004674D02*
X046661Y004674D01*
X047125Y004663D02*
X046125Y005663D01*
X045772Y005308D02*
X044277Y005308D01*
X044277Y005360D02*
X043994Y005360D01*
X043994Y005677D01*
X043867Y005677D01*
X043821Y005665D01*
X043780Y005642D01*
X043747Y005608D01*
X043723Y005567D01*
X043711Y005521D01*
X043711Y005360D01*
X043994Y005360D01*
X043994Y005360D01*
X043994Y005677D01*
X044121Y005677D01*
X044167Y005665D01*
X044208Y005642D01*
X044241Y005608D01*
X044265Y005567D01*
X044277Y005521D01*
X044277Y005360D01*
X043994Y005360D01*
X043994Y005360D01*
X043994Y005360D01*
X043711Y005360D01*
X043711Y005198D01*
X043723Y005152D01*
X043728Y005143D01*
X043687Y005102D01*
X043651Y005014D01*
X043651Y004800D01*
X043687Y004712D01*
X043755Y004644D01*
X043839Y004610D01*
X044057Y004392D01*
X044175Y004343D01*
X044738Y004343D01*
X044918Y004163D01*
X045332Y004163D01*
X045625Y004456D01*
X045625Y004870D01*
X045332Y005163D01*
X044918Y005163D01*
X044738Y004983D01*
X044371Y004983D01*
X044336Y005018D01*
X044301Y005102D01*
X044260Y005143D01*
X044265Y005152D01*
X044277Y005198D01*
X044277Y005360D01*
X044277Y005467D02*
X045625Y005467D01*
X045625Y005625D02*
X044224Y005625D01*
X043994Y005625D02*
X043994Y005625D01*
X043994Y005467D02*
X043994Y005467D01*
X043764Y005625D02*
X043576Y005625D01*
X043576Y005784D02*
X045625Y005784D01*
X045697Y005942D02*
X043576Y005942D01*
X043576Y006101D02*
X045856Y006101D01*
X046394Y006101D02*
X047499Y006101D01*
X047356Y005942D02*
X046553Y005942D01*
X046625Y005784D02*
X047291Y005784D01*
X047285Y005625D02*
X046625Y005625D01*
X046774Y005467D02*
X047322Y005467D01*
X047416Y005308D02*
X046932Y005308D01*
X047091Y005150D02*
X047590Y005150D01*
X047390Y004991D02*
X047249Y004991D01*
X047125Y004663D02*
X048125Y004663D01*
X048125Y005663D02*
X048625Y005663D01*
X050594Y004907D02*
X050838Y004663D01*
X051625Y004663D01*
X051246Y004991D02*
X050962Y004991D01*
X050864Y005150D02*
X051405Y005150D01*
X051268Y005784D02*
X052125Y005784D01*
X052197Y005942D02*
X051351Y005942D01*
X051365Y006101D02*
X052356Y006101D01*
X052625Y005663D02*
X053425Y004663D01*
X054425Y004663D01*
X053890Y005150D02*
X053445Y005150D01*
X053318Y005308D02*
X053716Y005308D01*
X053622Y005467D02*
X053192Y005467D01*
X053125Y005625D02*
X053585Y005625D01*
X053591Y005784D02*
X053125Y005784D01*
X053053Y005942D02*
X053656Y005942D01*
X053799Y006101D02*
X052894Y006101D01*
X051320Y006259D02*
X056969Y006259D01*
X056586Y006101D02*
X055051Y006101D01*
X055194Y005942D02*
X056350Y005942D01*
X056143Y005784D02*
X055259Y005784D01*
X055265Y005625D02*
X055989Y005625D01*
X056065Y005723D02*
X056065Y005723D01*
X055868Y005467D02*
X055228Y005467D01*
X055134Y005308D02*
X055746Y005308D01*
X055666Y005150D02*
X054960Y005150D01*
X055160Y004991D02*
X055600Y004991D01*
X055534Y004833D02*
X055239Y004833D01*
X055265Y004674D02*
X055486Y004674D01*
X055465Y004516D02*
X055249Y004516D01*
X055183Y004357D02*
X055444Y004357D01*
X055423Y004199D02*
X055016Y004199D01*
X055022Y004040D02*
X055434Y004040D01*
X055455Y003882D02*
X055152Y003882D01*
X055201Y003723D02*
X055476Y003723D01*
X055505Y003565D02*
X055195Y003565D01*
X055193Y003550D02*
X055205Y003625D01*
X055205Y003643D01*
X054445Y003643D01*
X054445Y003183D01*
X054763Y003183D01*
X054837Y003195D01*
X054909Y003218D01*
X054977Y003252D01*
X055038Y003297D01*
X055091Y003350D01*
X055136Y003411D01*
X055170Y003479D01*
X055193Y003550D01*
X055132Y003406D02*
X055570Y003406D01*
X055636Y003248D02*
X054968Y003248D01*
X054445Y003248D02*
X054405Y003248D01*
X054405Y003406D02*
X054445Y003406D01*
X054445Y003565D02*
X054405Y003565D01*
X053882Y003248D02*
X052832Y003248D01*
X052807Y003223D02*
X053065Y003481D01*
X053065Y003663D01*
X053065Y003845D01*
X052807Y004103D01*
X052625Y004103D01*
X052625Y003663D01*
X052625Y003663D01*
X052625Y003663D01*
X053065Y003663D01*
X052625Y003663D01*
X052625Y003663D01*
X052185Y003663D01*
X052185Y003481D01*
X052443Y003223D01*
X052625Y003223D01*
X052807Y003223D01*
X052625Y003223D02*
X052625Y003663D01*
X052625Y003663D01*
X052625Y003223D01*
X052625Y003248D02*
X052625Y003248D01*
X052625Y003406D02*
X052625Y003406D01*
X052625Y003565D02*
X052625Y003565D01*
X052625Y003723D02*
X052625Y003723D01*
X052625Y003882D02*
X052625Y003882D01*
X052625Y004040D02*
X052625Y004040D01*
X052870Y004040D02*
X053828Y004040D01*
X053834Y004199D02*
X052868Y004199D01*
X053027Y004357D02*
X053316Y004357D01*
X053133Y004516D02*
X053125Y004516D01*
X053028Y003882D02*
X053698Y003882D01*
X053649Y003723D02*
X053065Y003723D01*
X053065Y003565D02*
X053655Y003565D01*
X053718Y003406D02*
X052991Y003406D01*
X052418Y003248D02*
X050990Y003248D01*
X050999Y003257D02*
X051023Y003298D01*
X051035Y003344D01*
X051035Y003615D01*
X050647Y003615D01*
X050647Y003188D01*
X050879Y003188D01*
X050924Y003200D01*
X050965Y003224D01*
X050999Y003257D01*
X051035Y003406D02*
X052259Y003406D01*
X052185Y003565D02*
X051035Y003565D01*
X051035Y003723D02*
X052185Y003723D01*
X052222Y003882D02*
X051035Y003882D01*
X050647Y003882D02*
X050551Y003882D01*
X050551Y004040D02*
X050647Y004040D01*
X050647Y003723D02*
X050551Y003723D01*
X050551Y003565D02*
X050647Y003565D01*
X050647Y003406D02*
X050551Y003406D01*
X050551Y003248D02*
X050647Y003248D01*
X053572Y004991D02*
X053690Y004991D01*
X051285Y006418D02*
X059625Y006418D01*
X059625Y006576D02*
X051285Y006576D01*
X051285Y006735D02*
X059625Y006735D01*
X059625Y006893D02*
X051285Y006893D01*
X051285Y007052D02*
X059625Y007052D01*
X059625Y007210D02*
X051382Y007210D01*
X051540Y007369D02*
X059625Y007369D01*
X059625Y007527D02*
X058799Y007527D01*
X058957Y007686D02*
X059625Y007686D01*
X059625Y007844D02*
X059116Y007844D01*
X059185Y008003D02*
X059625Y008003D01*
X059625Y008161D02*
X059185Y008161D01*
X059185Y008320D02*
X059625Y008320D01*
X059625Y008478D02*
X059185Y008478D01*
X059185Y008637D02*
X059625Y008637D01*
X059625Y008795D02*
X059185Y008795D01*
X059185Y008954D02*
X059625Y008954D01*
X059625Y009112D02*
X059185Y009112D01*
X059185Y009271D02*
X059625Y009271D01*
X059625Y009429D02*
X059185Y009429D01*
X059185Y009588D02*
X059625Y009588D01*
X059625Y009746D02*
X059185Y009746D01*
X059185Y009905D02*
X059625Y009905D01*
X059625Y010063D02*
X059185Y010063D01*
X059185Y010222D02*
X059625Y010222D01*
X059625Y010380D02*
X059185Y010380D01*
X059185Y010539D02*
X059625Y010539D01*
X059625Y010697D02*
X059185Y010697D01*
X059185Y010856D02*
X059625Y010856D01*
X059625Y011014D02*
X059185Y011014D01*
X059185Y011173D02*
X059625Y011173D01*
X059625Y011331D02*
X059185Y011331D01*
X059185Y011490D02*
X059625Y011490D01*
X059625Y011648D02*
X059185Y011648D01*
X059185Y011807D02*
X059625Y011807D01*
X059625Y011965D02*
X059185Y011965D01*
X059185Y012124D02*
X059625Y012124D01*
X059625Y012282D02*
X059185Y012282D01*
X059185Y012441D02*
X059625Y012441D01*
X059625Y012599D02*
X059185Y012599D01*
X059185Y012758D02*
X059625Y012758D01*
X059625Y012916D02*
X059185Y012916D01*
X059185Y013075D02*
X059625Y013075D01*
X059625Y013233D02*
X059185Y013233D01*
X059161Y013392D02*
X059625Y013392D01*
X059625Y013550D02*
X059047Y013550D01*
X058888Y013709D02*
X059625Y013709D01*
X059625Y013867D02*
X058730Y013867D01*
X058830Y013767D02*
X058830Y013767D01*
X058126Y014026D02*
X059625Y014026D01*
X059625Y014184D02*
X052810Y014184D01*
X052726Y014026D02*
X056609Y014026D01*
X056805Y014026D02*
X056845Y014026D01*
X056845Y013867D02*
X056805Y013867D01*
X056805Y013709D02*
X056845Y013709D01*
X056805Y013550D02*
X052965Y013550D01*
X052965Y013392D02*
X056345Y013392D01*
X056476Y013233D02*
X052859Y013233D01*
X052701Y013075D02*
X056573Y013075D01*
X056415Y012916D02*
X050945Y012916D01*
X050945Y012758D02*
X055767Y012758D01*
X055609Y012599D02*
X050945Y012599D01*
X050945Y012441D02*
X055450Y012441D01*
X055292Y012282D02*
X050945Y012282D01*
X050945Y012124D02*
X055133Y012124D01*
X055125Y011663D02*
X053125Y011663D01*
X052125Y010663D01*
X051731Y010856D02*
X051385Y010856D01*
X051543Y010697D02*
X051687Y010697D01*
X051702Y010539D02*
X051702Y010539D01*
X051625Y010163D02*
X050625Y011163D01*
X050625Y016463D01*
X051225Y017063D01*
X051925Y017063D01*
X052425Y017563D01*
X051925Y018063D02*
X051225Y018063D01*
X050125Y016963D01*
X050125Y010663D01*
X051125Y009663D01*
X053125Y009663D01*
X053625Y010163D01*
X055125Y010163D01*
X056025Y011063D01*
X057325Y011063D01*
X057825Y011563D01*
X057325Y012063D02*
X056025Y012063D01*
X055125Y011163D01*
X053625Y011163D01*
X052625Y010163D01*
X051625Y010163D01*
X051857Y011014D02*
X051226Y011014D01*
X051068Y011173D02*
X052182Y011173D01*
X052341Y011331D02*
X050945Y011331D01*
X050945Y011490D02*
X052499Y011490D01*
X052658Y011648D02*
X050945Y011648D01*
X050945Y011807D02*
X052816Y011807D01*
X053019Y011965D02*
X050945Y011965D01*
X050945Y013075D02*
X051149Y013075D01*
X050991Y013233D02*
X050945Y013233D01*
X051701Y013075D02*
X052149Y013075D01*
X051991Y013233D02*
X051859Y013233D01*
X052965Y013709D02*
X056345Y013709D01*
X056451Y013867D02*
X052884Y013867D01*
X052425Y014563D02*
X052525Y014663D01*
X057225Y014663D01*
X057531Y014977D02*
X059625Y014977D01*
X059625Y015135D02*
X058238Y015135D01*
X058012Y015135D02*
X052761Y015135D01*
X052425Y015563D02*
X058125Y015563D01*
X058514Y015769D02*
X059625Y015769D01*
X059625Y015611D02*
X058563Y015611D01*
X058553Y015452D02*
X059625Y015452D01*
X059625Y015294D02*
X058476Y015294D01*
X058380Y015928D02*
X059625Y015928D01*
X059625Y016086D02*
X052712Y016086D01*
X052824Y015928D02*
X057870Y015928D01*
X057377Y016562D02*
X059625Y016562D01*
X059625Y016720D02*
X057535Y016720D01*
X057694Y016879D02*
X059625Y016879D01*
X059625Y017037D02*
X057852Y017037D01*
X058011Y017196D02*
X059625Y017196D01*
X059625Y017354D02*
X058169Y017354D01*
X058328Y017513D02*
X059625Y017513D01*
X059625Y017671D02*
X058486Y017671D01*
X058645Y017830D02*
X059625Y017830D01*
X059625Y017988D02*
X058803Y017988D01*
X058962Y018147D02*
X059625Y018147D01*
X059625Y018305D02*
X059106Y018305D01*
X059625Y016403D02*
X057218Y016403D01*
X056994Y016245D02*
X059625Y016245D01*
X059625Y014818D02*
X057635Y014818D01*
X057663Y014660D02*
X059625Y014660D01*
X059625Y014501D02*
X057632Y014501D01*
X057525Y014343D02*
X059625Y014343D01*
X057524Y014026D02*
X057041Y014026D01*
X057199Y013867D02*
X057366Y013867D01*
X057825Y012563D02*
X057325Y012063D01*
X056825Y011563D02*
X056025Y011563D01*
X055125Y010663D01*
X054125Y010663D01*
X054625Y009663D02*
X055125Y009663D01*
X056025Y010563D01*
X056825Y010563D01*
X057325Y010063D02*
X057825Y010563D01*
X056825Y009563D02*
X056525Y009563D01*
X055625Y008663D01*
X055125Y008663D01*
X058281Y006259D02*
X059625Y006259D01*
X059625Y006101D02*
X058664Y006101D01*
X058900Y005942D02*
X059625Y005942D01*
X059625Y005784D02*
X059107Y005784D01*
X059261Y005625D02*
X059625Y005625D01*
X059625Y005467D02*
X059382Y005467D01*
X059504Y005308D02*
X059625Y005308D01*
X059625Y005150D02*
X059584Y005150D01*
X055125Y011663D02*
X056025Y012563D01*
X056825Y012563D01*
X051925Y018063D02*
X052425Y018563D01*
X051925Y020063D02*
X052425Y020563D01*
X051925Y024826D02*
X051689Y025063D01*
X051965Y025339D01*
X051965Y025344D01*
X052206Y025103D01*
X052201Y025103D01*
X051925Y024826D01*
X051789Y024962D02*
X052061Y024962D01*
X051925Y025063D02*
X049225Y025063D01*
X051747Y025121D02*
X052188Y025121D01*
X052030Y025279D02*
X051905Y025279D01*
X051925Y025063D02*
X052425Y025563D01*
X037125Y026363D02*
X037125Y027963D01*
X037125Y026363D02*
X033625Y022863D01*
X033625Y010563D01*
X033153Y009271D02*
X033097Y009271D01*
X032938Y009112D02*
X033312Y009112D01*
X032312Y009112D02*
X031938Y009112D01*
X032097Y009271D02*
X032153Y009271D01*
X035012Y009271D02*
X035153Y009271D01*
X035625Y007663D02*
X015625Y007663D01*
X013125Y010163D01*
X013125Y010953D01*
X012625Y010953D02*
X012625Y010163D01*
X015625Y007163D01*
X028625Y007163D01*
X029256Y006532D01*
X029256Y005419D01*
X029599Y005467D02*
X029711Y005467D01*
X029711Y005521D02*
X029711Y005360D01*
X029994Y005360D01*
X029994Y005677D01*
X029867Y005677D01*
X029821Y005665D01*
X029780Y005642D01*
X029747Y005608D01*
X029723Y005567D01*
X029711Y005521D01*
X029764Y005625D02*
X029576Y005625D01*
X029576Y005784D02*
X031625Y005784D01*
X031625Y005625D02*
X030224Y005625D01*
X030208Y005642D02*
X030167Y005665D01*
X030121Y005677D01*
X029994Y005677D01*
X029994Y005360D01*
X029994Y005360D01*
X029994Y005360D01*
X030277Y005360D01*
X030277Y005521D01*
X030265Y005567D01*
X030241Y005608D01*
X030208Y005642D01*
X030277Y005467D02*
X031625Y005467D01*
X031772Y005308D02*
X030277Y005308D01*
X030277Y005360D02*
X029994Y005360D01*
X029994Y005360D01*
X029711Y005360D01*
X029711Y005198D01*
X029723Y005152D01*
X029728Y005143D01*
X029687Y005102D01*
X029651Y005014D01*
X029651Y004800D01*
X029687Y004712D01*
X029755Y004644D01*
X029839Y004610D01*
X030057Y004392D01*
X030175Y004343D01*
X030738Y004343D01*
X030918Y004163D01*
X031332Y004163D01*
X031625Y004456D01*
X031625Y004870D01*
X031332Y005163D01*
X030918Y005163D01*
X030738Y004983D01*
X030371Y004983D01*
X030336Y005018D01*
X030301Y005102D01*
X030260Y005143D01*
X030265Y005152D01*
X030277Y005198D01*
X030277Y005360D01*
X030264Y005150D02*
X030905Y005150D01*
X030746Y004991D02*
X030362Y004991D01*
X030238Y004663D02*
X029994Y004907D01*
X030238Y004663D02*
X031125Y004663D01*
X031625Y004674D02*
X031625Y004674D01*
X031625Y004516D02*
X031625Y004516D01*
X031527Y004357D02*
X031723Y004357D01*
X031882Y004199D02*
X031368Y004199D01*
X031722Y003882D02*
X030435Y003882D01*
X030435Y003982D02*
X030423Y004028D01*
X030399Y004069D01*
X030365Y004102D01*
X030324Y004126D01*
X030279Y004138D01*
X030047Y004138D01*
X030047Y003711D01*
X030435Y003711D01*
X030435Y003982D01*
X030415Y004040D02*
X031880Y004040D01*
X031943Y004103D02*
X031685Y003845D01*
X031685Y003663D01*
X032125Y003663D01*
X032125Y004103D01*
X031943Y004103D01*
X032125Y004103D02*
X032125Y003663D01*
X032125Y003663D01*
X032125Y003663D01*
X032565Y003663D01*
X032565Y003845D01*
X032307Y004103D01*
X032125Y004103D01*
X032125Y004040D02*
X032125Y004040D01*
X032125Y003882D02*
X032125Y003882D01*
X032125Y003723D02*
X032125Y003723D01*
X032125Y003663D02*
X032125Y003663D01*
X031685Y003663D01*
X031685Y003481D01*
X031943Y003223D01*
X032125Y003223D01*
X032307Y003223D01*
X032565Y003481D01*
X032565Y003663D01*
X032125Y003663D01*
X032125Y003223D01*
X032125Y003663D01*
X032125Y003663D01*
X032125Y003565D02*
X032125Y003565D01*
X032125Y003406D02*
X032125Y003406D01*
X032125Y003248D02*
X032125Y003248D01*
X032332Y003248D02*
X033582Y003248D01*
X033418Y003406D02*
X032491Y003406D01*
X032565Y003565D02*
X033355Y003565D01*
X033349Y003723D02*
X032565Y003723D01*
X032528Y003882D02*
X033398Y003882D01*
X033528Y004040D02*
X032370Y004040D01*
X032368Y004199D02*
X033534Y004199D01*
X033026Y004357D02*
X032527Y004357D01*
X032625Y004516D02*
X032819Y004516D01*
X032661Y004674D02*
X032625Y004674D01*
X033125Y004663D02*
X032125Y005663D01*
X032625Y005625D02*
X033285Y005625D01*
X033291Y005784D02*
X032625Y005784D01*
X032553Y005942D02*
X033356Y005942D01*
X033499Y006101D02*
X032394Y006101D01*
X031856Y006101D02*
X029576Y006101D01*
X029576Y006259D02*
X035936Y006259D01*
X035936Y006101D02*
X034751Y006101D01*
X034894Y005942D02*
X035936Y005942D01*
X035936Y005784D02*
X035013Y005784D01*
X035172Y005625D02*
X035936Y005625D01*
X035913Y005467D02*
X035330Y005467D01*
X035489Y005308D02*
X035914Y005308D01*
X036256Y005419D02*
X036256Y007032D01*
X035625Y007663D01*
X036055Y007686D02*
X042649Y007686D01*
X042808Y007527D02*
X036213Y007527D01*
X036372Y007369D02*
X042936Y007369D01*
X042936Y007210D02*
X036528Y007210D01*
X036576Y007052D02*
X042936Y007052D01*
X042936Y006893D02*
X036576Y006893D01*
X036576Y006735D02*
X042936Y006735D01*
X042936Y006576D02*
X036576Y006576D01*
X036576Y006418D02*
X042936Y006418D01*
X042936Y006259D02*
X036576Y006259D01*
X036576Y006101D02*
X038856Y006101D01*
X038697Y005942D02*
X036576Y005942D01*
X036576Y005784D02*
X038625Y005784D01*
X038625Y005625D02*
X037224Y005625D01*
X037208Y005642D02*
X037167Y005665D01*
X037121Y005677D01*
X036994Y005677D01*
X036867Y005677D01*
X036821Y005665D01*
X036780Y005642D01*
X036747Y005608D01*
X036723Y005567D01*
X036711Y005521D01*
X036711Y005360D01*
X036994Y005360D01*
X036994Y005677D01*
X036994Y005360D01*
X036994Y005360D01*
X036994Y005360D01*
X037277Y005360D01*
X037277Y005521D01*
X037265Y005567D01*
X037241Y005608D01*
X037208Y005642D01*
X037277Y005467D02*
X038625Y005467D01*
X038772Y005308D02*
X037277Y005308D01*
X037277Y005360D02*
X036994Y005360D01*
X036994Y005360D01*
X036711Y005360D01*
X036711Y005198D01*
X036723Y005152D01*
X036728Y005143D01*
X036687Y005102D01*
X036651Y005014D01*
X036651Y004800D01*
X036687Y004712D01*
X036755Y004644D01*
X036839Y004610D01*
X037057Y004392D01*
X037175Y004343D01*
X037738Y004343D01*
X037918Y004163D01*
X038332Y004163D01*
X038625Y004456D01*
X038625Y004870D01*
X038332Y005163D01*
X037918Y005163D01*
X037738Y004983D01*
X037371Y004983D01*
X037336Y005018D01*
X037301Y005102D01*
X037260Y005143D01*
X037265Y005152D01*
X037277Y005198D01*
X037277Y005360D01*
X037264Y005150D02*
X037905Y005150D01*
X037746Y004991D02*
X037362Y004991D01*
X037238Y004663D02*
X036994Y004907D01*
X037238Y004663D02*
X038125Y004663D01*
X038625Y004674D02*
X038625Y004674D01*
X038625Y004516D02*
X038625Y004516D01*
X038527Y004357D02*
X038723Y004357D01*
X038882Y004199D02*
X038368Y004199D01*
X038722Y003882D02*
X037435Y003882D01*
X037435Y003982D02*
X037423Y004028D01*
X037399Y004069D01*
X037365Y004102D01*
X037324Y004126D01*
X037279Y004138D01*
X037047Y004138D01*
X037047Y003711D01*
X037435Y003711D01*
X037435Y003982D01*
X037415Y004040D02*
X038880Y004040D01*
X038943Y004103D02*
X038685Y003845D01*
X038685Y003663D01*
X039125Y003663D01*
X039125Y004103D01*
X038943Y004103D01*
X039125Y004103D02*
X039125Y003663D01*
X039125Y003663D01*
X039125Y003663D01*
X039565Y003663D01*
X039565Y003845D01*
X039307Y004103D01*
X039125Y004103D01*
X039125Y004040D02*
X039125Y004040D01*
X039125Y003882D02*
X039125Y003882D01*
X039125Y003723D02*
X039125Y003723D01*
X039125Y003663D02*
X039125Y003663D01*
X038685Y003663D01*
X038685Y003481D01*
X038943Y003223D01*
X039125Y003223D01*
X039307Y003223D01*
X039565Y003481D01*
X039565Y003663D01*
X039125Y003663D01*
X039125Y003223D01*
X039125Y003663D01*
X039125Y003663D01*
X039125Y003565D02*
X039125Y003565D01*
X039125Y003406D02*
X039125Y003406D01*
X039125Y003248D02*
X039125Y003248D01*
X039332Y003248D02*
X040582Y003248D01*
X040418Y003406D02*
X039491Y003406D01*
X039565Y003565D02*
X040355Y003565D01*
X040349Y003723D02*
X039565Y003723D01*
X039528Y003882D02*
X040398Y003882D01*
X040528Y004040D02*
X039370Y004040D01*
X039368Y004199D02*
X040534Y004199D01*
X040026Y004357D02*
X039527Y004357D01*
X039625Y004516D02*
X039819Y004516D01*
X039661Y004674D02*
X039625Y004674D01*
X040125Y004663D02*
X039125Y005663D01*
X039625Y005625D02*
X040285Y005625D01*
X040291Y005784D02*
X039625Y005784D01*
X039553Y005942D02*
X040356Y005942D01*
X040499Y006101D02*
X039394Y006101D01*
X039774Y005467D02*
X040322Y005467D01*
X040416Y005308D02*
X039932Y005308D01*
X040091Y005150D02*
X040590Y005150D01*
X040390Y004991D02*
X040249Y004991D01*
X040125Y004663D02*
X041125Y004663D01*
X041716Y004199D02*
X042891Y004199D01*
X042891Y004357D02*
X041883Y004357D01*
X041949Y004516D02*
X042891Y004516D01*
X042769Y004040D02*
X041722Y004040D01*
X041852Y003882D02*
X042755Y003882D01*
X042755Y003723D02*
X041901Y003723D01*
X041905Y003643D02*
X041145Y003643D01*
X041145Y003183D01*
X041463Y003183D01*
X041537Y003195D01*
X041609Y003218D01*
X041677Y003252D01*
X041738Y003297D01*
X041791Y003350D01*
X041836Y003411D01*
X041870Y003479D01*
X041893Y003550D01*
X041905Y003625D01*
X041905Y003643D01*
X041895Y003565D02*
X042755Y003565D01*
X042755Y003406D02*
X041832Y003406D01*
X041668Y003248D02*
X042785Y003248D01*
X043951Y003248D02*
X044047Y003248D01*
X044047Y003188D02*
X044279Y003188D01*
X044324Y003200D01*
X044365Y003224D01*
X044399Y003257D01*
X044423Y003298D01*
X044435Y003344D01*
X044435Y003615D01*
X044047Y003615D01*
X044047Y003188D01*
X044047Y003406D02*
X043951Y003406D01*
X043951Y003565D02*
X044047Y003565D01*
X044047Y003711D02*
X044435Y003711D01*
X044435Y003982D01*
X044423Y004028D01*
X044399Y004069D01*
X044365Y004102D01*
X044324Y004126D01*
X044279Y004138D01*
X044047Y004138D01*
X044047Y003711D01*
X044047Y003723D02*
X043951Y003723D01*
X043951Y003882D02*
X044047Y003882D01*
X044047Y004040D02*
X043951Y004040D01*
X044140Y004357D02*
X043611Y004357D01*
X043611Y004199D02*
X044882Y004199D01*
X045368Y004199D02*
X045882Y004199D01*
X045880Y004040D02*
X044415Y004040D01*
X044435Y003882D02*
X045722Y003882D01*
X045685Y003723D02*
X044435Y003723D01*
X044435Y003565D02*
X045685Y003565D01*
X045759Y003406D02*
X044435Y003406D01*
X044390Y003248D02*
X045918Y003248D01*
X046491Y003406D02*
X047418Y003406D01*
X047355Y003565D02*
X046565Y003565D01*
X046565Y003723D02*
X047349Y003723D01*
X047398Y003882D02*
X046528Y003882D01*
X045723Y004357D02*
X045527Y004357D01*
X045625Y004516D02*
X045625Y004516D01*
X045625Y004674D02*
X045625Y004674D01*
X045625Y004833D02*
X045625Y004833D01*
X045504Y004991D02*
X045746Y004991D01*
X045905Y005150D02*
X045345Y005150D01*
X044905Y005150D02*
X044264Y005150D01*
X044362Y004991D02*
X044746Y004991D01*
X045125Y004663D02*
X044238Y004663D01*
X043994Y004907D01*
X043651Y004833D02*
X043615Y004833D01*
X043611Y004991D02*
X043651Y004991D01*
X043724Y005150D02*
X043522Y005150D01*
X043598Y005308D02*
X043711Y005308D01*
X043711Y005467D02*
X043599Y005467D01*
X043256Y005419D02*
X043256Y007532D01*
X042625Y008163D01*
X015625Y008163D01*
X013625Y010163D01*
X013625Y010953D01*
X014519Y010222D02*
X015615Y010222D01*
X015585Y010063D02*
X014677Y010063D01*
X014836Y009905D02*
X015614Y009905D01*
X015719Y009746D02*
X014994Y009746D01*
X015422Y010380D02*
X015720Y010380D01*
X015765Y010539D02*
X015495Y010539D01*
X016025Y010063D02*
X016125Y010163D01*
X017083Y010856D02*
X019505Y010856D01*
X019505Y011014D02*
X017160Y011014D01*
X017160Y011173D02*
X019505Y011173D01*
X019505Y011331D02*
X017160Y011331D01*
X017160Y011490D02*
X019505Y011490D01*
X019505Y011648D02*
X017137Y011648D01*
X017100Y011807D02*
X019505Y011807D01*
X019505Y011965D02*
X017100Y011965D01*
X017100Y012085D02*
X017100Y012316D01*
X017088Y012362D01*
X017064Y012403D01*
X017031Y012437D01*
X016990Y012460D01*
X016944Y012473D01*
X016673Y012473D01*
X016673Y012085D01*
X017100Y012085D01*
X017100Y012124D02*
X019505Y012124D01*
X019505Y012282D02*
X017100Y012282D01*
X017024Y012441D02*
X019505Y012441D01*
X019505Y012599D02*
X014945Y012599D01*
X014945Y012441D02*
X016226Y012441D01*
X016150Y012282D02*
X014945Y012282D01*
X014945Y012124D02*
X016150Y012124D01*
X016150Y011965D02*
X014945Y011965D01*
X014945Y011807D02*
X016150Y011807D01*
X016577Y012124D02*
X016673Y012124D01*
X016673Y012282D02*
X016577Y012282D01*
X016577Y012441D02*
X016673Y012441D01*
X016625Y011289D02*
X016625Y011263D01*
X015363Y012758D02*
X019505Y012758D01*
X019505Y012916D02*
X015491Y012916D01*
X015495Y013075D02*
X019505Y013075D01*
X019505Y013233D02*
X015495Y013233D01*
X015495Y013392D02*
X019505Y013392D01*
X019505Y013550D02*
X015495Y013550D01*
X015495Y013709D02*
X019505Y013709D01*
X019505Y013867D02*
X015476Y013867D01*
X015445Y014026D02*
X019505Y014026D01*
X019505Y014184D02*
X015445Y014184D01*
X015445Y014343D02*
X019505Y014343D01*
X019505Y014501D02*
X015445Y014501D01*
X015445Y014660D02*
X019505Y014660D01*
X019505Y014818D02*
X015445Y014818D01*
X015524Y014977D02*
X019505Y014977D01*
X019505Y015135D02*
X015565Y015135D01*
X015547Y015294D02*
X019505Y015294D01*
X019505Y015452D02*
X015458Y015452D01*
X015125Y015163D02*
X015125Y013373D01*
X013887Y012758D02*
X013863Y012758D01*
X013387Y012758D02*
X013363Y012758D01*
X012887Y012758D02*
X012863Y012758D01*
X012125Y013075D02*
X012125Y013075D01*
X012125Y013233D02*
X012125Y013233D01*
X012125Y013392D02*
X012125Y013392D01*
X012125Y013550D02*
X012125Y013550D01*
X012125Y013709D02*
X012125Y013709D01*
X012125Y013867D02*
X012125Y013867D01*
X012651Y014184D02*
X011099Y014184D01*
X009305Y014977D02*
X006148Y014977D01*
X006307Y015135D02*
X009305Y015135D01*
X009333Y015294D02*
X006465Y015294D01*
X006624Y015452D02*
X009462Y015452D01*
X009620Y015611D02*
X006782Y015611D01*
X006941Y015769D02*
X009779Y015769D01*
X009937Y015928D02*
X007099Y015928D01*
X006556Y016403D02*
X000625Y016403D01*
X000625Y016245D02*
X006398Y016245D01*
X006239Y016086D02*
X000625Y016086D01*
X000625Y015928D02*
X006081Y015928D01*
X005922Y015769D02*
X000625Y015769D01*
X000625Y015611D02*
X005764Y015611D01*
X005605Y015452D02*
X000625Y015452D01*
X000625Y015294D02*
X005447Y015294D01*
X005288Y015135D02*
X000625Y015135D01*
X000625Y014977D02*
X005130Y014977D01*
X004971Y014818D02*
X004409Y014818D01*
X004611Y014660D02*
X004876Y014660D01*
X004865Y014501D02*
X004745Y014501D01*
X004836Y014343D02*
X004865Y014343D01*
X003301Y014818D02*
X000625Y014818D01*
X000625Y014660D02*
X003099Y014660D01*
X002965Y014501D02*
X000625Y014501D01*
X000625Y014343D02*
X002874Y014343D01*
X002823Y014184D02*
X000625Y014184D01*
X000625Y014026D02*
X002785Y014026D01*
X002785Y013867D02*
X000625Y013867D01*
X000625Y013709D02*
X002799Y013709D01*
X002842Y013550D02*
X000625Y013550D01*
X000625Y013392D02*
X002914Y013392D01*
X003011Y013233D02*
X000625Y013233D01*
X000625Y013075D02*
X003170Y013075D01*
X003424Y012916D02*
X000625Y012916D01*
X000625Y016562D02*
X006715Y016562D01*
X006873Y016720D02*
X000625Y016720D01*
X000625Y016879D02*
X007032Y016879D01*
X007190Y017037D02*
X000625Y017037D01*
X000625Y017196D02*
X007349Y017196D01*
X007507Y017354D02*
X000625Y017354D01*
X000625Y017513D02*
X007666Y017513D01*
X007824Y017671D02*
X000625Y017671D01*
X000625Y017830D02*
X007983Y017830D01*
X008141Y017988D02*
X000625Y017988D01*
X000625Y018147D02*
X008300Y018147D01*
X008458Y018305D02*
X000625Y018305D01*
X000625Y018464D02*
X008617Y018464D01*
X008691Y018622D02*
X000625Y018622D01*
X000625Y018781D02*
X008571Y018781D01*
X008555Y018939D02*
X000625Y018939D01*
X000625Y019098D02*
X008555Y019098D01*
X008555Y019256D02*
X000625Y019256D01*
X000625Y019415D02*
X000626Y019415D01*
X002062Y019415D02*
X002792Y019415D01*
X002777Y019573D02*
X002076Y019573D01*
X002076Y019732D02*
X002777Y019732D01*
X002777Y019890D02*
X002076Y019890D01*
X002076Y020049D02*
X002777Y020049D01*
X002231Y020207D02*
X002076Y020207D01*
X003182Y020683D02*
X005130Y020683D01*
X005070Y019573D02*
X004241Y019573D01*
X004227Y019415D02*
X005099Y019415D01*
X003509Y020841D02*
X003509Y020841D01*
X003509Y021000D02*
X003509Y021000D01*
X003509Y021663D02*
X007025Y021663D01*
X008173Y021614D02*
X008173Y020836D01*
X008685Y020836D02*
X008685Y020023D01*
X008325Y019663D01*
X008530Y019415D02*
X008555Y019415D01*
X008941Y019273D02*
X009051Y019163D01*
X008941Y019273D02*
X008941Y020836D01*
X007418Y020366D02*
X007180Y020366D01*
X010194Y019573D02*
X019505Y019573D01*
X019505Y019415D02*
X010235Y019415D01*
X010235Y019256D02*
X019505Y019256D01*
X019505Y019098D02*
X010235Y019098D01*
X010235Y018939D02*
X019505Y018939D01*
X019505Y018781D02*
X010213Y018781D01*
X015484Y022902D02*
X016933Y022902D01*
X016775Y023060D02*
X015557Y023060D01*
X015563Y023219D02*
X016616Y023219D01*
X016458Y023377D02*
X015510Y023377D01*
X015445Y023536D02*
X016299Y023536D01*
X016141Y023694D02*
X015445Y023694D01*
X015445Y023853D02*
X015982Y023853D01*
X015824Y024011D02*
X015536Y024011D01*
X015563Y024170D02*
X015665Y024170D01*
X015125Y024163D02*
X015125Y023163D01*
X010339Y025829D02*
X009783Y025274D01*
X009693Y025184D01*
X009645Y025066D01*
X009645Y024225D01*
X009582Y024225D01*
X009494Y024189D01*
X009471Y024165D01*
X009453Y024165D01*
X009453Y024148D01*
X009453Y024165D01*
X009435Y024165D01*
X009412Y024189D01*
X009324Y024225D01*
X009071Y024225D01*
X009069Y024225D01*
X009068Y024225D01*
X008815Y024225D01*
X008813Y024225D01*
X008812Y024225D01*
X008749Y024225D01*
X008749Y024835D01*
X009758Y025843D01*
X010325Y025843D01*
X010339Y025829D01*
X010264Y025755D02*
X009670Y025755D01*
X009511Y025596D02*
X010106Y025596D01*
X009947Y025438D02*
X009353Y025438D01*
X009194Y025279D02*
X009789Y025279D01*
X009667Y025121D02*
X009036Y025121D01*
X008877Y024962D02*
X009645Y024962D01*
X009645Y024804D02*
X008749Y024804D01*
X008749Y024645D02*
X009645Y024645D01*
X009645Y024487D02*
X008749Y024487D01*
X008749Y024328D02*
X009645Y024328D01*
X009475Y024170D02*
X009431Y024170D01*
X009453Y024148D02*
X009453Y024148D01*
X009453Y024148D01*
X009453Y024535D02*
X009453Y023690D01*
X009453Y023219D02*
X009453Y023219D01*
X009453Y024535D02*
X009425Y024563D01*
X008447Y025438D02*
X000625Y025438D01*
X000625Y025596D02*
X008606Y025596D01*
X008764Y025755D02*
X000625Y025755D01*
X000625Y025913D02*
X008923Y025913D01*
X009081Y026072D02*
X000625Y026072D01*
X000625Y026230D02*
X009240Y026230D01*
X009398Y026389D02*
X000625Y026389D01*
X000625Y025279D02*
X008289Y025279D01*
X008147Y025121D02*
X000625Y025121D01*
X000625Y024962D02*
X008109Y024962D01*
X008109Y024804D02*
X000625Y024804D01*
X000625Y024645D02*
X008109Y024645D01*
X008109Y024487D02*
X000625Y024487D01*
X000625Y024328D02*
X008109Y024328D01*
X007428Y024170D02*
X000625Y024170D01*
X000625Y024011D02*
X000696Y024011D01*
X001992Y024011D02*
X002861Y024011D01*
X002777Y023853D02*
X002076Y023853D01*
X002076Y023694D02*
X002777Y023694D01*
X002777Y023536D02*
X002076Y023536D01*
X002076Y023377D02*
X002777Y023377D01*
X002777Y023219D02*
X002076Y023219D01*
X002076Y023060D02*
X002127Y023060D01*
X003148Y022743D02*
X004490Y022743D01*
X004490Y022902D02*
X004202Y022902D01*
X004241Y023060D02*
X004490Y023060D01*
X004560Y023219D02*
X004241Y023219D01*
X004241Y023377D02*
X004550Y023377D01*
X004977Y023694D02*
X005073Y023694D01*
X005073Y023853D02*
X004977Y023853D01*
X005491Y023853D02*
X006259Y023853D01*
X006250Y023694D02*
X005500Y023694D01*
X005500Y023377D02*
X006250Y023377D01*
X006260Y023219D02*
X005490Y023219D01*
X006677Y023694D02*
X006773Y023694D01*
X006773Y023853D02*
X006677Y023853D01*
X010945Y011490D02*
X011793Y011490D01*
X011755Y011331D02*
X010945Y011331D01*
X010945Y011173D02*
X011755Y011173D01*
X011755Y011014D02*
X010945Y011014D01*
X010945Y010856D02*
X011755Y010856D01*
X011755Y010697D02*
X011043Y010697D01*
X011202Y010539D02*
X011755Y010539D01*
X011828Y010380D02*
X011360Y010380D01*
X011519Y010222D02*
X012305Y010222D01*
X012320Y010063D02*
X011677Y010063D01*
X011836Y009905D02*
X012430Y009905D01*
X012589Y009746D02*
X011994Y009746D01*
X012153Y009588D02*
X012747Y009588D01*
X012906Y009429D02*
X012311Y009429D01*
X012470Y009271D02*
X013064Y009271D01*
X013223Y009112D02*
X012628Y009112D01*
X012787Y008954D02*
X013381Y008954D01*
X013540Y008795D02*
X012945Y008795D01*
X013104Y008637D02*
X013698Y008637D01*
X013857Y008478D02*
X013262Y008478D01*
X013421Y008320D02*
X014015Y008320D01*
X014174Y008161D02*
X013579Y008161D01*
X013738Y008003D02*
X014332Y008003D01*
X014491Y007844D02*
X013896Y007844D01*
X014055Y007686D02*
X014649Y007686D01*
X014808Y007527D02*
X014213Y007527D01*
X014372Y007369D02*
X014966Y007369D01*
X015125Y007210D02*
X014530Y007210D01*
X014689Y007052D02*
X015283Y007052D01*
X014417Y006418D02*
X014323Y006418D01*
X014259Y006576D02*
X014164Y006576D01*
X014100Y006735D02*
X014006Y006735D01*
X013942Y006893D02*
X013847Y006893D01*
X013783Y007052D02*
X013689Y007052D01*
X013625Y007210D02*
X013530Y007210D01*
X013466Y007369D02*
X013372Y007369D01*
X013308Y007527D02*
X013213Y007527D01*
X013149Y007686D02*
X013055Y007686D01*
X012991Y007844D02*
X012896Y007844D01*
X012832Y008003D02*
X012738Y008003D01*
X012674Y008161D02*
X012579Y008161D01*
X012515Y008320D02*
X012421Y008320D01*
X012357Y008478D02*
X012262Y008478D01*
X012198Y008637D02*
X012104Y008637D01*
X012040Y008795D02*
X011945Y008795D01*
X011881Y008954D02*
X011787Y008954D01*
X011723Y009112D02*
X011628Y009112D01*
X011564Y009271D02*
X011470Y009271D01*
X011406Y009429D02*
X011311Y009429D01*
X011247Y009588D02*
X011153Y009588D01*
X011089Y009746D02*
X010994Y009746D01*
X010930Y009905D02*
X010836Y009905D01*
X010772Y010063D02*
X010677Y010063D01*
X010613Y010222D02*
X010519Y010222D01*
X010455Y010380D02*
X010445Y010380D01*
X010089Y009746D02*
X009945Y009746D01*
X009945Y009588D02*
X010247Y009588D01*
X010406Y009429D02*
X009945Y009429D01*
X009945Y009271D02*
X010564Y009271D01*
X010723Y009112D02*
X009945Y009112D01*
X009869Y008954D02*
X010881Y008954D01*
X011040Y008795D02*
X009710Y008795D01*
X009552Y008637D02*
X011198Y008637D01*
X011357Y008478D02*
X009393Y008478D01*
X009235Y008320D02*
X011515Y008320D01*
X011674Y008161D02*
X009076Y008161D01*
X008918Y008003D02*
X011832Y008003D01*
X011991Y007844D02*
X008759Y007844D01*
X008601Y007686D02*
X012149Y007686D01*
X012308Y007527D02*
X008576Y007527D01*
X008576Y007369D02*
X012466Y007369D01*
X012625Y007210D02*
X008576Y007210D01*
X008576Y007052D02*
X012783Y007052D01*
X012942Y006893D02*
X008576Y006893D01*
X008576Y006735D02*
X013100Y006735D01*
X013259Y006576D02*
X008576Y006576D01*
X008576Y006418D02*
X013417Y006418D01*
X013576Y006259D02*
X008576Y006259D01*
X008576Y006101D02*
X010856Y006101D01*
X010697Y005942D02*
X008576Y005942D01*
X008576Y005784D02*
X010625Y005784D01*
X010625Y005625D02*
X009224Y005625D01*
X009208Y005642D02*
X009167Y005665D01*
X009121Y005677D01*
X008994Y005677D01*
X008867Y005677D01*
X008821Y005665D01*
X008780Y005642D01*
X008747Y005608D01*
X008723Y005567D01*
X008711Y005521D01*
X008711Y005360D01*
X008994Y005360D01*
X008994Y005677D01*
X008994Y005360D01*
X008994Y005360D01*
X008994Y005360D01*
X009277Y005360D01*
X009277Y005521D01*
X009265Y005567D01*
X009241Y005608D01*
X009208Y005642D01*
X009277Y005467D02*
X010625Y005467D01*
X010772Y005308D02*
X009277Y005308D01*
X009277Y005360D02*
X008994Y005360D01*
X008994Y005360D01*
X008711Y005360D01*
X008711Y005198D01*
X008723Y005152D01*
X008728Y005143D01*
X008687Y005102D01*
X008651Y005014D01*
X008651Y004800D01*
X008687Y004712D01*
X008755Y004644D01*
X008839Y004610D01*
X009057Y004392D01*
X009175Y004343D01*
X009738Y004343D01*
X009918Y004163D01*
X010332Y004163D01*
X010625Y004456D01*
X010625Y004870D01*
X010332Y005163D01*
X009918Y005163D01*
X009738Y004983D01*
X009371Y004983D01*
X009336Y005018D01*
X009301Y005102D01*
X009260Y005143D01*
X009265Y005152D01*
X009277Y005198D01*
X009277Y005360D01*
X009264Y005150D02*
X009905Y005150D01*
X009746Y004991D02*
X009362Y004991D01*
X009238Y004663D02*
X008994Y004907D01*
X009238Y004663D02*
X010125Y004663D01*
X010625Y004674D02*
X010625Y004674D01*
X010625Y004516D02*
X010625Y004516D01*
X010527Y004357D02*
X010723Y004357D01*
X010882Y004199D02*
X010368Y004199D01*
X010722Y003882D02*
X009435Y003882D01*
X009435Y003982D02*
X009423Y004028D01*
X009399Y004069D01*
X009365Y004102D01*
X009324Y004126D01*
X009279Y004138D01*
X009047Y004138D01*
X009047Y003711D01*
X009435Y003711D01*
X009435Y003982D01*
X009415Y004040D02*
X010880Y004040D01*
X010943Y004103D02*
X010685Y003845D01*
X010685Y003663D01*
X011125Y003663D01*
X011125Y004103D01*
X010943Y004103D01*
X011125Y004103D02*
X011125Y003663D01*
X011125Y003663D01*
X011125Y003663D01*
X011565Y003663D01*
X011565Y003845D01*
X011307Y004103D01*
X011125Y004103D01*
X011125Y004040D02*
X011125Y004040D01*
X011125Y003882D02*
X011125Y003882D01*
X011125Y003723D02*
X011125Y003723D01*
X011125Y003663D02*
X011125Y003663D01*
X010685Y003663D01*
X010685Y003481D01*
X010943Y003223D01*
X011125Y003223D01*
X011307Y003223D01*
X011565Y003481D01*
X011565Y003663D01*
X011125Y003663D01*
X011125Y003223D01*
X011125Y003663D01*
X011125Y003663D01*
X011125Y003565D02*
X011125Y003565D01*
X011125Y003406D02*
X011125Y003406D01*
X011125Y003248D02*
X011125Y003248D01*
X011332Y003248D02*
X012582Y003248D01*
X012418Y003406D02*
X011491Y003406D01*
X011565Y003565D02*
X012355Y003565D01*
X012349Y003723D02*
X011565Y003723D01*
X011528Y003882D02*
X012398Y003882D01*
X012528Y004040D02*
X011370Y004040D01*
X011368Y004199D02*
X012534Y004199D01*
X012026Y004357D02*
X011527Y004357D01*
X011625Y004516D02*
X011819Y004516D01*
X011661Y004674D02*
X011625Y004674D01*
X012125Y004663D02*
X011125Y005663D01*
X011625Y005625D02*
X012285Y005625D01*
X012291Y005784D02*
X011625Y005784D01*
X011553Y005942D02*
X012356Y005942D01*
X012499Y006101D02*
X011394Y006101D01*
X011774Y005467D02*
X012322Y005467D01*
X012416Y005308D02*
X011932Y005308D01*
X012091Y005150D02*
X012590Y005150D01*
X012390Y004991D02*
X012249Y004991D01*
X012125Y004663D02*
X013125Y004663D01*
X013716Y004199D02*
X014891Y004199D01*
X014891Y004357D02*
X013883Y004357D01*
X013949Y004516D02*
X014891Y004516D01*
X014769Y004040D02*
X013722Y004040D01*
X013852Y003882D02*
X014755Y003882D01*
X014755Y003723D02*
X013901Y003723D01*
X013905Y003643D02*
X013145Y003643D01*
X013145Y003183D01*
X013463Y003183D01*
X013537Y003195D01*
X013609Y003218D01*
X013677Y003252D01*
X013738Y003297D01*
X013791Y003350D01*
X013836Y003411D01*
X013870Y003479D01*
X013893Y003550D01*
X013905Y003625D01*
X013905Y003643D01*
X013895Y003565D02*
X014755Y003565D01*
X014755Y003406D02*
X013832Y003406D01*
X013668Y003248D02*
X014785Y003248D01*
X015951Y003248D02*
X016047Y003248D01*
X016047Y003406D02*
X015951Y003406D01*
X015951Y003565D02*
X016047Y003565D01*
X016047Y003723D02*
X015951Y003723D01*
X015951Y003882D02*
X016047Y003882D01*
X016047Y004040D02*
X015951Y004040D01*
X015251Y004902D02*
X015256Y004907D01*
X015994Y005467D02*
X015994Y005467D01*
X015994Y005625D02*
X015994Y005625D01*
X014104Y004674D02*
X013965Y004674D01*
X013946Y004833D02*
X013939Y004833D01*
X013625Y005663D02*
X013125Y005663D01*
X010905Y005150D02*
X010345Y005150D01*
X010504Y004991D02*
X010746Y004991D01*
X010625Y004833D02*
X010625Y004833D01*
X009882Y004199D02*
X008611Y004199D01*
X008611Y004357D02*
X009140Y004357D01*
X008933Y004516D02*
X008611Y004516D01*
X008611Y004674D02*
X008725Y004674D01*
X008651Y004833D02*
X008615Y004833D01*
X008611Y004991D02*
X008651Y004991D01*
X008724Y005150D02*
X008522Y005150D01*
X008598Y005308D02*
X008711Y005308D01*
X008711Y005467D02*
X008599Y005467D01*
X008576Y005625D02*
X008764Y005625D01*
X008994Y005625D02*
X008994Y005625D01*
X008994Y005467D02*
X008994Y005467D01*
X008256Y005419D02*
X008256Y007794D01*
X008256Y004907D02*
X008251Y004902D01*
X008251Y004789D01*
X008951Y004040D02*
X009047Y004040D01*
X009047Y003882D02*
X008951Y003882D01*
X008951Y003723D02*
X009047Y003723D01*
X009047Y003615D02*
X009435Y003615D01*
X009435Y003344D01*
X009423Y003298D01*
X009399Y003257D01*
X009365Y003224D01*
X009324Y003200D01*
X009279Y003188D01*
X009047Y003188D01*
X009047Y003615D01*
X009047Y003565D02*
X008951Y003565D01*
X008951Y003406D02*
X009047Y003406D01*
X009047Y003248D02*
X008951Y003248D01*
X009390Y003248D02*
X010918Y003248D01*
X010759Y003406D02*
X009435Y003406D01*
X009435Y003565D02*
X010685Y003565D01*
X010685Y003723D02*
X009435Y003723D01*
X013105Y003565D02*
X013145Y003565D01*
X013145Y003406D02*
X013105Y003406D01*
X013105Y003248D02*
X013145Y003248D01*
X018332Y003248D02*
X019582Y003248D01*
X019418Y003406D02*
X018491Y003406D01*
X018565Y003565D02*
X019355Y003565D01*
X019349Y003723D02*
X018565Y003723D01*
X018528Y003882D02*
X019398Y003882D01*
X020105Y003565D02*
X020145Y003565D01*
X020145Y003643D02*
X020145Y003183D01*
X020463Y003183D01*
X020537Y003195D01*
X020609Y003218D01*
X020677Y003252D01*
X020738Y003297D01*
X020791Y003350D01*
X020836Y003411D01*
X020870Y003479D01*
X020893Y003550D01*
X020905Y003625D01*
X020905Y003643D01*
X020145Y003643D01*
X020145Y003406D02*
X020105Y003406D01*
X020105Y003248D02*
X020145Y003248D01*
X020668Y003248D02*
X021785Y003248D01*
X021755Y003406D02*
X020832Y003406D01*
X020895Y003565D02*
X021755Y003565D01*
X021755Y003723D02*
X020901Y003723D01*
X020852Y003882D02*
X021755Y003882D01*
X021769Y004040D02*
X020722Y004040D01*
X020716Y004199D02*
X021896Y004199D01*
X021896Y004357D02*
X020883Y004357D01*
X020949Y004516D02*
X021896Y004516D01*
X021604Y004674D02*
X020965Y004674D01*
X020939Y004833D02*
X021446Y004833D01*
X021287Y004991D02*
X020860Y004991D01*
X020660Y005150D02*
X021129Y005150D01*
X020125Y004663D02*
X019125Y004663D01*
X019249Y004991D02*
X019390Y004991D01*
X019590Y005150D02*
X019091Y005150D01*
X018932Y005308D02*
X019416Y005308D01*
X019322Y005467D02*
X018774Y005467D01*
X018625Y005625D02*
X019285Y005625D01*
X019291Y005784D02*
X018625Y005784D01*
X018553Y005942D02*
X019356Y005942D01*
X019499Y006101D02*
X018394Y006101D01*
X022006Y006735D02*
X028600Y006735D01*
X028759Y006576D02*
X022164Y006576D01*
X022323Y006418D02*
X028917Y006418D01*
X028936Y006259D02*
X022481Y006259D01*
X022574Y006101D02*
X024856Y006101D01*
X024697Y005942D02*
X022576Y005942D01*
X022576Y005784D02*
X024625Y005784D01*
X024625Y005625D02*
X023224Y005625D01*
X023208Y005642D02*
X023167Y005665D01*
X023121Y005677D01*
X022994Y005677D01*
X022867Y005677D01*
X022821Y005665D01*
X022780Y005642D01*
X022747Y005608D01*
X022723Y005567D01*
X022711Y005521D01*
X022711Y005360D01*
X022994Y005360D01*
X022994Y005677D01*
X022994Y005360D01*
X022994Y005360D01*
X022994Y005360D01*
X023277Y005360D01*
X023277Y005521D01*
X023265Y005567D01*
X023241Y005608D01*
X023208Y005642D01*
X023277Y005467D02*
X024625Y005467D01*
X024772Y005308D02*
X023277Y005308D01*
X023277Y005360D02*
X022994Y005360D01*
X022994Y005360D01*
X022711Y005360D01*
X022711Y005198D01*
X022723Y005152D01*
X022728Y005143D01*
X022687Y005102D01*
X022651Y005014D01*
X022651Y004800D01*
X022687Y004712D01*
X022755Y004644D01*
X022839Y004610D01*
X023057Y004392D01*
X023175Y004343D01*
X023738Y004343D01*
X023918Y004163D01*
X024332Y004163D01*
X024625Y004456D01*
X024625Y004870D01*
X024332Y005163D01*
X023918Y005163D01*
X023738Y004983D01*
X023371Y004983D01*
X023336Y005018D01*
X023301Y005102D01*
X023260Y005143D01*
X023265Y005152D01*
X023277Y005198D01*
X023277Y005360D01*
X023264Y005150D02*
X023905Y005150D01*
X023746Y004991D02*
X023362Y004991D01*
X023238Y004663D02*
X022994Y004907D01*
X023238Y004663D02*
X024125Y004663D01*
X024625Y004674D02*
X024625Y004674D01*
X024625Y004516D02*
X024625Y004516D01*
X024527Y004357D02*
X024723Y004357D01*
X024882Y004199D02*
X024368Y004199D01*
X024722Y003882D02*
X023435Y003882D01*
X023435Y003982D02*
X023423Y004028D01*
X023399Y004069D01*
X023365Y004102D01*
X023324Y004126D01*
X023279Y004138D01*
X023047Y004138D01*
X023047Y003711D01*
X023435Y003711D01*
X023435Y003982D01*
X023415Y004040D02*
X024880Y004040D01*
X024943Y004103D02*
X024685Y003845D01*
X024685Y003663D01*
X025125Y003663D01*
X025125Y004103D01*
X024943Y004103D01*
X025125Y004103D02*
X025125Y003663D01*
X025125Y003663D01*
X025125Y003663D01*
X025565Y003663D01*
X025565Y003845D01*
X025307Y004103D01*
X025125Y004103D01*
X025125Y004040D02*
X025125Y004040D01*
X025125Y003882D02*
X025125Y003882D01*
X025125Y003723D02*
X025125Y003723D01*
X025125Y003663D02*
X025125Y003663D01*
X024685Y003663D01*
X024685Y003481D01*
X024943Y003223D01*
X025125Y003223D01*
X025307Y003223D01*
X025565Y003481D01*
X025565Y003663D01*
X025125Y003663D01*
X025125Y003223D01*
X025125Y003663D01*
X025125Y003663D01*
X025125Y003565D02*
X025125Y003565D01*
X025125Y003406D02*
X025125Y003406D01*
X025125Y003248D02*
X025125Y003248D01*
X025332Y003248D02*
X026582Y003248D01*
X026418Y003406D02*
X025491Y003406D01*
X025565Y003565D02*
X026355Y003565D01*
X026349Y003723D02*
X025565Y003723D01*
X025528Y003882D02*
X026398Y003882D01*
X026528Y004040D02*
X025370Y004040D01*
X025368Y004199D02*
X026534Y004199D01*
X026026Y004357D02*
X025527Y004357D01*
X025625Y004516D02*
X025819Y004516D01*
X025661Y004674D02*
X025625Y004674D01*
X026125Y004663D02*
X025125Y005663D01*
X025625Y005625D02*
X026285Y005625D01*
X026291Y005784D02*
X025625Y005784D01*
X025553Y005942D02*
X026356Y005942D01*
X026499Y006101D02*
X025394Y006101D01*
X025774Y005467D02*
X026322Y005467D01*
X026416Y005308D02*
X025932Y005308D01*
X026091Y005150D02*
X026590Y005150D01*
X026390Y004991D02*
X026249Y004991D01*
X026125Y004663D02*
X027125Y004663D01*
X027716Y004199D02*
X028891Y004199D01*
X028891Y004357D02*
X027883Y004357D01*
X027949Y004516D02*
X028891Y004516D01*
X028769Y004040D02*
X027722Y004040D01*
X027852Y003882D02*
X028755Y003882D01*
X028755Y003723D02*
X027901Y003723D01*
X027905Y003643D02*
X027145Y003643D01*
X027145Y003183D01*
X027463Y003183D01*
X027537Y003195D01*
X027609Y003218D01*
X027677Y003252D01*
X027738Y003297D01*
X027791Y003350D01*
X027836Y003411D01*
X027870Y003479D01*
X027893Y003550D01*
X027905Y003625D01*
X027905Y003643D01*
X027895Y003565D02*
X028755Y003565D01*
X028755Y003406D02*
X027832Y003406D01*
X027668Y003248D02*
X028785Y003248D01*
X029951Y003248D02*
X030047Y003248D01*
X030047Y003188D02*
X030279Y003188D01*
X030324Y003200D01*
X030365Y003224D01*
X030399Y003257D01*
X030423Y003298D01*
X030435Y003344D01*
X030435Y003615D01*
X030047Y003615D01*
X030047Y003188D01*
X030047Y003406D02*
X029951Y003406D01*
X029951Y003565D02*
X030047Y003565D01*
X030047Y003723D02*
X029951Y003723D01*
X029951Y003882D02*
X030047Y003882D01*
X030047Y004040D02*
X029951Y004040D01*
X030140Y004357D02*
X029611Y004357D01*
X029611Y004199D02*
X030882Y004199D01*
X031625Y004833D02*
X031625Y004833D01*
X031504Y004991D02*
X031746Y004991D01*
X031905Y005150D02*
X031345Y005150D01*
X031697Y005942D02*
X029576Y005942D01*
X029576Y006418D02*
X035936Y006418D01*
X035936Y006576D02*
X029576Y006576D01*
X029506Y006735D02*
X035936Y006735D01*
X035936Y006893D02*
X029347Y006893D01*
X029189Y007052D02*
X035783Y007052D01*
X035625Y007210D02*
X029030Y007210D01*
X028936Y006101D02*
X027751Y006101D01*
X027894Y005942D02*
X028936Y005942D01*
X028936Y005784D02*
X028013Y005784D01*
X028172Y005625D02*
X028936Y005625D01*
X028913Y005467D02*
X028330Y005467D01*
X028489Y005308D02*
X028914Y005308D01*
X029256Y004907D02*
X029251Y004902D01*
X029522Y005150D02*
X029724Y005150D01*
X029711Y005308D02*
X029598Y005308D01*
X029611Y004991D02*
X029651Y004991D01*
X029651Y004833D02*
X029615Y004833D01*
X029611Y004674D02*
X029725Y004674D01*
X029611Y004516D02*
X029933Y004516D01*
X030435Y003723D02*
X031685Y003723D01*
X031685Y003565D02*
X030435Y003565D01*
X030435Y003406D02*
X031759Y003406D01*
X031918Y003248D02*
X030390Y003248D01*
X028104Y004674D02*
X027965Y004674D01*
X028076Y004703D02*
X028076Y004703D01*
X027946Y004833D02*
X027939Y004833D01*
X027625Y005663D02*
X027125Y005663D01*
X024905Y005150D02*
X024345Y005150D01*
X024504Y004991D02*
X024746Y004991D01*
X024625Y004833D02*
X024625Y004833D01*
X023882Y004199D02*
X022616Y004199D01*
X022616Y004357D02*
X023140Y004357D01*
X022933Y004516D02*
X022616Y004516D01*
X022616Y004674D02*
X022725Y004674D01*
X022651Y004833D02*
X022616Y004833D01*
X022611Y004991D02*
X022651Y004991D01*
X022724Y005150D02*
X022522Y005150D01*
X022598Y005308D02*
X022711Y005308D01*
X022711Y005467D02*
X022599Y005467D01*
X022576Y005625D02*
X022764Y005625D01*
X022994Y005625D02*
X022994Y005625D01*
X022994Y005467D02*
X022994Y005467D01*
X022951Y004040D02*
X023047Y004040D01*
X023047Y003882D02*
X022951Y003882D01*
X022951Y003723D02*
X023047Y003723D01*
X023047Y003615D02*
X023435Y003615D01*
X023435Y003344D01*
X023423Y003298D01*
X023399Y003257D01*
X023365Y003224D01*
X023324Y003200D01*
X023279Y003188D01*
X023047Y003188D01*
X023047Y003615D01*
X023047Y003565D02*
X022951Y003565D01*
X022951Y003406D02*
X023047Y003406D01*
X023047Y003248D02*
X022951Y003248D01*
X023390Y003248D02*
X024918Y003248D01*
X024759Y003406D02*
X023435Y003406D01*
X023435Y003565D02*
X024685Y003565D01*
X024685Y003723D02*
X023435Y003723D01*
X022256Y003668D02*
X022251Y003668D01*
X022251Y003663D01*
X022251Y003668D02*
X022125Y003668D01*
X022125Y003663D01*
X027105Y003565D02*
X027145Y003565D01*
X027145Y003406D02*
X027105Y003406D01*
X027105Y003248D02*
X027145Y003248D01*
X029994Y005467D02*
X029994Y005467D01*
X029994Y005625D02*
X029994Y005625D01*
X032774Y005467D02*
X033322Y005467D01*
X033416Y005308D02*
X032932Y005308D01*
X033091Y005150D02*
X033590Y005150D01*
X033390Y004991D02*
X033249Y004991D01*
X033125Y004663D02*
X034125Y004663D01*
X034716Y004199D02*
X035891Y004199D01*
X035891Y004357D02*
X034883Y004357D01*
X034949Y004516D02*
X035891Y004516D01*
X035769Y004040D02*
X034722Y004040D01*
X034852Y003882D02*
X035755Y003882D01*
X035755Y003723D02*
X034901Y003723D01*
X034905Y003643D02*
X034145Y003643D01*
X034145Y003183D01*
X034463Y003183D01*
X034537Y003195D01*
X034609Y003218D01*
X034677Y003252D01*
X034738Y003297D01*
X034791Y003350D01*
X034836Y003411D01*
X034870Y003479D01*
X034893Y003550D01*
X034905Y003625D01*
X034905Y003643D01*
X034895Y003565D02*
X035755Y003565D01*
X035755Y003406D02*
X034832Y003406D01*
X034668Y003248D02*
X035785Y003248D01*
X036951Y003248D02*
X037047Y003248D01*
X037047Y003188D02*
X037279Y003188D01*
X037324Y003200D01*
X037365Y003224D01*
X037399Y003257D01*
X037423Y003298D01*
X037435Y003344D01*
X037435Y003615D01*
X037047Y003615D01*
X037047Y003188D01*
X037047Y003406D02*
X036951Y003406D01*
X036951Y003565D02*
X037047Y003565D01*
X037047Y003723D02*
X036951Y003723D01*
X036951Y003882D02*
X037047Y003882D01*
X037047Y004040D02*
X036951Y004040D01*
X037140Y004357D02*
X036611Y004357D01*
X036611Y004199D02*
X037882Y004199D01*
X036933Y004516D02*
X036611Y004516D01*
X036611Y004674D02*
X036725Y004674D01*
X036651Y004833D02*
X036615Y004833D01*
X036611Y004991D02*
X036651Y004991D01*
X036724Y005150D02*
X036522Y005150D01*
X036598Y005308D02*
X036711Y005308D01*
X036711Y005467D02*
X036599Y005467D01*
X036576Y005625D02*
X036764Y005625D01*
X036994Y005625D02*
X036994Y005625D01*
X036994Y005467D02*
X036994Y005467D01*
X036256Y004907D02*
X036251Y004902D01*
X035104Y004674D02*
X034965Y004674D01*
X034946Y004833D02*
X034939Y004833D01*
X034625Y005663D02*
X034125Y005663D01*
X034105Y003565D02*
X034145Y003565D01*
X034145Y003406D02*
X034105Y003406D01*
X034105Y003248D02*
X034145Y003248D01*
X037390Y003248D02*
X038918Y003248D01*
X038759Y003406D02*
X037435Y003406D01*
X037435Y003565D02*
X038685Y003565D01*
X038685Y003723D02*
X037435Y003723D01*
X038625Y004833D02*
X038625Y004833D01*
X038504Y004991D02*
X038746Y004991D01*
X038905Y005150D02*
X038345Y005150D01*
X041125Y005663D02*
X041625Y005663D01*
X041894Y005942D02*
X042936Y005942D01*
X042936Y005784D02*
X042013Y005784D01*
X042172Y005625D02*
X042936Y005625D01*
X042913Y005467D02*
X042330Y005467D01*
X042489Y005308D02*
X042914Y005308D01*
X043256Y004907D02*
X043251Y004902D01*
X043611Y004674D02*
X043725Y004674D01*
X043611Y004516D02*
X043933Y004516D01*
X042104Y004674D02*
X041965Y004674D01*
X041946Y004833D02*
X041939Y004833D01*
X041751Y006101D02*
X042936Y006101D01*
X041145Y003565D02*
X041105Y003565D01*
X041105Y003406D02*
X041145Y003406D01*
X041145Y003248D02*
X041105Y003248D01*
X039312Y009112D02*
X038938Y009112D01*
X039097Y009271D02*
X039153Y009271D01*
X038625Y009563D02*
X039125Y010063D01*
X038153Y009271D02*
X038097Y009271D01*
X037938Y009112D02*
X038312Y009112D01*
X026312Y009112D02*
X025853Y009112D01*
X025645Y009112D02*
X025605Y009112D01*
X025605Y009271D02*
X025645Y009271D01*
X025645Y009429D02*
X025605Y009429D01*
X025397Y009112D02*
X024938Y009112D01*
X025097Y009271D02*
X025238Y009271D01*
X024312Y009112D02*
X023938Y009112D01*
X024097Y009271D02*
X024153Y009271D01*
X023312Y009112D02*
X022938Y009112D01*
X023097Y009271D02*
X023153Y009271D01*
X026012Y009271D02*
X026153Y009271D01*
X025645Y027683D02*
X025605Y027683D01*
X025605Y028143D01*
X025558Y028143D01*
X025805Y028390D01*
X025805Y028367D01*
X025804Y028307D01*
X025805Y028303D01*
X025805Y028143D01*
X025645Y028143D01*
X025645Y027683D01*
X025645Y027815D02*
X025605Y027815D01*
X025605Y027974D02*
X025645Y027974D01*
X025645Y028132D02*
X025605Y028132D01*
X025706Y028291D02*
X025805Y028291D01*
X030325Y028363D02*
X030325Y036863D01*
X034445Y028490D02*
X034792Y028143D01*
X034645Y028143D01*
X034645Y027683D01*
X034605Y027683D01*
X034605Y028143D01*
X034445Y028143D01*
X034445Y028490D01*
X034445Y028449D02*
X034486Y028449D01*
X034445Y028291D02*
X034644Y028291D01*
X034645Y028132D02*
X034605Y028132D01*
X034605Y027974D02*
X034645Y027974D01*
X034645Y027815D02*
X034605Y027815D01*
X056655Y041129D02*
X003595Y041129D01*
D27*
X017425Y036763D03*
X017925Y036563D03*
X018425Y036763D03*
X018925Y036563D03*
X019425Y036763D03*
X019925Y036563D03*
X020925Y036563D03*
X021425Y036863D03*
X021925Y036563D03*
X022425Y036863D03*
X022925Y036563D03*
X023425Y036763D03*
X024325Y036563D03*
X024825Y036863D03*
X025325Y036563D03*
X025825Y036863D03*
X026325Y036563D03*
X026925Y036863D03*
X027825Y036563D03*
X028325Y036863D03*
X028825Y036563D03*
X029325Y036863D03*
X029825Y036563D03*
X030325Y036863D03*
X031325Y036563D03*
X031925Y036863D03*
X032425Y036563D03*
X032925Y036863D03*
X033425Y036563D03*
X033925Y036863D03*
X034925Y036563D03*
X035425Y036863D03*
X035925Y036563D03*
X036425Y036863D03*
X036925Y036563D03*
X037425Y036863D03*
X038425Y036563D03*
X038925Y036863D03*
X039325Y036563D03*
X039825Y036763D03*
X040325Y036563D03*
X040925Y036763D03*
X042325Y036763D03*
X042825Y036563D03*
X015125Y015163D03*
X011325Y012163D03*
X016025Y010063D03*
X007625Y005163D03*
X050925Y006063D03*
D28*
X048125Y007663D03*
X046125Y007663D03*
X044125Y007663D03*
X042125Y007663D03*
X040125Y007663D03*
X038125Y007663D03*
X042125Y009663D03*
X042125Y011663D03*
X044125Y011663D03*
X046125Y011663D03*
X048125Y011663D03*
X048125Y009663D03*
X046125Y009663D03*
X044125Y009663D03*
X044125Y013663D03*
X046125Y013663D03*
X048125Y013663D03*
X048125Y015663D03*
X046125Y015663D03*
X044125Y015663D03*
X042125Y015663D03*
X042125Y017663D03*
X044125Y017663D03*
X046125Y017663D03*
X048125Y017663D03*
X048125Y019663D03*
X046125Y019663D03*
X044125Y019663D03*
X044125Y021663D03*
X046125Y021663D03*
X048125Y021663D03*
X048125Y023663D03*
X046125Y023663D03*
X044125Y023663D03*
X046125Y025663D03*
X048125Y025663D03*
X050125Y025663D03*
X050625Y023663D03*
X050625Y022663D03*
X050625Y021663D03*
X050625Y020663D03*
X055925Y019263D03*
X056525Y019763D03*
X057225Y019763D03*
X058325Y018963D03*
X057725Y018163D03*
X058125Y015563D03*
X057225Y014663D03*
X054125Y010663D03*
X054625Y009663D03*
X055125Y008663D03*
X055125Y007163D03*
X054125Y007163D03*
X057625Y007163D03*
X058625Y007163D03*
X052125Y010663D03*
X042125Y013663D03*
X042125Y019663D03*
X042125Y021663D03*
X046125Y027663D03*
X050125Y029663D03*
X052125Y029663D03*
X050125Y031663D03*
X048125Y031663D03*
X048125Y033663D03*
X046125Y033663D03*
X043925Y036563D03*
X043425Y036763D03*
X041625Y034163D03*
X041625Y033663D03*
X037925Y033663D03*
X037925Y034163D03*
X034425Y034163D03*
X034425Y033663D03*
X030825Y033663D03*
X030825Y034163D03*
X027325Y034163D03*
X027325Y033663D03*
X023825Y033663D03*
X023825Y034163D03*
X018125Y033663D03*
X016125Y033663D03*
X014125Y031663D03*
X012125Y031663D03*
X010125Y031663D03*
X008125Y031663D03*
X006125Y031663D03*
X006125Y033663D03*
X005125Y033463D03*
X008125Y033663D03*
X010125Y033663D03*
X012125Y033663D03*
X012125Y035663D03*
X010125Y035663D03*
X008125Y035663D03*
X008125Y037663D03*
X006125Y037663D03*
X006125Y039663D03*
X008125Y039663D03*
X010125Y039663D03*
X012125Y039663D03*
X014125Y039663D03*
X016125Y039663D03*
X012125Y037663D03*
X010125Y037663D03*
X002125Y027663D03*
X002125Y025663D03*
X004125Y025663D03*
X006125Y025663D03*
X008125Y025663D03*
X009425Y024563D03*
X011125Y025663D03*
X010625Y026163D03*
X011625Y025163D03*
X012125Y024663D03*
X015125Y024163D03*
X015125Y023163D03*
X016125Y021663D03*
X016125Y019663D03*
X014125Y019663D03*
X012125Y019663D03*
X010625Y019163D03*
X010125Y017663D03*
X012125Y017663D03*
X014125Y017663D03*
X016125Y017663D03*
X018125Y017663D03*
X018125Y019663D03*
X018125Y015663D03*
X016125Y015663D03*
X016125Y013663D03*
X018125Y013663D03*
X018125Y011663D03*
X018125Y009663D03*
X010125Y007663D03*
X006125Y007663D03*
X004125Y007663D03*
X002125Y007663D03*
X006125Y005663D03*
X008125Y013663D03*
X008125Y015663D03*
X006125Y017663D03*
X004125Y017663D03*
X002125Y017663D03*
X005625Y021163D03*
X006625Y021163D03*
X008125Y020163D03*
X005625Y022663D03*
X005625Y023663D03*
X006125Y023663D03*
X012125Y021663D03*
X050125Y039663D03*
X052125Y039663D03*
X054125Y039663D03*
X054125Y037663D03*
X052125Y037663D03*
X054125Y035663D03*
X056125Y035663D03*
X058125Y035663D03*
X058125Y033663D03*
X056125Y033663D03*
X058125Y031663D03*
D29*
X057825Y013563D02*
X058525Y013563D01*
X058825Y013263D01*
X058825Y008063D01*
X058525Y007763D01*
X051425Y007763D01*
X050925Y007263D01*
X050925Y006063D01*
X049856Y004907D02*
X049381Y004907D01*
X048625Y005663D01*
X049851Y004902D02*
X049851Y003663D01*
X043251Y003663D02*
X043251Y004902D01*
X043256Y004907D02*
X042381Y004907D01*
X041625Y005663D01*
X036256Y004907D02*
X035381Y004907D01*
X034625Y005663D01*
X036251Y004902D02*
X036251Y003663D01*
X029251Y003663D02*
X029251Y004902D01*
X029256Y004907D02*
X028381Y004907D01*
X027625Y005663D01*
X022256Y004907D02*
X022256Y003668D01*
X022256Y004907D02*
X021881Y004907D01*
X021125Y005663D01*
X020125Y005663D01*
X015256Y004907D02*
X014381Y004907D01*
X013625Y005663D01*
X015251Y004902D02*
X015251Y003663D01*
X008251Y003663D02*
X008251Y004789D01*
X008256Y004907D02*
X007881Y004907D01*
X007625Y005163D01*
X015125Y010953D02*
X016235Y010953D01*
X016275Y010913D02*
X016125Y010763D01*
X016125Y010163D01*
X016275Y010913D02*
X016625Y011263D01*
X006725Y012263D02*
X005225Y013763D01*
X005225Y014563D01*
X009051Y018389D01*
X009051Y019163D01*
X003225Y032663D02*
X002125Y032663D01*
X001425Y033363D01*
X001425Y034712D01*
X001425Y035814D02*
X001474Y035863D01*
X002725Y035863D01*
X002725Y034863D02*
X002574Y034712D01*
X002574Y033463D01*
X003225Y032663D02*
X003725Y033163D01*
X003725Y033463D01*
X005125Y033463D01*
X003725Y033463D02*
X003676Y033463D01*
M02*
